<svg width="64" height="64" viewBox="0 0 64 64" fill="none" xmlns="http://www.w3.org/2000/svg">
<circle cx="32" cy="32" r="31.5" fill="white" stroke="#F3F5FF"/>
<circle cx="32" cy="32" r="28" fill="#E0DEF7"/>
<path d="M40 51C40 49.741 40.5928 48.5554 41.6 47.8L49.6 41.8C51.0222 40.7333 52.9778 40.7333 54.4 41.8L62.4 47.8C63.4072 48.5554 64 49.741 64 51V64H40V51Z" fill="#7065F0"/>
<path d="M50.667 55.332C50.3937 55.332 50.167 55.5587 50.167 55.832V56.832C50.167 57.1054 50.3937 57.332 50.667 57.332C50.9403 57.332 51.167 57.1054 51.167 56.832V55.832C51.167 55.5587 50.9403 55.332 50.667 55.332Z" fill="white"/>
<path d="M58.6663 59.1658H57.9997V51.6525C57.9997 51.2392 57.813 50.8525 57.4863 50.5992L52.8197 46.9725C52.3397 46.5925 51.6597 46.5925 51.1797 46.9725L46.513 50.5992C46.1863 50.8525 45.9997 51.2392 45.9997 51.6458L45.9663 59.1658H45.333C45.0597 59.1658 44.833 59.3858 44.833 59.6658C44.833 59.9392 45.0597 60.1658 45.333 60.1658H58.6663C58.9397 60.1658 59.1663 59.9392 59.1663 59.6658C59.1663 59.3858 58.9397 59.1658 58.6663 59.1658ZM50.9997 49.4992H52.9997C53.273 49.4992 53.4997 49.7258 53.4997 49.9992C53.4997 50.2725 53.273 50.4992 52.9997 50.4992H50.9997C50.7263 50.4992 50.4997 50.2725 50.4997 49.9992C50.4997 49.7258 50.7263 49.4992 50.9997 49.4992ZM55.333 59.1658H48.6663V53.3325C48.6663 52.7792 49.113 52.3325 49.6663 52.3325H54.333C54.8863 52.3325 55.333 52.7792 55.333 53.3325V59.1658Z" fill="white"/>
<g clip-path="url(#clip0_1_37614)">
<g filter="url(#filter0_d_1_37614)">
<path d="M21.333 26.6654V23.9987C21.333 23.2915 21.614 22.6132 22.1141 22.1131C22.6142 21.613 23.2924 21.332 23.9997 21.332H26.6663" stroke="white" stroke-width="2" stroke-linecap="round" stroke-linejoin="round" shape-rendering="crispEdges"/>
</g>
<g filter="url(#filter1_d_1_37614)">
<path d="M21.333 37.332V39.9987C21.333 40.7059 21.614 41.3842 22.1141 41.8843C22.6142 42.3844 23.2924 42.6654 23.9997 42.6654H26.6663" stroke="white" stroke-width="2" stroke-linecap="round" stroke-linejoin="round" shape-rendering="crispEdges"/>
</g>
<path d="M37.333 21.332H39.9997C40.7069 21.332 41.3852 21.613 41.8853 22.1131C42.3854 22.6132 42.6663 23.2915 42.6663 23.9987V26.6654" stroke="white" stroke-width="2" stroke-linecap="round" stroke-linejoin="round"/>
<path d="M37.333 42.6654H39.9997C40.7069 42.6654 41.3852 42.3844 41.8853 41.8843C42.3854 41.3842 42.6663 40.7059 42.6663 39.9987V37.332" stroke="white" stroke-width="2" stroke-linecap="round" stroke-linejoin="round"/>
<path d="M32.0003 40L27.3337 33.3333C26.8844 32.5213 26.6548 31.6062 26.6675 30.6784C26.6802 29.7505 26.9347 28.842 27.406 28.0426C27.8773 27.2433 28.549 26.5807 29.3547 26.1204C30.1605 25.6601 31.0724 25.418 32.0003 25.418C32.9283 25.418 33.8402 25.6601 34.6459 26.1204C35.4516 26.5807 36.1233 27.2433 36.5946 28.0426C37.0659 28.842 37.3205 29.7505 37.3332 30.6784C37.3459 31.6062 37.1162 32.5213 36.667 33.3333L32.0003 40Z" fill="white" stroke="white" stroke-width="2" stroke-linecap="round" stroke-linejoin="round"/>
<path d="M32 30.668V30.6813" stroke="#7065F0" stroke-width="6" stroke-linecap="round" stroke-linejoin="round"/>
</g>
<defs>
<filter id="filter0_d_1_37614" x="18.333" y="18.332" width="15.333" height="15.332" filterUnits="userSpaceOnUse" color-interpolation-filters="sRGB">
<feFlood flood-opacity="0" result="BackgroundImageFix"/>
<feColorMatrix in="SourceAlpha" type="matrix" values="0 0 0 0 0 0 0 0 0 0 0 0 0 0 0 0 0 0 127 0" result="hardAlpha"/>
<feOffset dx="2" dy="2"/>
<feGaussianBlur stdDeviation="2"/>
<feComposite in2="hardAlpha" operator="out"/>
<feColorMatrix type="matrix" values="0 0 0 0 0.439216 0 0 0 0 0.396078 0 0 0 0 0.941176 0 0 0 0.1 0"/>
<feBlend mode="normal" in2="BackgroundImageFix" result="effect1_dropShadow_1_37614"/>
<feBlend mode="normal" in="SourceGraphic" in2="effect1_dropShadow_1_37614" result="shape"/>
</filter>
<filter id="filter1_d_1_37614" x="18.333" y="34.332" width="15.333" height="15.332" filterUnits="userSpaceOnUse" color-interpolation-filters="sRGB">
<feFlood flood-opacity="0" result="BackgroundImageFix"/>
<feColorMatrix in="SourceAlpha" type="matrix" values="0 0 0 0 0 0 0 0 0 0 0 0 0 0 0 0 0 0 127 0" result="hardAlpha"/>
<feOffset dx="2" dy="2"/>
<feGaussianBlur stdDeviation="2"/>
<feComposite in2="hardAlpha" operator="out"/>
<feColorMatrix type="matrix" values="0 0 0 0 0.439216 0 0 0 0 0.396078 0 0 0 0 0.941176 0 0 0 0.1 0"/>
<feBlend mode="normal" in2="BackgroundImageFix" result="effect1_dropShadow_1_37614"/>
<feBlend mode="normal" in="SourceGraphic" in2="effect1_dropShadow_1_37614" result="shape"/>
</filter>
<clipPath id="clip0_1_37614">
<rect width="32" height="32" fill="white" transform="translate(16 16)"/>
</clipPath>
</defs>
</svg>
