<svg width="72" height="72" viewBox="0 0 72 72" fill="none" xmlns="http://www.w3.org/2000/svg">
<g filter="url(#filter0_d_1_24585)">
<circle cx="36" cy="32" r="31.5" fill="white" stroke="#F3F5FF"/>
<circle cx="36" cy="32" r="28" fill="#E0DEF7"/>
<path d="M44 51C44 49.741 44.5928 48.5554 45.6 47.8L53.6 41.8C55.0222 40.7333 56.9778 40.7333 58.4 41.8L66.4 47.8C67.4072 48.5554 68 49.741 68 51V64H44V51Z" fill="#7065F0"/>
<path d="M54.667 55.332C54.3937 55.332 54.167 55.5587 54.167 55.832V56.832C54.167 57.1054 54.3937 57.332 54.667 57.332C54.9403 57.332 55.167 57.1054 55.167 56.832V55.832C55.167 55.5587 54.9403 55.332 54.667 55.332Z" fill="white"/>
<path d="M62.6663 59.1658H61.9997V51.6525C61.9997 51.2392 61.813 50.8525 61.4863 50.5992L56.8197 46.9725C56.3397 46.5925 55.6597 46.5925 55.1797 46.9725L50.513 50.5992C50.1863 50.8525 49.9997 51.2392 49.9997 51.6458L49.9663 59.1658H49.333C49.0597 59.1658 48.833 59.3858 48.833 59.6658C48.833 59.9392 49.0597 60.1658 49.333 60.1658H62.6663C62.9397 60.1658 63.1663 59.9392 63.1663 59.6658C63.1663 59.3858 62.9397 59.1658 62.6663 59.1658ZM54.9997 49.4992H56.9997C57.273 49.4992 57.4997 49.7258 57.4997 49.9992C57.4997 50.2725 57.273 50.4992 56.9997 50.4992H54.9997C54.7263 50.4992 54.4997 50.2725 54.4997 49.9992C54.4997 49.7258 54.7263 49.4992 54.9997 49.4992ZM59.333 59.1658H52.6663V53.3325C52.6663 52.7792 53.113 52.3325 53.6663 52.3325H58.333C58.8863 52.3325 59.333 52.7792 59.333 53.3325V59.1658Z" fill="white"/>
<g clip-path="url(#clip0_1_24585)">
<g filter="url(#filter1_d_1_24585)">
<path d="M25.333 26.6654V23.9987C25.333 23.2915 25.614 22.6132 26.1141 22.1131C26.6142 21.613 27.2924 21.332 27.9997 21.332H30.6663" stroke="white" stroke-width="2" stroke-linecap="round" stroke-linejoin="round" shape-rendering="crispEdges"/>
</g>
<g filter="url(#filter2_d_1_24585)">
<path d="M25.333 37.332V39.9987C25.333 40.7059 25.614 41.3842 26.1141 41.8843C26.6142 42.3844 27.2924 42.6654 27.9997 42.6654H30.6663" stroke="white" stroke-width="2" stroke-linecap="round" stroke-linejoin="round" shape-rendering="crispEdges"/>
</g>
<path d="M41.333 21.332H43.9997C44.7069 21.332 45.3852 21.613 45.8853 22.1131C46.3854 22.6132 46.6663 23.2915 46.6663 23.9987V26.6654" stroke="white" stroke-width="2" stroke-linecap="round" stroke-linejoin="round"/>
<path d="M41.333 42.6654H43.9997C44.7069 42.6654 45.3852 42.3844 45.8853 41.8843C46.3854 41.3842 46.6663 40.7059 46.6663 39.9987V37.332" stroke="white" stroke-width="2" stroke-linecap="round" stroke-linejoin="round"/>
<path d="M36.0003 40L31.3337 33.3333C30.8844 32.5213 30.6548 31.6062 30.6675 30.6784C30.6802 29.7505 30.9347 28.842 31.406 28.0426C31.8773 27.2433 32.549 26.5807 33.3547 26.1204C34.1605 25.6601 35.0724 25.418 36.0003 25.418C36.9283 25.418 37.8402 25.6601 38.6459 26.1204C39.4516 26.5807 40.1233 27.2433 40.5946 28.0426C41.0659 28.842 41.3205 29.7505 41.3332 30.6784C41.3459 31.6062 41.1162 32.5213 40.667 33.3333L36.0003 40Z" fill="white" stroke="white" stroke-width="2" stroke-linecap="round" stroke-linejoin="round"/>
<path d="M36 30.668V30.6813" stroke="#7065F0" stroke-width="6" stroke-linecap="round" stroke-linejoin="round"/>
</g>
</g>
<defs>
<filter id="filter0_d_1_24585" x="0" y="0" width="72" height="72" filterUnits="userSpaceOnUse" color-interpolation-filters="sRGB">
<feFlood flood-opacity="0" result="BackgroundImageFix"/>
<feColorMatrix in="SourceAlpha" type="matrix" values="0 0 0 0 0 0 0 0 0 0 0 0 0 0 0 0 0 0 127 0" result="hardAlpha"/>
<feOffset dy="4"/>
<feGaussianBlur stdDeviation="2"/>
<feComposite in2="hardAlpha" operator="out"/>
<feColorMatrix type="matrix" values="0 0 0 0 0 0 0 0 0 0 0 0 0 0 0 0 0 0 0.25 0"/>
<feBlend mode="normal" in2="BackgroundImageFix" result="effect1_dropShadow_1_24585"/>
<feBlend mode="normal" in="SourceGraphic" in2="effect1_dropShadow_1_24585" result="shape"/>
</filter>
<filter id="filter1_d_1_24585" x="22.333" y="18.332" width="15.333" height="15.332" filterUnits="userSpaceOnUse" color-interpolation-filters="sRGB">
<feFlood flood-opacity="0" result="BackgroundImageFix"/>
<feColorMatrix in="SourceAlpha" type="matrix" values="0 0 0 0 0 0 0 0 0 0 0 0 0 0 0 0 0 0 127 0" result="hardAlpha"/>
<feOffset dx="2" dy="2"/>
<feGaussianBlur stdDeviation="2"/>
<feComposite in2="hardAlpha" operator="out"/>
<feColorMatrix type="matrix" values="0 0 0 0 0.439216 0 0 0 0 0.396078 0 0 0 0 0.941176 0 0 0 0.1 0"/>
<feBlend mode="normal" in2="BackgroundImageFix" result="effect1_dropShadow_1_24585"/>
<feBlend mode="normal" in="SourceGraphic" in2="effect1_dropShadow_1_24585" result="shape"/>
</filter>
<filter id="filter2_d_1_24585" x="22.333" y="34.332" width="15.333" height="15.332" filterUnits="userSpaceOnUse" color-interpolation-filters="sRGB">
<feFlood flood-opacity="0" result="BackgroundImageFix"/>
<feColorMatrix in="SourceAlpha" type="matrix" values="0 0 0 0 0 0 0 0 0 0 0 0 0 0 0 0 0 0 127 0" result="hardAlpha"/>
<feOffset dx="2" dy="2"/>
<feGaussianBlur stdDeviation="2"/>
<feComposite in2="hardAlpha" operator="out"/>
<feColorMatrix type="matrix" values="0 0 0 0 0.439216 0 0 0 0 0.396078 0 0 0 0 0.941176 0 0 0 0.1 0"/>
<feBlend mode="normal" in2="BackgroundImageFix" result="effect1_dropShadow_1_24585"/>
<feBlend mode="normal" in="SourceGraphic" in2="effect1_dropShadow_1_24585" result="shape"/>
</filter>
<clipPath id="clip0_1_24585">
<rect width="32" height="32" fill="white" transform="translate(20 16)"/>
</clipPath>
</defs>
</svg>
