<svg width="16" height="14" viewBox="0 0 16 14" fill="none" xmlns="http://www.w3.org/2000/svg">
<path d="M1.93845 1.65208L1.93846 1.65208C2.23407 1.33723 2.5833 1.08927 2.9653 0.920745C3.34722 0.752257 3.75534 0.666016 4.16665 0.666016C4.57797 0.666016 4.98609 0.752257 5.368 0.920745C5.75001 1.08928 6.09923 1.33723 6.39485 1.65208L6.75936 1.30984L6.39485 1.65208L7.46876 2.79587C7.56327 2.89653 7.6952 2.95362 7.83327 2.95362C7.97135 2.95362 8.10328 2.89653 8.19779 2.79587L9.2717 1.65208C9.86834 1.01661 10.6706 0.666026 11.4999 0.666026C12.3292 0.666026 13.1314 1.01661 13.7281 1.65208L14.0926 1.30984L13.7281 1.65208C14.3257 2.28861 14.6665 3.15831 14.6665 4.07124C14.6665 4.98417 14.3257 5.85386 13.7281 6.4904L7.83327 12.7688L1.93846 6.4904L1.57394 6.83264L1.93845 6.49039C1.64277 6.17548 1.40669 5.79994 1.24511 5.38447C1.08351 4.96896 1 4.52264 1 4.07124C1 3.61984 1.08351 3.17351 1.24511 2.75801C1.40669 2.34254 1.64277 1.967 1.93845 1.65208Z" stroke="#595ad4" stroke-linecap="round" stroke-linejoin="round"/>
</svg>
