<svg width="30" height="15" viewBox="0 0 30 15" fill="none" xmlns="http://www.w3.org/2000/svg">
<path d="M1 10.3421L1.47704 9.52382C1.95407 8.70559 2.8684 7.06912 3.82247 7.61461C4.73679 8.1601 5.69086 10.8875 6.60518 11.7058C7.55926 12.524 8.47358 11.433 9.42765 10.8875C10.342 10.3421 11.296 10.3421 12.2104 8.97833C13.1644 7.61461 14.0788 4.88716 15.0328 4.61441C15.9472 4.34167 16.9012 6.52363 17.8553 7.34186C18.7696 8.1601 19.7237 7.61461 20.638 7.06912C21.5921 6.52363 22.5064 5.97814 23.4605 6.79637C24.3748 7.61461 25.3289 9.79656 26.2432 10.0693C27.1973 10.3421 28.0459 3.63647 29 2" stroke="#fff" stroke-width="2"/>
</svg>
