<svg width="64" height="64" viewBox="0 0 64 64" fill="none" xmlns="http://www.w3.org/2000/svg">
<circle cx="32" cy="32" r="31.5" fill="white" stroke="#F3F5FF"/>
<circle cx="32" cy="32" r="28" fill="#E0DEF7"/>
<rect x="40" y="40" width="24" height="24" rx="12" fill="#7065F0"/>
<path d="M52.0007 45.332C48.3207 45.332 45.334 48.3187 45.334 51.9987C45.334 55.6787 48.3207 58.6654 52.0007 58.6654C55.6807 58.6654 58.6673 55.6787 58.6673 51.9987C58.6673 48.3187 55.6807 45.332 52.0007 45.332ZM49.8207 49.1054C50.3607 49.1054 50.8073 49.5454 50.8073 50.092C50.8073 50.632 50.3673 51.0787 49.8207 51.0787C49.2807 51.0787 48.834 50.6387 48.834 50.092C48.834 49.5454 49.274 49.1054 49.8207 49.1054ZM49.9007 54.532C49.8007 54.632 49.674 54.6787 49.5473 54.6787C49.4207 54.6787 49.294 54.632 49.194 54.532C49.0007 54.3387 49.0007 54.0187 49.194 53.8254L53.5607 49.4587C53.754 49.2654 54.074 49.2654 54.2673 49.4587C54.4607 49.652 54.4607 49.972 54.2673 50.1654L49.9007 54.532ZM54.1807 54.892C53.6407 54.892 53.194 54.452 53.194 53.9054C53.194 53.3654 53.634 52.9187 54.1807 52.9187C54.7207 52.9187 55.1673 53.3587 55.1673 53.9054C55.1673 54.452 54.7273 54.892 54.1807 54.892Z" fill="white"/>
<g clip-path="url(#clip0_1_24560)">
<g filter="url(#filter0_d_1_24560)">
<path d="M22.667 44V22.6667C22.667 21.9594 22.9479 21.2811 23.448 20.781C23.9481 20.281 24.6264 20 25.3337 20H38.667C39.3742 20 40.0525 20.281 40.5526 20.781C41.0527 21.2811 41.3337 21.9594 41.3337 22.6667V44L37.3337 41.3333L34.667 44L32.0003 41.3333L29.3337 44L26.667 41.3333L22.667 44Z" fill="white"/>
<path d="M22.667 44V22.6667C22.667 21.9594 22.9479 21.2811 23.448 20.781C23.9481 20.281 24.6264 20 25.3337 20H38.667C39.3742 20 40.0525 20.281 40.5526 20.781C41.0527 21.2811 41.3337 21.9594 41.3337 22.6667V44L37.3337 41.3333L34.667 44L32.0003 41.3333L29.3337 44L26.667 41.3333L22.667 44Z" stroke="white" stroke-width="2" stroke-linecap="round" stroke-linejoin="round"/>
</g>
<g filter="url(#filter1_d_1_24560)">
<path d="M34.6663 26.668H31.333C30.8026 26.668 30.2939 26.8787 29.9188 27.2538C29.5437 27.6288 29.333 28.1375 29.333 28.668C29.333 29.1984 29.5437 29.7071 29.9188 30.0822C30.2939 30.4573 30.8026 30.668 31.333 30.668H32.6663C33.1968 30.668 33.7055 30.8787 34.0806 31.2538C34.4556 31.6288 34.6663 32.1375 34.6663 32.668C34.6663 33.1984 34.4556 33.7071 34.0806 34.0822C33.7055 34.4573 33.1968 34.668 32.6663 34.668H29.333M31.9997 34.668V36.668M31.9997 24.668V26.668" stroke="#7065F0" stroke-width="2" stroke-linecap="round" stroke-linejoin="round" shape-rendering="crispEdges"/>
</g>
</g>
<defs>
<filter id="filter0_d_1_24560" x="19.667" y="17" width="28.667" height="34" filterUnits="userSpaceOnUse" color-interpolation-filters="sRGB">
<feFlood flood-opacity="0" result="BackgroundImageFix"/>
<feColorMatrix in="SourceAlpha" type="matrix" values="0 0 0 0 0 0 0 0 0 0 0 0 0 0 0 0 0 0 127 0" result="hardAlpha"/>
<feOffset dx="2" dy="2"/>
<feGaussianBlur stdDeviation="2"/>
<feComposite in2="hardAlpha" operator="out"/>
<feColorMatrix type="matrix" values="0 0 0 0 0.439216 0 0 0 0 0.396078 0 0 0 0 0.941176 0 0 0 0.1 0"/>
<feBlend mode="normal" in2="BackgroundImageFix" result="effect1_dropShadow_1_24560"/>
<feBlend mode="normal" in="SourceGraphic" in2="effect1_dropShadow_1_24560" result="shape"/>
</filter>
<filter id="filter1_d_1_24560" x="26.333" y="21.668" width="15.333" height="22" filterUnits="userSpaceOnUse" color-interpolation-filters="sRGB">
<feFlood flood-opacity="0" result="BackgroundImageFix"/>
<feColorMatrix in="SourceAlpha" type="matrix" values="0 0 0 0 0 0 0 0 0 0 0 0 0 0 0 0 0 0 127 0" result="hardAlpha"/>
<feOffset dx="2" dy="2"/>
<feGaussianBlur stdDeviation="2"/>
<feComposite in2="hardAlpha" operator="out"/>
<feColorMatrix type="matrix" values="0 0 0 0 0.439216 0 0 0 0 0.396078 0 0 0 0 0.941176 0 0 0 0.1 0"/>
<feBlend mode="normal" in2="BackgroundImageFix" result="effect1_dropShadow_1_24560"/>
<feBlend mode="normal" in="SourceGraphic" in2="effect1_dropShadow_1_24560" result="shape"/>
</filter>
<clipPath id="clip0_1_24560">
<rect width="32" height="32" fill="white" transform="translate(16 16)"/>
</clipPath>
</defs>
</svg>
