<svg width="20" height="20" viewBox="0 0 20 20" fill="none" xmlns="http://www.w3.org/2000/svg">
<g clip-path="url(#clip0_1_55289)">
<path d="M1.66667 11.6673C2.58714 11.6673 3.33333 10.9211 3.33333 10.0007C3.33333 9.08018 2.58714 8.33398 1.66667 8.33398C0.746192 8.33398 0 9.08018 0 10.0007C0 10.9211 0.746192 11.6673 1.66667 11.6673Z" fill="black"/>
<path d="M9.99992 11.6673C10.9204 11.6673 11.6666 10.9211 11.6666 10.0007C11.6666 9.08018 10.9204 8.33398 9.99992 8.33398C9.07945 8.33398 8.33325 9.08018 8.33325 10.0007C8.33325 10.9211 9.07945 11.6673 9.99992 11.6673Z" fill="black"/>
<path d="M18.3334 11.6673C19.2539 11.6673 20.0001 10.9211 20.0001 10.0007C20.0001 9.08018 19.2539 8.33398 18.3334 8.33398C17.4129 8.33398 16.6667 9.08018 16.6667 10.0007C16.6667 10.9211 17.4129 11.6673 18.3334 11.6673Z" fill="black"/>
</g>
<defs>
<clipPath id="clip0_1_55289">
<rect width="20" height="20" fill="white"/>
</clipPath>
</defs>
</svg>
