<svg width="12" height="7" viewBox="0 0 12 7" fill="none" xmlns="http://www.w3.org/2000/svg">
<mask id="path-1-inside-1_1_24513" fill="white">
<path d="M6.00009 6.5861C5.67156 6.58669 5.34615 6.52252 5.04244 6.39726C4.73873 6.272 4.46268 6.08811 4.23009 5.85611L0.145093 1.77111C0.0509408 1.67696 -0.00195312 1.54926 -0.00195312 1.41611C-0.00195313 1.28296 0.0509408 1.15526 0.145093 1.06111C0.239244 0.966956 0.366942 0.914062 0.500092 0.914062C0.633243 0.914062 0.76094 0.966956 0.855092 1.06111L4.94009 5.14611C5.22134 5.42701 5.60259 5.58479 6.00009 5.58479C6.39759 5.58479 6.77884 5.42701 7.06009 5.14611L11.1451 1.06111C11.2392 0.966956 11.3669 0.914063 11.5001 0.914062C11.6332 0.914062 11.7609 0.966956 11.8551 1.06111C11.9492 1.15526 12.0021 1.28296 12.0021 1.41611C12.0021 1.54926 11.9492 1.67696 11.8551 1.77111L7.77009 5.85611C7.53749 6.08811 7.26145 6.272 6.95774 6.39726C6.65403 6.52252 6.32861 6.58669 6.00009 6.5861Z"/>
</mask>
<path d="M6.00009 6.5861C5.67156 6.58669 5.34615 6.52252 5.04244 6.39726C4.73873 6.272 4.46268 6.08811 4.23009 5.85611L0.145093 1.77111C0.0509408 1.67696 -0.00195312 1.54926 -0.00195312 1.41611C-0.00195313 1.28296 0.0509408 1.15526 0.145093 1.06111C0.239244 0.966956 0.366942 0.914062 0.500092 0.914062C0.633243 0.914062 0.76094 0.966956 0.855092 1.06111L4.94009 5.14611C5.22134 5.42701 5.60259 5.58479 6.00009 5.58479C6.39759 5.58479 6.77884 5.42701 7.06009 5.14611L11.1451 1.06111C11.2392 0.966956 11.3669 0.914063 11.5001 0.914062C11.6332 0.914062 11.7609 0.966956 11.8551 1.06111C11.9492 1.15526 12.0021 1.28296 12.0021 1.41611C12.0021 1.54926 11.9492 1.67696 11.8551 1.77111L7.77009 5.85611C7.53749 6.08811 7.26145 6.272 6.95774 6.39726C6.65403 6.52252 6.32861 6.58669 6.00009 6.5861Z" fill="#192024"/>
<path d="M4.23009 5.85611L3.16943 6.91677L3.17077 6.9181L4.23009 5.85611ZM0.145093 1.77111L1.20575 0.710448L1.20575 0.710448L0.145093 1.77111ZM-0.00195312 1.41611H-1.50195H-0.00195312ZM0.855092 1.06111L1.91575 0.000448167L1.91575 0.000448108L0.855092 1.06111ZM4.94009 5.14611L3.87943 6.20677L3.88009 6.20743L4.94009 5.14611ZM7.06009 5.14611L8.12009 6.20743L8.12075 6.20677L7.06009 5.14611ZM11.1451 1.06111L12.2057 2.12177V2.12177L11.1451 1.06111ZM11.5001 0.914062V-0.585938V0.914062ZM12.0021 1.41611H10.5021H12.0021ZM11.8551 1.77111L10.7944 0.710448V0.710448L11.8551 1.77111ZM7.77009 5.85611L8.82941 6.9181L8.83075 6.91677L7.77009 5.85611ZM5.99741 5.08611C5.866 5.08634 5.73583 5.06067 5.61435 5.01057L4.47052 7.78396C4.95646 7.98437 5.47713 8.08704 6.00277 8.0861L5.99741 5.08611ZM5.61435 5.01057C5.49286 4.96047 5.38245 4.88691 5.28941 4.79411L3.17077 6.9181C3.54292 7.28932 3.98459 7.58354 4.47052 7.78396L5.61435 5.01057ZM5.29075 4.79545L1.20575 0.710448L-0.915568 2.83177L3.16943 6.91677L5.29075 4.79545ZM1.20575 0.710448C1.39291 0.897601 1.49805 1.15143 1.49805 1.41611H-1.50195C-1.50195 1.94708 -1.29102 2.45631 -0.915568 2.83177L1.20575 0.710448ZM1.49805 1.41611C1.49805 1.68078 1.39291 1.93462 1.20575 2.12177L-0.915568 0.000448108C-1.29102 0.375905 -1.50195 0.885133 -1.50195 1.41611H1.49805ZM1.20575 2.12177C1.0186 2.30892 0.764767 2.41406 0.500092 2.41406V-0.585938C-0.0308834 -0.585938 -0.540111 -0.375008 -0.915568 0.000448108L1.20575 2.12177ZM0.500092 2.41406C0.235418 2.41406 -0.0184155 2.30892 -0.205568 2.12177L1.91575 0.000448108C1.5403 -0.375008 1.03107 -0.585938 0.500092 -0.585938V2.41406ZM-0.205568 2.12177L3.87943 6.20677L6.00075 4.08545L1.91575 0.000448167L-0.205568 2.12177ZM3.88009 6.20743C4.44259 6.76923 5.20509 7.08479 6.00009 7.08479V4.08479L6.00009 4.08479L3.88009 6.20743ZM6.00009 7.08479C6.79509 7.08479 7.55759 6.76923 8.12009 6.20743L6.00009 4.08479L6.00009 4.08479V7.08479ZM8.12075 6.20677L12.2057 2.12177L10.0844 0.000448108L5.99943 4.08545L8.12075 6.20677ZM12.2057 2.12177C12.0186 2.30892 11.7648 2.41406 11.5001 2.41406V-0.585938C10.9691 -0.585938 10.4599 -0.375007 10.0844 0.000448108L12.2057 2.12177ZM11.5001 2.41406C11.2354 2.41406 10.9816 2.30892 10.7944 2.12177L12.9157 0.000448108C12.5403 -0.375007 12.0311 -0.585938 11.5001 -0.585938V2.41406ZM10.7944 2.12177C10.6073 1.93462 10.5021 1.68078 10.5021 1.41611H13.5021C13.5021 0.885131 13.2912 0.375903 12.9157 0.000448108L10.7944 2.12177ZM10.5021 1.41611C10.5021 1.15143 10.6073 0.897599 10.7944 0.710448L12.9157 2.83177C13.2912 2.45631 13.5021 1.94709 13.5021 1.41611H10.5021ZM10.7944 0.710448L6.70943 4.79545L8.83075 6.91677L12.9157 2.83177L10.7944 0.710448ZM6.71077 4.79411C6.61773 4.88691 6.50731 4.96047 6.38583 5.01057L7.52965 7.78396C8.01559 7.58354 8.45726 7.28932 8.82941 6.9181L6.71077 4.79411ZM6.38583 5.01057C6.26434 5.06067 6.13418 5.08634 6.00277 5.08611L5.99741 8.0861C6.52305 8.08704 7.04372 7.98437 7.52965 7.78396L6.38583 5.01057Z" fill="black" mask="url(#path-1-inside-1_1_24513)"/>
</svg>
