<?xml version="1.0" encoding="utf-8"?>
<!-- Generator: Adobe Illustrator 21.0.2, SVG Export Plug-In . SVG Version: 6.00 Build 0)  -->
<svg version="1.1" id="Layer_1" xmlns="http://www.w3.org/2000/svg" xmlns:xlink="http://www.w3.org/1999/xlink" x="0px" y="0px"
	 viewBox="0 0 21 17.2" style="enable-background:new 0 0 21 17.2;" xml:space="preserve">
<style type="text/css">
	.st0{fill:#595AD4;}
</style>
<path class="st0" d="M20.5,6.1l-4.4-5.4c-0.7-0.8-1.9-0.9-2.7-0.3l-1.3,1L9.8,1.9L9.1,1.1c-0.7-0.8-1.9-1-2.7-0.3L0.8,5.1
	C0.3,5.5,0.1,5.9,0,6.4C0,6.9,0.1,7.4,0.4,7.8L0.5,8C1,8.6,1.7,9.5,4.7,13.3l0,0l2.6,3.3C7.6,17,8,17.2,8.5,17.2
	c0.3,0,0.7-0.1,1-0.3l0.4-0.3c0.2-0.2,0.4-0.5,0.5-0.8c0.4,0,0.8-0.1,1.1-0.3l0.4-0.3c0.2-0.2,0.4-0.5,0.5-0.8
	c0.4,0.1,0.8-0.1,1.1-0.3l0.4-0.3c0.2-0.2,0.4-0.5,0.5-0.8c0.4,0.1,0.8-0.1,1.1-0.3l0.4-0.3c0.2-0.2,0.3-0.3,0.4-0.6
	c3.1-2.4,3.8-3.1,4-3.2c0,0,0.1-0.1,0.1-0.1l0,0C21.1,8,21.1,6.9,20.5,6.1z M14.4,8.3C14.4,8.3,14.4,8.3,14.4,8.3
	c-0.1-0.1-0.5-0.6-2-2.4c-0.3-0.4-0.7-0.6-1.1-0.6c-0.5,0-0.9,0.1-1.2,0.4C9.8,5.8,9.7,6.1,9.6,6.4L8.9,8.2C8.8,8.4,8.7,8.5,8.5,8.6
	c-0.2,0.1-0.4,0.1-0.6,0C7.6,8.5,7.5,8.2,7.5,7.9l0.2-3.8c0-0.3,0.3-0.6,0.6-0.7l3.8-0.8l5.5,6.8l-1.4,1.1c-1.1-1.3-1.5-1.9-1.7-2.1
	l0,0L14.4,8.3z M15.1,11.6l-0.4,0.3c-0.2,0.1-0.4,0.1-0.5,0L12.9,10c-0.2-0.3-0.5-0.3-0.8-0.2c-0.3,0.2-0.3,0.5-0.1,0.8l1.2,1.7
	c0.1,0.2,0.1,0.4-0.1,0.6l-0.4,0.3c-0.2,0.1-0.4,0.1-0.5,0L11,11.5c-0.1-0.1-0.2-0.2-0.4-0.2c-0.2,0-0.3,0-0.4,0.1
	c-0.1,0.1-0.2,0.2-0.2,0.4c0,0.2,0,0.3,0.1,0.4l1.1,1.6c0.1,0.2,0.1,0.4-0.1,0.6l-0.4,0.3c-0.2,0.1-0.4,0.1-0.5,0L9.1,13
	c-0.2-0.3-0.6-0.3-0.8-0.1c-0.2,0.2-0.3,0.5-0.1,0.8l1,1.5c0.1,0.2,0.1,0.5-0.1,0.6L8.7,16c-0.2,0.1-0.4,0.1-0.5-0.1l-2.5-3.3L2.8,9
	l3.7-2.8L6.3,7.8c0,0.5,0.1,1,0.5,1.4c0.3,0.4,0.8,0.6,1.3,0.6c0.8,0,1.6-0.4,1.9-1.2l0.7-1.8c0.1-0.3,0.4-0.4,0.7-0.3
	c0.1,0,0.2,0.1,0.2,0.2l3.7,4.5C15.3,11.3,15.3,11.5,15.1,11.6L15.1,11.6z M8.1,2.3C7.2,2.4,6.6,3.2,6.6,4l0,0.6L2.1,8.1L1.3,7.1
	C1.2,7,1.1,6.8,1.2,6.6c0-0.2,0.1-0.4,0.3-0.5l5.7-4.4C7.5,1.4,8,1.5,8.2,1.8l0.3,0.4L8.1,2.3z M19.5,7.9l-0.9,0.8l-5.4-6.6l0.9-0.8
	c0.3-0.3,0.8-0.2,1.1,0.1l4.4,5.4C19.9,7.2,19.8,7.6,19.5,7.9z"/>
</svg>
