<svg width="16" height="18" viewBox="0 0 16 18" fill="none" xmlns="http://www.w3.org/2000/svg">
<path d="M15.8773 7.05362V13.6004C15.8763 14.536 15.5275 15.4329 14.9074 16.0945C14.2873 16.756 13.4465 17.1282 12.5696 17.1293H11.908C11.7325 17.1293 11.5643 17.0549 11.4402 16.9226C11.3161 16.7902 11.2464 16.6107 11.2464 16.4235C11.2464 16.2363 11.3161 16.0568 11.4402 15.9245C11.5643 15.7921 11.7325 15.7177 11.908 15.7177H12.5696C13.0959 15.7177 13.6007 15.4947 13.9729 15.0976C14.3451 14.7005 14.5542 14.162 14.5542 13.6004V7.05362C14.5542 6.70703 14.4745 6.36573 14.322 6.05969C14.1695 5.75364 13.949 5.49221 13.6797 5.29835L9.04876 1.96497C8.72154 1.72698 8.3347 1.59969 7.93867 1.59969C7.54264 1.59969 7.1558 1.72698 6.82858 1.96497L2.19769 5.29835C1.92839 5.49221 1.70781 5.75364 1.55532 6.05969C1.40283 6.36573 1.3231 6.70703 1.32311 7.05362V13.6004C1.32311 14.162 1.53221 14.7005 1.90441 15.0976C2.27661 15.4947 2.78141 15.7177 3.30778 15.7177H3.96934C4.14479 15.7177 4.31306 15.7921 4.43713 15.9245C4.56119 16.0568 4.63089 16.2363 4.63089 16.4235C4.63089 16.6107 4.56119 16.7902 4.43713 16.9226C4.31306 17.0549 4.14479 17.1293 3.96934 17.1293H3.30778C2.43083 17.1282 1.59009 16.756 0.969989 16.0945C0.349887 15.4329 0.00105305 14.536 2.59136e-06 13.6004V7.05362C-0.000675421 6.4761 0.131704 5.90725 0.385494 5.39712C0.639283 4.88699 1.0067 4.45123 1.45543 4.12817L6.08631 0.794082C6.63227 0.398814 7.27688 0.1875 7.93669 0.1875C8.59649 0.1875 9.2411 0.398814 9.78706 0.794082L14.4179 4.12817C14.8671 4.45106 15.2351 4.88668 15.4896 5.39677C15.744 5.90685 15.8772 6.4758 15.8773 7.05362ZM12.5696 10.7822C12.5713 11.4312 12.4523 12.0741 12.2195 12.6736C11.9867 13.2732 11.6447 13.8175 11.2134 14.2751L8.888 16.7016C8.63344 16.9645 8.293 17.1116 7.93867 17.1116C7.58434 17.1116 7.2439 16.9645 6.98934 16.7016L4.66926 14.2808C4.12969 13.7069 3.73117 12.9999 3.50902 12.2225C3.28687 11.445 3.24795 10.621 3.39572 9.82367C3.54349 9.0263 3.87338 8.28015 4.35615 7.65136C4.83892 7.02256 5.45965 6.53055 6.16331 6.21894C6.86697 5.90734 7.63183 5.78576 8.39007 5.86499C9.14832 5.94422 9.87653 6.22181 10.5101 6.67314C11.1438 7.12448 11.6632 7.73563 12.0225 8.45241C12.3817 9.16918 12.5696 9.96944 12.5696 10.7822ZM11.2464 10.7822C11.2465 10.2019 11.1123 9.63057 10.8559 9.11878C10.5995 8.60698 10.2288 8.17054 9.77649 7.84812C9.32423 7.52569 8.80441 7.32724 8.26308 7.27032C7.72175 7.21341 7.17562 7.29979 6.67306 7.52183C6.1705 7.74387 5.72702 8.0947 5.38191 8.54325C5.03679 8.99181 4.80069 9.52424 4.69452 10.0934C4.58834 10.6625 4.61537 11.2508 4.77321 11.8062C4.93105 12.3615 5.21483 12.8668 5.59941 13.2772L7.91486 15.6923L10.2832 13.2715C10.5899 12.945 10.833 12.557 10.9983 12.1297C11.1636 11.7024 11.248 11.2445 11.2464 10.7822ZM9.92334 10.7773C9.92334 11.1961 9.80694 11.6054 9.58886 11.9536C9.37078 12.3018 9.06082 12.5732 8.69817 12.7335C8.33552 12.8937 7.93647 12.9356 7.55148 12.854C7.16649 12.7723 6.81286 12.5706 6.5353 12.2745C6.25774 11.9784 6.06872 11.6011 5.99214 11.1904C5.91556 10.7797 5.95486 10.3539 6.10508 9.96704C6.25529 9.58014 6.50967 9.24946 6.83605 9.01681C7.16243 8.78415 7.54614 8.65997 7.93867 8.65997C8.46504 8.65997 8.96985 8.88305 9.34204 9.28012C9.71424 9.6772 9.92334 10.2158 9.92334 10.7773Z" fill="#0B26AD"/>
</svg>
