<svg width="64" height="64" viewBox="0 0 64 64" fill="none" xmlns="http://www.w3.org/2000/svg">
<circle cx="32" cy="32" r="31.5" fill="white" stroke="#F3F5FF"/>
<circle cx="32" cy="32" r="28" fill="#E0DEF7"/>
<rect x="40" y="40" width="24" height="24" rx="12" fill="#7065F0"/>
<path d="M51.5003 49.3867V51.2934L50.8269 51.0601C50.4869 50.9401 50.2803 50.8267 50.2803 50.2467C50.2803 49.7734 50.6336 49.3867 51.0669 49.3867H51.5003Z" fill="white"/>
<path d="M53.72 53.7537C53.72 54.227 53.3667 54.6137 52.9333 54.6137H52.5V52.707L53.1733 52.9404C53.5133 53.0604 53.72 53.1737 53.72 53.7537Z" fill="white"/>
<path d="M54.793 45.332H49.2063C46.7797 45.332 45.333 46.7787 45.333 49.2054V54.792C45.333 57.2187 46.7797 58.6654 49.2063 58.6654H54.793C57.2197 58.6654 58.6663 57.2187 58.6663 54.792V49.2054C58.6663 46.7787 57.2197 45.332 54.793 45.332ZM53.5063 51.9987C54.0263 52.1787 54.7197 52.5587 54.7197 53.752C54.7197 54.7787 53.9197 55.612 52.933 55.612H52.4997V55.9987C52.4997 56.272 52.273 56.4987 51.9997 56.4987C51.7263 56.4987 51.4997 56.272 51.4997 55.9987V55.612H51.2597C50.1663 55.612 49.2797 54.6854 49.2797 53.552C49.2797 53.2787 49.4997 53.052 49.7797 53.052C50.053 53.052 50.2797 53.2787 50.2797 53.552C50.2797 54.1387 50.7197 54.612 51.2597 54.612H51.4997V52.352L50.493 51.9987C49.973 51.8187 49.2797 51.4387 49.2797 50.2454C49.2797 49.2187 50.0797 48.3854 51.0663 48.3854H51.4997V47.9987C51.4997 47.7254 51.7263 47.4987 51.9997 47.4987C52.273 47.4987 52.4997 47.7254 52.4997 47.9987V48.3854H52.7397C53.833 48.3854 54.7197 49.312 54.7197 50.4454C54.7197 50.7187 54.4997 50.9454 54.2197 50.9454C53.9463 50.9454 53.7197 50.7187 53.7197 50.4454C53.7197 49.8587 53.2797 49.3854 52.7397 49.3854H52.4997V51.6454L53.5063 51.9987Z" fill="white"/>
<path d="M32.0003 44L45.3337 34.6667H40.0137L40.0003 20H24.0003V34.6667H18.667L32.0003 44Z" fill="white" stroke="white" stroke-width="2" stroke-linecap="round" stroke-linejoin="round"/>
<g filter="url(#filter0_d_1_24574)">
<path d="M28 34.668L36 26.668" stroke="#7065F0" stroke-width="2" stroke-linecap="round" stroke-linejoin="round"/>
</g>
<g filter="url(#filter1_d_1_24574)">
<path d="M28.6667 28.0013C29.0349 28.0013 29.3333 27.7028 29.3333 27.3346C29.3333 26.9664 29.0349 26.668 28.6667 26.668C28.2985 26.668 28 26.9664 28 27.3346C28 27.7028 28.2985 28.0013 28.6667 28.0013Z" fill="#7065F0"/>
<path d="M28.6667 28.0013C29.0349 28.0013 29.3333 27.7028 29.3333 27.3346C29.3333 26.9664 29.0349 26.668 28.6667 26.668C28.2985 26.668 28 26.9664 28 27.3346C28 27.7028 28.2985 28.0013 28.6667 28.0013Z" stroke="#7065F0" stroke-width="2" stroke-linecap="round" stroke-linejoin="round"/>
</g>
<path d="M35.3337 34.6654C35.7018 34.6654 36.0003 34.3669 36.0003 33.9987C36.0003 33.6305 35.7018 33.332 35.3337 33.332C34.9655 33.332 34.667 33.6305 34.667 33.9987C34.667 34.3669 34.9655 34.6654 35.3337 34.6654Z" fill="#7065F0" stroke="#7065F0" stroke-width="2" stroke-linecap="round" stroke-linejoin="round"/>
<defs>
<filter id="filter0_d_1_24574" x="25" y="23.668" width="18" height="18" filterUnits="userSpaceOnUse" color-interpolation-filters="sRGB">
<feFlood flood-opacity="0" result="BackgroundImageFix"/>
<feColorMatrix in="SourceAlpha" type="matrix" values="0 0 0 0 0 0 0 0 0 0 0 0 0 0 0 0 0 0 127 0" result="hardAlpha"/>
<feOffset dx="2" dy="2"/>
<feGaussianBlur stdDeviation="2"/>
<feComposite in2="hardAlpha" operator="out"/>
<feColorMatrix type="matrix" values="0 0 0 0 0.439216 0 0 0 0 0.396078 0 0 0 0 0.941176 0 0 0 0.1 0"/>
<feBlend mode="normal" in2="BackgroundImageFix" result="effect1_dropShadow_1_24574"/>
<feBlend mode="normal" in="SourceGraphic" in2="effect1_dropShadow_1_24574" result="shape"/>
</filter>
<filter id="filter1_d_1_24574" x="25" y="23.668" width="11.333" height="11.332" filterUnits="userSpaceOnUse" color-interpolation-filters="sRGB">
<feFlood flood-opacity="0" result="BackgroundImageFix"/>
<feColorMatrix in="SourceAlpha" type="matrix" values="0 0 0 0 0 0 0 0 0 0 0 0 0 0 0 0 0 0 127 0" result="hardAlpha"/>
<feOffset dx="2" dy="2"/>
<feGaussianBlur stdDeviation="2"/>
<feComposite in2="hardAlpha" operator="out"/>
<feColorMatrix type="matrix" values="0 0 0 0 0.439216 0 0 0 0 0.396078 0 0 0 0 0.941176 0 0 0 0.1 0"/>
<feBlend mode="normal" in2="BackgroundImageFix" result="effect1_dropShadow_1_24574"/>
<feBlend mode="normal" in="SourceGraphic" in2="effect1_dropShadow_1_24574" result="shape"/>
</filter>
</defs>
</svg>
