<svg width="20" height="20" viewBox="0 0 20 20" fill="none" xmlns="http://www.w3.org/2000/svg">
<g clip-path="url(#clip0_1_47889)">
<path d="M10 20C8.02219 20 6.08879 19.4135 4.4443 18.3147C2.79981 17.2159 1.51809 15.6541 0.761209 13.8268C0.00433286 11.9996 -0.193701 9.98891 0.192152 8.0491C0.578004 6.10929 1.53041 4.32746 2.92894 2.92894C4.32746 1.53041 6.10929 0.578004 8.0491 0.192152C9.98891 -0.193701 11.9996 0.00433286 13.8268 0.761209C15.6541 1.51809 17.2159 2.79981 18.3147 4.4443C19.4135 6.08879 20 8.02219 20 10C19.9971 12.6513 18.9426 15.1932 17.0679 17.0679C15.1932 18.9426 12.6513 19.9971 10 20V20ZM10 2.5C8.51665 2.5 7.0666 2.93987 5.83323 3.76398C4.59986 4.58809 3.63857 5.75943 3.07091 7.12988C2.50325 8.50033 2.35473 10.0083 2.64412 11.4632C2.9335 12.918 3.64781 14.2544 4.6967 15.3033C5.7456 16.3522 7.08197 17.0665 8.53683 17.3559C9.99169 17.6453 11.4997 17.4968 12.8701 16.9291C14.2406 16.3614 15.4119 15.4002 16.236 14.1668C17.0601 12.9334 17.5 11.4834 17.5 10C17.4976 8.01163 16.7066 6.10538 15.3006 4.69938C13.8946 3.29339 11.9884 2.50243 10 2.5V2.5Z" fill="#4A565F"/>
<path d="M12.0458 15.5673H9.54585V10.4531H8.40918V7.95312H10C10.5425 7.95357 11.0626 8.16925 11.4461 8.55282C11.8297 8.9364 12.0454 9.4565 12.0458 9.99896V15.5673Z" fill="#4A565F"/>
<path d="M10.2366 7.05482C11.0264 7.05482 11.6666 6.41459 11.6666 5.62482C11.6666 4.83506 11.0264 4.19482 10.2366 4.19482C9.44687 4.19482 8.80664 4.83506 8.80664 5.62482C8.80664 6.41459 9.44687 7.05482 10.2366 7.05482Z" fill="#4A565F"/>
</g>
<defs>
<clipPath id="clip0_1_47889">
<rect width="20" height="20" fill="white"/>
</clipPath>
</defs>
</svg>
