<svg width="45" height="45" viewBox="0 0 45 45" fill="none" xmlns="http://www.w3.org/2000/svg">
<path d="M44.9928 14.4824L44.9346 17.7913L35.0584 9.92712V22.4855C35.0604 24.9439 34.34 27.3486 32.9866 29.4009C31.6333 31.4532 29.7068 33.0626 27.4464 34.0291C25.186 34.9956 22.6915 35.2766 20.2727 34.8372C17.854 34.3978 15.6177 33.2573 13.8417 31.5575C12.0657 29.8577 10.8284 27.6735 10.2834 25.2763C9.73842 22.8792 9.90985 20.3747 10.7764 18.0741C11.6429 15.7736 13.1664 13.7784 15.1574 12.3364C17.1484 10.8945 19.5193 10.0694 21.9754 9.96365H35.0436V0H22.5C18.0498 2.54967e-08 13.6996 1.31966 9.99943 3.7921C6.29927 6.26454 3.41539 9.7787 1.71249 13.8902C0.00958917 18.0017 -0.435845 22.5258 0.432518 26.8904C1.30088 31.2551 3.44404 35.2642 6.59096 38.4108C9.73788 41.5573 13.7472 43.7001 18.112 44.568C22.4767 45.4359 27.0008 44.9899 31.1121 43.2866C35.2234 41.5833 38.7372 38.699 41.2092 34.9986C43.6813 31.2982 45.0005 26.9478 45 22.4976C45 22.4125 45 22.325 45 22.2375L44.9928 14.4824Z" fill="#595ad4"/>
<path d="M44.9929 14.4824V0L44.891 0.101961C43.8778 1.11514 35.4741 9.25675 35.0586 9.92712L45.0002 20.1312L44.9929 14.4824Z" fill="#D3DBFF"/>
</svg>
