<?xml version="1.0" encoding="utf-8"?>
<!-- Generator: Adobe Illustrator 21.0.2, SVG Export Plug-In . SVG Version: 6.00 Build 0)  -->
<svg version="1.1" id="Layer_1" xmlns="http://www.w3.org/2000/svg" xmlns:xlink="http://www.w3.org/1999/xlink" x="0px" y="0px"
	 viewBox="0 0 17 17" style="enable-background:new 0 0 17 17;" xml:space="preserve">
<style type="text/css">
	.st0{fill:#595AD4;}
</style>
<g>
	<path class="st0" d="M16.9,0.6l-0.1-0.4l-0.1,0.1c-0.1-0.1-0.2-0.1-0.3-0.2c-0.2,0-4.8-0.6-9.5,4c-0.9,0.1-4.1,0.4-5.8,2L0.2,7.1
		c-0.2,0.2-0.2,0.6,0,0.8c0,0,0.1,0.1,0.1,0.1l2.3,1.4c0.2,0.1,0.5,0.1,0.7-0.1l1-1L6.1,10l-1.5,1.5c-0.1,0.1-0.2,0.2-0.2,0.4
		c0,0.2,0.1,0.3,0.2,0.4c0.2,0.2,0.6,0.2,0.8,0l1.5-1.5l1.8,1.8l-1,1c-0.2,0.2-0.2,0.5-0.1,0.7L9,16.7c0.1,0.2,0.2,0.3,0.4,0.3
		l0.1,0c0.2,0,0.3-0.1,0.4-0.2l0.9-0.9c1.7-1.7,2-4.9,2-5.8C17.5,5.4,16.9,0.8,16.9,0.6z M11.6,11.4C11.4,12.5,11,14,10.1,15
		l-0.5,0.5l-0.8-1.4L11.6,11.4z M5.6,5.4L2.8,8.2L1.5,7.4l0.4-0.4C2.8,6,4.4,5.6,5.6,5.4z M9.4,8.3c0.2-0.2,0.2-0.6,0-0.8
		C9.3,7.4,9.2,7.4,9,7.4h0c-0.2,0-0.3,0.1-0.4,0.2L6.9,9.2L5.1,7.5L7.6,5c3.5-3.5,6.9-3.8,8.2-3.9c0,1.3-0.4,4.8-3.9,8.2l-2.4,2.4
		l-1.8-1.8L9.4,8.3z"/>
	<path class="st0" d="M11.4,7.6c0.5,0,1-0.2,1.4-0.6c0.4-0.4,0.6-0.9,0.6-1.4c0-1.1-0.9-2-2-2s-2,0.9-2,2S10.3,7.6,11.4,7.6z
		 M10.1,5.6c0-0.7,0.6-1.3,1.3-1.3c0.7,0,1.3,0.6,1.3,1.3c0,0.7-0.6,1.3-1.3,1.3C10.7,6.8,10.1,6.3,10.1,5.6L10.1,5.6z"/>
	<path class="st0" d="M6,12.8l-1.3,1.3c-0.2,0.2-0.3,0.6-0.1,0.8C4.6,15,4.8,15.1,5,15.1c0.1,0,0.3,0,0.4-0.1l1.4-1.4
		c0.1-0.1,0.1-0.3,0.1-0.4s-0.1-0.3-0.2-0.4C6.5,12.6,6.2,12.6,6,12.8z"/>
	<path class="st0" d="M3.4,12.8l-1.3,1.3c-0.2,0.2-0.3,0.6-0.1,0.8c0.1,0.1,0.3,0.2,0.4,0.2c0.1,0,0.3,0,0.4-0.1l1.4-1.4
		c0.1-0.1,0.1-0.3,0.1-0.4s-0.1-0.3-0.2-0.4C3.9,12.6,3.6,12.6,3.4,12.8z"/>
	<path class="st0" d="M3.4,10.2l-1.3,1.3c-0.2,0.2-0.3,0.6-0.1,0.8c0.1,0.1,0.3,0.2,0.4,0.2c0.1,0,0.3,0,0.4-0.1L4.2,11
		c0.1-0.1,0.1-0.3,0.1-0.4s-0.1-0.3-0.2-0.4C3.9,10.1,3.6,10.1,3.4,10.2z"/>
</g>
</svg>
