<svg width="30" height="28" viewBox="0 0 30 28" fill="none" xmlns="http://www.w3.org/2000/svg">
<path d="M15 14.5491C17.0711 14.5491 18.75 13.0165 18.75 11.1258C18.75 9.23518 17.0711 7.70251 15 7.70251C12.9289 7.70251 11.25 9.23518 11.25 11.1258C11.25 13.0165 12.9289 14.5491 15 14.5491Z" stroke="#2E2E2E" stroke-linecap="round" stroke-linejoin="round"/>
<path d="M24.375 11.1258C24.375 18.8282 15 24.819 15 24.819C15 24.819 5.625 18.8282 5.625 11.1258C5.625 8.85599 6.61272 6.67916 8.37087 5.07417C10.129 3.46918 12.5136 2.5675 15 2.5675C17.4864 2.5675 19.871 3.46918 21.6291 5.07417C23.3873 6.67916 24.375 8.85599 24.375 11.1258V11.1258Z" stroke="#2E2E2E" stroke-linecap="round" stroke-linejoin="round"/>
</svg>
