<svg width="300" height="242" viewBox="0 0 300 242" fill="none" xmlns="http://www.w3.org/2000/svg">
<path d="M129.647 36.9133C175.008 41.9869 194.916 2.66186 239.871 7.81089C279.988 12.4035 307.657 40.9872 298.292 79.4823C289.974 113.658 250.376 124.381 236.296 156.397C221.368 190.347 209.797 226.927 164.719 238.744C76.2144 261.943 33.221 153.04 27.1949 90.4877C24.8845 66.4777 20.8482 9.07457 52.1951 1.64337C83.7399 -5.84441 101.856 33.8012 129.647 36.9133Z" fill="#595AD4"/>
<path opacity="0.9" d="M129.647 36.9133C175.008 41.9869 194.916 2.66186 239.871 7.81089C279.988 12.4035 307.657 40.9872 298.292 79.4823C289.974 113.658 250.376 124.381 236.296 156.397C221.368 190.347 209.797 226.927 164.719 238.744C76.2144 261.943 33.221 153.04 27.1949 90.4877C24.8845 66.4777 20.8482 9.07457 52.1951 1.64337C83.7399 -5.84441 101.856 33.8012 129.647 36.9133Z" fill="white"/>
<path d="M1.06182 107.886L0.121216 107.954L1.37398 125.345L2.31459 125.278L1.06182 107.886Z" fill="#595AD4"/>
<path d="M2.95367 134.256L2.01306 134.324L2.48463 140.871L3.42523 140.803L2.95367 134.256Z" fill="#595AD4"/>
<path d="M221.349 214.262H19.3865C17.1384 214.222 14.9849 213.351 13.341 211.816C11.6972 210.282 10.6795 208.194 10.4842 205.954L0.563327 68.1468C0.471054 67.084 0.602421 66.0137 0.948958 65.0047C1.29549 63.9958 1.84952 63.0706 2.57535 62.2888C3.30118 61.507 4.18272 60.8859 5.16318 60.4655C6.14365 60.0451 7.2013 59.8348 8.26801 59.848H210.231C212.477 59.8882 214.63 60.7581 216.273 62.2903C217.917 63.8225 218.935 65.9085 219.133 68.1468L229.054 205.954C229.146 207.017 229.015 208.088 228.668 209.097C228.322 210.107 227.768 211.033 227.042 211.815C226.316 212.598 225.435 213.22 224.455 213.641C223.474 214.063 222.416 214.274 221.349 214.262V214.262Z" fill="#595AD4"/>
<path d="M222.122 214.262H20.1598C17.9117 214.222 15.7581 213.351 14.1143 211.816C12.4705 210.282 11.4528 208.194 11.2574 205.954L1.33661 68.1468C1.24434 67.084 1.3757 66.0137 1.72224 65.0047C2.06877 63.9958 2.6228 63.0706 3.34863 62.2888C4.07446 61.507 4.956 60.8859 5.93646 60.4655C6.91693 60.0451 7.97458 59.8348 9.04129 59.848H211.004C213.25 59.8882 215.403 60.7581 217.046 62.2903C218.69 63.8225 219.709 65.9085 219.906 68.1468L229.827 205.954C229.921 207.018 229.79 208.089 229.445 209.099C229.099 210.109 228.545 211.035 227.819 211.818C227.093 212.601 226.211 213.223 225.23 213.644C224.248 214.065 223.19 214.276 222.122 214.262V214.262Z" fill="#595AD4"/>
<path opacity="0.5" d="M222.122 214.262H20.1598C17.9117 214.222 15.7581 213.351 14.1143 211.816C12.4705 210.282 11.4528 208.194 11.2574 205.954L1.33661 68.1468C1.24434 67.084 1.3757 66.0137 1.72224 65.0047C2.06877 63.9958 2.6228 63.0706 3.34863 62.2888C4.07446 61.507 4.956 60.8859 5.93646 60.4655C6.91693 60.0451 7.97458 59.8348 9.04129 59.848H211.004C213.25 59.8882 215.403 60.7581 217.046 62.2903C218.69 63.8225 219.709 65.9085 219.906 68.1468L229.827 205.954C229.921 207.018 229.79 208.089 229.445 209.099C229.099 210.109 228.545 211.035 227.819 211.818C227.093 212.601 226.211 213.223 225.23 213.644C224.248 214.065 223.19 214.276 222.122 214.262V214.262Z" fill="white"/>
<path d="M211.306 63.9976H9.34306H8.66407C3.50561 64.4219 4.56182 72.2775 9.76743 72.2775H212.07C217.285 72.2775 217.209 64.4219 211.985 63.9976H211.306Z" fill="#595AD4"/>
<path d="M14.6053 68.147C14.6251 68.3901 14.5937 68.6347 14.5132 68.8649C14.4326 69.0952 14.3047 69.306 14.1376 69.4837C13.9705 69.6614 13.768 69.8022 13.5432 69.8968C13.3184 69.9914 13.0762 70.0379 12.8323 70.0331C12.3198 70.0259 11.8281 69.8292 11.4519 69.4809C11.0758 69.1327 10.8419 68.6575 10.7954 68.147C10.7756 67.9047 10.8068 67.6609 10.8868 67.4313C10.9667 67.2018 11.0938 66.9914 11.2599 66.8138C11.4259 66.6363 11.6272 66.4953 11.8509 66.4001C12.0746 66.3049 12.3158 66.2575 12.5589 66.2609C13.073 66.2658 13.5671 66.4615 13.9452 66.8099C14.3233 67.1584 14.5586 67.6349 14.6053 68.147Z" fill="#FAFAFA"/>
<path d="M21.084 68.147C21.1038 68.3901 21.0724 68.6347 20.9919 68.8649C20.9113 69.0952 20.7834 69.306 20.6163 69.4837C20.4492 69.6614 20.2467 69.8022 20.0219 69.8968C19.7971 69.9914 19.5549 70.0379 19.3111 70.0331C18.7985 70.0259 18.3068 69.8292 17.9306 69.4809C17.5545 69.1327 17.3206 68.6575 17.2741 68.147C17.2543 67.9047 17.2855 67.6609 17.3655 67.4313C17.4454 67.2018 17.5725 66.9914 17.7386 66.8138C17.9046 66.6363 18.106 66.4953 18.3296 66.4001C18.5533 66.3049 18.7945 66.2575 19.0376 66.2609C19.5518 66.2658 20.0458 66.4615 20.4239 66.8099C20.802 67.1584 21.0372 67.6349 21.084 68.147Z" fill="#FAFAFA"/>
<path d="M27.5533 68.1469C27.573 68.3893 27.5419 68.633 27.4619 68.8626C27.3819 69.0922 27.2548 69.3025 27.0888 69.4801C26.9227 69.6577 26.7214 69.7986 26.4977 69.8938C26.274 69.989 26.0329 70.0365 25.7898 70.033C25.2766 70.0279 24.7837 69.8319 24.4071 69.4833C24.0306 69.1346 23.7973 68.6582 23.7528 68.1469C23.7316 67.9043 23.7617 67.6599 23.8411 67.4297C23.9205 67.1994 24.0476 66.9885 24.2139 66.8106C24.3803 66.6327 24.5822 66.4918 24.8066 66.3971C25.031 66.3024 25.2728 66.256 25.5163 66.2608C26.0288 66.2681 26.5206 66.4647 26.8967 66.813C27.2728 67.1613 27.5067 67.6365 27.5533 68.1469V68.1469Z" fill="#FAFAFA"/>
<path d="M216.766 200.513H23.5831C22.767 200.499 21.985 200.183 21.3891 199.625C20.7931 199.067 20.4255 198.308 20.3578 197.495L12.2005 84.1691C12.1642 83.7803 12.211 83.3881 12.3379 83.0187C12.4647 82.6493 12.6687 82.3111 12.9363 82.0266C13.2039 81.7421 13.5289 81.5178 13.8898 81.3685C14.2507 81.2192 14.6393 81.1484 15.0296 81.1608H208.26C209.075 81.172 209.857 81.4863 210.453 82.0424C211.049 82.5985 211.417 83.3567 211.485 84.1691L219.652 197.495C219.687 197.889 219.638 198.286 219.507 198.659C219.376 199.032 219.167 199.373 218.894 199.659C218.621 199.945 218.289 200.169 217.922 200.316C217.555 200.463 217.161 200.53 216.766 200.513V200.513Z" fill="white"/>
<path d="M135.362 157.34L132.212 113.658L122.688 107.925H96.4616L100.026 157.34H135.362Z" fill="white"/>
<path d="M135.362 157.793H100.026C99.9094 157.796 99.796 157.753 99.7098 157.674C99.6237 157.595 99.5715 157.485 99.5642 157.369L96.0089 107.953C96.0044 107.891 96.013 107.829 96.0341 107.77C96.0552 107.712 96.0884 107.658 96.1315 107.614C96.1731 107.567 96.224 107.53 96.2808 107.504C96.3376 107.478 96.3991 107.464 96.4616 107.463H122.688C122.77 107.466 122.851 107.488 122.923 107.529L132.448 113.262C132.512 113.299 132.566 113.351 132.606 113.413C132.645 113.476 132.669 113.547 132.675 113.621L135.805 157.303C135.812 157.366 135.804 157.43 135.783 157.491C135.762 157.551 135.728 157.606 135.683 157.652C135.642 157.696 135.592 157.731 135.537 157.755C135.482 157.78 135.422 157.792 135.362 157.793V157.793ZM100.47 156.85H134.862L131.769 113.894L122.603 108.377H96.952L100.47 156.85Z" fill="#595AD4"/>
<path d="M132.212 113.658L122.688 107.925L126.186 115.526L132.212 113.658Z" fill="#EBEBEB"/>
<path d="M126.186 115.978C126.099 115.978 126.014 115.953 125.941 115.906C125.867 115.859 125.809 115.793 125.771 115.714L122.273 108.113C122.232 108.024 122.22 107.924 122.239 107.828C122.257 107.732 122.305 107.643 122.376 107.576C122.451 107.512 122.544 107.473 122.642 107.464C122.74 107.456 122.839 107.478 122.923 107.529L132.448 113.262C132.525 113.308 132.587 113.376 132.627 113.456C132.667 113.536 132.684 113.626 132.675 113.715C132.662 113.802 132.626 113.883 132.569 113.95C132.512 114.017 132.438 114.066 132.354 114.092L126.318 115.978H126.186ZM123.725 109.075L126.432 114.969L131.147 113.526L123.725 109.075Z" fill="#595AD4"/>
<path d="M111.286 130.181C111.3 130.437 111.262 130.693 111.174 130.934C111.085 131.175 110.948 131.396 110.772 131.582C110.595 131.768 110.383 131.916 110.147 132.018C109.911 132.119 109.657 132.171 109.4 132.17C108.862 132.161 108.346 131.952 107.953 131.585C107.559 131.217 107.315 130.717 107.269 130.181C107.245 129.922 107.276 129.66 107.36 129.414C107.445 129.169 107.581 128.943 107.76 128.754C107.938 128.565 108.155 128.416 108.396 128.317C108.636 128.218 108.895 128.172 109.155 128.181C109.694 128.193 110.21 128.404 110.603 128.773C110.997 129.142 111.24 129.643 111.286 130.181Z" fill="#595AD4"/>
<path d="M124.206 130.18C124.229 130.439 124.197 130.699 124.111 130.944C124.026 131.188 123.89 131.412 123.711 131.6C123.533 131.789 123.317 131.937 123.077 132.035C122.837 132.133 122.579 132.179 122.32 132.17C121.781 132.161 121.264 131.952 120.869 131.585C120.473 131.218 120.228 130.718 120.179 130.18C120.164 129.923 120.201 129.666 120.289 129.424C120.377 129.182 120.513 128.96 120.69 128.773C120.867 128.586 121.08 128.437 121.316 128.335C121.553 128.233 121.808 128.181 122.065 128.181C122.607 128.189 123.126 128.398 123.522 128.767C123.918 129.137 124.161 129.641 124.206 130.18V130.18Z" fill="#595AD4"/>
<path d="M127.865 143.138C127.75 143.136 127.641 143.091 127.557 143.013C127.473 142.935 127.422 142.828 127.412 142.713C127.177 139.498 122.141 136.885 116.19 136.885C112.239 136.885 108.693 138.064 106.939 139.95C106.578 140.298 106.296 140.718 106.111 141.183C105.926 141.648 105.841 142.147 105.864 142.647C105.868 142.709 105.86 142.772 105.84 142.83C105.821 142.889 105.79 142.944 105.749 142.991C105.667 143.085 105.55 143.143 105.425 143.152C105.3 143.161 105.177 143.119 105.082 143.037C104.988 142.955 104.929 142.839 104.921 142.713C104.893 142.088 104.996 141.464 105.223 140.881C105.45 140.298 105.797 139.769 106.241 139.328C108.127 137.263 111.965 135.971 116.162 135.971C122.697 135.971 128.025 138.904 128.289 142.647C128.293 142.707 128.285 142.767 128.266 142.823C128.247 142.879 128.217 142.931 128.177 142.976C128.138 143.021 128.09 143.057 128.036 143.083C127.983 143.11 127.925 143.125 127.865 143.128V143.138Z" fill="#595AD4"/>
<path d="M103.902 126.144C103.787 126.142 103.677 126.098 103.591 126.022C103.505 125.935 103.457 125.818 103.457 125.696C103.457 125.574 103.505 125.457 103.591 125.371L105.6 123.211C105.686 123.128 105.801 123.082 105.92 123.082C106.04 123.082 106.155 123.128 106.241 123.211C106.283 123.253 106.317 123.303 106.34 123.358C106.362 123.413 106.374 123.472 106.374 123.532C106.374 123.592 106.362 123.651 106.34 123.706C106.317 123.761 106.283 123.811 106.241 123.853L104.232 126.012C104.189 126.055 104.137 126.089 104.081 126.112C104.024 126.135 103.963 126.146 103.902 126.144V126.144Z" fill="#595AD4"/>
<path d="M126.922 126.144C126.808 126.139 126.698 126.096 126.611 126.022L124.3 123.862C124.257 123.82 124.222 123.769 124.198 123.713C124.175 123.658 124.162 123.597 124.162 123.537C124.162 123.476 124.175 123.416 124.198 123.36C124.222 123.304 124.257 123.254 124.3 123.211C124.386 123.128 124.501 123.082 124.621 123.082C124.741 123.082 124.855 123.128 124.942 123.211L127.252 125.371C127.294 125.413 127.328 125.463 127.351 125.518C127.373 125.573 127.385 125.632 127.385 125.692C127.385 125.751 127.373 125.81 127.351 125.865C127.328 125.92 127.294 125.97 127.252 126.012C127.162 126.096 127.045 126.143 126.922 126.144V126.144Z" fill="#595AD4"/>
</svg>
