<svg width="300" height="242" viewBox="0 0 300 242" fill="none" xmlns="http://www.w3.org/2000/svg">
<path d="M129.647 36.9133C175.008 41.9869 194.916 2.66186 239.871 7.81089C279.988 12.4035 307.657 40.9872 298.292 79.4823C289.974 113.658 250.376 124.381 236.296 156.397C221.368 190.347 209.797 226.927 164.719 238.744C76.2144 261.943 33.221 153.04 27.1949 90.4877C24.8845 66.4777 20.8482 9.07457 52.1951 1.64337C83.7399 -5.84441 101.856 33.8012 129.647 36.9133Z" fill="#595AD4"/>
<path opacity="0.9" d="M129.647 36.9133C175.008 41.9869 194.916 2.66186 239.871 7.81089C279.988 12.4035 307.657 40.9872 298.292 79.4823C289.974 113.658 250.376 124.381 236.296 156.397C221.368 190.347 209.797 226.927 164.719 238.744C76.2144 261.943 33.221 153.04 27.1949 90.4877C24.8845 66.4777 20.8482 9.07457 52.1951 1.64337C83.7399 -5.84441 101.856 33.8012 129.647 36.9133Z" fill="white"/>
<path d="M1.06182 107.886L0.121216 107.954L1.37398 125.345L2.31459 125.278L1.06182 107.886Z" fill="#595AD4"/>
<path d="M2.95367 134.256L2.01306 134.324L2.48463 140.871L3.42523 140.803L2.95367 134.256Z" fill="#595AD4"/>
<path d="M221.349 214.262H19.3865C17.1384 214.222 14.9849 213.351 13.341 211.816C11.6972 210.282 10.6795 208.194 10.4842 205.954L0.563327 68.1468C0.471054 67.084 0.602421 66.0137 0.948958 65.0047C1.29549 63.9958 1.84952 63.0706 2.57535 62.2888C3.30118 61.507 4.18272 60.8859 5.16318 60.4655C6.14365 60.0451 7.2013 59.8348 8.26801 59.848H210.231C212.477 59.8882 214.63 60.7581 216.273 62.2903C217.917 63.8225 218.935 65.9085 219.133 68.1468L229.054 205.954C229.146 207.017 229.015 208.088 228.668 209.097C228.322 210.107 227.768 211.033 227.042 211.815C226.316 212.598 225.435 213.22 224.455 213.641C223.474 214.063 222.416 214.274 221.349 214.262V214.262Z" fill="#595AD4"/>
<path d="M222.122 214.262H20.1598C17.9117 214.222 15.7581 213.351 14.1143 211.816C12.4705 210.282 11.4528 208.194 11.2574 205.954L1.33661 68.1468C1.24434 67.084 1.3757 66.0137 1.72224 65.0047C2.06877 63.9958 2.6228 63.0706 3.34863 62.2888C4.07446 61.507 4.956 60.8859 5.93646 60.4655C6.91693 60.0451 7.97458 59.8348 9.04129 59.848H211.004C213.25 59.8882 215.403 60.7581 217.046 62.2903C218.69 63.8225 219.709 65.9085 219.906 68.1468L229.827 205.954C229.921 207.018 229.79 208.089 229.445 209.099C229.099 210.109 228.545 211.035 227.819 211.818C227.093 212.601 226.211 213.223 225.23 213.644C224.248 214.065 223.19 214.276 222.122 214.262V214.262Z" fill="#595AD4"/>
<path opacity="0.5" d="M222.122 214.262H20.1598C17.9117 214.222 15.7581 213.351 14.1143 211.816C12.4705 210.282 11.4528 208.194 11.2574 205.954L1.33661 68.1468C1.24434 67.084 1.3757 66.0137 1.72224 65.0047C2.06877 63.9958 2.6228 63.0706 3.34863 62.2888C4.07446 61.507 4.956 60.8859 5.93646 60.4655C6.91693 60.0451 7.97458 59.8348 9.04129 59.848H211.004C213.25 59.8882 215.403 60.7581 217.046 62.2903C218.69 63.8225 219.709 65.9085 219.906 68.1468L229.827 205.954C229.921 207.018 229.79 208.089 229.445 209.099C229.099 210.109 228.545 211.035 227.819 211.818C227.093 212.601 226.211 213.223 225.23 213.644C224.248 214.065 223.19 214.276 222.122 214.262V214.262Z" fill="white"/>
<path d="M211.306 63.9976H9.34306H8.66407C3.50561 64.4219 4.56182 72.2775 9.76743 72.2775H212.07C217.285 72.2775 217.209 64.4219 211.985 63.9976H211.306Z" fill="#595AD4"/>
<path d="M14.6053 68.147C14.6251 68.3901 14.5937 68.6347 14.5132 68.8649C14.4326 69.0952 14.3047 69.306 14.1376 69.4837C13.9705 69.6614 13.768 69.8022 13.5432 69.8968C13.3184 69.9914 13.0762 70.0379 12.8323 70.0331C12.3198 70.0259 11.8281 69.8292 11.4519 69.4809C11.0758 69.1327 10.8419 68.6575 10.7954 68.147C10.7756 67.9047 10.8068 67.6609 10.8868 67.4313C10.9667 67.2018 11.0938 66.9914 11.2599 66.8138C11.4259 66.6363 11.6272 66.4953 11.8509 66.4001C12.0746 66.3049 12.3158 66.2575 12.5589 66.2609C13.073 66.2658 13.5671 66.4615 13.9452 66.8099C14.3233 67.1584 14.5586 67.6349 14.6053 68.147Z" fill="#FAFAFA"/>
<path d="M21.084 68.147C21.1038 68.3901 21.0724 68.6347 20.9919 68.8649C20.9113 69.0952 20.7834 69.306 20.6163 69.4837C20.4492 69.6614 20.2467 69.8022 20.0219 69.8968C19.7971 69.9914 19.5549 70.0379 19.3111 70.0331C18.7985 70.0259 18.3068 69.8292 17.9306 69.4809C17.5545 69.1327 17.3206 68.6575 17.2741 68.147C17.2543 67.9047 17.2855 67.6609 17.3655 67.4313C17.4454 67.2018 17.5725 66.9914 17.7386 66.8138C17.9046 66.6363 18.106 66.4953 18.3296 66.4001C18.5533 66.3049 18.7945 66.2575 19.0376 66.2609C19.5518 66.2658 20.0458 66.4615 20.4239 66.8099C20.802 67.1584 21.0372 67.6349 21.084 68.147Z" fill="#FAFAFA"/>
<path d="M27.5533 68.1469C27.573 68.3893 27.5419 68.633 27.4619 68.8626C27.3819 69.0922 27.2548 69.3025 27.0888 69.4801C26.9227 69.6577 26.7214 69.7986 26.4977 69.8938C26.274 69.989 26.0329 70.0365 25.7898 70.033C25.2766 70.0279 24.7837 69.8319 24.4071 69.4833C24.0306 69.1346 23.7973 68.6582 23.7528 68.1469C23.7316 67.9043 23.7617 67.6599 23.8411 67.4297C23.9205 67.1994 24.0476 66.9885 24.2139 66.8106C24.3803 66.6327 24.5822 66.4918 24.8066 66.3971C25.031 66.3024 25.2728 66.256 25.5163 66.2608C26.0288 66.2681 26.5206 66.4647 26.8967 66.813C27.2728 67.1613 27.5067 67.6365 27.5533 68.1469V68.1469Z" fill="#FAFAFA"/>
<path d="M216.766 200.513H23.5831C22.767 200.499 21.985 200.183 21.3891 199.625C20.7931 199.067 20.4255 198.308 20.3578 197.495L12.2005 84.1691C12.1642 83.7803 12.211 83.3881 12.3379 83.0187C12.4647 82.6493 12.6687 82.3111 12.9363 82.0266C13.2039 81.7421 13.5289 81.5178 13.8898 81.3685C14.2507 81.2192 14.6393 81.1484 15.0296 81.1608H208.26C209.075 81.172 209.857 81.4863 210.453 82.0424C211.049 82.5985 211.417 83.3567 211.485 84.1691L219.652 197.495C219.687 197.889 219.638 198.286 219.507 198.659C219.376 199.032 219.167 199.373 218.894 199.659C218.621 199.945 218.289 200.169 217.922 200.316C217.555 200.463 217.161 200.53 216.766 200.513V200.513Z" fill="white"/>
<path d="M135.362 157.34L132.212 113.658L122.688 107.925H96.4616L100.026 157.34H135.362Z" fill="white"/>
<path d="M135.362 157.793H100.026C99.9094 157.796 99.796 157.753 99.7098 157.674C99.6237 157.595 99.5715 157.485 99.5642 157.369L96.0089 107.953C96.0044 107.891 96.013 107.829 96.0341 107.77C96.0552 107.712 96.0884 107.658 96.1315 107.614C96.1731 107.567 96.224 107.53 96.2808 107.504C96.3376 107.478 96.3991 107.464 96.4616 107.463H122.688C122.77 107.466 122.851 107.488 122.923 107.529L132.448 113.262C132.512 113.299 132.566 113.351 132.606 113.413C132.645 113.476 132.669 113.547 132.675 113.621L135.805 157.303C135.812 157.366 135.804 157.43 135.783 157.491C135.762 157.551 135.728 157.606 135.683 157.652C135.642 157.696 135.592 157.731 135.537 157.755C135.482 157.78 135.422 157.792 135.362 157.793V157.793ZM100.47 156.85H134.862L131.769 113.894L122.603 108.377H96.952L100.47 156.85Z" fill="#595AD4"/>
<path d="M132.212 113.658L122.688 107.925L126.186 115.526L132.212 113.658Z" fill="#EBEBEB"/>
<path d="M126.186 115.978C126.099 115.978 126.014 115.953 125.941 115.906C125.867 115.859 125.809 115.793 125.771 115.714L122.273 108.113C122.232 108.024 122.22 107.924 122.239 107.828C122.257 107.732 122.305 107.643 122.376 107.576C122.451 107.512 122.544 107.473 122.642 107.464C122.74 107.456 122.839 107.478 122.923 107.529L132.448 113.262C132.525 113.308 132.587 113.376 132.627 113.456C132.667 113.536 132.684 113.626 132.675 113.715C132.662 113.802 132.626 113.883 132.569 113.95C132.512 114.017 132.438 114.066 132.354 114.092L126.318 115.978H126.186ZM123.725 109.075L126.432 114.969L131.147 113.526L123.725 109.075Z" fill="#595AD4"/>
<path d="M111.286 130.181C111.3 130.437 111.262 130.693 111.174 130.934C111.085 131.175 110.948 131.396 110.772 131.582C110.595 131.768 110.383 131.916 110.147 132.018C109.911 132.119 109.657 132.171 109.4 132.17C108.862 132.161 108.346 131.952 107.953 131.585C107.559 131.217 107.315 130.717 107.269 130.181C107.245 129.922 107.276 129.66 107.36 129.414C107.445 129.169 107.581 128.943 107.76 128.754C107.938 128.565 108.155 128.416 108.396 128.317C108.636 128.218 108.895 128.172 109.155 128.181C109.694 128.193 110.21 128.404 110.603 128.773C110.997 129.142 111.24 129.643 111.286 130.181Z" fill="#595AD4"/>
<path d="M124.206 130.18C124.229 130.439 124.197 130.699 124.111 130.944C124.026 131.188 123.89 131.412 123.711 131.6C123.533 131.789 123.317 131.937 123.077 132.035C122.837 132.133 122.579 132.179 122.32 132.17C121.781 132.161 121.264 131.952 120.869 131.585C120.473 131.218 120.228 130.718 120.179 130.18C120.164 129.923 120.201 129.666 120.289 129.424C120.377 129.182 120.513 128.96 120.69 128.773C120.867 128.586 121.08 128.437 121.316 128.335C121.553 128.233 121.808 128.181 122.065 128.181C122.607 128.189 123.126 128.398 123.522 128.767C123.918 129.137 124.161 129.641 124.206 130.18V130.18Z" fill="#595AD4"/>
<path d="M127.865 143.138C127.75 143.136 127.641 143.091 127.557 143.013C127.473 142.935 127.422 142.828 127.412 142.713C127.177 139.498 122.141 136.885 116.19 136.885C112.239 136.885 108.693 138.064 106.939 139.95C106.578 140.298 106.296 140.718 106.111 141.183C105.926 141.648 105.841 142.147 105.864 142.647C105.868 142.709 105.86 142.772 105.84 142.83C105.821 142.889 105.79 142.944 105.749 142.991C105.667 143.085 105.55 143.143 105.425 143.152C105.3 143.161 105.177 143.119 105.082 143.037C104.988 142.955 104.929 142.839 104.921 142.713C104.893 142.088 104.996 141.464 105.223 140.881C105.45 140.298 105.797 139.769 106.241 139.328C108.127 137.263 111.965 135.971 116.162 135.971C122.697 135.971 128.025 138.904 128.289 142.647C128.293 142.707 128.285 142.767 128.266 142.823C128.247 142.879 128.217 142.931 128.177 142.976C128.138 143.021 128.09 143.057 128.036 143.083C127.983 143.11 127.925 143.125 127.865 143.128V143.138Z" fill="#595AD4"/>
<path d="M103.902 126.144C103.787 126.142 103.677 126.098 103.591 126.022C103.505 125.935 103.457 125.818 103.457 125.696C103.457 125.574 103.505 125.457 103.591 125.371L105.6 123.211C105.686 123.128 105.801 123.082 105.92 123.082C106.04 123.082 106.155 123.128 106.241 123.211C106.283 123.253 106.317 123.303 106.34 123.358C106.362 123.413 106.374 123.472 106.374 123.532C106.374 123.592 106.362 123.651 106.34 123.706C106.317 123.761 106.283 123.811 106.241 123.853L104.232 126.012C104.189 126.055 104.137 126.089 104.081 126.112C104.024 126.135 103.963 126.146 103.902 126.144V126.144Z" fill="#595AD4"/>
<path d="M126.922 126.144C126.808 126.139 126.698 126.096 126.611 126.022L124.3 123.862C124.257 123.82 124.222 123.769 124.198 123.713C124.175 123.658 124.162 123.597 124.162 123.537C124.162 123.476 124.175 123.416 124.198 123.36C124.222 123.304 124.257 123.254 124.3 123.211C124.386 123.128 124.501 123.082 124.621 123.082C124.741 123.082 124.855 123.128 124.942 123.211L127.252 125.371C127.294 125.413 127.328 125.463 127.351 125.518C127.373 125.573 127.385 125.632 127.385 125.692C127.385 125.751 127.373 125.81 127.351 125.865C127.328 125.92 127.294 125.97 127.252 126.012C127.162 126.096 127.045 126.143 126.922 126.144V126.144Z" fill="#595AD4"/>
<path d="M74.7582 180.252L75.0702 178.572C75.8462 178.572 76.5222 178.552 77.0982 178.512C77.6742 178.464 78.1502 178.396 78.5262 178.308C78.9102 178.212 79.1942 178.088 79.3782 177.936C79.5702 177.784 79.6662 177.6 79.6662 177.384C79.6662 177.096 79.6182 176.752 79.5222 176.352C79.4262 175.944 79.3022 175.532 79.1502 175.116L80.7222 174.66C80.8262 174.932 80.9262 175.232 81.0222 175.56C81.1182 175.88 81.1942 176.204 81.2502 176.532C81.3142 176.852 81.3462 177.152 81.3462 177.432C81.3462 177.928 81.2382 178.356 81.0222 178.716C80.8062 179.068 80.4462 179.36 79.9422 179.592C79.4462 179.816 78.7742 179.98 77.9262 180.084C77.0782 180.196 76.0222 180.252 74.7582 180.252ZM74.7462 180.252C73.8822 180.252 73.1502 180.184 72.5502 180.048C71.9582 179.92 71.4742 179.736 71.0982 179.496C70.7302 179.248 70.4622 178.96 70.2942 178.632C70.1262 178.304 70.0422 177.944 70.0422 177.552C70.0422 177.296 70.0622 177.04 70.1022 176.784C70.1502 176.52 70.2062 176.264 70.2702 176.016C70.3422 175.768 70.4062 175.544 70.4622 175.344L71.9622 175.692C71.9302 175.836 71.8942 175.992 71.8542 176.16C71.8142 176.328 71.7822 176.492 71.7582 176.652C71.7342 176.804 71.7222 176.944 71.7222 177.072C71.7222 177.368 71.8262 177.632 72.0342 177.864C72.2502 178.088 72.6022 178.264 73.0902 178.392C73.5782 178.512 74.2342 178.572 75.0582 178.572L75.2982 179.868L74.7462 180.252ZM76.7262 174.768C76.4942 174.768 76.2942 174.688 76.1262 174.528C75.9662 174.36 75.8862 174.164 75.8862 173.94C75.8862 173.708 75.9662 173.508 76.1262 173.34C76.2942 173.172 76.4942 173.088 76.7262 173.088C76.9502 173.088 77.1422 173.172 77.3022 173.34C77.4622 173.508 77.5422 173.708 77.5422 173.94C77.5422 174.164 77.4622 174.36 77.3022 174.528C77.1422 174.688 76.9502 174.768 76.7262 174.768ZM74.6502 174.756C74.4182 174.756 74.2182 174.676 74.0502 174.516C73.8902 174.348 73.8102 174.152 73.8102 173.928C73.8102 173.696 73.8902 173.496 74.0502 173.328C74.2182 173.16 74.4182 173.076 74.6502 173.076C74.8742 173.076 75.0662 173.16 75.2262 173.328C75.3862 173.496 75.4662 173.696 75.4662 173.928C75.4662 174.152 75.3862 174.348 75.2262 174.516C75.0662 174.676 74.8742 174.756 74.6502 174.756Z" fill="#595AD4"/>
<path d="M85.7552 180.06C85.0112 180.06 84.4352 179.984 84.0272 179.832C83.6272 179.68 83.3472 179.444 83.1872 179.124C83.0272 178.796 82.9352 178.384 82.9112 177.888L82.6592 171.216H84.3392L84.5912 177.084C84.6072 177.452 84.6472 177.728 84.7112 177.912C84.7752 178.096 84.8952 178.22 85.0712 178.284C85.2552 178.348 85.5232 178.38 85.8752 178.38C86.1792 178.38 86.3952 178.46 86.5232 178.62C86.6592 178.772 86.7272 178.964 86.7272 179.196C86.7272 179.444 86.6432 179.652 86.4752 179.82C86.3072 179.98 86.0672 180.06 85.7552 180.06Z" fill="#595AD4"/>
<path d="M85.7715 180.06L85.8915 178.38C86.2435 178.38 86.5195 178.356 86.7195 178.308C86.9275 178.26 87.0755 178.172 87.1635 178.044C87.2515 177.908 87.2955 177.716 87.2955 177.468C87.2955 177.244 87.2635 176.976 87.1995 176.664C87.1435 176.352 87.0675 176.028 86.9715 175.692C86.8755 175.356 86.7795 175.048 86.6835 174.768L88.3395 174.312C88.4355 174.584 88.5315 174.9 88.6275 175.26C88.7235 175.62 88.8035 175.992 88.8675 176.376C88.9395 176.752 88.9755 177.116 88.9755 177.468C88.9755 177.908 88.9195 178.28 88.8075 178.584C88.6955 178.88 88.5395 179.128 88.3395 179.328C88.1475 179.52 87.9155 179.672 87.6435 179.784C87.3795 179.888 87.0875 179.96 86.7675 180C86.4475 180.04 86.1155 180.06 85.7715 180.06ZM87.4995 173.316C87.2515 173.316 87.0395 173.232 86.8635 173.064C86.6955 172.896 86.6115 172.688 86.6115 172.44C86.6115 172.192 86.6955 171.98 86.8635 171.804C87.0395 171.628 87.2515 171.54 87.4995 171.54C87.7395 171.54 87.9435 171.628 88.1115 171.804C88.2875 171.98 88.3755 172.192 88.3755 172.44C88.3755 172.688 88.2875 172.896 88.1115 173.064C87.9435 173.232 87.7395 173.316 87.4995 173.316Z" fill="#595AD4"/>
<path d="M93.3841 180.06C92.6401 180.06 92.0641 179.984 91.6561 179.832C91.2561 179.68 90.9761 179.444 90.8161 179.124C90.6561 178.796 90.5641 178.384 90.5401 177.888L90.2881 171.216H91.9681L92.2201 177.084C92.2361 177.452 92.2761 177.728 92.3401 177.912C92.4041 178.096 92.5241 178.22 92.7001 178.284C92.8841 178.348 93.1521 178.38 93.5041 178.38C93.8081 178.38 94.0241 178.46 94.1521 178.62C94.2881 178.772 94.3561 178.964 94.3561 179.196C94.3561 179.444 94.2721 179.652 94.1041 179.82C93.9361 179.98 93.6961 180.06 93.3841 180.06Z" fill="#595AD4"/>
<path d="M93.4004 180.06L93.5204 178.38C93.8084 178.38 94.0564 178.352 94.2644 178.296C94.4724 178.24 94.6484 178.128 94.7924 177.96C94.9364 177.784 95.0564 177.528 95.1524 177.192C95.2564 176.856 95.3484 176.408 95.4284 175.848L97.0004 176.112C96.9844 176.232 96.9604 176.372 96.9284 176.532C96.9044 176.692 96.8804 176.856 96.8564 177.024C96.8404 177.184 96.8324 177.336 96.8324 177.48C96.8324 177.624 96.8604 177.752 96.9164 177.864C96.9724 177.976 97.0604 178.072 97.1804 178.152C97.3084 178.224 97.4724 178.28 97.6724 178.32C97.8804 178.36 98.1324 178.38 98.4284 178.38C98.7324 178.38 98.9484 178.46 99.0764 178.62C99.2044 178.772 99.2684 178.964 99.2684 179.196C99.2684 179.444 99.1844 179.652 99.0164 179.82C98.8564 179.98 98.6204 180.06 98.3084 180.06C97.9484 180.06 97.6204 180.032 97.3244 179.976C97.0364 179.92 96.7844 179.828 96.5684 179.7C96.3604 179.564 96.1884 179.388 96.0524 179.172C95.9244 178.948 95.8444 178.676 95.8124 178.356H96.3884C96.2444 178.74 96.0604 179.048 95.8364 179.28C95.6204 179.504 95.3764 179.672 95.1044 179.784C94.8324 179.896 94.5484 179.968 94.2524 180C93.9644 180.04 93.6804 180.06 93.4004 180.06ZM96.7484 182.844C96.5164 182.844 96.3164 182.76 96.1484 182.592C95.9884 182.432 95.9084 182.24 95.9084 182.016C95.9084 181.784 95.9884 181.584 96.1484 181.416C96.3164 181.248 96.5164 181.164 96.7484 181.164C96.9724 181.164 97.1644 181.248 97.3244 181.416C97.4844 181.584 97.5644 181.784 97.5644 182.016C97.5644 182.24 97.4844 182.432 97.3244 182.592C97.1644 182.76 96.9724 182.844 96.7484 182.844ZM94.6724 182.844C94.4404 182.844 94.2404 182.76 94.0724 182.592C93.9124 182.432 93.8324 182.24 93.8324 182.016C93.8324 181.784 93.9124 181.584 94.0724 181.416C94.2404 181.248 94.4404 181.164 94.6724 181.164C94.8964 181.164 95.0884 181.248 95.2484 181.416C95.4084 181.584 95.4884 181.784 95.4884 182.016C95.4884 182.24 95.4084 182.432 95.2484 182.592C95.0884 182.76 94.8964 182.844 94.6724 182.844Z" fill="#595AD4"/>
<path d="M98.3105 180.06L98.4305 178.38C98.7825 178.38 99.0585 178.356 99.2585 178.308C99.4665 178.26 99.6145 178.172 99.7025 178.044C99.7905 177.908 99.8345 177.716 99.8345 177.468C99.8345 177.244 99.8026 176.976 99.7386 176.664C99.6826 176.352 99.6065 176.028 99.5105 175.692C99.4145 175.356 99.3185 175.048 99.2225 174.768L100.879 174.312C100.975 174.584 101.071 174.9 101.167 175.26C101.263 175.62 101.343 175.992 101.407 176.376C101.479 176.752 101.515 177.116 101.515 177.468C101.515 177.908 101.459 178.28 101.347 178.584C101.235 178.88 101.079 179.128 100.879 179.328C100.687 179.52 100.455 179.672 100.183 179.784C99.9186 179.888 99.6265 179.96 99.3065 180C98.9865 180.04 98.6545 180.06 98.3105 180.06ZM99.7866 182.82C99.5546 182.82 99.3546 182.74 99.1866 182.58C99.0266 182.42 98.9466 182.224 98.9466 181.992C98.9466 181.76 99.0266 181.556 99.1866 181.38C99.3546 181.212 99.5546 181.128 99.7866 181.128C100.019 181.128 100.215 181.212 100.375 181.38C100.543 181.556 100.627 181.76 100.627 181.992C100.627 182.224 100.543 182.42 100.375 182.58C100.215 182.74 100.019 182.82 99.7866 182.82Z" fill="#595AD4"/>
<path d="M107.512 178.38C107.872 178.38 108.148 178.348 108.34 178.284C108.532 178.22 108.664 178.136 108.736 178.032C108.808 177.928 108.844 177.816 108.844 177.696C108.844 177.504 108.788 177.28 108.676 177.024C108.572 176.768 108.44 176.5 108.28 176.22C108.12 175.94 107.952 175.672 107.776 175.416C107.608 175.16 107.456 174.936 107.32 174.744L108.748 173.796C109.092 174.26 109.388 174.72 109.636 175.176C109.884 175.624 110.084 176.04 110.236 176.424C110.396 176.808 110.508 177.136 110.572 177.408C110.636 177.664 110.732 177.864 110.86 178.008C110.996 178.144 111.152 178.24 111.328 178.296C111.504 178.352 111.68 178.38 111.856 178.38C112.16 178.38 112.376 178.46 112.504 178.62C112.64 178.772 112.708 178.964 112.708 179.196C112.708 179.444 112.624 179.652 112.456 179.82C112.296 179.98 112.056 180.06 111.736 180.06C111.384 180.06 111.076 180.012 110.812 179.916C110.548 179.82 110.324 179.668 110.14 179.46C109.956 179.252 109.8 178.988 109.672 178.668L110.404 178.824C110.34 179.048 110.192 179.256 109.96 179.448C109.736 179.632 109.436 179.784 109.06 179.904C108.692 180.016 108.256 180.072 107.752 180.072C107.512 180.072 107.244 180.052 106.948 180.012C106.66 179.972 106.372 179.912 106.084 179.832C105.804 179.752 105.548 179.648 105.316 179.52L105.904 177.996C106.2 178.124 106.484 178.22 106.756 178.284C107.036 178.348 107.288 178.38 107.512 178.38Z" fill="#595AD4"/>
<path d="M111.752 180.06L111.872 178.38C112.304 178.38 112.732 178.356 113.156 178.308C113.58 178.26 113.992 178.188 114.392 178.092C114.792 177.996 115.172 177.872 115.532 177.72C115.9 177.568 116.244 177.384 116.564 177.168C116.324 177.024 116.064 176.9 115.784 176.796C115.504 176.692 115.204 176.616 114.884 176.568C114.572 176.512 114.24 176.484 113.888 176.484C113.76 176.484 113.624 176.488 113.48 176.496C113.344 176.504 113.204 176.52 113.06 176.544C112.916 176.56 112.772 176.584 112.628 176.616L112.388 174.972C112.62 174.908 112.864 174.864 113.12 174.84C113.384 174.808 113.616 174.792 113.816 174.792C114.248 174.792 114.644 174.84 115.004 174.936C115.372 175.032 115.708 175.152 116.012 175.296C116.324 175.44 116.612 175.584 116.876 175.728C117.148 175.872 117.404 175.992 117.644 176.088C117.892 176.184 118.132 176.232 118.364 176.232H118.808L119 177.828C118.656 177.844 118.332 177.912 118.028 178.032C117.732 178.144 117.436 178.288 117.14 178.464C116.852 178.632 116.54 178.808 116.204 178.992C115.876 179.176 115.504 179.348 115.088 179.508C114.672 179.668 114.192 179.8 113.648 179.904C113.104 180.008 112.472 180.06 111.752 180.06ZM115.352 182.82C115.12 182.82 114.92 182.74 114.752 182.58C114.592 182.42 114.512 182.224 114.512 181.992C114.512 181.76 114.592 181.556 114.752 181.38C114.92 181.212 115.12 181.128 115.352 181.128C115.584 181.128 115.78 181.212 115.94 181.38C116.108 181.556 116.192 181.76 116.192 181.992C116.192 182.224 116.108 182.42 115.94 182.58C115.78 182.74 115.584 182.82 115.352 182.82Z" fill="#595AD4"/>
<path d="M119.983 182.76L119.635 181.08C120.203 181.008 120.699 180.92 121.123 180.816C121.547 180.72 121.903 180.584 122.191 180.408C122.479 180.232 122.695 179.992 122.839 179.688C122.983 179.376 123.055 178.976 123.055 178.488C123.055 178.016 122.983 177.64 122.839 177.36C122.695 177.08 122.503 176.94 122.263 176.94C122.095 176.94 121.955 177 121.843 177.12C121.731 177.232 121.647 177.368 121.591 177.528C121.543 177.68 121.519 177.816 121.519 177.936C121.519 178.008 121.539 178.084 121.579 178.164C121.619 178.244 121.707 178.312 121.843 178.368C121.979 178.424 122.191 178.456 122.479 178.464C122.775 178.472 123.175 178.444 123.679 178.38H125.695C125.999 178.38 126.215 178.46 126.343 178.62C126.479 178.772 126.547 178.964 126.547 179.196C126.547 179.444 126.463 179.652 126.295 179.82C126.127 179.98 125.887 180.06 125.575 180.06H122.275C121.771 180.06 121.339 180 120.979 179.88C120.619 179.76 120.343 179.568 120.151 179.304C119.959 179.032 119.863 178.672 119.863 178.224C119.863 177.864 119.923 177.504 120.043 177.144C120.171 176.784 120.347 176.456 120.571 176.16C120.795 175.856 121.055 175.616 121.351 175.44C121.655 175.256 121.983 175.164 122.335 175.164C122.815 175.164 123.235 175.312 123.595 175.608C123.955 175.904 124.235 176.296 124.435 176.784C124.643 177.272 124.747 177.804 124.747 178.38C124.747 179.284 124.555 180.052 124.171 180.684C123.787 181.316 123.239 181.804 122.527 182.148C121.815 182.5 120.967 182.704 119.983 182.76Z" fill="#595AD4"/>
<path d="M125.592 180.06L125.712 178.38C126.192 178.38 126.56 178.356 126.816 178.308C127.072 178.26 127.248 178.172 127.344 178.044C127.448 177.908 127.5 177.716 127.5 177.468C127.5 177.244 127.468 176.976 127.404 176.664C127.348 176.352 127.272 176.028 127.176 175.692C127.088 175.356 126.992 175.048 126.888 174.768L128.544 174.312C128.648 174.584 128.748 174.9 128.844 175.26C128.94 175.62 129.02 175.992 129.084 176.376C129.148 176.752 129.18 177.116 129.18 177.468C129.18 178.012 129.092 178.456 128.916 178.8C128.74 179.136 128.492 179.396 128.172 179.58C127.86 179.764 127.484 179.892 127.044 179.964C126.604 180.028 126.12 180.06 125.592 180.06ZM128.844 173.34C128.612 173.34 128.412 173.26 128.244 173.1C128.084 172.932 128.004 172.736 128.004 172.512C128.004 172.28 128.084 172.08 128.244 171.912C128.412 171.744 128.612 171.66 128.844 171.66C129.068 171.66 129.26 171.744 129.42 171.912C129.58 172.08 129.66 172.28 129.66 172.512C129.66 172.736 129.58 172.932 129.42 173.1C129.26 173.26 129.068 173.34 128.844 173.34ZM126.768 173.328C126.536 173.328 126.336 173.248 126.168 173.088C126.008 172.92 125.928 172.724 125.928 172.5C125.928 172.268 126.008 172.068 126.168 171.9C126.336 171.732 126.536 171.648 126.768 171.648C126.992 171.648 127.184 171.732 127.344 171.9C127.504 172.068 127.584 172.268 127.584 172.5C127.584 172.724 127.504 172.92 127.344 173.088C127.184 173.248 126.992 173.328 126.768 173.328Z" fill="#595AD4"/>
<path d="M137.41 173.568C137.41 173.304 137.394 173.04 137.362 172.776C137.338 172.512 137.306 172.264 137.266 172.032C137.226 171.792 137.19 171.584 137.158 171.408L138.838 171.168C138.87 171.328 138.902 171.54 138.934 171.804C138.966 172.068 138.994 172.348 139.018 172.644C139.042 172.932 139.054 173.208 139.054 173.472C139.054 173.888 139.018 174.28 138.946 174.648C138.874 175.016 138.766 175.364 138.622 175.692C138.478 176.012 138.298 176.32 138.082 176.616L137.866 176.904C137.658 177.16 137.414 177.412 137.134 177.66C136.862 177.908 136.562 178.148 136.234 178.38H137.014C137.286 178.38 137.494 178.364 137.638 178.332C137.782 178.3 137.878 178.256 137.926 178.2C137.982 178.136 138.01 178.064 138.01 177.984C138.01 177.84 137.886 177.628 137.638 177.348C137.39 177.06 137.046 176.732 136.606 176.364C136.166 175.988 135.65 175.592 135.058 175.176C134.474 174.752 133.842 174.328 133.162 173.904L134.038 172.62C134.982 173.204 135.778 173.74 136.426 174.228C137.082 174.716 137.618 175.16 138.034 175.56C138.458 175.96 138.786 176.324 139.018 176.652C139.25 176.98 139.41 177.276 139.498 177.54C139.586 177.796 139.63 178.028 139.63 178.236C139.63 178.468 139.594 178.692 139.522 178.908C139.45 179.116 139.334 179.304 139.174 179.472C139.014 179.632 138.806 179.76 138.55 179.856C138.294 179.952 137.978 180 137.602 180H134.074V178.392C134.898 177.8 135.55 177.24 136.03 176.712C136.518 176.184 136.87 175.664 137.086 175.152C137.302 174.64 137.41 174.112 137.41 173.568Z" fill="#595AD4"/>
<path d="M144.913 180.048C144.689 180.048 144.489 180.004 144.313 179.916C144.137 179.828 144.001 179.708 143.905 179.556C143.809 179.396 143.761 179.216 143.761 179.016C143.761 178.824 143.797 178.608 143.869 178.368C143.949 178.12 144.049 177.872 144.169 177.624C144.297 177.368 144.425 177.132 144.553 176.916L145.693 177.456C145.613 177.6 145.537 177.756 145.465 177.924C145.393 178.084 145.329 178.228 145.273 178.356C145.225 178.476 145.197 178.56 145.189 178.608C145.397 178.664 145.557 178.752 145.669 178.872C145.781 178.984 145.837 179.132 145.837 179.316C145.837 179.556 145.749 179.74 145.573 179.868C145.405 179.988 145.185 180.048 144.913 180.048Z" fill="#595AD4"/>
<path d="M147.166 168.66V167.82L149.998 166.98V167.844L147.166 168.66ZM147.166 169.92V169.08L149.998 168.24V169.104L147.166 169.92Z" fill="#595AD4"/>
<path d="M147.88 180L147.628 171.216H149.308L149.56 180H147.88Z" fill="#595AD4"/>
<path d="M150.088 182.76L149.476 181.224C150.164 180.984 150.72 180.72 151.144 180.432C151.576 180.144 151.892 179.836 152.092 179.508C152.3 179.18 152.404 178.84 152.404 178.488C152.404 178.264 152.372 178.032 152.308 177.792C152.244 177.544 152.152 177.284 152.032 177.012C151.92 176.74 151.784 176.456 151.624 176.16L153.196 175.404C153.476 175.94 153.692 176.452 153.844 176.94C154.004 177.428 154.084 177.884 154.084 178.308C154.084 178.7 154.032 179.076 153.928 179.436C153.832 179.796 153.68 180.132 153.472 180.444C153.272 180.764 153.012 181.064 152.692 181.344C152.372 181.624 151.996 181.88 151.564 182.112C151.132 182.352 150.64 182.568 150.088 182.76Z" fill="#595AD4"/>
<path d="M157.423 178.38C157.783 178.38 158.059 178.348 158.251 178.284C158.443 178.22 158.575 178.136 158.647 178.032C158.719 177.928 158.755 177.816 158.755 177.696C158.755 177.504 158.699 177.28 158.587 177.024C158.483 176.768 158.351 176.5 158.191 176.22C158.031 175.94 157.863 175.672 157.687 175.416C157.519 175.16 157.367 174.936 157.231 174.744L158.659 173.796C159.003 174.26 159.299 174.72 159.547 175.176C159.795 175.624 159.995 176.04 160.147 176.424C160.307 176.808 160.419 177.136 160.483 177.408C160.547 177.664 160.643 177.864 160.771 178.008C160.907 178.144 161.063 178.24 161.239 178.296C161.415 178.352 161.591 178.38 161.767 178.38C162.071 178.38 162.287 178.46 162.415 178.62C162.551 178.772 162.619 178.964 162.619 179.196C162.619 179.444 162.535 179.652 162.367 179.82C162.207 179.98 161.967 180.06 161.647 180.06C161.295 180.06 160.987 180.012 160.723 179.916C160.459 179.82 160.235 179.668 160.051 179.46C159.867 179.252 159.711 178.988 159.583 178.668L160.315 178.824C160.251 179.048 160.103 179.256 159.871 179.448C159.647 179.632 159.347 179.784 158.971 179.904C158.603 180.016 158.167 180.072 157.663 180.072C157.423 180.072 157.155 180.052 156.859 180.012C156.571 179.972 156.283 179.912 155.995 179.832C155.715 179.752 155.459 179.648 155.227 179.52L155.815 177.996C156.111 178.124 156.395 178.22 156.667 178.284C156.947 178.348 157.199 178.38 157.423 178.38ZM157.495 172.884C157.247 172.884 157.035 172.8 156.859 172.632C156.691 172.464 156.607 172.256 156.607 172.008C156.607 171.76 156.691 171.548 156.859 171.372C157.035 171.196 157.247 171.108 157.495 171.108C157.735 171.108 157.939 171.196 158.107 171.372C158.283 171.548 158.371 171.76 158.371 172.008C158.371 172.256 158.283 172.464 158.107 172.632C157.939 172.8 157.735 172.884 157.495 172.884Z" fill="#595AD4"/>
<path d="M161.662 180.06L161.782 178.38C162.158 178.38 162.446 178.376 162.646 178.368C162.854 178.36 163.01 178.352 163.114 178.344C163.218 178.328 163.306 178.316 163.378 178.308C163.298 178.228 163.194 178.112 163.066 177.96C162.938 177.808 162.822 177.612 162.718 177.372C162.622 177.132 162.574 176.844 162.574 176.508C162.574 176.02 162.698 175.592 162.946 175.224C163.202 174.856 163.546 174.568 163.978 174.36C164.41 174.152 164.894 174.048 165.43 174.048C165.686 174.048 165.922 174.064 166.138 174.096C166.362 174.128 166.586 174.176 166.81 174.24L166.546 175.836C166.386 175.796 166.218 175.764 166.042 175.74C165.866 175.716 165.71 175.704 165.574 175.704C165.31 175.704 165.078 175.748 164.878 175.836C164.686 175.916 164.534 176.032 164.422 176.184C164.318 176.328 164.266 176.504 164.266 176.712C164.266 176.848 164.29 176.976 164.338 177.096C164.394 177.216 164.462 177.324 164.542 177.42C164.622 177.516 164.71 177.6 164.806 177.672C164.902 177.744 164.994 177.804 165.082 177.852C165.178 177.892 165.258 177.92 165.322 177.936C165.522 177.88 165.694 177.832 165.838 177.792C165.99 177.744 166.134 177.7 166.27 177.66C166.414 177.612 166.57 177.552 166.738 177.48C166.906 177.408 167.114 177.32 167.362 177.216L167.902 178.8C167.23 179.128 166.574 179.384 165.934 179.568C165.294 179.752 164.63 179.88 163.942 179.952C163.254 180.024 162.494 180.06 161.662 180.06Z" fill="#595AD4"/>
</svg>
