<svg width="788" height="426" viewBox="0 0 788 426" fill="none" xmlns="http://www.w3.org/2000/svg">
<path d="M249.495 253.475V307.239H16.6626L12.8857 265.027L145.298 53.5234H200.173L140.632 152.166L80.4248 253.475H249.495ZM214.836 53.5234V377H145.52V53.5234H214.836ZM504.766 186.38V243.921C504.766 267.619 502.1 288.133 496.768 305.462C491.584 322.791 484.03 337.084 474.106 348.34C464.331 359.597 452.63 367.965 439.004 373.445C425.526 378.777 410.566 381.443 394.126 381.443C380.944 381.443 368.651 379.74 357.246 376.333C345.841 372.927 335.548 367.669 326.365 360.56C317.33 353.302 309.554 344.267 303.037 333.455C296.52 322.643 291.484 309.757 287.93 294.798C284.523 279.839 282.82 262.88 282.82 243.921V186.38C282.82 162.386 285.412 141.798 290.596 124.617C295.928 107.436 303.556 93.2174 313.479 81.9609C323.403 70.7044 335.103 62.4102 348.582 57.0781C362.208 51.7461 377.241 49.0801 393.682 49.0801C406.864 49.0801 419.083 50.7834 430.339 54.1899C441.744 57.5965 452.038 62.8545 461.221 69.9639C470.404 77.0732 478.18 86.034 484.548 96.8462C491.065 107.658 496.027 120.544 499.434 135.503C502.988 150.315 504.766 167.273 504.766 186.38ZM435.449 252.586V177.271C435.449 166.163 434.783 156.535 433.45 148.389C432.265 140.095 430.487 133.06 428.118 127.283C425.896 121.507 423.082 116.841 419.675 113.287C416.269 109.732 412.344 107.14 407.9 105.511C403.605 103.733 398.866 102.845 393.682 102.845C387.165 102.845 381.314 104.178 376.13 106.844C370.946 109.51 366.577 113.731 363.022 119.507C359.468 125.136 356.728 132.763 354.802 142.391C353.025 151.87 352.136 163.497 352.136 177.271V252.586C352.136 263.694 352.729 273.396 353.914 281.69C355.247 289.984 357.024 297.094 359.246 303.018C361.615 308.794 364.504 313.534 367.91 317.237C371.317 320.792 375.242 323.383 379.685 325.013C384.128 326.642 388.942 327.457 394.126 327.457C400.643 327.457 406.419 326.198 411.455 323.68C416.491 321.014 420.786 316.792 424.341 311.016C428.044 305.092 430.784 297.316 432.561 287.688C434.486 278.061 435.449 266.36 435.449 252.586ZM774.7 253.475V307.239H541.868L538.091 265.027L670.503 53.5234H725.378L665.837 152.166L605.63 253.475H774.7ZM740.042 53.5234V377H670.725V53.5234H740.042Z" fill="#E5E7EB"/>
<g clip-path="url(#clip0_3057_7476)">
<path d="M331.446 111.304C331.446 111.304 324.967 91.6263 327.071 88.8015C329.174 85.9766 357.773 73.5665 394.301 65.8162C430.829 58.0659 432.546 61.0115 435.374 63.1121C438.202 65.2126 441.635 87.4977 441.563 92.0851C441.466 96.6725 331.446 111.304 331.446 111.304Z" fill="url(#paint0_linear_3057_7476)"/>
<path d="M504.441 260.491L501.903 266.068L484.183 305.061L467.212 342.412C458.775 336.496 456.164 314.912 456.575 298.493C456.986 282.051 454.714 271.138 454.714 271.138C449.661 268.724 445.455 264.378 442.288 260.177C440.112 257.279 438.42 254.479 437.284 252.402C436.196 250.447 435.64 249.167 435.64 249.167C415.841 250.133 402.351 237.312 399.16 235.236C395.969 233.159 389.974 235.091 384.027 248.491C378.66 260.539 365.049 265.416 362.39 266.261C362.1 266.358 361.931 266.406 361.931 266.406C361.351 269.641 360.746 272.563 360.118 275.194C355.065 296.514 348.901 299.363 348.901 299.363C348.224 306.268 352.358 316.312 353.615 329.181C354.872 342.074 353.566 362.017 353.566 362.017L335.749 350.959L300.889 329.35C300.889 329.35 287.69 298.204 288.512 287.822C288.729 284.973 289.406 282.317 290.277 279.951C291.292 277.198 292.549 274.856 293.637 273.118C293.637 273.118 293.637 273.118 293.637 273.094C294.966 270.969 296.054 269.738 296.054 269.738C296.054 269.738 296.006 268.072 296.078 265.488C296.103 264.329 296.175 262.977 296.272 261.505C296.514 258.221 296.949 254.334 297.795 250.543C298.012 249.577 298.278 248.636 298.593 247.742C299.149 246.101 299.85 244.555 300.623 243.155C301.373 241.755 302.195 240.499 302.992 239.389C302.992 239.364 303.041 239.34 303.089 239.268C303.113 239.244 303.138 239.22 303.138 239.195L303.162 239.171C303.162 239.147 303.186 239.147 303.186 239.147C303.21 239.099 303.234 239.075 303.258 239.026C303.331 238.93 303.379 238.857 303.452 238.761C303.524 238.688 303.573 238.592 303.645 238.519C303.887 238.205 304.105 237.916 304.322 237.65C305.797 235.839 306.933 234.777 307.006 234.705C307.006 234.705 307.779 231.976 308.843 228.065C309.665 225.047 310.656 221.329 311.55 217.586C313.654 209.039 313.436 205.997 318.875 201.82C324.242 197.716 325.572 194.239 328.715 191.728C328.715 191.728 328.715 191.728 328.739 191.728C328.787 191.68 328.835 191.655 328.884 191.607C330.721 190.207 334.057 188.082 336.644 186.513C336.644 186.513 336.644 186.513 336.668 186.489C338.675 185.257 340.222 184.34 340.222 184.34C340.198 178.231 342.132 173.137 342.132 173.137C341.551 172.316 341.02 170.867 340.609 169.539C340.101 167.922 339.762 166.449 339.762 166.449C338.868 167.053 338.022 167.584 337.176 168.067L337.152 168.091C327.917 173.33 321.39 171.519 321.39 171.519C318.9 172.557 316.458 173.282 314.089 173.74C310.825 174.368 307.707 174.465 304.757 174.175C289.358 172.775 278.673 161.451 278.673 161.451L286.723 150.079L304.467 124.969C307.658 125.573 309.931 126.514 311.55 127.504C311.55 127.504 311.55 127.504 311.575 127.504C312.131 127.842 312.614 128.18 313.025 128.518C313.267 128.712 313.46 128.905 313.654 129.074C314.596 129.943 315.007 130.691 315.152 130.957C315.177 131.029 315.201 131.078 315.201 131.078V131.054C315.249 130.474 315.322 129.919 315.443 129.412C315.684 128.18 316.047 127.19 316.482 126.394C316.579 126.225 316.675 126.056 316.772 125.911C317.28 125.066 317.86 124.486 318.416 124.076C319.48 123.255 320.398 123.11 320.398 123.11C320.447 122.603 320.519 122.096 320.592 121.613C323.13 103.119 335.048 102.66 335.048 102.66C337.538 88.7529 351.656 88.5598 351.656 88.5598C351.656 88.5598 354.654 89.26 359.368 89.9119H359.392C366.935 90.9742 378.829 91.9158 389.949 89.7429C402.206 87.3526 409.797 80.7371 413.423 76.7291C415.14 74.7976 415.986 73.4697 415.986 73.4697C427.638 70.7655 436.679 85.4211 436.679 85.4211C443.376 85.4452 448.718 89.8877 451.789 93.1955C453.626 95.1994 454.665 96.793 454.665 96.793C454.738 96.6964 454.81 96.5998 454.883 96.5032C455.657 95.5375 456.503 94.6924 457.373 93.9439C457.373 93.9439 457.373 93.944 457.373 93.9198L457.397 93.8957C457.421 93.8715 457.446 93.8474 457.446 93.8474C457.591 93.7266 457.76 93.5818 457.905 93.4611C459.331 92.3263 460.806 91.4571 462.232 90.7811C465.858 89.0185 468.977 88.5598 468.977 88.5598L484.715 121.058L488.123 128.084C488.123 128.084 486.238 138.2 475.238 143.826C474.271 144.333 473.208 144.792 472.095 145.202C471.298 145.492 470.476 145.733 469.654 145.926C460.806 147.979 451.112 144.043 445.576 141.17C445.576 141.17 445.503 141.146 445.358 141.073C445.31 141.049 445.261 141.025 445.237 141.001C445.141 140.953 445.02 140.88 444.875 140.808C442.505 139.528 441.055 138.562 441.055 138.562C441.635 140.059 442.046 141.677 442.36 143.271C442.409 143.584 442.481 143.898 442.53 144.212C443.738 151.455 442.796 158.65 442.796 158.65C444.488 163.407 445.261 167.004 445.503 169.684C445.938 174.272 444.899 176.203 444.536 176.71C444.488 176.783 444.439 176.831 444.439 176.855C444.488 176.831 444.778 176.638 445.334 176.396C445.334 176.396 445.358 176.396 445.358 176.372C446.035 176.058 447.075 175.648 448.452 175.31C448.646 175.262 448.863 175.213 449.081 175.165C449.105 175.165 449.129 175.165 449.154 175.141C449.927 174.996 450.773 174.851 451.716 174.779C455.125 174.489 459.67 174.827 465.327 176.783C465.472 176.831 465.617 176.879 465.762 176.928C466.028 177.024 466.318 177.121 466.584 177.241C481.089 182.746 487.277 205.973 487.277 205.973C488.897 206.963 491.339 209.353 493.708 212.757C497.165 217.707 500.549 224.805 501.323 232.87C502.725 246.487 504.441 260.491 504.441 260.491Z" fill="url(#paint1_linear_3057_7476)"/>
<path d="M304.806 174.104C289.406 172.703 278.721 161.38 278.721 161.38L286.771 150.008C289.503 153.509 295.45 159.834 303.984 161.959C306.933 162.684 309.641 162.853 312.01 162.659C310.366 166.619 308.045 170.506 304.806 174.104Z" fill="url(#paint2_linear_3057_7476)"/>
<path d="M435.568 175.117L423.456 193.442C423.456 193.442 412.795 210.633 392.802 208.943C372.81 207.253 354.751 189.024 340.415 197.257C326.08 205.49 317.788 223.985 317.788 223.985L326.031 221.522C326.031 221.522 311.551 231.083 308.964 237.119C308.359 238.52 308.384 239.727 309.375 240.596L300.648 243.155C301.397 241.755 302.219 240.499 303.017 239.389C303.017 239.365 303.065 239.34 303.114 239.268C303.138 239.244 303.162 239.22 303.162 239.196L303.186 239.171C303.186 239.147 303.21 239.147 303.21 239.147C303.234 239.099 303.259 239.075 303.283 239.027C303.355 238.93 303.404 238.858 303.476 238.761C303.549 238.689 303.597 238.592 303.67 238.52C303.911 238.206 304.129 237.916 304.346 237.65C305.821 235.84 306.957 234.777 307.03 234.705C307.03 234.705 307.803 231.976 308.867 228.065C309.689 225.047 310.68 221.329 311.575 217.587C313.678 209.039 313.46 205.997 318.9 201.82C324.267 197.716 325.596 194.239 328.739 191.728C328.739 191.728 328.739 191.728 328.763 191.728C328.811 191.68 328.86 191.656 328.908 191.607C330.745 190.207 334.082 188.082 336.668 186.513C336.668 186.513 336.668 186.513 336.692 186.489C338.699 185.257 340.246 184.34 340.246 184.34C340.222 178.231 342.156 173.137 342.156 173.137C341.576 172.316 341.044 170.868 340.633 169.54C340.125 167.922 339.787 166.449 339.787 166.449C338.892 167.053 338.046 167.584 337.2 168.067L337.176 168.091C327.941 173.33 321.414 171.519 321.414 171.519C318.924 172.558 316.482 173.282 314.113 173.741C315.636 171.012 317.425 166.908 318.561 161.234C321.777 159.978 323.565 158.409 323.565 158.409C323.565 158.409 326.08 161.669 332.172 161.258C338.264 160.848 350.109 155.464 350.061 148.969C350.061 148.969 354.824 170.723 379.192 178.28C403.415 185.692 425.487 178.859 435.568 175.117Z" fill="url(#paint3_linear_3057_7476)"/>
<path d="M348.901 299.338C348.224 306.244 352.358 316.287 353.615 329.156C354.872 342.049 353.566 361.992 353.566 361.992L335.749 350.934C339.883 339.635 334.517 322.541 333.961 309.889C333.284 294.292 342.784 293.64 342.784 293.64C338.336 280.216 344.501 269.641 350.907 264.426C355.283 268.458 358.208 272.2 360.118 275.17C355.041 296.489 348.901 299.338 348.901 299.338Z" fill="url(#paint4_linear_3057_7476)"/>
<path d="M444.778 234.925C440.161 242.482 438.106 249.049 437.284 252.405C436.196 250.449 435.64 249.17 435.64 249.17C415.841 250.135 402.351 237.315 399.16 235.238C395.969 233.162 389.974 235.094 384.027 248.494C378.66 260.542 365.05 265.419 362.39 266.264C361.254 264.815 359.344 262.449 356.854 259.672C361.52 255.061 365.436 248.445 371.867 238.232C380.135 225.074 390.651 222.418 395.921 221.331C404.213 219.617 408.008 224.712 426.913 232.969C433.44 235.818 439.556 235.963 444.778 234.925Z" fill="url(#paint5_linear_3057_7476)"/>
<path d="M484.183 305.061L467.212 342.412C458.775 336.497 456.164 314.912 456.575 298.494C456.986 282.052 454.714 271.138 454.714 271.138C449.661 268.724 445.455 264.378 442.288 260.177C444.899 254.793 450.822 243.493 458.461 233.98C455.753 244.99 461.096 253.537 467.406 261.119C467.406 261.119 465.496 278.044 468.808 292.699C470.935 302.212 478.889 304.578 484.183 305.061Z" fill="url(#paint6_linear_3057_7476)"/>
<path d="M504.442 260.49L501.903 266.068C497.117 260.732 492.959 249.456 490.783 233.932C487.809 212.757 474.731 209.836 474.731 209.836C479.904 192.887 468.083 179.293 465.834 176.879C466.1 176.975 466.391 177.072 466.656 177.193C481.161 182.698 487.35 205.924 487.35 205.924C488.97 206.914 491.411 209.305 493.781 212.709C497.238 217.658 500.622 224.757 501.396 232.821C502.725 246.487 504.442 260.49 504.442 260.49Z" fill="url(#paint7_linear_3057_7476)"/>
<path d="M344.09 100.439C345.371 107.996 357.99 108.262 357.99 108.262C350.134 110.7 343.582 110 335.484 108.648C327.361 107.296 321.849 121.782 324.049 122.724C326.249 123.666 328.352 127.456 328.352 127.456C322.042 124.462 321.1 127.577 323.082 134.313C325.064 141.049 324.242 151.407 324.242 151.407C323.009 144.406 318.392 134.941 315.443 129.364C315.684 128.132 316.047 127.142 316.482 126.346C316.579 126.177 316.676 126.008 316.772 125.863C317.28 125.018 317.86 124.438 318.416 124.028C319.48 123.207 320.398 123.062 320.398 123.062C320.447 122.555 320.519 122.048 320.592 121.565C323.13 103.071 335.048 102.612 335.048 102.612C337.538 88.7049 351.657 88.5117 351.657 88.5117C351.657 88.5117 354.654 89.2119 359.368 89.8638C353.591 89.0912 342.809 92.906 344.09 100.439Z" fill="url(#paint8_linear_3057_7476)"/>
<path d="M454.883 96.4336L454.593 97.8581C445.818 88.9248 434.359 90.47 434.359 90.47C432.908 97.0614 421.522 98.2203 421.522 98.2203C421.522 98.2203 430.37 93.4156 429.209 87.7659C428.049 82.1161 413.568 76.9976 413.568 76.9976C413.52 76.8768 413.496 76.7561 413.448 76.6354C415.164 74.7039 416.01 73.3759 416.01 73.3759C427.662 70.6718 436.704 85.3273 436.704 85.3273C443.4 85.3514 448.743 89.794 451.813 93.1017C453.65 95.1057 454.69 96.6992 454.69 96.6992C454.738 96.6268 454.811 96.5302 454.883 96.4336Z" fill="url(#paint9_linear_3057_7476)"/>
<path d="M305.458 251.172C305.192 251.824 296.538 272.636 290.252 279.928C291.268 277.175 292.525 274.833 293.613 273.095C293.613 273.095 293.613 273.095 293.613 273.071C294.942 270.946 296.03 269.715 296.03 269.715C296.03 269.715 295.982 268.049 296.054 265.465C296.079 264.306 296.151 262.954 296.248 261.481C298.907 259.574 303.234 255.88 305.458 251.172Z" fill="#CEC4D6"/>
<path d="M463.199 135.087C464.892 138.685 467.019 142.331 469.654 145.88C460.806 147.932 451.112 143.997 445.576 141.124C445.576 141.124 445.503 141.099 445.358 141.027C445.31 141.003 445.262 140.979 445.237 140.955C445.141 140.906 445.02 140.834 444.875 140.761C442.506 139.482 441.055 138.516 441.055 138.516C441.635 140.013 442.046 141.631 442.361 143.224C442.409 143.538 442.481 143.852 442.53 144.166C431.168 128.4 426.139 107.756 425.897 106.742C426.26 107.732 433.513 128.11 451.039 133.615C455.584 135.039 459.621 135.401 463.199 135.087Z" fill="#E5DFE9"/>
<path d="M488.123 128.038C488.123 128.038 486.238 138.154 475.238 143.78C473.522 141.534 471.346 138.251 469.17 133.832C477.752 130.911 482.805 124.102 484.715 121.012L488.123 128.038Z" fill="#E5DFE9"/>
<path d="M448.477 175.262C448.477 175.286 432.256 184.388 429.645 187.285C427.034 190.207 424.737 194.649 412.311 198.464C409.314 199.382 405.712 200.275 401.771 200.951C390.917 202.786 377.403 202.883 366.331 196.629C366.331 196.629 361.979 189.096 352.164 184.919C352.696 185.04 360.722 186.803 366.814 187.189C367.298 187.213 367.757 187.237 368.192 187.237C368.942 187.261 369.619 187.237 370.247 187.213C370.247 187.213 371.359 185.716 372.785 185.137C374.115 184.581 377.5 184.63 381.972 184.605C382.552 184.605 383.132 184.581 383.737 184.581C386.323 184.533 389.2 184.461 392.198 184.195C394.857 183.978 397.444 183.664 399.789 183.35C400.393 183.277 400.998 183.181 401.554 183.108C405.736 182.505 408.854 181.925 409.604 181.877C411.634 181.732 413.302 182.939 413.979 183.543C414.197 183.736 414.318 183.857 414.318 183.857C414.318 183.857 414.729 183.712 415.478 183.447C416.88 182.939 419.419 181.998 422.513 180.791C422.948 180.622 423.383 180.453 423.843 180.259C424.737 179.897 425.656 179.535 426.623 179.149C426.937 179.004 427.276 178.883 427.59 178.738C429.935 177.748 432.401 176.686 434.77 175.575C435.012 175.455 435.277 175.334 435.519 175.213C439.387 173.378 442.965 171.471 445.503 169.66C445.552 170.215 445.6 170.747 445.6 171.23C445.697 174.706 444.851 176.227 444.536 176.686C444.488 176.759 444.44 176.807 444.44 176.831C444.488 176.807 444.778 176.614 445.334 176.372C445.334 176.372 445.358 176.372 445.358 176.348C446.059 176.01 447.099 175.6 448.477 175.262Z" fill="url(#paint10_linear_3057_7476)"/>
<path d="M445.648 171.205C441.66 173.644 427.227 182.167 415.647 185.064L415.454 190.159C415.478 189.627 415.309 183.809 403.415 185.716C390.941 187.72 378.708 187.768 378.708 187.768C378.708 187.768 382.069 202.52 401.771 200.951C390.917 202.786 377.403 202.883 366.331 196.629C366.331 196.629 361.979 189.096 352.164 184.919C352.696 185.04 360.722 186.803 366.814 187.189C367.298 187.213 367.757 187.237 368.192 187.237C368.942 187.261 369.619 187.237 370.247 187.213C370.247 187.213 371.359 185.716 372.785 185.137C374.115 184.581 377.5 184.63 381.972 184.605C382.552 184.605 383.132 184.581 383.737 184.581C386.323 184.533 389.2 184.461 392.198 184.195C394.857 183.978 397.444 183.664 399.789 183.35C400.393 183.277 400.998 183.181 401.554 183.108C405.736 182.505 408.854 181.925 409.604 181.877C411.634 181.732 413.303 182.939 413.979 183.543C414.197 183.736 414.318 183.857 414.318 183.857C414.318 183.857 414.729 183.712 415.478 183.447C416.88 182.939 419.419 181.998 422.513 180.791C422.948 180.622 423.383 180.453 423.843 180.259C424.737 179.897 425.656 179.535 426.623 179.149C426.937 179.004 427.276 178.883 427.59 178.738C429.935 177.748 432.401 176.686 434.77 175.575C435.012 175.455 435.277 175.334 435.519 175.213C439.387 173.378 442.965 171.471 445.503 169.66C445.6 170.191 445.648 170.723 445.648 171.205Z" fill="url(#paint11_linear_3057_7476)"/>
<path d="M383.761 184.555L383.785 200.393L381.996 184.579C382.576 184.579 383.156 184.555 383.761 184.555Z" fill="#5C479E"/>
<path d="M401.602 183.082L400.901 199.234L399.813 183.323C400.417 183.251 401.022 183.154 401.602 183.082Z" fill="#5C479E"/>
<path d="M368.216 187.236L367.298 193.9L366.838 187.188C367.298 187.212 367.757 187.212 368.216 187.236Z" fill="#5C479E"/>
<path d="M414.777 195.229C414.729 190.642 414.294 185.885 414.052 183.495C414.269 183.688 414.39 183.809 414.39 183.809C414.39 183.809 414.801 183.664 415.551 183.398C415.937 189.942 414.777 195.229 414.777 195.229Z" fill="#5C479E"/>
<path d="M423.891 180.211L423.214 190.062L422.585 180.718C422.996 180.573 423.432 180.404 423.891 180.211Z" fill="#5C479E"/>
<path d="M427.638 178.688L427.13 185.979L426.671 179.074C426.985 178.977 427.3 178.832 427.638 178.688Z" fill="#5C479E"/>
<path d="M435.568 175.188L435.181 180.861L434.818 175.526C435.084 175.429 435.326 175.308 435.568 175.188Z" fill="#5C479E"/>
<path d="M378.177 202.306C369.933 204.769 360.215 185.598 344.283 187.071C338.796 187.578 332.728 189.896 328.763 191.682C328.812 191.634 328.86 191.61 328.908 191.562C330.746 190.161 334.082 188.037 336.668 186.467C336.668 186.467 336.668 186.467 336.693 186.443C337.104 186.25 341.624 184.27 350.593 184.729C362.124 185.333 370.102 201.34 378.177 202.306Z" fill="#ACA5B5"/>
<path d="M465.375 176.735C442.941 173.91 421.715 196.292 421.715 196.292C430.95 184.364 439.097 179.028 444.585 176.662C444.851 176.542 445.117 176.445 445.358 176.348C445.358 176.348 445.383 176.348 445.383 176.324C446.857 175.721 448.114 175.359 449.105 175.141C449.13 175.141 449.154 175.141 449.178 175.117C450.749 174.755 451.668 174.755 451.74 174.755C455.173 174.441 459.718 174.779 465.375 176.735Z" fill="#ACA5B5"/>
<path d="M325.983 221.523C312.058 227.487 304.008 237.966 303.065 239.245C305.168 236.348 307.03 234.634 307.03 234.634C307.03 234.634 307.803 231.905 308.867 227.994C316.361 224.01 325.644 221.596 325.983 221.523Z" fill="#ACA5B5"/>
<path d="M300.769 260.637C297.626 268.604 293.855 272.83 293.637 273.095C294.967 270.97 296.054 269.739 296.054 269.739C296.054 269.739 296.006 268.073 296.079 265.49C298.931 263.703 300.696 260.757 300.769 260.637Z" fill="#ACA5B5"/>
<path d="M457.397 93.8735C456.527 94.6702 449.347 101.913 451.547 123.643C451.547 123.643 446.954 107.37 451.813 93.125C453.65 95.129 454.69 96.7225 454.69 96.7225C455.488 95.636 456.406 94.6944 457.397 93.8735Z" fill="#C0B8CC"/>
<path d="M457.421 93.8477L457.397 93.8712C457.397 93.8712 457.397 93.8712 457.421 93.8477Z" fill="#ACA5B5"/>
<path d="M315.177 130.911C314.331 129.776 313.63 128.98 313.049 128.473C314.427 129.583 315.007 130.573 315.177 130.911Z" fill="#ACA5B5"/>
<path d="M324.266 151.409C320.785 140.206 317.57 134.195 315.249 131.007C315.443 128.979 315.902 127.458 316.506 126.348C322.381 137.164 324.266 151.409 324.266 151.409Z" fill="#ACA5B5"/>
<path d="M328.28 126.324C323.396 122.074 318.416 124.006 318.416 124.006C319.48 123.185 320.399 123.04 320.399 123.04C320.447 122.533 320.519 122.026 320.592 121.543C325.935 122.605 328.28 126.324 328.28 126.324Z" fill="#ACA5B5"/>
<path d="M350.375 158.797C350.182 159.038 345.468 165.123 340.657 169.469C340.149 167.851 339.811 166.378 339.811 166.378C338.917 166.982 350.375 158.797 350.375 158.797Z" fill="#ACA5B5"/>
<path d="M441.08 138.491C441.66 139.988 442.071 141.605 442.385 143.199C437.574 137.839 435.568 130.934 435.495 130.668C438.565 136.68 443.159 139.746 444.899 140.736C442.506 139.481 441.08 138.491 441.08 138.491Z" fill="#ACA5B5"/>
<path d="M361.471 167.295L365.098 172.679C359.296 177.266 349.021 183.326 343.34 184.075C337.659 184.848 334.154 183.93 333.55 180.55C333.09 177.966 337.659 173.548 339.883 171.568C340.584 170.94 341.044 170.578 341.044 170.578L342.204 173.089C342.204 173.089 335.508 179.995 340.004 180.815C340.149 180.84 340.294 180.864 340.464 180.888C345.879 181.322 361.278 166.836 361.278 166.836" fill="#34254C"/>
<path d="M339.98 180.815C339.98 180.815 335.846 181.153 336.016 178.087C336.112 176.421 338.07 173.693 339.835 171.568C340.536 170.94 340.996 170.578 340.996 170.578L342.156 173.089C342.18 173.089 335.484 179.994 339.98 180.815Z" fill="#51347F"/>
<path d="M454.932 161.815C453.916 163.336 452.055 164.905 449.105 166.571C441.805 170.675 426.985 167.319 426.985 167.319L425.293 159.424C425.293 159.424 434.818 164.495 444.319 163.843C446.446 163.698 448.138 163.336 449.396 162.877C452.659 161.67 453.263 159.642 452.345 158.338C451.064 156.527 442.892 157.951 442.892 157.951L443.086 151.336C443.086 151.336 446.906 151.529 450.242 152.495C452.2 153.074 454.013 153.895 454.811 155.102C456.14 157.131 456.6 159.376 454.932 161.815Z" fill="#34254C"/>
<path d="M454.932 161.816C452.707 163.458 449.42 162.878 449.42 162.878C455.633 161.019 451.886 154.79 450.266 152.496C452.224 153.076 454.037 153.896 454.835 155.104C456.14 157.132 456.6 159.377 454.932 161.816Z" fill="#51347F"/>
<path d="M347.208 82.2084C347.208 82.2084 335.943 87.2546 337.273 112.34C338.602 137.426 359.368 150.536 359.368 150.536L359.731 155.848C359.731 155.848 343.727 150.826 334.686 130.449C325.644 110.071 332.704 84.7919 346.894 79.625L347.208 82.2084Z" fill="url(#paint12_linear_3057_7476)"/>
<path d="M415.454 65.0435C415.454 65.0435 429.935 70.5484 436.244 90.3466C442.554 110.145 431.264 123.883 420.023 132.671L423.674 141.194C423.674 141.194 443.497 129.17 445.479 108.044C447.486 86.9182 432.787 67.3131 418.089 59.1523L415.454 65.0435Z" fill="url(#paint13_linear_3057_7476)"/>
<path d="M427.614 170.7C427.542 171.835 417.557 173.573 413.689 174.273C398.121 177.122 382.141 179.102 365.823 180.237C365.243 180.285 364.687 179.923 364.518 179.344C360.505 166.692 357.725 153.702 356.032 140.399C355.525 136.463 355.114 132.528 354.799 128.544C354.703 127.289 355.5 126.154 356.709 125.816C377.814 119.876 398.749 116.472 419.515 116.496C420.748 116.496 421.812 117.365 422.078 118.548C425.511 133.783 428.17 162.274 427.614 170.7Z" fill="url(#paint14_linear_3057_7476)"/>
<path d="M427.01 167.294C426.937 168.428 416.953 170.167 413.085 170.867C397.516 173.716 381.537 175.696 365.219 176.831C364.638 176.879 364.082 176.517 363.913 175.937C359.9 163.286 357.12 150.296 355.428 136.993C354.92 133.057 354.509 129.122 354.195 125.138C354.098 123.882 354.896 122.748 356.105 122.41C377.209 116.47 398.145 113.066 418.911 113.09C420.144 113.09 421.208 113.959 421.473 115.142C424.906 130.377 427.566 158.867 427.01 167.294Z" fill="url(#paint15_linear_3057_7476)"/>
<path d="M413.085 170.89C397.71 173.715 381.972 175.67 365.872 176.805C364.905 176.878 364.01 176.274 363.72 175.332C359.828 162.874 357.096 150.078 355.428 137.016C363.72 151.357 381.972 174.149 413.085 170.89Z" fill="url(#paint16_linear_3057_7476)"/>
<path d="M363.14 133.106C363.14 133.106 366.572 155.391 370.126 168.115L374.671 167.415C374.671 167.415 370.851 145.154 369.933 131.488L363.14 133.106Z" fill="url(#paint17_linear_3057_7476)"/>
<path d="M381.585 129.169C381.585 129.169 384.776 153.385 387.846 164.999L393.141 164.25C393.141 164.25 389.297 141.603 388.378 127.938L381.585 129.169Z" fill="url(#paint18_linear_3057_7476)"/>
<path d="M373.511 133.927C373.511 133.927 374.454 142.256 375.614 147.906L380.159 147.206L378.056 133.227C378.056 133.251 375.396 133.42 373.511 133.927Z" fill="url(#paint19_linear_3057_7476)"/>
<path d="M411.997 132.262C412.142 134.459 410.474 136.367 408.274 136.512C406.074 136.656 404.164 134.99 404.019 132.793C403.874 130.596 405.542 128.689 407.742 128.544C409.942 128.399 411.852 130.065 411.997 132.262Z" fill="url(#paint20_linear_3057_7476)"/>
<path d="M414.68 149.258C414.825 151.455 413.157 153.363 410.957 153.508C408.758 153.653 406.848 151.987 406.703 149.789C406.558 147.592 408.226 145.685 410.426 145.54C412.625 145.395 414.535 147.061 414.68 149.258Z" fill="url(#paint21_linear_3057_7476)"/>
<path d="M422.779 99.8599C423.093 104.375 419.685 108.286 415.164 108.576C410.643 108.89 406.727 105.485 406.437 100.971C406.123 96.4555 409.531 92.5442 414.052 92.2544C418.548 91.9406 422.465 95.3449 422.779 99.8599Z" fill="url(#paint22_linear_3057_7476)"/>
<path d="M352.865 120.189C356.612 119.32 365.702 117.485 375.638 115.336C377.765 114.878 377.79 113.163 377.572 112.101L375.686 105.848C375.469 104.834 374.502 104.158 373.486 104.327C368.99 105.075 357.362 105.824 350.182 108.214C349.287 108.528 348.296 108.721 348.852 111.666C349.167 113.405 349.723 116.254 350.617 118.91C350.907 119.851 351.898 120.407 352.865 120.189Z" fill="url(#paint23_linear_3057_7476)"/>
<path d="M347.208 82.2129C347.208 82.2129 348.997 88.2731 351.101 91.1945C351.101 91.1945 390.167 109.134 420.579 73.4968C420.579 73.4968 418.476 65.2395 415.938 61.5938C415.962 61.5938 397.686 91.6774 347.208 82.2129Z" fill="url(#paint24_linear_3057_7476)"/>
<path d="M332.365 46.2852C332.365 46.2852 324.653 50.6553 323.541 51.4762C321.148 53.2628 330.431 79.2661 333.864 79.3868C335.919 79.4593 342.857 76.9724 342.857 76.9724L332.365 46.2852Z" fill="url(#paint25_linear_3057_7476)"/>
<path d="M329.851 54.0833C329.899 54.9283 329.271 55.6527 328.425 55.7009C327.578 55.7492 326.853 55.1215 326.805 54.2764C326.757 53.4314 327.385 52.7071 328.231 52.6588C329.053 52.6105 329.803 53.2624 329.851 54.0833Z" fill="#C8B8D3"/>
<path d="M410.837 21.3177C410.837 21.3177 419.636 20.207 421.014 20.207C424.012 20.207 432.135 46.6208 429.451 48.7455C427.856 50.0251 420.797 52.1739 420.797 52.1739L410.837 21.3177Z" fill="url(#paint26_linear_3057_7476)"/>
<path d="M417.533 26.0531C417.992 26.7533 418.935 26.9706 419.636 26.5118C420.337 26.0531 420.555 25.1115 420.096 24.4113C419.636 23.7111 418.693 23.4938 417.992 23.9526C417.267 24.4113 417.074 25.3529 417.533 26.0531Z" fill="#C8B8D3"/>
<path d="M352.406 9.9474L351.463 6.8328C357.217 2.36613 364.518 0.193153 373.172 0L374.985 4.08037L352.406 9.9474Z" fill="url(#paint27_linear_3057_7476)"/>
<path d="M421.764 56.9804L402.641 63.1372L345.105 81.6558C322.84 57.6081 328.159 18.3255 357.555 6.39832C358.909 5.843 360.263 5.36012 361.617 4.92552C361.617 4.92552 361.617 4.92552 361.641 4.92552C393.987 -5.23918 424.375 20.1846 421.764 56.9804Z" fill="url(#paint28_linear_3057_7476)"/>
<path d="M402.641 63.1374L345.105 81.656C322.84 57.6084 328.159 18.3258 357.555 6.39858C358.909 5.84326 360.263 5.36038 361.617 4.92578C341.938 13.0865 340.174 26.2692 357.773 20.8851C375.372 15.5009 387.991 18.9053 387.991 18.9053L402.641 63.1374Z" fill="url(#paint29_linear_3057_7476)"/>
<path d="M421.764 56.9805C421.764 56.9805 414.995 81.1005 387.169 87.5712C359.344 94.0418 345.105 81.6558 345.105 81.6558L421.764 56.9805Z" fill="url(#paint30_linear_3057_7476)"/>
<path d="M421.764 56.979C421.764 56.979 416.566 66.0573 405.156 73.88C392.826 82.3304 373.221 89.284 345.129 81.6786C332.897 58.7416 339.98 35.5149 357.241 24.481C358.546 23.6601 359.9 22.8875 361.302 22.1873C382.625 11.7811 414.656 20.0626 421.764 56.979Z" fill="url(#paint31_linear_3057_7476)"/>
<path d="M405.156 73.8795C392.826 82.3299 373.221 89.2835 345.129 81.678C332.897 58.7411 339.98 35.5144 357.241 24.4805C355.041 29.8888 352.14 40.7778 354.533 57.389C358.135 82.3058 375.42 89.7663 405.156 73.8795C405.131 73.8795 405.131 73.8795 405.156 73.8795Z" fill="url(#paint32_linear_3057_7476)"/>
<path d="M373.148 22.1406C373.148 22.1406 396.96 18.0844 410.256 39.959C411.32 41.6974 410.861 43.967 409.193 45.15C407.307 46.478 404.696 45.8985 403.56 43.8945C400.03 37.7136 391.134 25.883 373.148 22.1406Z" fill="url(#paint33_linear_3057_7476)"/>
<path d="M414.197 50.1214C415.043 51.57 414.535 53.4533 413.061 54.2742C411.61 55.1192 409.725 54.6122 408.903 53.1394C408.057 51.6908 408.564 49.8075 410.039 48.9866C411.489 48.1657 413.351 48.6727 414.197 50.1214Z" fill="url(#paint34_linear_3057_7476)"/>
<path d="M463.441 227.992C462.136 230.503 460.25 231.638 458.485 233.98C450.846 243.493 444.923 254.792 442.312 260.176C440.137 257.279 438.444 254.478 437.308 252.402C438.13 249.046 440.161 242.479 444.802 234.922C454.472 232.99 463.224 228.161 463.441 227.992Z" fill="#2D2244"/>
<path d="M493.781 212.71C488.655 213.483 480.315 215.752 470.5 222.344C466.221 225.217 462.136 229.37 458.461 233.957C459.887 232.026 461.41 231.277 462.716 228.79C462.522 228.983 454.472 232.991 444.778 234.899C446.688 231.76 449.057 228.452 451.958 225.12C465.061 210.103 487.326 205.926 487.326 205.926C488.97 206.916 491.387 209.306 493.781 212.71Z" fill="url(#paint35_linear_3057_7476)"/>
<path d="M362.39 266.239C362.1 266.336 361.931 266.384 361.931 266.384C361.351 269.619 360.746 272.541 360.118 275.172C358.208 272.203 355.283 268.436 350.907 264.428C351.439 263.994 351.995 263.583 352.551 263.221C354.098 262.183 355.5 261 356.854 259.672C359.344 262.424 361.254 264.79 362.39 266.239Z" fill="#2D2244"/>
<path d="M356.83 259.672C355.476 261 354.074 262.183 352.527 263.222C351.995 263.584 351.439 263.994 350.883 264.429C347.063 260.928 342.132 257.21 335.822 253.66C319.915 244.727 305.797 246.055 298.569 247.721C299.125 246.079 299.826 244.534 300.599 243.134C301.349 241.733 302.171 240.478 302.968 239.367C302.968 239.343 303.017 239.319 303.065 239.246C303.089 239.222 303.113 239.198 303.113 239.174L303.138 239.15C303.138 239.126 303.162 239.126 303.162 239.126C303.186 239.077 303.21 239.053 303.234 239.005C303.307 238.908 303.355 238.836 303.428 238.739C303.5 238.667 303.549 238.57 303.621 238.498C303.863 238.184 304.08 237.894 304.298 237.629C305.628 237.436 307.175 237.267 308.891 237.146C315.491 236.711 324.605 237.194 333.429 241.25C342.881 245.572 351.318 253.588 356.83 259.672Z" fill="url(#paint36_linear_3057_7476)"/>
<path d="M475.262 143.756C474.296 144.263 473.232 144.722 472.12 145.132C471.322 145.422 470.5 145.663 469.678 145.857C467.043 142.283 464.916 138.662 463.223 135.064C465.375 134.871 467.357 134.436 469.195 133.809C471.346 138.251 473.522 141.511 475.262 143.756Z" fill="#2D2244"/>
<path d="M469.17 133.831C467.333 134.459 465.351 134.893 463.199 135.087C455.197 118.089 456.527 101.478 457.929 93.4378C459.355 92.303 460.83 91.4338 462.256 90.7578C460.758 99.0876 461.289 114.25 466.294 127.264C467.236 129.654 468.203 131.851 469.17 133.831Z" fill="url(#paint37_linear_3057_7476)"/>
<path d="M318.585 161.137C317.449 166.811 315.66 170.915 314.137 173.643C310.874 174.271 307.755 174.368 304.806 174.078C308.045 170.481 310.366 166.593 311.986 162.634C314.596 162.441 316.796 161.837 318.585 161.137Z" fill="#2D2244"/>
<path d="M318.585 161.139C316.796 161.839 314.596 162.442 311.986 162.636C317.594 149.018 315.032 134.604 313.678 129.003C314.621 129.872 315.032 130.62 315.177 130.886C315.201 130.958 315.225 131.007 315.225 131.007V130.983C315.418 128.954 315.878 127.433 316.482 126.323C316.579 126.154 316.676 125.985 316.772 125.84C320.543 141.34 320.229 152.905 318.585 161.139Z" fill="url(#paint38_linear_3057_7476)"/>
<path d="M353.131 118.646C356.878 117.777 366.379 115.628 375.904 113.793C376.968 113.6 377.644 112.561 377.427 111.499L375.928 104.328C375.71 103.314 374.743 102.638 373.728 102.807C369.232 103.556 357.555 105.584 350.375 107.974C349.481 108.288 348.925 109.205 349.094 110.147C349.384 111.885 349.964 114.734 350.859 117.366C351.173 118.308 352.164 118.863 353.131 118.646Z" fill="url(#paint39_linear_3057_7476)"/>
<path d="M292.307 158.915C288.415 160.437 284.692 160.992 281.429 161.016C273.814 161.064 268.568 158.239 268.568 158.239C268.568 158.239 268.253 158.915 267.093 159.567C267.093 159.567 267.069 159.567 267.069 159.591C265.57 160.437 262.669 161.233 257.278 160.533C247.632 159.278 244.224 154.159 244.345 150.344C244.369 149.258 245.021 148.437 245.988 147.809C248.406 146.264 252.83 145.95 254.716 145.829C257.375 145.636 258.076 144.839 256.819 143.004C256.746 142.908 256.674 142.835 256.601 142.739C254.981 141.169 249.663 141.097 246.641 139.479C243.474 137.789 241.661 133.709 241.758 129.508C241.806 127.431 243.668 126.248 246.182 125.886C248.769 125.5 251.984 125.934 254.595 127.118C259.72 129.435 261.581 128.542 261.775 125.862C261.92 123.955 257.979 121.371 254.377 118.884C252.902 117.87 251.476 116.88 250.412 115.939C246.762 112.752 248.986 106.112 255.392 104.905C256.069 104.784 256.698 104.784 257.278 104.905C262.282 105.871 264.434 114.49 267.407 113.259C270.743 111.883 268.253 109.009 263.733 104.35C263.128 103.746 262.524 103.07 261.944 102.37C258.003 97.7099 254.57 91.36 258.994 88.0764C260.01 87.3279 261.267 87.1106 262.669 87.3762C268.278 88.3903 276.255 96.8166 280.945 107.199C282.662 110.989 283.967 113.331 284.982 114.756C286.747 117.243 287.569 116.929 287.883 116.542C288.004 116.398 288.053 116.253 288.053 116.253C289.261 114.442 290.011 102.949 290.664 95.6577C290.76 94.4746 290.905 93.3398 291.075 92.2292C291.969 86.5795 293.879 82.3301 297.336 81.4609C297.94 81.316 298.52 81.2195 299.052 81.2195C302.05 81.1712 303.67 83.5856 304.371 89.3802C304.54 90.8288 304.564 92.2051 304.492 93.533C304.201 98.4826 302.533 102.877 302.63 108.599C302.751 115.842 307.102 123.568 308.505 133.009C309.907 142.449 305.338 153.845 292.307 158.915Z" fill="url(#paint40_linear_3057_7476)"/>
<path d="M269.825 98.243C269.341 102.347 264.893 102.661 261.944 102.396C261.509 101.889 261.098 101.358 260.687 100.802C257.351 96.3839 255.078 91.0239 258.994 88.0783C260.01 87.3298 261.267 87.1125 262.669 87.3781C263.878 88.8509 266.344 90.7341 268.036 92.9795C269.22 94.5731 270.042 96.3114 269.825 98.243Z" fill="url(#paint41_linear_3057_7476)"/>
<path d="M262.089 113.67C261.34 116.205 258.898 119.851 254.377 118.933C253.144 118.088 251.936 117.243 250.944 116.446C250.751 116.302 250.582 116.133 250.413 115.988C246.762 112.801 248.986 106.161 255.393 104.954C256.069 104.833 256.698 104.833 257.278 104.954C258.245 105.992 259.889 107.851 261.001 109.71C261.847 111.159 262.403 112.608 262.089 113.67Z" fill="url(#paint42_linear_3057_7476)"/>
<path d="M258.729 142.883C258.245 142.979 257.52 142.907 256.601 142.762C255.32 142.448 254.135 142.183 253.047 141.893C250.703 141.265 248.696 140.613 246.641 139.527C243.474 137.837 241.661 133.756 241.758 129.555C241.806 127.479 243.668 126.296 246.182 125.934C247.874 127.382 250.92 129.821 253.313 130.69C254.014 130.956 254.74 131.245 255.465 131.583C258.414 132.911 261.315 134.819 261.726 136.605C262.258 138.827 262.113 142.279 258.729 142.883Z" fill="url(#paint43_linear_3057_7476)"/>
<path d="M267.069 159.59C265.667 160.362 263.153 161.111 258.608 160.7C258.173 160.652 257.713 160.604 257.254 160.556C247.608 159.3 244.2 154.181 244.32 150.367C244.345 149.28 244.997 148.459 245.964 147.832C246.206 147.735 250.05 146.31 259.188 150.125C259.454 150.246 259.72 150.367 259.986 150.463C268.785 154.206 270.913 156.813 267.069 159.59Z" fill="url(#paint44_linear_3057_7476)"/>
<path d="M281.743 141.509C281.501 141.05 274.225 126.974 284.958 114.781C286.723 117.268 287.545 116.954 287.859 116.568L288.077 117.027C288.101 117.051 278.02 131.465 281.743 141.509Z" fill="url(#paint45_linear_3057_7476)"/>
<path d="M292.307 158.915C288.415 160.436 284.692 160.991 281.429 161.015C304.854 155.679 301.905 133.781 299.101 126.972C295.885 119.173 295.136 108.164 299.342 96.8159C302.412 88.462 300.358 83.3676 299.052 81.2429C302.05 81.1946 303.67 83.609 304.371 89.4036C304.54 90.8523 304.564 92.2285 304.491 93.5564C304.201 98.506 302.533 102.9 302.63 108.622C302.751 115.866 307.102 123.592 308.505 133.032C309.907 142.473 305.338 153.844 292.307 158.915Z" fill="url(#paint46_linear_3057_7476)"/>
<path d="M304.491 93.5573C298.786 96.2614 293.71 93.9677 291.074 92.2777C291.969 86.6279 293.879 82.3785 297.336 81.5093C301.47 80.4711 303.524 82.62 304.371 89.4286C304.54 90.8531 304.564 92.2294 304.491 93.5573Z" fill="url(#paint47_linear_3057_7476)"/>
<path d="M269.825 98.2418C269.341 102.346 261.654 104.326 260.687 100.825C261.46 93.2681 265.739 92.7127 268.036 93.0025C269.22 94.5718 270.042 96.3102 269.825 98.2418Z" fill="url(#paint48_linear_3057_7476)"/>
<path d="M262.089 113.671C261.92 119.755 253.193 120.576 250.944 116.448C250.292 114.589 250.195 112.343 251.911 110.17C255.707 105.438 260.783 109.567 261.001 109.736C261.847 111.16 262.113 112.56 262.089 113.671Z" fill="url(#paint49_linear_3057_7476)"/>
<path d="M258.728 142.882C258.245 142.979 257.52 142.906 256.601 142.761C255.32 142.448 254.135 142.182 253.047 141.892C251.549 136.701 253.869 133.2 255.465 131.559C258.414 132.887 261.315 134.794 261.726 136.581C262.258 138.826 262.113 142.279 258.728 142.882Z" fill="url(#paint50_linear_3057_7476)"/>
<path d="M267.069 159.591C265.667 160.364 263.153 161.112 258.608 160.702C257.568 159.157 256.988 156.742 257.592 154.424C258.173 152.203 259.285 151.02 260.01 150.465C268.785 154.207 270.913 156.815 267.069 159.591Z" fill="url(#paint51_linear_3057_7476)"/>
<path d="M483.893 132.551C488.003 133.323 491.75 133.178 494.965 132.599C502.459 131.247 507.101 127.48 507.101 127.48C507.101 127.48 507.536 128.084 508.817 128.519H508.841C510.485 129.074 513.483 129.315 518.656 127.625C527.891 124.607 530.284 118.957 529.463 115.215C529.221 114.153 528.447 113.453 527.384 113.018C524.724 111.931 520.324 112.463 518.439 112.68C515.78 112.994 514.933 112.342 515.852 110.314C515.9 110.217 515.949 110.121 516.021 110.024C517.303 108.189 522.524 107.127 525.184 104.978C527.988 102.733 529.003 98.3866 528.133 94.2821C527.698 92.254 525.643 91.4572 523.129 91.5296C520.518 91.6262 517.423 92.6644 515.079 94.3062C510.485 97.5415 508.503 97.0104 507.802 94.4028C507.318 92.5678 510.703 89.2842 513.773 86.1696C515.03 84.89 516.263 83.6586 517.133 82.548C520.131 78.7332 516.722 72.6247 510.195 72.6489C509.518 72.6489 508.89 72.7696 508.334 72.9869C503.595 74.8702 503.088 83.7311 499.921 83.0792C496.367 82.3549 498.277 79.0471 501.855 73.6388C502.314 72.9386 502.798 72.166 503.257 71.3692C506.255 66.0575 508.455 59.1764 503.499 56.762C502.363 56.2067 501.105 56.2308 499.776 56.7379C494.457 58.766 488.172 68.5444 485.513 79.6024C484.546 83.6345 483.675 86.1938 482.95 87.7873C481.693 90.5639 480.823 90.3949 480.436 90.081C480.291 89.9603 480.218 89.8154 480.218 89.8154C478.695 88.2702 475.819 77.1156 473.812 70.0655C473.498 68.9307 473.135 67.8201 472.773 66.7819C470.839 61.3977 468.179 57.5829 464.626 57.3656C463.997 57.3173 463.417 57.3415 462.909 57.4381C459.936 57.9451 458.824 60.6251 459.186 66.4438C459.283 67.8925 459.525 69.2446 459.839 70.5483C461.048 75.353 463.514 79.361 464.481 84.9866C465.714 92.1332 462.885 100.511 463.248 110.048C463.538 119.633 470.162 129.967 483.893 132.551Z" fill="url(#paint52_linear_3057_7476)"/>
<path d="M494.699 68.7603C495.932 72.6958 500.38 72.1646 503.209 71.392C503.547 70.8125 503.861 70.2089 504.151 69.6053C506.593 64.6316 507.85 58.9336 503.426 56.8089C502.29 56.2536 501.033 56.2777 499.703 56.7847C498.785 58.4507 496.73 60.7444 495.473 63.2795C494.602 65.0179 494.119 66.9012 494.699 68.7603Z" fill="url(#paint53_linear_3057_7476)"/>
<path d="M505.167 82.4511C506.376 84.793 509.47 87.9318 513.725 86.1934C514.788 85.1311 515.804 84.0687 516.626 83.1029C516.795 82.9098 516.94 82.7408 517.061 82.5476C520.058 78.7328 516.65 72.6244 510.123 72.6485C509.446 72.6485 508.817 72.7692 508.261 72.9865C507.512 74.1937 506.23 76.3184 505.505 78.3707C504.925 79.9642 504.659 81.4853 505.167 82.4511Z" fill="url(#paint54_linear_3057_7476)"/>
<path d="M513.918 110.557C514.402 110.557 515.127 110.364 515.973 110.05C517.182 109.494 518.27 109.012 519.285 108.529C521.485 107.49 523.322 106.476 525.135 105.004C527.939 102.758 528.955 98.4122 528.085 94.3077C527.649 92.2796 525.595 91.4828 523.08 91.5553C521.678 93.2937 519.164 96.2393 516.964 97.5431C516.336 97.9294 515.659 98.3398 515.006 98.8227C512.347 100.682 509.857 103.072 509.784 104.931C509.663 107.225 510.461 110.581 513.918 110.557Z" fill="url(#paint55_linear_3057_7476)"/>
<path d="M508.817 128.519C510.34 129.026 512.951 129.292 517.327 128.037C517.738 127.916 518.173 127.795 518.632 127.626C527.867 124.608 530.26 118.958 529.438 115.216C529.197 114.154 528.423 113.453 527.359 113.019C527.118 112.971 523.056 112.27 514.788 117.727C514.547 117.896 514.305 118.065 514.063 118.21C506.134 123.546 504.514 126.515 508.817 128.519Z" fill="url(#paint56_linear_3057_7476)"/>
<path d="M491.025 113.478C491.17 112.971 495.715 97.8082 482.878 87.8125C481.621 90.5891 480.75 90.4201 480.364 90.1062L480.219 90.6132C480.243 90.6132 492.838 102.903 491.025 113.478Z" fill="url(#paint57_linear_3057_7476)"/>
<path d="M483.893 132.549C488.003 133.322 491.75 133.177 494.965 132.598C470.959 131.704 469.775 109.637 471.274 102.417C472.966 94.1601 471.661 83.1986 465.423 72.8166C460.854 65.1871 461.918 59.7788 462.813 57.4609C459.839 57.968 458.727 60.648 459.09 66.4667C459.186 67.9154 459.428 69.2674 459.742 70.5712C460.951 75.3759 463.417 79.3839 464.384 85.0095C465.617 92.1561 462.788 100.534 463.151 110.071C463.538 119.632 470.162 129.966 483.893 132.549Z" fill="url(#paint58_linear_3057_7476)"/>
<path d="M459.767 70.5727C465.883 72.1904 470.452 68.9792 472.7 66.8062C470.766 61.4221 468.107 57.6073 464.553 57.39C460.298 57.1244 458.679 59.6354 459.114 66.4682C459.211 67.941 459.428 69.2931 459.767 70.5727Z" fill="url(#paint59_linear_3057_7476)"/>
<path d="M494.699 68.7628C495.932 72.6983 503.861 73.2295 504.151 69.6078C501.976 62.3163 497.673 62.5819 495.473 63.2821C494.602 65.0204 494.119 66.9037 494.699 68.7628Z" fill="url(#paint60_linear_3057_7476)"/>
<path d="M505.167 82.4506C506.472 88.39 515.199 87.5933 516.626 83.1024C516.916 81.1709 516.602 78.9255 514.498 77.1147C509.881 73.155 505.675 78.1529 505.505 78.3702C504.925 79.9637 504.925 81.3882 505.167 82.4506Z" fill="url(#paint61_linear_3057_7476)"/>
<path d="M513.918 110.554C514.402 110.554 515.127 110.361 515.973 110.047C517.182 109.492 518.27 109.009 519.285 108.526C519.793 103.142 516.843 100.148 514.982 98.8203C512.323 100.679 509.833 103.07 509.76 104.929C509.663 107.222 510.461 110.579 513.918 110.554Z" fill="url(#paint62_linear_3057_7476)"/>
<path d="M508.817 128.52C510.34 129.027 512.951 129.292 517.327 128.037C518.052 126.323 518.173 123.86 517.157 121.687C516.166 119.611 514.861 118.645 514.039 118.234C506.134 123.546 504.514 126.516 508.817 128.52Z" fill="url(#paint63_linear_3057_7476)"/>
<path d="M463.973 343.715C463.973 343.715 460.661 332.73 461.41 326.959C462.16 321.189 495.255 240.692 538.455 240.813L463.973 343.715Z" fill="#ACA5B5"/>
<path d="M474.199 371.53C474.199 371.53 464.553 363.828 463.658 338.5C462.764 313.149 514.45 224.902 545.901 243.372L474.199 371.53Z" fill="url(#paint64_linear_3057_7476)"/>
<path d="M553.976 274.951C553.976 275.989 553.927 277.028 553.903 278.114C553.71 283.377 553.202 289.1 552.308 295.16C552.162 296.174 552.017 297.188 551.824 298.202C550.954 303.465 549.818 308.97 548.367 314.668C548.101 315.634 547.859 316.624 547.593 317.614C545.853 323.94 543.725 330.483 541.163 337.147C540.8 338.088 540.414 339.03 540.027 339.996C537.754 345.645 535.143 351.368 532.194 357.114C531.735 358.031 531.251 358.949 530.768 359.866C528.133 364.816 525.256 369.765 522.089 374.715C521.823 375.125 521.557 375.536 521.291 375.946C520.638 376.333 519.986 376.695 519.333 377.057C496.439 389.129 468.856 373.459 468.759 361.967C468.759 361.846 468.759 361.725 468.759 361.58C468.783 360.856 468.928 359.818 469.17 358.514C469.823 354.868 471.225 349.122 473.207 342.241C473.473 341.299 473.763 340.309 474.054 339.32C475.649 333.863 477.583 327.803 479.735 321.549C480.073 320.584 480.387 319.642 480.726 318.676C482.974 312.254 485.464 305.687 488.075 299.433C488.462 298.492 488.873 297.55 489.26 296.608C491.629 291.128 494.07 285.937 496.56 281.325C497.068 280.384 497.576 279.49 498.083 278.597C498.688 277.535 499.292 276.521 499.921 275.531C502.507 271.354 505.191 267.539 507.874 264.062C508.551 263.193 509.252 262.324 509.929 261.503C515.199 255.153 520.566 250.203 525.667 246.799C526.851 246.002 528.012 245.302 529.172 244.674C535.433 241.294 541.187 240.401 545.78 242.236C548.029 243.129 550.035 246.389 551.486 251.507C551.8 252.569 552.066 253.728 552.332 254.96C553.468 260.271 554.096 267.056 553.976 274.951Z" fill="url(#paint65_linear_3057_7476)"/>
<path d="M552.356 254.938L525.691 246.777C526.875 245.98 528.036 245.28 529.196 244.652L551.51 251.485C551.824 252.572 552.09 253.706 552.356 254.938Z" fill="#988CA5"/>
<path d="M553.976 274.953C553.976 275.991 553.927 277.029 553.903 278.116L507.874 264.04C508.551 263.171 509.252 262.301 509.929 261.48L553.976 274.953Z" fill="#988CA5"/>
<path d="M552.307 295.138C552.162 296.152 552.017 297.166 551.824 298.18L496.56 281.279C497.068 280.337 497.576 279.444 498.083 278.551L552.307 295.138Z" fill="#988CA5"/>
<path d="M548.367 314.647C548.101 315.612 547.859 316.602 547.593 317.592L488.075 299.387C488.462 298.446 488.873 297.504 489.26 296.562L548.367 314.647Z" fill="#988CA5"/>
<path d="M541.139 337.123C540.776 338.064 540.389 339.006 540.002 339.972L479.686 321.526C480.025 320.56 480.339 319.618 480.677 318.652L541.139 337.123Z" fill="#988CA5"/>
<path d="M532.194 357.09C531.735 358.008 531.251 358.925 530.768 359.843L473.183 342.242C473.449 341.3 473.739 340.31 474.029 339.32L532.194 357.09Z" fill="#988CA5"/>
<path d="M522.089 374.693C521.823 375.103 521.557 375.514 521.291 375.924C520.638 376.311 519.986 376.673 519.333 377.035L468.759 361.559C468.783 360.834 468.928 359.796 469.17 358.492L522.089 374.693Z" fill="#988CA5"/>
<path d="M359.151 364.989C359.151 364.989 354.824 354.366 350.617 350.334C346.411 346.301 270.018 304.46 236.488 331.622L359.151 364.989Z" fill="#ACA5B5"/>
<path d="M368.676 393.022C368.676 393.022 371.359 380.974 356.105 360.693C340.85 340.412 245.142 304.171 232.305 338.263L368.676 393.022Z" fill="url(#paint66_linear_3057_7476)"/>
<path d="M245.843 367.936C246.496 368.732 247.173 369.529 247.898 370.35C251.355 374.334 255.344 378.462 259.841 382.615C260.59 383.315 261.339 383.991 262.113 384.692C266.102 388.241 270.453 391.814 275.167 395.315C275.989 395.919 276.787 396.522 277.633 397.126C282.952 400.965 288.73 404.707 294.942 408.28C295.813 408.788 296.707 409.295 297.602 409.777C302.92 412.747 308.529 415.572 314.452 418.18C315.394 418.59 316.337 419.001 317.304 419.411C322.453 421.608 327.82 423.66 333.405 425.519C333.864 425.688 334.323 425.833 334.807 425.978C335.556 425.882 336.306 425.761 337.031 425.616C362.439 420.642 374.043 391.162 366.887 382.156C366.814 382.06 366.742 381.963 366.645 381.867C366.162 381.311 365.412 380.611 364.397 379.742C361.593 377.303 356.903 373.73 351.028 369.602C350.206 369.022 349.384 368.443 348.514 367.863C343.824 364.628 338.53 361.103 332.921 357.602C332.075 357.071 331.205 356.54 330.334 355.984C324.532 352.411 318.489 348.862 312.493 345.626C311.599 345.143 310.68 344.661 309.786 344.178C304.516 341.401 299.342 338.89 294.483 336.862C293.516 336.452 292.549 336.065 291.582 335.703C290.446 335.268 289.334 334.834 288.222 334.472C283.58 332.854 279.084 331.55 274.829 330.56C273.741 330.319 272.677 330.077 271.614 329.86C263.515 328.218 256.239 327.736 250.122 328.291C248.696 328.412 247.342 328.605 246.061 328.846C239.05 330.15 234.022 333.047 231.604 337.369C230.42 339.47 230.903 343.26 232.982 348.161C233.418 349.2 233.925 350.262 234.481 351.373C237.02 356.201 240.815 361.875 245.843 367.936Z" fill="url(#paint67_linear_3057_7476)"/>
<path d="M234.53 351.347L250.147 328.266C248.72 328.386 247.366 328.579 246.085 328.821L233.007 348.136C233.442 349.174 233.949 350.237 234.53 351.347Z" fill="#988CA5"/>
<path d="M245.844 367.935C246.496 368.732 247.173 369.529 247.898 370.35L274.853 330.536C273.765 330.295 272.702 330.053 271.638 329.836L245.844 367.935Z" fill="#988CA5"/>
<path d="M259.841 382.615C260.59 383.316 261.339 383.992 262.113 384.692L294.483 336.862C293.516 336.452 292.549 336.065 291.582 335.703L259.841 382.615Z" fill="#988CA5"/>
<path d="M275.167 395.313C275.989 395.917 276.787 396.52 277.633 397.124L312.493 345.624C311.599 345.142 310.68 344.659 309.786 344.176L275.167 395.313Z" fill="#988CA5"/>
<path d="M294.943 408.281C295.813 408.788 296.707 409.295 297.602 409.778L332.921 357.602C332.075 357.071 331.205 356.54 330.335 355.984L294.943 408.281Z" fill="#988CA5"/>
<path d="M314.452 418.18C315.394 418.59 316.337 419.001 317.304 419.411L351.028 369.602C350.206 369.022 349.384 368.443 348.514 367.863L314.452 418.18Z" fill="#988CA5"/>
<path d="M333.405 425.543C333.864 425.712 334.323 425.857 334.807 426.002C335.556 425.905 336.306 425.784 337.031 425.64L366.645 381.89C366.162 381.335 365.412 380.635 364.397 379.766L333.405 425.543Z" fill="#988CA5"/>
</g>
<defs>
<linearGradient id="paint0_linear_3057_7476" x1="326.526" y1="89.5967" x2="440.887" y2="81.7924" gradientUnits="userSpaceOnUse">
<stop stop-color="#34254C"/>
<stop offset="1" stop-color="#51397F"/>
</linearGradient>
<linearGradient id="paint1_linear_3057_7476" x1="316.494" y1="222.261" x2="449.429" y2="213.189" gradientUnits="userSpaceOnUse">
<stop stop-color="#E1DAE5"/>
<stop offset="1" stop-color="#F7F4F9"/>
</linearGradient>
<linearGradient id="paint2_linear_3057_7476" x1="272.157" y1="163.659" x2="309.563" y2="161.106" gradientUnits="userSpaceOnUse">
<stop stop-color="#C8B8D3"/>
<stop offset="1" stop-color="#C8B8D3" stop-opacity="0.3"/>
</linearGradient>
<linearGradient id="paint3_linear_3057_7476" x1="269.426" y1="199.814" x2="426.76" y2="189.077" gradientUnits="userSpaceOnUse">
<stop stop-color="#C8B8D3"/>
<stop offset="1" stop-color="#C8B8D3" stop-opacity="0.3"/>
</linearGradient>
<linearGradient id="paint4_linear_3057_7476" x1="333.246" y1="314.492" x2="365.556" y2="312.287" gradientUnits="userSpaceOnUse">
<stop stop-color="#C8B8D3" stop-opacity="0.9"/>
<stop offset="1" stop-color="#C8B8D3" stop-opacity="0.3"/>
</linearGradient>
<linearGradient id="paint5_linear_3057_7476" x1="355.861" y1="245.297" x2="453.866" y2="238.609" gradientUnits="userSpaceOnUse">
<stop stop-color="#C8B8D3" stop-opacity="0.9"/>
<stop offset="1" stop-color="#C8B8D3" stop-opacity="0.3"/>
</linearGradient>
<linearGradient id="paint6_linear_3057_7476" x1="444.291" y1="289.455" x2="486.76" y2="286.557" gradientUnits="userSpaceOnUse">
<stop stop-color="#C8B8D3" stop-opacity="0.9"/>
<stop offset="1" stop-color="#C8B8D3" stop-opacity="0.3"/>
</linearGradient>
<linearGradient id="paint7_linear_3057_7476" x1="507.092" y1="207.208" x2="470.815" y2="229.562" gradientUnits="userSpaceOnUse">
<stop stop-color="white"/>
<stop offset="1" stop-color="white" stop-opacity="0"/>
</linearGradient>
<linearGradient id="paint8_linear_3057_7476" x1="321.907" y1="92.1838" x2="349.801" y2="132.105" gradientUnits="userSpaceOnUse">
<stop stop-color="#C8B8D3"/>
<stop offset="1" stop-color="#C8B8D3" stop-opacity="0.3"/>
</linearGradient>
<linearGradient id="paint9_linear_3057_7476" x1="445.922" y1="62.3364" x2="426.571" y2="102.984" gradientUnits="userSpaceOnUse">
<stop stop-color="white"/>
<stop offset="1" stop-color="white" stop-opacity="0"/>
</linearGradient>
<linearGradient id="paint10_linear_3057_7476" x1="332.007" y1="191.725" x2="428.525" y2="185.138" gradientUnits="userSpaceOnUse">
<stop stop-color="#34254C"/>
<stop offset="1" stop-color="#51397F"/>
</linearGradient>
<linearGradient id="paint11_linear_3057_7476" x1="348.915" y1="193.599" x2="462.239" y2="181.068" gradientUnits="userSpaceOnUse">
<stop stop-color="#2D2244"/>
<stop offset="1" stop-color="#3E2C5E" stop-opacity="0"/>
</linearGradient>
<linearGradient id="paint12_linear_3057_7476" x1="334.634" y1="88.973" x2="357.869" y2="150.251" gradientUnits="userSpaceOnUse">
<stop stop-color="#CE1D3B"/>
<stop offset="1" stop-color="#ED202E"/>
</linearGradient>
<linearGradient id="paint13_linear_3057_7476" x1="415.366" y1="55.1543" x2="430.642" y2="107.807" gradientUnits="userSpaceOnUse">
<stop stop-color="#CE1D3B"/>
<stop offset="1" stop-color="#ED202E"/>
</linearGradient>
<linearGradient id="paint14_linear_3057_7476" x1="355.264" y1="152.884" x2="411.058" y2="145.506" gradientUnits="userSpaceOnUse">
<stop stop-color="#A193AD"/>
<stop offset="0.9961" stop-color="#CEC4D6"/>
</linearGradient>
<linearGradient id="paint15_linear_3057_7476" x1="397.08" y1="170.734" x2="385.421" y2="112.092" gradientUnits="userSpaceOnUse">
<stop stop-color="#E1DAE5"/>
<stop offset="1" stop-color="#F7F4F9"/>
</linearGradient>
<linearGradient id="paint16_linear_3057_7476" x1="359.773" y1="179.433" x2="388.517" y2="149.449" gradientUnits="userSpaceOnUse">
<stop stop-color="#CEC4D6"/>
<stop offset="0.9961" stop-color="#CEC4D6" stop-opacity="0"/>
</linearGradient>
<linearGradient id="paint17_linear_3057_7476" x1="373.528" y1="166.381" x2="367.618" y2="139.303" gradientUnits="userSpaceOnUse">
<stop stop-color="#34254C"/>
<stop offset="1" stop-color="#432A68"/>
</linearGradient>
<linearGradient id="paint18_linear_3057_7476" x1="391.574" y1="162.44" x2="385.665" y2="135.362" gradientUnits="userSpaceOnUse">
<stop stop-color="#34254C"/>
<stop offset="1" stop-color="#432A68"/>
</linearGradient>
<linearGradient id="paint19_linear_3057_7476" x1="379.182" y1="155.025" x2="375.774" y2="134.279" gradientUnits="userSpaceOnUse">
<stop stop-color="#A193AD"/>
<stop offset="0.9961" stop-color="#CEC4D6"/>
</linearGradient>
<linearGradient id="paint20_linear_3057_7476" x1="403.538" y1="138.016" x2="410.109" y2="129.927" gradientUnits="userSpaceOnUse">
<stop stop-color="#3492B7"/>
<stop offset="1" stop-color="#4CC8E5"/>
</linearGradient>
<linearGradient id="paint21_linear_3057_7476" x1="406.696" y1="149.797" x2="414.683" y2="149.252" gradientUnits="userSpaceOnUse">
<stop stop-color="#D733DB"/>
<stop offset="1" stop-color="#F43EF9"/>
</linearGradient>
<linearGradient id="paint22_linear_3057_7476" x1="404.941" y1="103.62" x2="419.472" y2="98.7768" gradientUnits="userSpaceOnUse">
<stop stop-color="#1E45A5"/>
<stop offset="1" stop-color="#2265C6"/>
</linearGradient>
<linearGradient id="paint23_linear_3057_7476" x1="343.424" y1="117.99" x2="370.844" y2="109.233" gradientUnits="userSpaceOnUse">
<stop stop-color="#34254C"/>
<stop offset="1" stop-color="#51397F"/>
</linearGradient>
<linearGradient id="paint24_linear_3057_7476" x1="347.194" y1="81.9879" x2="420.828" y2="76.9628" gradientUnits="userSpaceOnUse">
<stop stop-color="#34254C"/>
<stop offset="1" stop-color="#51397F"/>
</linearGradient>
<linearGradient id="paint25_linear_3057_7476" x1="336.953" y1="61.8599" x2="328.978" y2="64.4443" gradientUnits="userSpaceOnUse">
<stop stop-color="#E1DAE5"/>
<stop offset="1" stop-color="#F7F4F9"/>
</linearGradient>
<linearGradient id="paint26_linear_3057_7476" x1="418.075" y1="36.1041" x2="425.09" y2="34.1486" gradientUnits="userSpaceOnUse">
<stop stop-color="#E1DAE5"/>
<stop offset="1" stop-color="#F7F4F9"/>
</linearGradient>
<linearGradient id="paint27_linear_3057_7476" x1="351.385" y1="5.716" x2="374.966" y2="4.10672" gradientUnits="userSpaceOnUse">
<stop stop-color="#E1DAE5"/>
<stop offset="1" stop-color="#F7F4F9"/>
</linearGradient>
<linearGradient id="paint28_linear_3057_7476" x1="340.021" y1="52.226" x2="418.035" y2="19.8745" gradientUnits="userSpaceOnUse">
<stop stop-color="#E1DAE5"/>
<stop offset="1" stop-color="#F7F4F9"/>
</linearGradient>
<linearGradient id="paint29_linear_3057_7476" x1="362.277" y1="75.0394" x2="377.248" y2="3.66135" gradientUnits="userSpaceOnUse">
<stop stop-color="#C8B8D3"/>
<stop offset="1" stop-color="#C8B8D3" stop-opacity="0"/>
</linearGradient>
<linearGradient id="paint30_linear_3057_7476" x1="361.652" y1="86.1557" x2="402.773" y2="72.8941" gradientUnits="userSpaceOnUse">
<stop stop-color="#E1DAE5"/>
<stop offset="1" stop-color="#F7F4F9"/>
</linearGradient>
<linearGradient id="paint31_linear_3057_7476" x1="335.053" y1="61.6003" x2="430.474" y2="37.7464" gradientUnits="userSpaceOnUse">
<stop stop-color="#201D21"/>
<stop offset="1" stop-color="#524B56"/>
</linearGradient>
<linearGradient id="paint32_linear_3057_7476" x1="321.998" y1="60.0205" x2="366.969" y2="54.4405" gradientUnits="userSpaceOnUse">
<stop stop-color="#111011"/>
<stop offset="1" stop-color="#111011" stop-opacity="0"/>
</linearGradient>
<linearGradient id="paint33_linear_3057_7476" x1="385.736" y1="16.7443" x2="400.922" y2="53.1211" gradientUnits="userSpaceOnUse">
<stop stop-color="#EDE7F2"/>
<stop offset="1" stop-color="#EDE7F2" stop-opacity="0"/>
</linearGradient>
<linearGradient id="paint34_linear_3057_7476" x1="405.467" y1="44.3638" x2="419.318" y2="60.9924" gradientUnits="userSpaceOnUse">
<stop stop-color="#EDE7F2"/>
<stop offset="1" stop-color="#EDE7F2" stop-opacity="0"/>
</linearGradient>
<linearGradient id="paint35_linear_3057_7476" x1="443.889" y1="221.937" x2="494.171" y2="218.506" gradientUnits="userSpaceOnUse">
<stop stop-color="#34254C"/>
<stop offset="1" stop-color="#51397F"/>
</linearGradient>
<linearGradient id="paint36_linear_3057_7476" x1="350.376" y1="262.801" x2="296.275" y2="233.8" gradientUnits="userSpaceOnUse">
<stop stop-color="#34254C"/>
<stop offset="1" stop-color="#51397F"/>
</linearGradient>
<linearGradient id="paint37_linear_3057_7476" x1="466.376" y1="138.714" x2="457.883" y2="92.3479" gradientUnits="userSpaceOnUse">
<stop stop-color="#34254C"/>
<stop offset="1" stop-color="#51397F"/>
</linearGradient>
<linearGradient id="paint38_linear_3057_7476" x1="310.747" y1="144.496" x2="319.61" y2="143.891" gradientUnits="userSpaceOnUse">
<stop stop-color="#34254C"/>
<stop offset="1" stop-color="#51397F"/>
</linearGradient>
<linearGradient id="paint39_linear_3057_7476" x1="343.882" y1="117.015" x2="371.302" y2="108.259" gradientUnits="userSpaceOnUse">
<stop stop-color="#A193AD"/>
<stop offset="0.9961" stop-color="#CEC4D6"/>
</linearGradient>
<linearGradient id="paint40_linear_3057_7476" x1="305.752" y1="146.349" x2="257.889" y2="104.898" gradientUnits="userSpaceOnUse">
<stop stop-color="#E1DAE5"/>
<stop offset="1" stop-color="#F7F4F9"/>
</linearGradient>
<linearGradient id="paint41_linear_3057_7476" x1="257.11" y1="95.2616" x2="269.648" y2="94.4059" gradientUnits="userSpaceOnUse">
<stop stop-color="#E1DAE5"/>
<stop offset="1" stop-color="#F7F4F9"/>
</linearGradient>
<linearGradient id="paint42_linear_3057_7476" x1="248.646" y1="112.472" x2="262.079" y2="111.556" gradientUnits="userSpaceOnUse">
<stop stop-color="#E1DAE5"/>
<stop offset="1" stop-color="#F7F4F9"/>
</linearGradient>
<linearGradient id="paint43_linear_3057_7476" x1="242.087" y1="135.116" x2="261.662" y2="133.781" gradientUnits="userSpaceOnUse">
<stop stop-color="#E1DAE5"/>
<stop offset="1" stop-color="#F7F4F9"/>
</linearGradient>
<linearGradient id="paint44_linear_3057_7476" x1="244.608" y1="154.852" x2="268.659" y2="153.21" gradientUnits="userSpaceOnUse">
<stop stop-color="#E1DAE5"/>
<stop offset="1" stop-color="#F7F4F9"/>
</linearGradient>
<linearGradient id="paint45_linear_3057_7476" x1="287.563" y1="102.45" x2="279.905" y2="141.14" gradientUnits="userSpaceOnUse">
<stop stop-color="#C8B8D3"/>
<stop offset="1" stop-color="#C8B8D3" stop-opacity="0.3"/>
</linearGradient>
<linearGradient id="paint46_linear_3057_7476" x1="319.636" y1="138.882" x2="287.742" y2="119.137" gradientUnits="userSpaceOnUse">
<stop stop-color="#C8B8D3"/>
<stop offset="1" stop-color="#C8B8D3" stop-opacity="0.3"/>
</linearGradient>
<linearGradient id="paint47_linear_3057_7476" x1="297.315" y1="97.0534" x2="298.896" y2="82.9516" gradientUnits="userSpaceOnUse">
<stop stop-color="#34254C"/>
<stop offset="1" stop-color="#51397F"/>
</linearGradient>
<linearGradient id="paint48_linear_3057_7476" x1="260.495" y1="98.1235" x2="269.858" y2="97.4845" gradientUnits="userSpaceOnUse">
<stop stop-color="#34254C"/>
<stop offset="1" stop-color="#51397F"/>
</linearGradient>
<linearGradient id="paint49_linear_3057_7476" x1="250.466" y1="113.827" x2="262.065" y2="113.036" gradientUnits="userSpaceOnUse">
<stop stop-color="#34254C"/>
<stop offset="1" stop-color="#51397F"/>
</linearGradient>
<linearGradient id="paint50_linear_3057_7476" x1="252.469" y1="137.542" x2="261.875" y2="136.9" gradientUnits="userSpaceOnUse">
<stop stop-color="#34254C"/>
<stop offset="1" stop-color="#51397F"/>
</linearGradient>
<linearGradient id="paint51_linear_3057_7476" x1="257.307" y1="155.88" x2="268.788" y2="155.096" gradientUnits="userSpaceOnUse">
<stop stop-color="#34254C"/>
<stop offset="1" stop-color="#51397F"/>
</linearGradient>
<linearGradient id="paint52_linear_3057_7476" x1="468.346" y1="122.69" x2="507.659" y2="73.075" gradientUnits="userSpaceOnUse">
<stop stop-color="#E1DAE5"/>
<stop offset="1" stop-color="#F7F4F9"/>
</linearGradient>
<linearGradient id="paint53_linear_3057_7476" x1="506.629" y1="63.4577" x2="494.15" y2="64.9514" gradientUnits="userSpaceOnUse">
<stop stop-color="#E1DAE5"/>
<stop offset="1" stop-color="#F7F4F9"/>
</linearGradient>
<linearGradient id="paint54_linear_3057_7476" x1="518.15" y1="78.7986" x2="504.781" y2="80.3988" gradientUnits="userSpaceOnUse">
<stop stop-color="#E1DAE5"/>
<stop offset="1" stop-color="#F7F4F9"/>
</linearGradient>
<linearGradient id="paint55_linear_3057_7476" x1="528.81" y1="99.8333" x2="509.329" y2="102.165" gradientUnits="userSpaceOnUse">
<stop stop-color="#E1DAE5"/>
<stop offset="1" stop-color="#F7F4F9"/>
</linearGradient>
<linearGradient id="paint56_linear_3057_7476" x1="530.008" y1="119.693" x2="506.072" y2="122.558" gradientUnits="userSpaceOnUse">
<stop stop-color="#E1DAE5"/>
<stop offset="1" stop-color="#F7F4F9"/>
</linearGradient>
<linearGradient id="paint57_linear_3057_7476" x1="478.045" y1="76.1793" x2="492.759" y2="112.778" gradientUnits="userSpaceOnUse">
<stop stop-color="#C8B8D3"/>
<stop offset="1" stop-color="#C8B8D3" stop-opacity="0.3"/>
</linearGradient>
<linearGradient id="paint58_linear_3057_7476" x1="453.315" y1="117.932" x2="480.973" y2="92.6043" gradientUnits="userSpaceOnUse">
<stop stop-color="#C8B8D3"/>
<stop offset="1" stop-color="#C8B8D3" stop-opacity="0.3"/>
</linearGradient>
<linearGradient id="paint59_linear_3057_7476" x1="467.459" y1="72.688" x2="463.285" y2="59.1241" gradientUnits="userSpaceOnUse">
<stop stop-color="#34254C"/>
<stop offset="1" stop-color="#51397F"/>
</linearGradient>
<linearGradient id="paint60_linear_3057_7476" x1="503.836" y1="66.9019" x2="494.517" y2="68.0174" gradientUnits="userSpaceOnUse">
<stop stop-color="#34254C"/>
<stop offset="1" stop-color="#51397F"/>
</linearGradient>
<linearGradient id="paint61_linear_3057_7476" x1="516.613" y1="80.4664" x2="505.07" y2="81.8482" gradientUnits="userSpaceOnUse">
<stop stop-color="#34254C"/>
<stop offset="1" stop-color="#51397F"/>
</linearGradient>
<linearGradient id="paint62_linear_3057_7476" x1="519.061" y1="104.143" x2="509.7" y2="105.263" gradientUnits="userSpaceOnUse">
<stop stop-color="#34254C"/>
<stop offset="1" stop-color="#51397F"/>
</linearGradient>
<linearGradient id="paint63_linear_3057_7476" x1="517.722" y1="123.06" x2="506.296" y2="124.427" gradientUnits="userSpaceOnUse">
<stop stop-color="#34254C"/>
<stop offset="1" stop-color="#51397F"/>
</linearGradient>
<linearGradient id="paint64_linear_3057_7476" x1="461.584" y1="309.138" x2="549.95" y2="303.107" gradientUnits="userSpaceOnUse">
<stop stop-color="#E1DAE5"/>
<stop offset="1" stop-color="#F7F4F9"/>
</linearGradient>
<linearGradient id="paint65_linear_3057_7476" x1="463.216" y1="368.286" x2="559.955" y2="275.707" gradientUnits="userSpaceOnUse">
<stop stop-color="#BBAEC4"/>
<stop offset="1" stop-color="#DED1E8"/>
</linearGradient>
<linearGradient id="paint66_linear_3057_7476" x1="339.244" y1="336.577" x2="266.761" y2="387.423" gradientUnits="userSpaceOnUse">
<stop stop-color="#E1DAE5"/>
<stop offset="1" stop-color="#F7F4F9"/>
</linearGradient>
<linearGradient id="paint67_linear_3057_7476" x1="250.091" y1="386.005" x2="369.723" y2="360.631" gradientUnits="userSpaceOnUse">
<stop stop-color="#BBAEC4"/>
<stop offset="1" stop-color="#DED1E8"/>
</linearGradient>
<clipPath id="clip0_3057_7476">
<rect width="323" height="426" fill="white" transform="translate(231)"/>
</clipPath>
</defs>
</svg>
