<svg width="281" height="56" viewBox="0 0 281 56" fill="none" xmlns="http://www.w3.org/2000/svg">
<rect x="13.2051" y="50" width="14" height="6" rx="2" fill="#E5E7EB"/>
<rect x="29.2051" y="48" width="14" height="8" rx="2" fill="#E5E7EB"/>
<rect x="45.2051" y="48" width="14" height="8" rx="2" fill="#E5E7EB"/>
<rect x="61.2051" y="44" width="14" height="12" rx="2" fill="#E5E7EB"/>
<rect x="77.2051" y="35" width="14" height="21" rx="2" fill="#E5E7EB"/>
<rect x="93.2051" y="21" width="14" height="35" rx="2" fill="#E5E7EB"/>
<rect x="109.205" y="18" width="14" height="38" rx="2" fill="#E5E7EB"/>
<rect x="125.205" width="14" height="56" rx="2" fill="#E5E7EB"/>
<rect x="141.205" y="8" width="14" height="48" rx="2" fill="#E5E7EB"/>
<rect x="157.205" y="24" width="14" height="32" rx="2" fill="#E5E7EB"/>
<rect x="173.205" y="33" width="14" height="23" rx="2" fill="#E5E7EB"/>
<rect x="189.205" y="8" width="14" height="48" rx="2" fill="#E5E7EB"/>
<rect x="205.205" y="33" width="14" height="23" rx="2" fill="#E5E7EB"/>
<rect x="221.205" y="39" width="14" height="17" rx="2" fill="#E5E7EB"/>
<rect x="237.205" y="44" width="14" height="12" rx="2" fill="#E5E7EB"/>
<rect x="253.205" y="50" width="14" height="6" rx="2" fill="#E5E7EB"/>
</svg>
