<svg width="64" height="64" viewBox="0 0 64 64" fill="none" xmlns="http://www.w3.org/2000/svg">
<circle cx="32" cy="32" r="31.5" fill="white" stroke="#F3F5FF"/>
<circle cx="32" cy="32" r="28" fill="#E0DEF7"/>
<path fill-rule="evenodd" clip-rule="evenodd" d="M18.667 32.0013H21.6299V42.3717C21.6299 43.1575 21.9421 43.9111 22.4977 44.4668C23.0534 45.0225 23.807 45.3346 24.5928 45.3346H39.4077C40.1935 45.3346 40.9471 45.0225 41.5028 44.4668C42.0585 43.9111 42.3706 43.1575 42.3706 42.3717V32.0013H42.3707H45.3337L32.0003 18.668L18.667 32.0013Z" fill="white"/>
<path d="M21.6299 32.0013H22.6299C22.6299 31.449 22.1822 31.0013 21.6299 31.0013V32.0013ZM18.667 32.0013L17.9599 31.2942C17.6739 31.5802 17.5883 32.0103 17.7431 32.384C17.8979 32.7577 18.2625 33.0013 18.667 33.0013V32.0013ZM22.4977 44.4668L23.2048 43.7597L23.2048 43.7597L22.4977 44.4668ZM41.5028 44.4668L40.7957 43.7597L40.7957 43.7597L41.5028 44.4668ZM42.3706 32.0013V31.0013C41.8183 31.0013 41.3706 31.449 41.3706 32.0013H42.3706ZM45.3337 32.0013V33.0013C45.7381 33.0013 46.1028 32.7577 46.2575 32.384C46.4123 32.0103 46.3268 31.5802 46.0408 31.2942L45.3337 32.0013ZM32.0003 18.668L32.7074 17.9609C32.3169 17.5703 31.6837 17.5703 31.2932 17.9609L32.0003 18.668ZM21.6299 31.0013H18.667V33.0013H21.6299V31.0013ZM20.6299 32.0013V42.3717H22.6299V32.0013H20.6299ZM20.6299 42.3717C20.6299 43.4227 21.0474 44.4307 21.7906 45.1739L23.2048 43.7597C22.8367 43.3916 22.6299 42.8923 22.6299 42.3717H20.6299ZM21.7906 45.1739C22.5338 45.9171 23.5418 46.3346 24.5928 46.3346V44.3346C24.0722 44.3346 23.5729 44.1278 23.2048 43.7597L21.7906 45.1739ZM24.5928 46.3346H39.4077V44.3346H24.5928V46.3346ZM39.4077 46.3346C40.4587 46.3346 41.4667 45.9171 42.2099 45.1739L40.7957 43.7597C40.4276 44.1278 39.9283 44.3346 39.4077 44.3346V46.3346ZM42.2099 45.1739C42.9531 44.4307 43.3706 43.4227 43.3706 42.3717H41.3706C41.3706 42.8923 41.1638 43.3916 40.7957 43.7597L42.2099 45.1739ZM43.3706 42.3717V32.0013H41.3706V42.3717H43.3706ZM42.3707 31.0013H42.3706V33.0013H42.3707V31.0013ZM45.3337 31.0013H42.3707V33.0013H45.3337V31.0013ZM31.2932 19.3751L44.6266 32.7084L46.0408 31.2942L32.7074 17.9609L31.2932 19.3751ZM19.3741 32.7084L32.7074 19.3751L31.2932 17.9609L17.9599 31.2942L19.3741 32.7084Z" fill="white"/>
<path d="M28 33.9987L30.6667 36.6654L36 31.332" stroke="#7065F0" stroke-width="2" stroke-linecap="round" stroke-linejoin="round"/>
<path d="M40 40H64V52C64 58.6274 58.6274 64 52 64C45.3726 64 40 58.6274 40 52V40Z" fill="#7065F0"/>
<path d="M56.3595 46.7791L52.6929 45.4058C52.3129 45.2658 51.6929 45.2658 51.3129 45.4058L47.6462 46.7791C46.9395 47.0458 46.3662 47.8724 46.3662 48.6258V54.0258C46.3662 54.5658 46.7195 55.2791 47.1529 55.5991L50.8195 58.3391C51.4662 58.8258 52.5262 58.8258 53.1729 58.3391L56.8395 55.5991C57.2729 55.2724 57.6262 54.5658 57.6262 54.0258V48.6258C57.6329 47.8724 57.0595 47.0458 56.3595 46.7791ZM52.4995 52.5791V54.3324C52.4995 54.6058 52.2729 54.8324 51.9995 54.8324C51.7262 54.8324 51.4995 54.6058 51.4995 54.3324V52.5791C50.8262 52.3658 50.3329 51.7391 50.3329 50.9991C50.3329 50.0791 51.0795 49.3324 51.9995 49.3324C52.9195 49.3324 53.6662 50.0791 53.6662 50.9991C53.6662 51.7458 53.1729 52.3658 52.4995 52.5791Z" fill="white"/>
</svg>
