<svg width="21" height="20" viewBox="0 0 21 20" fill="none" xmlns="http://www.w3.org/2000/svg">
<path d="M20.2247 17.871L16.3537 13.9984C19.2502 10.1278 18.4604 4.64195 14.5897 1.74551C10.7191 -1.15092 5.23326 -0.361157 2.33682 3.50949C-0.559611 7.38014 0.230152 12.866 4.1008 15.7624C7.21002 18.0891 11.4805 18.0891 14.5897 15.7624L18.4623 19.635C18.949 20.1217 19.738 20.1217 20.2246 19.635C20.7113 19.1483 20.7113 18.3593 20.2246 17.8727L20.2247 17.871ZM9.37754 15.015C5.93749 15.015 3.14882 12.2263 3.14882 8.78623C3.14882 5.34618 5.93749 2.55751 9.37754 2.55751C12.8176 2.55751 15.6063 5.34618 15.6063 8.78623C15.6026 12.2247 12.8161 15.0113 9.37754 15.015Z" fill="white"/>
</svg>
