<svg width="22" height="14" viewBox="0 0 22 14" fill="none" xmlns="http://www.w3.org/2000/svg">
<path d="M11.2742 13.2095C8.92487 13.2095 6.42454 12.1318 4.01046 10.1057C2.22146 8.57526 1.12207 7.08817 1.07908 7.02335L0.798828 6.63545L1.07908 6.24755C1.12208 6.18275 2.22146 4.69565 4.01046 3.18673C6.4245 1.13911 8.92483 0.0614014 11.2742 0.0614014C13.6237 0.0614014 16.124 1.13911 18.538 3.16525C20.327 4.67402 21.4263 6.18278 21.4694 6.24744L21.7497 6.63534L21.4694 7.02324C21.4264 7.08819 20.327 8.5753 18.538 10.0842C16.124 12.1318 13.6237 13.2095 11.2742 13.2095ZM2.41544 6.63549C3.45001 7.90716 7.09272 11.9163 11.2742 11.9163C15.4558 11.9163 19.0769 7.90719 20.1331 6.63549C19.0769 5.36383 15.4558 1.3547 11.2742 1.3547C7.09272 1.3547 3.4716 5.36379 2.41544 6.63549Z" fill="#595AD4"/>
<path d="M11.274 11.0325C8.85998 11.0325 6.87695 9.07107 6.87695 6.63547C6.87695 4.22143 8.85995 2.2384 11.274 2.2384C13.6881 2.2384 15.6711 4.2214 15.6711 6.63547C15.6711 9.04955 13.6881 11.0325 11.274 11.0325Z" fill="#595AD4"/>
</svg>
