<svg width="66" height="54" viewBox="0 0 66 54" fill="none" xmlns="http://www.w3.org/2000/svg">
<path d="M29.6211 6.83594C26.5612 8.59375 24.0872 10.1237 22.1992 11.4258C20.3112 12.6628 18.3906 14.3229 16.4375 16.4062C14.6146 18.3594 13.2148 20.4102 12.2383 22.5586C11.2617 24.707 10.5781 27.474 10.1875 30.8594H14.875C18.9115 30.8594 22.069 31.8685 24.3477 33.8867C26.6914 35.8398 27.8633 38.737 27.8633 42.5781C27.8633 45.3125 26.8216 47.8841 24.7383 50.293C22.7201 52.6367 19.9206 53.8086 16.3398 53.8086C10.7409 53.8086 6.73698 51.9857 4.32812 48.3398C1.91927 44.6289 0.714844 39.7786 0.714844 33.7891C0.714844 29.5573 1.6263 25.7161 3.44922 22.2656C5.27214 18.75 7.48568 15.625 10.0898 12.8906C12.7591 10.0911 15.5911 7.71484 18.5859 5.76172C21.5807 3.80859 24.0872 2.21354 26.1055 0.976562L29.6211 6.83594ZM65.7539 6.83594C62.694 8.59375 60.2201 10.1237 58.332 11.4258C56.444 12.6628 54.5234 14.3229 52.5703 16.4062C50.6823 18.4245 49.25 20.5078 48.2734 22.6562C47.362 24.7396 46.7109 27.474 46.3203 30.8594H51.0078C55.0443 30.8594 58.2018 31.8685 60.4805 33.8867C62.8242 35.8398 63.9961 38.737 63.9961 42.5781C63.9961 45.3125 62.9544 47.8841 60.8711 50.293C58.8529 52.6367 56.0534 53.8086 52.4727 53.8086C46.8737 53.8086 42.8698 51.9857 40.4609 48.3398C38.0521 44.6289 36.8477 39.7786 36.8477 33.7891C36.8477 29.5573 37.7591 25.7161 39.582 22.2656C41.4049 18.75 43.6185 15.625 46.2227 12.8906C48.8919 10.0911 51.724 7.71484 54.7188 5.76172C57.7135 3.80859 60.2201 2.21354 62.2383 0.976562L65.7539 6.83594Z" fill="#D3DBFF"/>
</svg>
