<svg width="19" height="23" viewBox="0 0 19 23" fill="none" xmlns="http://www.w3.org/2000/svg">
<path d="M6.29409 22.1514C2.84939 22.1325 0 15.4018 0 11.9741C0 6.37489 4.38832 5.14907 6.07955 5.14907C6.84171 5.14907 7.65555 5.43556 8.37336 5.68907C8.87533 5.86591 9.39446 6.04847 9.68319 6.04847C9.85601 6.04847 10.2633 5.89317 10.6228 5.75692C11.3897 5.46472 12.3438 5.10156 13.455 5.10156C13.457 5.10156 13.4597 5.10156 13.4616 5.10156C14.2913 5.10156 16.807 5.27585 18.3194 7.44987L18.6737 7.95945L18.1638 8.32772C17.4354 8.85378 16.1064 9.81341 16.1064 11.7143C16.1064 13.9656 17.6116 14.8314 18.3347 15.2478C18.6539 15.4317 18.9843 15.6212 18.9843 16.0357C18.9843 16.3063 16.7275 22.1179 13.4503 22.1179C12.6484 22.1179 12.0816 21.8872 11.5816 21.6837C11.0757 21.4777 10.6393 21.3003 9.91821 21.3003C9.55268 21.3003 9.09046 21.4657 8.60111 21.6413C7.93238 21.8802 7.17546 22.1514 6.31661 22.1514H6.29409Z" fill="white"/>
<path d="M13.8024 -0.000488281C13.8877 2.94511 11.6869 4.98863 9.48862 4.86046C9.12639 2.50978 11.6866 -0.000488281 13.8024 -0.000488281Z" fill="white"/>
</svg>
