<svg width="23" height="23" viewBox="0 0 23 23" fill="none" xmlns="http://www.w3.org/2000/svg">
<g clip-path="url(#clip0_812_3863)">
<path d="M21.777 6.48218H14.1529C13.9949 6.88828 13.7895 7.04858 13.3225 7.51687V10.2685C13.3225 10.4769 13.1536 10.6458 12.9451 10.6458C12.7367 10.6458 12.5678 10.4769 12.5678 10.2685V8.27353L11.4639 9.38029V20.9462C11.4639 21.2836 11.7374 21.5571 12.0749 21.5571H12.4204V21.9219C12.4204 22.1846 12.6333 22.3976 12.8961 22.3976H13.8581C14.1208 22.3976 14.3338 22.1846 14.3338 21.9219V21.5571H19.5181V21.9219C19.5181 22.1846 19.731 22.3976 19.9938 22.3976H20.9557C21.2184 22.3976 21.4314 22.1846 21.4314 21.9219V21.5571H21.7769C22.1143 21.5571 22.3879 21.2836 22.3879 20.9462V7.09318C22.388 6.75576 22.1144 6.48218 21.777 6.48218Z" fill="#242F54" fill-opacity="0.8"/>
<path d="M21.777 0.225098H12.0749C11.7374 0.225098 11.4639 0.498675 11.4639 0.836101V4.57978C11.771 4.31412 12.1577 4.16764 12.5678 4.16658V1.78166C12.5678 1.57321 12.7367 1.40431 12.9451 1.40431C13.1536 1.40431 13.3225 1.57321 13.3225 1.78166V4.34212C13.8385 4.59706 14.1719 5.07576 14.2501 5.62209H21.777C22.1145 5.62209 22.388 5.34851 22.388 5.01109V0.836101C22.388 0.498675 22.1145 0.225098 21.777 0.225098Z" fill="#242F54" fill-opacity="0.8"/>
<path d="M13.2379 5.19658C12.867 4.82663 12.2694 4.83176 11.9037 5.19839L10.3011 6.83035C10.2546 6.4718 10.2198 6.15414 10.1817 5.85619C10.0503 4.82965 9.33118 3.98152 8.32932 3.81104C7.15923 3.81104 3.70959 3.81104 2.50622 3.81104C1.45818 3.98937 0.653669 4.90278 0.648084 6.00011L0.613293 12.9306C0.610727 13.4516 1.03094 13.8761 1.55199 13.8788C1.55357 13.8788 1.55515 13.8788 1.55674 13.8788C2.07552 13.8788 2.49739 13.4595 2.50004 12.9401L2.53483 6.00962C2.53573 5.83709 2.66403 5.66548 2.90916 5.66548L2.90961 21.8679C2.90961 22.4931 3.41646 23 4.04166 23C4.66685 23 5.1737 22.4931 5.1737 21.8679V13.0638C5.1737 12.9288 5.28313 12.8194 5.41807 12.8194C5.55309 12.8194 5.66244 12.9288 5.66244 13.0638V21.8679C5.66244 22.4931 6.1693 23 6.79449 23C7.41968 23 7.92654 22.4931 7.92654 21.8679L7.90601 5.66548C8.17468 5.66548 8.29996 5.8337 8.30087 6.00962C8.30139 6.09731 8.27853 5.89649 8.67965 8.9515C8.71497 9.2207 8.86644 9.47043 9.11088 9.62552C9.48408 9.86144 9.97063 9.80808 10.283 9.49488L13.2397 6.53066C13.5995 6.16984 13.6125 5.57023 13.2379 5.19658Z" fill="#242F54" fill-opacity="0.8"/>
<path d="M7.03366 3.0563C7.24785 2.74265 7.3732 2.36364 7.3732 1.95519C7.3732 0.875373 6.49791 0 5.41808 0C4.33826 0 3.46289 0.875373 3.46289 1.95519C3.46289 2.36364 3.58832 2.74265 3.80243 3.0563H7.03366Z" fill="#242F54" fill-opacity="0.8"/>
</g>
<defs>
<clipPath id="clip0_812_3863">
<rect width="23" height="23" fill="white"/>
</clipPath>
</defs>
</svg>
