<svg width="69" height="173" viewBox="0 0 69 173" fill="none" xmlns="http://www.w3.org/2000/svg">
<path fill-rule="evenodd" clip-rule="evenodd" d="M1.15499 125.279C3.95348 135.928 6.26917 142.919 8.10205 146.252C9.93494 149.584 11.5698 152.572 13.0065 155.214C13.1887 150.669 13.7253 148.003 14.6163 147.216C15.9528 146.035 15.7844 145.182 18.6442 146.252C18.9332 142.8 19.8864 137.334 21.5039 129.855C19.9872 128.586 18.8417 127.06 18.0673 125.279C17.2929 123.498 16.9185 120.675 16.944 116.812C13.0022 112.068 10.8521 109.093 10.4937 107.888C10.1353 106.683 9.67118 105.049 9.10138 102.986C12.0639 103.149 14.1116 103.45 15.2446 103.888C16.3775 104.325 17.5107 104.779 18.6442 105.249C22.3678 99.5903 25.4199 96.352 27.8005 95.5342C31.3714 94.3075 34.257 91.3012 42.9587 92.1867C44.6024 89.8757 50.1613 83.282 51.5629 82.8342C52.59 84.6175 53.0736 86.2304 53.0135 87.673C53.2188 91.1478 53.5751 93.2939 54.0823 94.1115C54.8431 95.3378 60.6358 99.7339 61.1669 102.26C61.698 104.786 60.3366 111.384 56.8959 117.625C59.6313 122.699 60.6358 127.413 61.1669 130.636C61.521 132.784 61.698 137.716 61.698 145.433C63.289 144.742 64.5803 144.705 65.5721 145.324C66.5638 145.942 67.1917 147.196 67.4557 149.085L64.1152 159.62L58.3482 167.975V169.923L49.0086 171.042L47.7905 168.738C43.7597 169.983 41.1075 170.606 39.8338 170.606C38.5601 170.606 35.8705 170.155 31.765 169.253L30.9501 171.837H21.5039V169.923L15.9601 162.012C11.4814 159.028 7.66431 153.775 4.50887 146.252C1.35343 138.729 0.235464 131.738 1.15499 125.279Z" fill="white"/>
<path fill-rule="evenodd" clip-rule="evenodd" d="M1.32934 128.479C-0.0865538 139.253 7.36818 155.49 15.0493 161.038C14.4433 159.403 13.9105 157.92 13.3395 156.451C13.1256 155.901 12.8854 155.343 12.5521 154.86C8.96169 149.649 6.19055 144.01 4.06233 138.078C2.95788 135 2.25431 131.778 1.32934 128.479ZM58.3856 167.184C58.5544 167.056 58.6895 166.983 58.7839 166.875C59.0472 166.575 59.298 166.264 59.5463 165.951C62.9103 161.693 65.0854 156.834 66.6208 151.683C66.9979 150.418 67.0598 149.027 67.0598 147.693C67.0604 146.328 66.1367 145.471 64.9497 145.435C63.6339 145.394 62.6226 146.14 62.3731 147.404C62.0254 149.166 61.7383 150.94 61.3943 152.703C60.5031 157.272 59.1223 161.698 57.4106 166.023C57.3424 166.195 57.3612 166.401 57.3349 166.629C57.7101 166.827 58.051 167.007 58.3856 167.184ZM23.576 168.878C23.1901 167.949 22.858 167.121 22.504 166.301C20.0318 160.576 18.3927 154.643 18.0306 148.391C18.0106 148.044 17.9937 147.684 17.8892 147.357C17.5171 146.204 16.691 145.937 15.7116 146.632C14.8567 147.239 14.3908 148.095 14.1143 149.088C13.4927 151.326 13.6159 153.594 14.3245 155.728C15.8711 160.383 17.7473 164.9 21.2288 168.536C22.0713 169.415 22.0525 169.432 23.576 168.878ZM29.1401 95.6358C28.1001 96.0733 27.2345 96.2389 26.631 96.727C24.965 98.0755 23.3183 99.4716 21.8411 101.018C20.8586 102.046 20.1256 103.331 19.3839 104.563C18.8436 105.461 18.7954 105.574 17.7885 105.173C16.9543 104.842 16.1619 104.402 15.3213 104.091C13.4821 103.409 11.5871 103.249 9.53017 103.488C9.97045 104.592 10.3313 105.518 10.7084 106.438C11.9698 109.51 13.7203 112.32 15.811 114.861C16.6609 115.893 17.2238 116.838 17.2745 118.131C17.292 118.579 17.3614 119.025 17.4208 119.471C17.7097 121.652 18.1169 123.805 18.9411 125.861C19.549 127.376 20.4734 128.537 22.1694 128.9C23.2902 129.141 24.3934 129.485 25.5241 129.648C27.7968 129.973 30.0788 130.27 32.3665 130.461C35.5623 130.728 38.7719 130.784 41.9013 129.933C45.1077 129.061 48.2841 127.971 50.4611 125.301C52.8558 122.364 55.1404 119.322 57.2623 116.183C58.9684 113.659 60.2492 110.866 60.8715 107.846C61.5526 104.543 61.1598 101.478 58.6032 98.9835C57.3536 97.7637 56.1566 96.4851 54.8433 95.3377C54.1122 94.6991 53.7195 93.9817 53.5594 93.0637C53.2579 91.3439 52.9452 89.626 52.6069 87.9131C52.3117 86.417 51.974 84.9291 51.6657 83.4861C51.4762 83.4611 51.4099 83.4305 51.3786 83.4511C48.3573 85.464 46.0202 88.0899 44.5993 91.427C44.2266 92.3019 43.7363 92.5612 42.9508 92.5962C42.6074 92.6112 42.2597 92.5087 41.9126 92.4762C37.9551 92.1038 34.1402 92.6106 30.5247 94.3279C29.8468 94.6497 29.1526 94.9859 29.1401 95.6358ZM30.3997 171.512C30.5698 169.52 30.8406 167.591 30.8725 165.658C30.9187 162.842 31.269 160.078 31.9619 157.361C32.8393 153.923 34.4497 150.84 36.7293 148.119C37.1858 147.574 37.6286 146.915 38.7537 146.877C38.6236 148.237 37.3954 148.71 36.8863 149.617C36.3497 150.572 35.6886 151.459 35.1664 152.422C34.6186 153.429 34.1033 154.465 33.6968 155.535C33.3084 156.556 33.032 157.627 32.7893 158.695C32.5348 159.813 32.3309 160.948 32.1921 162.085C32.0588 163.175 32.0088 164.276 31.9744 165.374C31.9394 166.51 31.9669 167.649 31.9669 168.863C37.0777 170.61 42.0927 170.77 47.0415 168.118C46.9108 166.876 46.7707 165.688 46.6631 164.498C46.2303 159.694 45.2003 155.032 43.3704 150.557C43.1628 150.05 42.9745 149.531 42.8288 149.004C42.6918 148.504 42.8376 148.116 43.6087 147.971C43.8588 148.609 44.1134 149.281 44.3848 149.946C46.2291 154.462 47.3367 159.154 47.7857 164.01C47.9377 165.65 48.1384 167.289 48.4011 168.914C48.6093 170.206 48.9145 170.516 50.1647 170.448C52.453 170.326 54.7357 170.075 57.0178 169.845C57.3293 169.814 57.6213 169.59 57.9009 169.465C57.5975 168.097 57.5975 168.097 56.5375 167.645C55.61 167.249 55.4968 166.911 55.9909 166.086C56.2198 165.703 56.4681 165.321 56.6207 164.907C59.8033 156.27 61.8434 147.428 61.6901 138.145C61.587 131.906 60.208 125.983 57.8021 120.265C57.6051 119.797 57.3167 119.367 57.0116 118.811C55.5606 120.707 54.2861 122.433 52.9458 124.105C51.7282 125.625 50.4937 127.138 48.8001 128.187C45.3735 130.31 41.6537 131.59 37.6249 131.644C34.6849 131.684 31.733 131.46 28.8005 131.204C26.5235 131.005 24.267 130.575 21.7729 130.215C21.3433 131.552 20.7911 132.937 20.454 134.373C18.3958 143.129 18.6453 151.818 21.4928 160.372C22.3902 163.068 23.5491 165.676 24.5678 168.332C24.7511 168.809 24.8355 169.323 24.9393 169.722C24.0381 170.515 22.454 169.813 22.2063 171.583C24.9381 171.786 27.5485 172.066 30.3997 171.512ZM47.2666 169.28C42.0533 171.872 36.9257 171.687 31.6899 170.043C31.6292 170.544 31.5679 170.881 31.551 171.221C31.496 172.344 31.2733 172.701 30.1883 172.729C27.6929 172.792 25.1939 172.796 22.6985 172.737C21.5603 172.711 21.0206 172.145 21.095 171.027C21.1457 170.263 20.8192 169.797 20.3708 169.325C18.878 167.757 17.6528 166.004 16.6503 164.087C16.4721 163.747 16.2494 163.349 15.9367 163.171C13.3057 161.674 11.3695 159.435 9.58333 157.095C4.34876 150.235 1.17112 142.502 0.199878 133.917C-0.137836 130.933 -0.0465284 127.929 0.465672 124.955C0.527586 124.595 0.715205 124.257 0.968491 123.573C1.36312 124.118 1.66831 124.373 1.75461 124.689C2.05668 125.795 2.33561 126.912 2.53073 128.041C3.73962 135.052 6.21494 141.608 9.60647 147.838C10.3232 149.153 11.0436 150.467 11.7835 151.769C11.9405 152.046 12.1862 152.272 12.574 152.743C12.6265 152.043 12.6165 151.611 12.7003 151.198C12.9367 150.03 13.0749 148.818 13.5021 147.719C14.2588 145.772 15.8017 144.909 17.9762 145.076C18.1244 139.873 18.7448 134.742 20.7198 129.81C17.3014 127.439 16.9761 123.68 16.3357 120.06C16.2926 119.815 16.2813 119.564 16.2619 119.315C16.1406 117.816 15.711 116.563 14.6878 115.291C12.4695 112.534 10.5596 109.526 9.34255 106.146C9.0555 105.35 8.63085 104.605 8.3069 103.82C7.88788 102.806 8.08863 102.405 9.18996 102.335C11.7003 102.174 14.1919 102.249 16.5365 103.347C17.07 103.597 17.6166 103.817 18.2995 104.112C19.2801 102.064 20.5972 100.382 22.2182 98.9529C23.8186 97.5412 25.4459 96.1595 27.0144 94.8059C26.1119 92.8393 25.0807 90.8989 24.3127 88.8611C22.3108 83.543 21.15 78.0362 21.0825 72.3363C21.0356 68.3943 20.8861 64.4404 21.1119 60.5109C21.3958 55.5815 22.0075 50.6702 22.4959 45.7534C23.0131 40.5353 23.7135 35.3259 23.4646 30.0666C23.2426 25.3772 22.9193 20.6878 21.7123 16.1208C20.818 12.74 19.1963 9.70664 16.9993 7.00198C14.0649 3.38931 10.1862 1.56891 5.57767 1.20646C5.04233 1.16396 4.15301 1.46018 4.22931 0.530918C4.28935 -0.205865 5.07922 0.025981 5.5983 0.065976C11.2788 0.504671 15.7635 2.98998 19.0181 7.72689C21.5641 11.4327 23.0475 15.5109 23.6842 19.9235C24.4134 24.976 24.8649 30.0597 24.5435 35.1584C24.2614 39.641 23.7817 44.1136 23.2676 48.5768C22.5065 55.1816 21.858 61.7882 21.9862 68.4474C22.1169 75.2234 22.8249 81.9101 25.2989 88.2899C25.9106 89.8666 26.7011 91.3751 27.4434 92.8987C27.6548 93.3336 27.9819 93.7111 28.3252 94.216C30.606 92.8468 32.9463 91.8357 35.5035 91.5813C38.0258 91.3301 40.5674 91.2701 43.119 91.1258C44.3291 89.4472 45.5387 87.5593 46.9646 85.8508C48.3973 84.1323 50.1266 82.6975 52.3123 81.5045C52.5306 82.0913 52.7557 82.5131 52.842 82.9624C53.4849 86.2945 54.0728 89.6372 54.7495 92.9618C54.8589 93.4961 55.2486 94.0317 55.6407 94.4391C56.8508 95.699 58.126 96.8963 59.3749 98.1186C62.2768 100.96 62.8277 104.424 61.9847 108.214C61.3724 110.97 60.1191 113.477 58.7539 115.927C58.4393 116.492 58.1066 117.047 57.7777 117.614C62.2386 126.134 63.3937 135.238 62.6645 144.795C63.3356 144.61 63.754 144.467 64.1842 144.38C66.1692 143.977 67.9241 145.185 68.2055 147.199C68.4657 149.065 68.163 150.892 67.5701 152.66C65.7952 157.951 63.4994 162.971 59.8684 167.289C59.3931 167.855 58.9697 168.379 59.0879 169.278C59.2098 170.21 58.4006 170.687 57.57 170.841C56.0972 171.116 54.6119 171.332 53.1241 171.506C52.2836 171.603 51.4236 171.533 50.5768 171.598C48.9577 171.721 47.6681 171.344 47.2666 169.28Z" fill="black"/>
<path fill-rule="evenodd" clip-rule="evenodd" d="M43.5217 121.001C42.7293 122.054 42.017 123.074 41.2253 124.03C40.4385 124.98 39.3297 125.306 38.1383 125.277C37.8781 125.271 37.6255 124.935 37.3697 124.751C37.603 124.541 37.8525 124.135 38.067 124.152C40.2853 124.332 41.0514 122.654 41.9595 121.175C42.2609 120.683 42.259 120.155 41.8682 119.638C41.3591 118.965 40.9119 118.245 40.416 117.513C38.1839 117.648 36.047 117.47 34.3027 115.678C34.5379 115.24 34.6492 114.826 34.9144 114.574C36.0345 113.51 37.1352 112.406 38.3753 111.496C39.0189 111.023 39.9219 110.775 40.7356 110.692C42.0708 110.554 43.1765 111.706 43.0058 113.037C42.9076 113.802 42.5436 114.547 42.2146 115.261C42.0114 115.703 41.6493 116.07 41.2972 116.555C41.9294 117.456 42.5217 118.373 43.189 119.232C43.6731 119.857 44.4204 120.005 45.2159 119.587C45.8688 119.244 46.4379 118.738 47.0283 118.283C47.2635 118.102 47.4261 117.811 47.6787 117.673C47.9051 117.551 48.2091 117.571 48.4786 117.528C48.4492 117.829 48.5286 118.211 48.3729 118.416C47.0221 120.195 45.8194 120.803 43.5217 121.001Z" fill="black"/>
<path fill-rule="evenodd" clip-rule="evenodd" d="M46.8779 92.393C47.5602 90.6182 48.863 89.3121 50.2407 87.673C50.4996 88.231 50.7642 88.5447 50.7711 88.8634C50.793 89.9039 50.7298 90.9476 50.6823 91.9887C50.6491 92.6967 50.2801 93.1073 49.5478 93.0698C48.6722 93.0254 47.7535 93.1235 46.8779 92.393Z" fill="black"/>
<path fill-rule="evenodd" clip-rule="evenodd" d="M13.0068 107.463C13.4602 106.62 13.9324 106.388 14.6916 106.745C15.3652 107.061 16.0932 107.264 16.7973 107.518C17.4409 107.749 17.5985 108.207 17.4065 108.828C17.3921 108.876 17.3877 108.931 17.3608 108.969C16.9512 109.567 16.6604 110.448 16.0957 110.689C15.3308 111.016 15.0143 110.011 14.5816 109.511C14.03 108.876 13.5503 108.177 13.0068 107.463Z" fill="black"/>
<path fill-rule="evenodd" clip-rule="evenodd" d="M19.9844 114.251C20.2614 112.033 21.0951 110.289 22.1464 108.639C22.2427 108.487 22.5691 108.481 22.7887 108.406C22.8725 108.657 23.0676 108.934 23.0151 109.151C22.9237 109.527 22.6529 109.856 22.5035 110.224C22.0369 111.371 21.5873 112.525 21.1439 113.681C21.0732 113.864 21.1195 114.107 21.0163 114.257C20.8649 114.476 20.6273 114.635 20.4265 114.82C20.2402 114.58 20.0538 114.341 19.9844 114.251Z" fill="black"/>
<path fill-rule="evenodd" clip-rule="evenodd" d="M44.5703 97.2416C45.479 97.4466 46.2188 97.561 46.9155 97.7991C47.1663 97.8847 47.3151 98.2696 47.5096 98.5177C47.2276 98.6383 46.9074 98.9133 46.6691 98.8545C45.2375 98.5021 43.8404 98.4427 42.422 98.937C42.2063 99.0126 41.8667 98.7358 41.584 98.6214C41.7679 98.3652 41.9017 97.9615 42.145 97.8791C42.9786 97.5941 43.851 97.4216 44.5703 97.2416Z" fill="black"/>
<path fill-rule="evenodd" clip-rule="evenodd" d="M29.3845 116.812C28.6415 116.827 27.2506 115.588 27.1637 114.832C27.0843 114.145 27.7509 113.601 28.4426 113.843C29.3607 114.164 29.8141 114.972 30.1825 115.779C30.3876 116.227 29.871 116.801 29.3845 116.812Z" fill="black"/>
<path fill-rule="evenodd" clip-rule="evenodd" d="M44.6096 103.888C45.3713 103.908 46.3169 104.966 46.255 105.729C46.2125 106.247 45.9329 106.546 45.4138 106.604C44.5745 106.697 43.4601 105.772 43.4057 104.944C43.3713 104.411 43.9854 103.872 44.6096 103.888Z" fill="black"/>
</svg>
