<svg width="148" height="48" viewBox="0 0 148 48" fill="none" xmlns="http://www.w3.org/2000/svg">
<g clip-path="url(#clip0_1_27120)">
<path d="M9.501 47.997C9.119 47.997 8.746 47.997 8.366 47.984C7.58047 47.9753 6.79666 47.9084 6.021 47.784C5.29765 47.6593 4.59695 47.4274 3.942 47.096C3.29303 46.7674 2.70113 46.3366 2.189 45.82C1.66931 45.3098 1.23659 44.718 0.908 44.068C0.57604 43.4135 0.346373 42.7121 0.227 41.988C0.0978757 41.2101 0.0280081 40.4235 0.0179999 39.635C0.00999995 39.37 0 38.489 0 38.489V9.498C0 9.498 0.0109999 8.63 0.0179999 8.375C0.0279518 7.5875 0.0978202 6.8019 0.227 6.025C0.346738 5.29898 0.576726 4.59553 0.909 3.939C1.23617 3.29023 1.66604 2.6986 2.182 2.187C2.69796 1.66992 3.29185 1.23699 3.942 0.904C4.59545 0.575123 5.29458 0.346238 6.016 0.225C6.79432 0.096305 7.58119 0.0261085 8.37 0.015L9.502 0H138.46L139.606 0.016C140.387 0.0239533 141.167 0.0908095 141.938 0.216C142.668 0.339376 143.376 0.570921 144.038 0.903C145.34 1.5743 146.4 2.63625 147.068 3.94C147.395 4.59184 147.622 5.2894 147.74 6.009C147.87 6.79198 147.943 7.58341 147.958 8.377V9.494C147.968 9.965 147.968 10.412 147.968 10.864V37.13C147.968 37.586 147.968 38.03 147.958 38.479V39.646C147.944 40.4255 147.872 41.2029 147.744 41.972C147.627 42.7027 147.399 43.411 147.066 44.072C146.735 44.715 146.305 45.3019 145.792 45.811C145.279 46.3302 144.686 46.7634 144.036 47.094C143.377 47.4278 142.671 47.6604 141.943 47.784C141.167 47.9091 140.383 47.976 139.597 47.984C139.222 47.9929 138.846 47.9972 138.471 47.997H137.111H9.501Z" fill="black"/>
<path d="M30.0473 24.3266C30.0608 23.2771 30.3395 22.2481 30.8576 21.3352C31.3756 20.4224 32.1162 19.6554 33.0103 19.1056C32.4417 18.2953 31.692 17.6286 30.8208 17.1586C29.9495 16.6885 28.9808 16.428 27.9913 16.3976C25.8803 16.1756 23.8333 17.6606 22.7573 17.6606C21.6573 17.6606 20.0043 16.4196 18.2203 16.4606C17.0664 16.4979 15.9419 16.8334 14.9563 17.4345C13.9707 18.0357 13.1576 18.8818 12.5963 19.8906C10.1643 24.1006 11.9783 30.2906 14.3083 33.6906C15.4733 35.3576 16.8363 37.2186 18.6183 37.1526C20.3623 37.0806 21.0183 36.0406 23.1183 36.0406C25.2043 36.0406 25.8183 37.1526 27.6333 37.1106C29.5043 37.0806 30.6843 35.4366 31.8083 33.7546C32.6456 32.567 33.2899 31.2545 33.7173 29.8656C32.629 29.4052 31.7004 28.6342 31.0477 27.6491C30.395 26.664 30.047 25.5084 30.0473 24.3266Z" fill="white"/>
<path d="M26.6135 14.1546C27.6334 12.9295 28.1356 11.355 28.0135 9.76562C26.4546 9.92952 25.0147 10.6747 23.9805 11.8526C23.4745 12.428 23.0868 13.0975 22.8398 13.8228C22.5927 14.5481 22.491 15.315 22.5405 16.0796C23.3209 16.088 24.0929 15.9192 24.7985 15.5857C25.504 15.2522 26.1246 14.7629 26.6135 14.1546Z" fill="white"/>
<path d="M51.7916 32.9272H45.8406L44.4117 37.1472H41.8896L47.5266 21.5332H50.1456L55.7826 37.1472H53.2197L51.7916 32.9272ZM46.4566 30.9792H51.1747L48.8487 24.1302H48.7836L46.4566 30.9792Z" fill="white"/>
<path d="M67.9584 31.4557C67.9584 34.9937 66.0654 37.2667 63.2074 37.2667C62.4835 37.3046 61.7636 37.1379 61.1301 36.7856C60.4966 36.4333 59.9751 35.9097 59.6254 35.2747H59.5714V40.9137H57.2344V25.7627H59.4964V27.6557H59.5394C59.9052 27.0238 60.4354 26.5029 61.0738 26.1484C61.7121 25.7939 62.4346 25.6192 63.1644 25.6427C66.0534 25.6437 67.9584 27.9277 67.9584 31.4557ZM65.5584 31.4557C65.5584 29.1557 64.3674 27.6357 62.5504 27.6357C60.7654 27.6357 59.5644 29.1827 59.5644 31.4557C59.5644 33.7497 60.7644 35.2857 62.5504 35.2857C64.3654 35.2857 65.5564 33.7817 65.5564 31.4557H65.5584Z" fill="white"/>
<path d="M80.4886 31.4557C80.4886 34.9937 78.5956 37.2667 75.7376 37.2667C75.0137 37.3046 74.2937 37.1379 73.6602 36.7856C73.0267 36.4333 72.5053 35.9097 72.1556 35.2747H72.1016V40.9137H69.7686V25.7627H72.0306V27.6557H72.0686C72.4343 27.0238 72.9646 26.5029 73.6029 26.1484C74.2413 25.7939 74.9638 25.6192 75.6936 25.6427C78.5836 25.6437 80.4886 27.9277 80.4886 31.4557ZM78.0886 31.4557C78.0886 29.1557 76.8976 27.6357 75.0806 27.6357C73.2956 27.6357 72.0946 29.1827 72.0946 31.4557C72.0946 33.7497 73.2946 35.2857 75.0806 35.2857C76.8976 35.2857 78.0886 33.7857 78.0886 31.4557Z" fill="white"/>
<path d="M88.77 32.8013C88.943 34.3493 90.447 35.3663 92.503 35.3663C94.473 35.3663 95.89 34.3493 95.89 32.9533C95.89 31.7413 95.035 31.0153 93.012 30.5183L90.988 30.0313C88.121 29.3383 86.788 27.9983 86.788 25.8223C86.788 23.1283 89.136 21.2773 92.47 21.2773C95.77 21.2773 98.031 23.1273 98.107 25.8223H95.75C95.609 24.2643 94.321 23.3223 92.438 23.3223C90.555 23.3223 89.267 24.2743 89.267 25.6593C89.267 26.7593 90.09 27.4123 92.102 27.9103L93.822 28.3323C97.022 29.0903 98.357 30.3773 98.357 32.6603C98.357 35.5813 96.03 37.4113 92.329 37.4113C88.866 37.4113 86.529 35.6243 86.377 32.8003L88.77 32.8013Z" fill="white"/>
<path d="M103.4 23.0703V25.7643H105.565V27.6153H103.4V33.8903C103.4 34.8653 103.833 35.3193 104.785 35.3193C105.043 35.3149 105.299 35.2968 105.554 35.2653V37.1043C105.126 37.1844 104.69 37.2206 104.254 37.2123C101.954 37.2123 101.054 36.3463 101.054 34.1383V27.6143H99.3975V25.7643H101.052V23.0703H103.4Z" fill="white"/>
<path d="M106.819 31.456C106.819 27.874 108.929 25.623 112.219 25.623C115.509 25.623 117.619 27.874 117.619 31.456C117.619 35.038 115.53 37.292 112.218 37.292C108.906 37.292 106.819 35.047 106.819 31.456ZM115.238 31.456C115.238 28.999 114.112 27.549 112.219 27.549C110.326 27.549 109.201 29.01 109.201 31.456C109.201 33.923 110.326 35.362 112.219 35.362C114.112 35.362 115.238 33.923 115.238 31.456Z" fill="white"/>
<path d="M119.546 25.7627H121.775V27.6957H121.829C121.98 27.0905 122.334 26.5557 122.833 26.1811C123.331 25.8064 123.944 25.6149 124.567 25.6387C124.836 25.6377 125.104 25.6669 125.367 25.7257V27.9117C125.027 27.8079 124.672 27.7602 124.317 27.7707C123.977 27.757 123.638 27.8171 123.324 27.9469C123.009 28.0767 122.727 28.2731 122.495 28.5226C122.264 28.772 122.089 29.0686 121.984 29.392C121.878 29.7153 121.844 30.0578 121.883 30.3957V37.1477H119.546V25.7627Z" fill="white"/>
<path d="M136.142 33.804C135.828 35.871 133.815 37.289 131.242 37.289C127.93 37.289 125.875 35.07 125.875 31.51C125.875 27.95 127.942 25.623 131.144 25.623C134.294 25.623 136.274 27.787 136.274 31.238V32.038H128.233V32.179C128.196 32.598 128.248 33.0201 128.387 33.4172C128.525 33.8144 128.747 34.1775 129.036 34.4826C129.326 34.7876 129.677 35.0275 130.066 35.1864C130.456 35.3453 130.875 35.4195 131.295 35.404C131.847 35.4558 132.401 35.3281 132.875 35.0398C133.348 34.7516 133.716 34.3182 133.924 33.804H136.142ZM128.242 30.404H133.933C133.954 30.0274 133.897 29.6505 133.765 29.297C133.633 28.9435 133.43 28.621 133.168 28.3497C132.906 28.0784 132.591 27.8643 132.242 27.7207C131.893 27.577 131.518 27.507 131.141 27.515C130.76 27.5127 130.383 27.5857 130.031 27.7299C129.679 27.8741 129.359 28.0866 129.089 28.3552C128.819 28.6238 128.606 28.9432 128.46 29.2948C128.315 29.6465 128.24 30.0235 128.241 30.404H128.242Z" fill="white"/>
<path d="M46.1621 9.8542C46.652 9.81908 47.1436 9.89311 47.6014 10.071C48.0592 10.2488 48.4718 10.5261 48.8095 10.8827C49.1472 11.2393 49.4015 11.6664 49.5542 12.1333C49.7068 12.6001 49.7539 13.095 49.6921 13.5822C49.6921 15.9822 48.3921 17.3572 46.1621 17.3572H43.4521V9.8572L46.1621 9.8542ZM44.6171 16.2962H46.0321C46.3823 16.3171 46.7328 16.2596 47.0579 16.1279C47.3831 15.9963 47.6748 15.7937 47.9118 15.5351C48.1488 15.2764 48.3251 14.9682 48.4279 14.6328C48.5308 14.2974 48.5575 13.9432 48.5061 13.5962C48.5536 13.2506 48.524 12.8989 48.4195 12.5661C48.315 12.2333 48.1382 11.9278 47.9018 11.6714C47.6653 11.4149 47.3751 11.214 47.0519 11.0829C46.7286 10.9518 46.3804 10.8939 46.0321 10.9132H44.6171V16.2962Z" fill="white"/>
<path d="M51.0081 14.5233C50.9728 14.1514 51.0156 13.7762 51.1337 13.4218C51.2519 13.0674 51.4427 12.7416 51.6941 12.4653C51.9454 12.1889 52.2518 11.9681 52.5934 11.817C52.9351 11.6659 53.3045 11.5879 53.6781 11.5879C54.0517 11.5879 54.4211 11.6659 54.7628 11.817C55.1045 11.9681 55.4108 12.1889 55.6622 12.4653C55.9135 12.7416 56.1044 13.0674 56.2225 13.4218C56.3406 13.7762 56.3834 14.1514 56.3481 14.5233C56.3849 14.8961 56.3433 15.2724 56.2259 15.6281C56.1085 15.9838 55.9179 16.311 55.6664 16.5886C55.4149 16.8662 55.108 17.088 54.7656 17.2399C54.4231 17.3917 54.0527 17.4701 53.6781 17.4701C53.3035 17.4701 52.9331 17.3917 52.5907 17.2399C52.2482 17.088 51.9414 16.8662 51.6899 16.5886C51.4384 16.311 51.2478 15.9838 51.1303 15.6281C51.0129 15.2724 50.9713 14.8961 51.0081 14.5233ZM55.1991 14.5233C55.1991 13.2963 54.6481 12.5783 53.6801 12.5783C52.7121 12.5783 52.1621 13.2963 52.1621 14.5233C52.1621 15.7503 52.7091 16.4773 53.6801 16.4773C54.6511 16.4773 55.1991 15.7603 55.1991 14.5283V14.5233Z" fill="white"/>
<path d="M63.4473 17.3573H62.2863L61.1163 13.1873H61.0283L59.8633 17.3573H58.7163L57.1553 11.6953H58.2863L59.3003 16.0153H59.3863L60.5503 11.6953H61.6223L62.7863 16.0153H62.8743L63.8833 11.6953H65.0003L63.4473 17.3573Z" fill="white"/>
<path d="M66.3154 11.6944H67.3914V12.5944H67.4754C67.6177 12.2717 67.8568 12.0012 68.1595 11.8204C68.4623 11.6397 68.8139 11.5575 69.1654 11.5854C69.4409 11.5647 69.7176 11.6063 69.9748 11.707C70.2321 11.8078 70.4634 11.9651 70.6516 12.1673C70.8398 12.3696 70.9801 12.6116 71.0622 12.8754C71.1442 13.1392 71.1658 13.4181 71.1254 13.6914V17.3564H70.0064V13.9764C70.0064 13.0664 69.6064 12.6144 68.7844 12.6144C68.5974 12.6059 68.4108 12.6379 68.2373 12.7081C68.0637 12.7784 67.9074 12.8853 67.7791 13.0216C67.6507 13.1578 67.5533 13.3202 67.4934 13.4976C67.4336 13.675 67.4128 13.8632 67.4324 14.0494V17.3564H66.3154V11.6944Z" fill="white"/>
<path d="M72.9043 9.48438H74.0213V17.3564H72.9043V9.48438Z" fill="white"/>
<path d="M75.574 14.5237C75.5379 14.1513 75.5802 13.7755 75.698 13.4204C75.8157 13.0652 76.0065 12.7387 76.258 12.4616C76.5095 12.1846 76.8161 11.9633 77.1582 11.8118C77.5004 11.6603 77.8704 11.582 78.2445 11.582C78.6187 11.582 78.9887 11.6603 79.3308 11.8118C79.6729 11.9633 79.9796 12.1846 80.231 12.4616C80.4825 12.7387 80.6733 13.0652 80.7911 13.4204C80.9089 13.7755 80.9511 14.1513 80.915 14.5237C80.9511 14.8961 80.9089 15.272 80.7911 15.6271C80.6733 15.9822 80.4825 16.3088 80.231 16.5858C79.9796 16.8628 79.6729 17.0842 79.3308 17.2357C78.9887 17.3871 78.6187 17.4654 78.2445 17.4654C77.8704 17.4654 77.5004 17.3871 77.1582 17.2357C76.8161 17.0842 76.5095 16.8628 76.258 16.5858C76.0065 16.3088 75.8157 15.9822 75.698 15.6271C75.5802 15.272 75.5379 14.8961 75.574 14.5237ZM79.765 14.5237C79.765 13.2967 79.214 12.5787 78.246 12.5787C77.278 12.5787 76.728 13.2967 76.728 14.5237C76.728 15.7507 77.275 16.4777 78.246 16.4777C79.217 16.4777 79.765 15.7607 79.765 14.5287V14.5237Z" fill="white"/>
<path d="M82.0908 15.756C82.0908 14.737 82.8498 14.149 84.1968 14.066L85.7308 13.978V13.489C85.7308 12.889 85.3308 12.553 84.5718 12.553C83.9478 12.553 83.5158 12.782 83.3918 13.182H82.3098C82.4238 12.209 83.3388 11.582 84.6228 11.582C86.0418 11.582 86.8428 12.289 86.8428 13.482V17.351H85.7678V16.551H85.6798C85.5008 16.8367 85.249 17.0696 84.9503 17.2258C84.6515 17.3821 84.3166 17.456 83.9798 17.44C83.7429 17.465 83.5033 17.4401 83.2765 17.3671C83.0497 17.2941 82.8407 17.1744 82.6628 17.0159C82.485 16.8573 82.3422 16.6633 82.2437 16.4464C82.1452 16.2294 82.0931 15.9943 82.0908 15.756ZM85.7308 15.272V14.799L84.3478 14.887C83.5678 14.939 83.2148 15.204 83.2148 15.704C83.2148 16.204 83.6568 16.51 84.2648 16.51C84.4429 16.528 84.6228 16.51 84.7938 16.457C84.9648 16.4041 85.1234 16.3172 85.2602 16.2017C85.397 16.0862 85.5091 15.9444 85.59 15.7847C85.6708 15.625 85.7187 15.4506 85.7308 15.272Z" fill="white"/>
<path d="M88.3135 14.5234C88.3135 12.7344 89.2335 11.6014 90.6635 11.6014C91.0172 11.5851 91.3683 11.6698 91.6757 11.8457C91.9831 12.0215 92.2342 12.2812 92.3995 12.5944H92.4835V9.48438H93.6005V17.3564H92.5305V16.4614H92.4425C92.2643 16.7721 92.0045 17.0282 91.6913 17.2019C91.3781 17.3757 91.0234 17.4606 90.6655 17.4474C89.2235 17.4474 88.3135 16.3164 88.3135 14.5234ZM89.4675 14.5234C89.4675 15.7234 90.0335 16.4474 90.9805 16.4474C91.9275 16.4474 92.5045 15.7144 92.5045 14.5284C92.5045 13.3424 91.9165 12.6044 90.9805 12.6044C90.0445 12.6044 89.4675 13.3324 89.4675 14.5234Z" fill="white"/>
<path d="M98.2239 14.5233C98.1886 14.1514 98.2314 13.7762 98.3495 13.4218C98.4677 13.0674 98.6585 12.7416 98.9099 12.4653C99.1613 12.1889 99.4676 11.9681 99.8092 11.817C100.151 11.6659 100.52 11.5879 100.894 11.5879C101.268 11.5879 101.637 11.6659 101.979 11.817C102.32 11.9681 102.627 12.1889 102.878 12.4653C103.129 12.7416 103.32 13.0674 103.438 13.4218C103.556 13.7762 103.599 14.1514 103.564 14.5233C103.601 14.8961 103.559 15.2724 103.442 15.6281C103.324 15.9838 103.134 16.311 102.882 16.5886C102.631 16.8662 102.324 17.088 101.981 17.2399C101.639 17.3917 101.269 17.4701 100.894 17.4701C100.519 17.4701 100.149 17.3917 99.8065 17.2399C99.4641 17.088 99.1572 16.8662 98.9057 16.5886C98.6542 16.311 98.4636 15.9838 98.3462 15.6281C98.2287 15.2724 98.1871 14.8961 98.2239 14.5233ZM102.415 14.5233C102.415 13.2963 101.864 12.5783 100.896 12.5783C99.9279 12.5783 99.3779 13.2963 99.3779 14.5233C99.3779 15.7503 99.9239 16.4773 100.891 16.4773C101.858 16.4773 102.415 15.7553 102.415 14.5233Z" fill="white"/>
<path d="M105.063 11.6944H106.139V12.5944H106.222C106.365 12.2717 106.604 12.0012 106.907 11.8204C107.209 11.6397 107.561 11.5575 107.912 11.5854C108.188 11.5647 108.465 11.6063 108.722 11.707C108.979 11.8078 109.21 11.9651 109.399 12.1673C109.587 12.3696 109.727 12.6116 109.809 12.8754C109.891 13.1392 109.913 13.4181 109.872 13.6914V17.3564H108.755V13.9764C108.755 13.0664 108.355 12.6144 107.533 12.6144C107.346 12.6059 107.16 12.6379 106.986 12.7081C106.813 12.7784 106.656 12.8853 106.528 13.0216C106.4 13.1578 106.302 13.3202 106.242 13.4976C106.183 13.675 106.162 13.8632 106.181 14.0494V17.3564H105.063V11.6944Z" fill="white"/>
<path d="M116.186 10.2852V11.7202H117.413V12.6612H116.186V15.5722C116.186 16.1652 116.43 16.4252 116.986 16.4252C117.128 16.4246 117.271 16.4159 117.412 16.3992V17.3302C117.211 17.366 117.008 17.3851 116.804 17.3872C115.561 17.3872 115.066 16.9502 115.066 15.8582V12.6582H114.166V11.7172H115.066V10.2852H116.186Z" fill="white"/>
<path d="M118.935 9.48438H120.043V12.6044H120.135C120.283 12.2784 120.529 12.0061 120.837 11.8247C121.146 11.6432 121.504 11.5614 121.861 11.5904C122.135 11.5754 122.409 11.6211 122.663 11.7243C122.917 11.8274 123.146 11.9855 123.332 12.1871C123.518 12.3888 123.658 12.629 123.741 12.8908C123.823 13.1525 123.847 13.4293 123.811 13.7014V17.3574H122.693V13.9774C122.693 13.0774 122.272 12.6154 121.482 12.6154C121.29 12.5998 121.097 12.6263 120.917 12.6929C120.736 12.7594 120.573 12.8645 120.437 13.0008C120.301 13.1372 120.197 13.3014 120.131 13.4821C120.066 13.6629 120.04 13.8558 120.057 14.0474V17.3544H118.935V9.48438Z" fill="white"/>
<path d="M130.323 15.828C130.171 16.3453 129.842 16.7926 129.394 17.092C128.946 17.3914 128.407 17.5238 127.87 17.466C127.498 17.4758 127.127 17.4042 126.784 17.2564C126.442 17.1087 126.136 16.8881 125.887 16.6101C125.638 16.3321 125.453 16.0034 125.344 15.6466C125.235 15.2898 125.205 14.9136 125.255 14.544C125.206 14.1732 125.236 13.796 125.345 13.438C125.454 13.08 125.638 12.7496 125.886 12.4691C126.133 12.1886 126.438 11.9645 126.78 11.8122C127.122 11.6598 127.492 11.5827 127.866 11.586C129.441 11.586 130.392 12.662 130.392 14.44V14.83H126.392V14.893C126.376 15.1007 126.402 15.3096 126.47 15.5065C126.539 15.7034 126.647 15.8838 126.789 16.0364C126.931 16.189 127.103 16.3104 127.294 16.3928C127.486 16.4752 127.692 16.5168 127.9 16.515C128.168 16.5472 128.438 16.4991 128.678 16.377C128.918 16.2548 129.116 16.0641 129.247 15.829L130.323 15.828ZM126.392 14.003H129.252C129.267 13.813 129.241 13.622 129.177 13.4425C129.113 13.263 129.012 13.0989 128.88 12.9607C128.749 12.8225 128.59 12.7134 128.414 12.6402C128.238 12.5671 128.049 12.5316 127.858 12.536C127.665 12.5336 127.473 12.5699 127.294 12.6428C127.115 12.7157 126.953 12.8237 126.816 12.9604C126.679 13.0971 126.572 13.2598 126.499 13.4389C126.426 13.6179 126.39 13.8098 126.392 14.003Z" fill="white"/>
</g>
<defs>
<clipPath id="clip0_1_27120">
<rect width="147.968" height="48" fill="white"/>
</clipPath>
</defs>
</svg>
