<?xml version="1.0" encoding="UTF-8"?>
<!DOCTYPE svg PUBLIC "-//W3C//DTD SVG 1.1//EN" "http://www.w3.org/Graphics/SVG/1.1/DTD/svg11.dtd">
<!-- Creator: CorelDRAW 2017 -->
<svg xmlns="http://www.w3.org/2000/svg" xml:space="preserve" width="15px" height="10px" version="1.1" style="shape-rendering:geometricPrecision; text-rendering:geometricPrecision; image-rendering:optimizeQuality; fill-rule:evenodd; clip-rule:evenodd"
viewBox="0 0 15 10"
 xmlns:xlink="http://www.w3.org/1999/xlink">
 <defs>
  <style type="text/css">
   <![CDATA[
    .fil0 {fill:#595AD4;fill-rule:nonzero}
   ]]>
  </style>
 </defs>
 <g id="Layer_x0020_1">
  <metadata id="CorelCorpID_0Corel-Layer"/>
  <path class="fil0" d="M7.52 7.12c0.5,-0.59 1,-1.16 1.49,-1.73 1.35,-1.58 2.7,-3.15 4.05,-4.73 0.26,-0.3 0.57,-0.48 0.98,-0.44 0.41,0.05 0.71,0.27 0.87,0.66 0.17,0.4 0.1,0.77 -0.17,1.1 -0.46,0.54 -0.92,1.07 -1.38,1.61 -1.65,1.93 -3.3,3.85 -4.94,5.77 -0.31,0.36 -0.68,0.57 -1.15,0.43 -0.21,-0.06 -0.44,-0.2 -0.59,-0.37 -2.15,-2.49 -4.28,-4.99 -6.41,-7.48 -0.4,-0.47 -0.35,-1.14 0.11,-1.52 0.47,-0.39 1.11,-0.32 1.53,0.17 1.81,2.11 3.62,4.22 5.43,6.33 0.06,0.07 0.11,0.13 0.18,0.2z"/>
 </g>
</svg>
