<svg width="14" height="14" viewBox="0 0 14 14" fill="none" xmlns="http://www.w3.org/2000/svg">
<path d="M13.1605 8.4627C13.1294 8.49387 13.0924 8.51859 13.0516 8.53546C13.0109 8.55233 12.9673 8.56101 12.9232 8.56101C12.8791 8.56101 12.8354 8.55233 12.7947 8.53546C12.754 8.51859 12.717 8.49387 12.6858 8.4627L10.573 6.35055V12.9242C10.573 13.0133 10.5376 13.0986 10.4746 13.1616C10.4117 13.2245 10.3263 13.2599 10.2372 13.2599C10.1482 13.2599 10.0628 13.2245 9.99982 13.1616C9.93686 13.0986 9.90149 13.0133 9.90149 12.9242V6.35055L7.78868 8.46268C7.72536 8.52382 7.64055 8.55765 7.55252 8.55688C7.46449 8.55612 7.38028 8.52082 7.31804 8.45859C7.25579 8.39636 7.22048 8.31218 7.21971 8.22418C7.21895 8.13618 7.25279 8.05139 7.31395 7.98809L9.99987 5.30304C10.031 5.27187 10.068 5.24714 10.1088 5.23028C10.1495 5.21341 10.1932 5.20472 10.2372 5.20472C10.2813 5.20472 10.325 5.21341 10.3657 5.23028C10.4064 5.24714 10.4434 5.27187 10.4746 5.30304L13.1605 7.98809C13.1917 8.01925 13.2165 8.05625 13.2333 8.09696C13.2502 8.13768 13.2589 8.18132 13.2589 8.2254C13.2589 8.26947 13.2502 8.31311 13.2333 8.35383C13.2165 8.39455 13.1917 8.43154 13.1605 8.4627ZM0.599129 5.77764L3.28506 8.4627C3.31622 8.49387 3.35323 8.51859 3.39396 8.53546C3.43469 8.55233 3.47834 8.56101 3.52242 8.56101C3.56651 8.56101 3.61016 8.55233 3.65089 8.53546C3.69162 8.51859 3.72863 8.49387 3.75979 8.4627L6.44572 5.77764C6.50688 5.71434 6.54072 5.62956 6.53995 5.54156C6.53919 5.45356 6.50388 5.36938 6.44163 5.30715C6.37938 5.24492 6.29517 5.20962 6.20714 5.20886C6.11911 5.20809 6.0343 5.24192 5.97098 5.30306L3.85815 7.41518V0.841491C3.85815 0.752476 3.82278 0.667107 3.75982 0.604164C3.69685 0.541221 3.61145 0.505859 3.52241 0.505859C3.43337 0.505859 3.34797 0.541221 3.28501 0.604164C3.22204 0.667107 3.18667 0.752476 3.18667 0.841491V7.41518L1.07387 5.30303C1.01055 5.24189 0.925736 5.20806 0.837706 5.20883C0.749676 5.20959 0.665468 5.24489 0.603219 5.30712C0.54097 5.36935 0.50566 5.45353 0.504896 5.54153C0.504131 5.62953 0.537971 5.71431 0.599129 5.77762V5.77764Z" fill="#0B26AD" stroke="#0B26AD" stroke-width="0.5"/>
</svg>
