<svg width="48" height="49" viewBox="0 0 48 49" fill="none" xmlns="http://www.w3.org/2000/svg">
<path d="M20.7 44.4L19.4 43.4C18 42.4 18 40.4 18 39.4V36.5C18 35.7 17.3 35 16.5 35H10.5C9.7 35 9 35.7 9 36.5V44.2C9 46.9 10.6 49 13.1 49H18C20.9 49 21.1 47 21.1 47C21.1 47 21.6 45.2 20.7 44.4Z" fill="#AAAAAA"/>
<path d="M43 16.9999V3.39991C43 3.39991 43 3.39991 43 3.29991C43 0.899913 40 0.199912 38.4 1.79991L29.5 10.1999C28.1 11.3999 26.3 11.8999 24.5 11.8999H9.3C4.1 11.9999 0 16.4999 0 21.6999V21.8999C0 27.0999 4.1 30.9999 9.3 30.9999H24.5C26.4 30.9999 28.2 31.7999 29.6 32.9999L38.4 41.5999C40 43.1999 43 42.5999 43 40.1999C43 40.1999 43 40.1999 43 40.0999V26.5999C46 26.5999 47.8 24.4999 47.8 21.7999C47.8 19.0999 46 16.9999 43 16.9999Z" fill="#AAAAAA"/>
</svg>
