<svg width="43" height="55" viewBox="0 0 43 55" fill="none" xmlns="http://www.w3.org/2000/svg">
<path d="M33.9672 38.9108C33.5225 38.9108 33.1622 39.2712 33.1622 39.7158V49.4404C33.1622 51.6182 31.3903 53.39 29.2125 53.39H5.96766C3.78974 53.39 2.01797 51.6182 2.01797 49.4404V5.5597C2.01797 3.38178 3.78985 1.61001 5.96766 1.61001H29.2124C31.3902 1.61001 33.1621 3.38178 33.1621 5.5597V10.8013C33.1621 11.2458 33.5224 11.6063 33.9671 11.6063C34.4118 11.6063 34.7721 11.2458 34.7721 10.8013V5.5597C34.7722 2.49402 32.2781 0 29.2125 0H5.96766C2.90208 0 0.407959 2.49402 0.407959 5.5597V49.4404C0.407959 52.506 2.90198 55 5.96766 55H29.2124C32.2781 55 34.7721 52.506 34.7721 49.4404V39.7158C34.7722 39.2712 34.4118 38.9108 33.9672 38.9108Z" fill="#D3DBFF"/>
<path d="M30.7471 11.5789C31.1918 11.5789 31.5521 11.2185 31.5521 10.7739V5.55964C31.5521 4.26948 30.5026 3.21997 29.2125 3.21997H26.5668C26.0891 3.21997 25.6592 3.5219 25.4968 3.97163L25.3667 4.33238C25.1805 4.84909 24.6862 5.19632 24.137 5.19632H16.8001C16.3555 5.19632 15.9951 5.55674 15.9951 6.00132C15.9951 6.4459 16.3555 6.80633 16.8001 6.80633H24.137C25.3627 6.80633 26.4656 6.03159 26.8813 4.87839L26.8988 4.82998H29.2125C29.6147 4.82998 29.9421 5.15725 29.9421 5.55964V10.774C29.9421 11.2186 30.3024 11.5789 30.7471 11.5789Z" fill="#D3DBFF"/>
<path d="M32.2492 13.1001C30.0727 13.1001 27.9898 13.769 26.226 15.0345C25.8649 15.2937 25.782 15.7967 26.0412 16.1578C26.3005 16.5192 26.8036 16.6018 27.1646 16.3427C28.6531 15.2747 30.4113 14.7102 32.2492 14.7102C37.0644 14.7102 40.982 18.6278 40.982 23.443C40.982 26.7361 36.4836 32.1209 32.2736 36.0622C32.2594 36.0755 32.2388 36.0754 32.2249 36.0622C28.0149 32.121 23.5164 26.7364 23.5164 23.443C23.5164 21.7111 24.0226 20.0373 24.9801 18.6024C25.227 18.2326 25.1272 17.7327 24.7574 17.486C24.3877 17.2391 23.8877 17.3389 23.641 17.7087C22.5063 19.409 21.9065 21.3919 21.9065 23.443C21.9065 25.543 23.2129 28.2549 25.7894 31.5033C27.7714 34.0024 29.9827 36.1686 31.1246 37.2374C31.4399 37.5327 31.8446 37.6804 32.2493 37.6804C32.654 37.6804 33.0587 37.5327 33.3741 37.2375C34.5159 36.1685 36.7274 34.002 38.7092 31.5033C41.2858 28.2548 42.5922 25.5429 42.5922 23.443C42.592 17.7399 37.9523 13.1001 32.2492 13.1001Z" fill="#D3DBFF"/>
<path d="M38.0311 23.4431C38.0311 20.255 35.4373 17.6611 32.2492 17.6611C29.061 17.6611 26.4673 20.255 26.4673 23.4431C26.4673 26.6313 29.061 29.225 32.2492 29.225C35.4373 29.225 38.0311 26.6313 38.0311 23.4431ZM28.0773 23.4431C28.0773 21.1427 29.9489 19.2711 32.2492 19.2711C34.5497 19.2711 36.4211 21.1427 36.4211 23.4431C36.4211 25.7435 34.5495 27.615 32.2492 27.615C29.9488 27.615 28.0773 25.7435 28.0773 23.4431Z" fill="#D3DBFF"/>
<path d="M23.141 30.6552C22.8314 30.3361 22.3219 30.3283 22.0027 30.638L16.3017 36.1695C16.122 36.3438 16.0212 36.5874 16.0254 36.8377C16.0296 37.0881 16.1382 37.3281 16.3233 37.4962L29.8528 49.7897C29.7287 50.0161 29.4883 50.17 29.2125 50.17H26.2811L14.3091 39.2917C13.9544 38.9691 13.407 38.978 13.0633 39.3119L5.23819 46.9043V43.1654L11.2683 37.3146C11.5874 37.005 11.5951 36.4953 11.2855 36.1763C10.9758 35.8572 10.4663 35.8495 10.1472 36.1591L5.23819 40.9221V5.55966C5.23819 5.15726 5.56545 4.83 5.96785 4.83H8.38888L8.40637 4.87851C8.82208 6.03171 9.92494 6.80645 11.1507 6.80645H13.3696C13.8142 6.80645 14.1746 6.44602 14.1746 6.00145C14.1746 5.55687 13.8142 5.19644 13.3696 5.19644H11.1507C10.6014 5.19644 10.1072 4.84932 9.92086 4.33251L9.79088 3.97186C9.62891 3.52224 9.19882 3.22009 8.72086 3.22009H5.96785C4.67769 3.22009 3.62817 4.26961 3.62817 5.55976V49.4405C3.62817 50.7306 4.67769 51.7801 5.96785 51.7801H29.2126C30.5027 51.7801 31.5522 50.7306 31.5522 49.4405V39.81C31.5522 39.3654 31.1919 39.005 30.7472 39.005C30.3026 39.005 29.9422 39.3654 29.9422 39.81V47.6956L17.9577 36.8059L23.1238 31.7935C23.4429 31.484 23.4507 30.9743 23.141 30.6552ZM5.23797 49.4404V49.1476L13.7124 40.9251L23.8869 50.17H5.96763C5.56534 50.1699 5.23797 49.8427 5.23797 49.4404Z" fill="#D3DBFF"/>
<path d="M19.8134 26.7801L12.6094 33.7698C12.2903 34.0794 12.2827 34.5891 12.5922 34.9081C12.7501 35.0708 12.96 35.1525 13.17 35.1525C13.3719 35.1525 13.5741 35.0769 13.7305 34.9253L20.9345 27.9356C21.2536 27.626 21.2613 27.1163 20.9516 26.7973C20.6422 26.4783 20.1326 26.4704 19.8134 26.7801Z" fill="#D3DBFF"/>
<path d="M12.4035 24.8098C12.848 24.8098 13.2085 24.4494 13.2085 24.0048V20.1285C14.7438 19.764 15.8897 18.3823 15.8897 16.7371C15.8897 14.8147 14.3258 13.2509 12.4035 13.2509C10.4811 13.2509 8.91724 14.8147 8.91724 16.7371C8.91724 18.3823 10.0631 19.764 11.5984 20.1285V24.0048C11.5984 24.4494 11.9589 24.8098 12.4035 24.8098ZM10.5272 16.7371C10.5272 15.7025 11.369 14.8609 12.4035 14.8609C13.4379 14.8609 14.2797 15.7025 14.2797 16.7371C14.2797 17.7717 13.438 18.6133 12.4035 18.6133C11.3689 18.6133 10.5272 17.7717 10.5272 16.7371Z" fill="#D3DBFF"/>
</svg>
