<svg width="20" height="20" viewBox="0 0 20 20" fill="none" xmlns="http://www.w3.org/2000/svg">
<path d="M17.4993 8.33333H5.83268V5.83333C5.83268 4.91417 6.58018 4.16667 7.49935 4.16667C8.41852 4.16667 9.16602 4.91417 9.16602 5.83333H10.8327C10.8327 3.995 9.33768 2.5 7.49935 2.5C5.66102 2.5 4.16602 3.995 4.16602 5.83333V8.33333H2.49935C2.27834 8.33333 2.06637 8.42113 1.91009 8.57741C1.75381 8.73369 1.66602 8.94565 1.66602 9.16667V10.8333C1.66602 13.005 3.06102 14.8525 4.99935 15.5417V18.3333H6.66602V15.8333H13.3327V18.3333H14.9993V15.5417C16.9377 14.8525 18.3327 13.005 18.3327 10.8333V9.16667C18.3327 8.94565 18.2449 8.73369 18.0886 8.57741C17.9323 8.42113 17.7204 8.33333 17.4993 8.33333ZM16.666 10.8333C16.666 12.6717 15.171 14.1667 13.3327 14.1667H6.66602C4.82768 14.1667 3.33268 12.6717 3.33268 10.8333V10H16.666V10.8333Z" fill="#0B26AD"/>
</svg>
