<svg width="20" height="20" viewBox="0 0 20 20" fill="none" xmlns="http://www.w3.org/2000/svg">
<path d="M17.4993 8.98464V6.66797C17.4993 5.29297 16.3743 4.16797 14.9993 4.16797H11.666C11.0243 4.16797 10.441 4.41797 9.99935 4.81797C9.55768 4.41797 8.97435 4.16797 8.33268 4.16797H4.99935C3.62435 4.16797 2.49935 5.29297 2.49935 6.66797V8.98464C1.99102 9.44297 1.66602 10.1013 1.66602 10.8346V15.8346H3.33268V14.168H16.666V15.8346H18.3327V10.8346C18.3327 10.1013 18.0077 9.44297 17.4993 8.98464ZM11.666 5.83464H14.9993C15.4577 5.83464 15.8327 6.20964 15.8327 6.66797V8.33464H10.8327V6.66797C10.8327 6.20964 11.2077 5.83464 11.666 5.83464ZM4.16602 6.66797C4.16602 6.20964 4.54102 5.83464 4.99935 5.83464H8.33268C8.79102 5.83464 9.16602 6.20964 9.16602 6.66797V8.33464H4.16602V6.66797ZM3.33268 12.5013V10.8346C3.33268 10.3763 3.70768 10.0013 4.16602 10.0013H15.8327C16.291 10.0013 16.666 10.3763 16.666 10.8346V12.5013H3.33268Z" fill="#595ad4"/>
</svg>
