<svg width="20" height="20" viewBox="0 0 20 20" fill="none" xmlns="http://www.w3.org/2000/svg">
<g clip-path="url(#clip0_2562_3283)">
<path d="M14.167 0H5.83366C4.729 0.00132321 3.66996 0.440735 2.88884 1.22185C2.10773 2.00296 1.66832 3.062 1.66699 4.16667V16.6667C1.66699 17.5507 2.01818 18.3986 2.6433 19.0237C3.26842 19.6488 4.11627 20 5.00033 20H14.167C15.2717 19.9987 16.3307 19.5593 17.1118 18.7781C17.8929 17.997 18.3323 16.938 18.3337 15.8333V4.16667C18.3323 3.062 17.8929 2.00296 17.1118 1.22185C16.3307 0.440735 15.2717 0.00132321 14.167 0V0ZM16.667 4.16667V13.3333H6.66699V1.66667H14.167C14.83 1.66667 15.4659 1.93006 15.9348 2.3989C16.4036 2.86774 16.667 3.50362 16.667 4.16667ZM5.00033 1.81V13.3333C4.41502 13.3328 3.84 13.4872 3.33366 13.7808V4.16667C3.33373 3.64974 3.49404 3.14555 3.79252 2.7235C4.091 2.30145 4.51296 1.98231 5.00033 1.81ZM14.167 18.3333H5.00033C4.5583 18.3333 4.13438 18.1577 3.82181 17.8452C3.50925 17.5326 3.33366 17.1087 3.33366 16.6667C3.33366 16.2246 3.50925 15.8007 3.82181 15.4881C4.13438 15.1756 4.5583 15 5.00033 15H16.667V15.8333C16.667 16.4964 16.4036 17.1323 15.9348 17.6011C15.4659 18.0699 14.83 18.3333 14.167 18.3333Z" fill="#FBAB11"/>
</g>
<defs>
<clipPath id="clip0_2562_3283">
<rect width="20" height="20" fill="white"/>
</clipPath>
</defs>
</svg>
