<svg width="15" height="14" viewBox="0 0 15 14" fill="none" xmlns="http://www.w3.org/2000/svg">
<g clip-path="url(#clip0_1_55000)">
<path d="M8.08325 0.584265C8.08325 0.429556 8.14471 0.281182 8.2541 0.171786C8.3635 0.0623898 8.51187 0.000931565 8.66658 0.000931565C10.2132 0.00263 11.6959 0.617757 12.7895 1.71135C13.8831 2.80495 14.4982 4.28769 14.4999 5.83427C14.4999 5.98898 14.4385 6.13735 14.3291 6.24675C14.2197 6.35614 14.0713 6.4176 13.9166 6.4176C13.7619 6.4176 13.6135 6.35614 13.5041 6.24675C13.3947 6.13735 13.3333 5.98898 13.3333 5.83427C13.3319 4.59702 12.8398 3.41084 11.9649 2.53597C11.09 1.6611 9.90383 1.16899 8.66658 1.1676C8.51187 1.1676 8.3635 1.10614 8.2541 0.996744C8.14471 0.887348 8.08325 0.738975 8.08325 0.584265ZM8.66658 3.50093C9.28542 3.50093 9.87891 3.74677 10.3165 4.18435C10.7541 4.62194 10.9999 5.21543 10.9999 5.83427C10.9999 5.98898 11.0614 6.13735 11.1708 6.24675C11.2802 6.35614 11.4285 6.4176 11.5833 6.4176C11.738 6.4176 11.8863 6.35614 11.9957 6.24675C12.1051 6.13735 12.1666 5.98898 12.1666 5.83427C12.1657 4.90629 11.7966 4.01659 11.1404 3.36042C10.4843 2.70424 9.59456 2.33519 8.66658 2.33427C8.51187 2.33427 8.3635 2.39572 8.2541 2.50512C8.14471 2.61452 8.08325 2.76289 8.08325 2.9176C8.08325 3.07231 8.14471 3.22068 8.2541 3.33008C8.3635 3.43948 8.51187 3.50093 8.66658 3.50093ZM13.9708 9.76535C14.3089 10.1043 14.4987 10.5635 14.4987 11.0423C14.4987 11.521 14.3089 11.9802 13.9708 12.3192L13.44 12.9311C8.6625 17.505 -2.96334 5.8821 1.53999 1.08943L2.21083 0.506099C2.55019 0.177493 3.00529 -0.00428981 3.47766 7.6889e-05C3.95002 0.00444359 4.40168 0.194609 4.73491 0.529432C4.753 0.547515 5.83391 1.9516 5.83391 1.9516C6.15465 2.28855 6.33319 2.73614 6.33243 3.20134C6.33167 3.66653 6.15166 4.11353 5.82983 4.44943L5.15433 5.29877C5.52816 6.20708 6.07778 7.03258 6.77163 7.72782C7.46547 8.42307 8.28986 8.97436 9.19742 9.35002L10.052 8.67044C10.3879 8.34885 10.8349 8.16906 11.2999 8.16841C11.765 8.16776 12.2124 8.3463 12.5493 8.66694C12.5493 8.66694 13.9528 9.74727 13.9708 9.76535ZM13.1682 10.6135C13.1682 10.6135 11.7723 9.5396 11.7542 9.52152C11.634 9.40236 11.4716 9.33551 11.3024 9.33551C11.1331 9.33551 10.9708 9.40236 10.8506 9.52152C10.8348 9.53785 9.65825 10.4753 9.65825 10.4753C9.57896 10.5384 9.4846 10.5798 9.38446 10.5953C9.28432 10.6108 9.18186 10.6 9.08717 10.5639C7.91143 10.1262 6.84351 9.44087 5.95573 8.5544C5.06796 7.66793 4.38106 6.60102 3.94158 5.42594C3.90261 5.32995 3.88991 5.22532 3.90477 5.1228C3.91964 5.02028 3.96154 4.92356 4.02616 4.8426C4.02616 4.8426 4.96358 3.66543 4.97933 3.65027C5.09849 3.53009 5.16534 3.36771 5.16534 3.19848C5.16534 3.02924 5.09849 2.86686 4.97933 2.74668C4.96125 2.72918 3.88733 1.3321 3.88733 1.3321C3.76535 1.22273 3.60616 1.16415 3.44239 1.16838C3.27862 1.17261 3.12266 1.23933 3.0065 1.35485L2.33566 1.93818C-0.955508 5.89552 9.11925 15.4114 12.5872 12.1343L13.1186 11.5218C13.2431 11.4064 13.3179 11.2472 13.3272 11.0777C13.3364 10.9082 13.2794 10.7417 13.1682 10.6135Z" fill="#4A565F"/>
</g>
<defs>
<clipPath id="clip0_1_55000">
<rect width="14" height="14" fill="white" transform="translate(0.5)"/>
</clipPath>
</defs>
</svg>
