<svg width="20" height="20" viewBox="0 0 20 20" fill="none" xmlns="http://www.w3.org/2000/svg">
<g clip-path="url(#clip0_2558_16730)">
<path d="M20.0004 19.1679C20.0004 19.3889 19.9126 19.6009 19.7563 19.7572C19.6 19.9135 19.388 20.0013 19.167 20.0013H0.8337C0.612686 20.0013 0.400724 19.9135 0.244444 19.7572C0.0881638 19.6009 0.000366386 19.3889 0.000366386 19.1679C0.000366386 18.9469 0.0881638 18.735 0.244444 18.5787C0.400724 18.4224 0.612686 18.3346 0.8337 18.3346H19.167C19.388 18.3346 19.6 18.4224 19.7563 18.5787C19.9126 18.735 20.0004 18.9469 20.0004 19.1679ZM0.242866 7.12793C0.0633016 6.79487 -0.0198881 6.41835 0.00263341 6.04064C0.0251549 5.66293 0.152496 5.29897 0.370366 4.9896C0.726415 4.4672 1.20324 4.0384 1.76037 3.7396L8.0112 0.486267C8.62559 0.166793 9.30788 0 10.0004 0C10.6929 0 11.3751 0.166793 11.9895 0.486267L18.2395 3.7421C18.7967 4.0409 19.2735 4.4697 19.6295 4.9921C19.8474 5.30147 19.9747 5.66543 19.9973 6.04314C20.0198 6.42086 19.9366 6.79737 19.757 7.13043C19.5637 7.49612 19.2738 7.80177 18.9188 8.01409C18.5638 8.22641 18.1573 8.33727 17.7437 8.3346H17.5004V15.0013H18.3337C18.5547 15.0013 18.7667 15.0891 18.923 15.2453C19.0792 15.4016 19.167 15.6136 19.167 15.8346C19.167 16.0556 19.0792 16.2676 18.923 16.4239C18.7667 16.5801 18.5547 16.6679 18.3337 16.6679H1.66703C1.44602 16.6679 1.23406 16.5801 1.07778 16.4239C0.921497 16.2676 0.8337 16.0556 0.8337 15.8346C0.8337 15.6136 0.921497 15.4016 1.07778 15.2453C1.23406 15.0891 1.44602 15.0013 1.66703 15.0013H2.50037V8.3346H2.25703C1.843 8.33719 1.4362 8.22602 1.08102 8.01324C0.725843 7.80045 0.435915 7.49422 0.242866 7.12793V7.12793ZM4.16703 15.0013H6.66703V8.3346H4.16703V15.0013ZM8.3337 8.3346V15.0013H11.667V8.3346H8.3337ZM15.8337 8.3346H13.3337V15.0013H15.8337V8.3346ZM1.71953 6.35543C1.77182 6.45183 1.84963 6.53198 1.94443 6.5871C2.03924 6.64222 2.14739 6.67019 2.25703 6.66793H17.7437C17.8533 6.67019 17.9615 6.64222 18.0563 6.5871C18.1511 6.53198 18.2289 6.45183 18.2812 6.35543C18.3193 6.29174 18.3377 6.21821 18.3341 6.14408C18.3306 6.06995 18.3052 5.99852 18.2612 5.93877C18.0593 5.63869 17.788 5.39172 17.4704 5.21877L11.2204 1.96293C10.8437 1.76745 10.4256 1.66541 10.0012 1.66541C9.57684 1.66541 9.15869 1.76745 8.78203 1.96293L2.53203 5.21877C2.21452 5.39227 1.94331 5.63948 1.7412 5.9396C1.69711 5.99911 1.67154 6.07029 1.66768 6.14425C1.66383 6.21821 1.68186 6.29167 1.71953 6.35543V6.35543Z" fill="#DBAC15"/>
</g>
<defs>
<clipPath id="clip0_2558_16730">
<rect width="20" height="20" fill="white"/>
</clipPath>
</defs>
</svg>
