<?xml version="1.0" encoding="UTF-8"?>
<!DOCTYPE svg PUBLIC "-//W3C//DTD SVG 1.1//EN" "http://www.w3.org/Graphics/SVG/1.1/DTD/svg11.dtd">
<!-- Creator: CorelDRAW 2017 -->
<svg xmlns="http://www.w3.org/2000/svg" xml:space="preserve" width="59px" height="47px" version="1.1" style="shape-rendering:geometricPrecision; text-rendering:geometricPrecision; image-rendering:optimizeQuality; fill-rule:evenodd; clip-rule:evenodd"
viewBox="0 0 59 47.2"
 xmlns:xlink="http://www.w3.org/1999/xlink">
 <defs>
  <style type="text/css">
   <![CDATA[
    .str1 {stroke:#595AD4;stroke-width:4.06;stroke-linecap:round}
    .str0 {stroke:#595AD4;stroke-width:4.06;stroke-linecap:square}
    .fil2 {fill:none}
    .fil4 {fill:#595AD4}
    .fil1 {fill:white}
    .fil3 {fill:white}
    .fil0 {fill:white}
   ]]>
  </style>
 </defs>
 <g id="Layer_x0020_1">
  <metadata id="CorelCorpID_0Corel-Layer"/>
  <g id="_1724439135088">
   <path class="fil0 str0" d="M24.11 14.77l0 0c-3.26,0 -5.89,-2.63 -5.89,-5.88 0,-3.25 2.64,-5.89 5.89,-5.89 3.24,0 5.88,2.64 5.88,5.89 0,3.25 -2.63,5.88 -5.88,5.88z"/>
   <path class="fil1 str0" d="M28.03 44.2l-7.85 0c-1.08,0 -1.96,-0.88 -1.96,-1.96l0 -7.85 0 0 -5.89 0c-1.08,0 -1.96,-0.88 -1.96,-1.96l0 -7.85 0 0c0,-2.17 1.76,-3.92 3.93,-3.92l11.77 0c2.16,0 3.92,1.75 3.92,3.92l0 7.85c0,1.08 -0.88,1.96 -1.96,1.96l1.96 0 0 0 0 7.85c0,1.08 -0.88,1.96 -1.96,1.96l0 0z"/>
   <line class="fil2 str1" x1="24.11" y1="20.66" x2="24.11" y2= "28.5" />
   <path class="fil3 str0" d="M46.67 14.77l0 0c-3.26,0 -5.89,-2.63 -5.89,-5.88 0,-3.25 2.63,-5.89 5.89,-5.89 3.25,0 5.88,2.64 5.88,5.89 0,3.25 -2.63,5.88 -5.88,5.88l0 0z"/>
   <path class="fil2 str1" d="M40.78 20.66l11.77 0c2.17,0 3.92,1.75 3.92,3.92l0 7.85c0,1.08 -0.87,1.96 -1.96,1.96l-1.96 0 -38.25 0 0 7.85c0,1.08 -0.88,1.96 -1.97,1.96l-7.84 0c-1.09,0 -1.96,-0.88 -1.96,-1.96l0 -7.85 0 0"/>
   <path class="fil4" d="M48.63 28.5c0,1.09 -0.88,1.97 -1.97,1.97 -1.08,0 -1.96,-0.88 -1.96,-1.97 0,-1.08 0.88,-1.96 1.96,-1.96 1.09,0 1.97,0.88 1.97,1.96z"/>
  </g>
 </g>
</svg>
