<svg width="17" height="16" viewBox="0 0 17 16" fill="none" xmlns="http://www.w3.org/2000/svg">
<g clip-path="url(#clip0_1_33939)">
<path d="M16.5 10.6671V14.0004C16.5 14.5308 16.2893 15.0395 15.9142 15.4146C15.5391 15.7897 15.0304 16.0004 14.5 16.0004H11.1667C10.2314 15.9994 9.31282 15.7525 8.5031 15.2845C7.69337 14.8165 7.02096 14.1437 6.55333 13.3337C7.05591 13.3301 7.55678 13.2747 8.048 13.1684C8.4221 13.6362 8.89666 14.0137 9.43652 14.2732C9.97638 14.5326 10.5677 14.6672 11.1667 14.6671H14.5C14.6768 14.6671 14.8464 14.5968 14.9714 14.4718C15.0964 14.3468 15.1667 14.1772 15.1667 14.0004V10.6671C15.1665 10.0679 15.0315 9.47644 14.7716 8.93656C14.5117 8.39669 14.1336 7.92224 13.6653 7.54841C13.7726 7.05728 13.8289 6.55641 13.8333 6.05374C14.6433 6.52137 15.316 7.19378 15.7841 8.00351C16.2521 8.81323 16.499 9.7318 16.5 10.6671ZM12.4847 6.43441C12.547 5.5755 12.4237 4.71324 12.1232 3.90621C11.8227 3.09918 11.352 2.36629 10.743 1.75736C10.1341 1.14842 9.40123 0.677702 8.5942 0.377185C7.78717 0.0766685 6.9249 -0.0466028 6.066 0.0157475C4.54394 0.189569 3.13795 0.913864 2.11278 2.05224C1.08762 3.19062 0.514018 4.66452 0.5 6.19641L0.5 9.5564C0.5 11.2444 1.50467 12.0004 2.5 12.0004H6.3C7.83253 11.9872 9.30733 11.414 10.4465 10.3888C11.5857 9.36354 12.3106 7.95708 12.4847 6.43441ZM9.8 2.70108C10.2733 3.17541 10.6392 3.74588 10.8729 4.37387C11.1066 5.00186 11.2027 5.67273 11.1547 6.34107C11.0124 7.53019 10.4403 8.62628 9.54621 9.42303C8.6521 10.2198 7.49759 10.6622 6.3 10.6671H2.5C1.88133 10.6671 1.83333 9.81707 1.83333 9.5564V6.19641C1.83889 4.99933 2.28176 3.84555 3.07861 2.9522C3.87545 2.05885 4.97133 1.48752 6.16 1.34575C6.27066 1.33775 6.38133 1.33375 6.492 1.33375C7.10618 1.33317 7.71445 1.45364 8.28205 1.68825C8.84966 1.92286 9.36546 2.26703 9.8 2.70108Z" fill="#4A565F"/>
</g>
<defs>
<clipPath id="clip0_1_33939">
<rect width="16" height="16" fill="white" transform="translate(0.5)"/>
</clipPath>
</defs>
</svg>
