<svg width="18" height="18" viewBox="0 0 18 18" fill="none" xmlns="http://www.w3.org/2000/svg">
<g clip-path="url(#clip0_2557_16143)">
<path d="M16.8747 2.98047H14.5602C14.4119 2.9805 14.2669 3.0245 14.1436 3.10692C14.0203 3.18933 13.9242 3.30645 13.8674 3.44348C13.8107 3.5805 13.7958 3.73128 13.8247 3.87674C13.8537 4.02221 13.9251 4.15583 14.0299 4.26072L14.8444 5.07522L12.1549 7.76397C12.012 7.90054 11.822 7.97676 11.6243 7.97676C11.4266 7.97676 11.2366 7.90054 11.0937 7.76397L10.9662 7.63572C10.5376 7.22627 9.96775 6.99779 9.37505 6.99779C8.78235 6.99779 8.21246 7.22627 7.78392 7.63572L3.95892 11.4607C3.81799 11.602 3.73898 11.7936 3.73926 11.9932C3.73954 12.1927 3.81909 12.384 3.96042 12.525C4.10175 12.6659 4.29327 12.7449 4.49286 12.7446C4.69244 12.7444 4.88374 12.6648 5.02467 12.5235L8.84967 8.69847C8.99248 8.56173 9.18257 8.48539 9.3803 8.48539C9.57802 8.48539 9.76811 8.56173 9.91092 8.69847L10.0384 8.82672C10.4671 9.23582 11.037 9.46408 11.6295 9.46408C12.2221 9.46408 12.792 9.23582 13.2207 8.82672L15.9102 6.13722L16.7247 6.95172C16.8299 7.05488 16.9632 7.12475 17.1079 7.1526C17.2526 7.18046 17.4024 7.16506 17.5384 7.10833C17.6744 7.05161 17.7907 6.95607 17.8727 6.83364C17.9548 6.71122 17.9989 6.56734 17.9997 6.41997V4.10547C17.9997 3.8071 17.8811 3.52095 17.6702 3.30997C17.4592 3.099 17.173 2.98047 16.8747 2.98047Z" fill="#0586FD"/>
<path d="M17.25 16.482H3.75C3.15326 16.482 2.58097 16.2449 2.15901 15.823C1.73705 15.401 1.5 14.8287 1.5 14.232V0.75C1.5 0.551088 1.42098 0.360322 1.28033 0.21967C1.13968 0.0790176 0.948912 0 0.75 0C0.551088 0 0.360322 0.0790176 0.21967 0.21967C0.0790176 0.360322 0 0.551088 0 0.75L0 14.232C0.00119089 15.2262 0.396661 16.1793 1.09966 16.8823C1.80267 17.5853 2.7558 17.9808 3.75 17.982H17.25C17.4489 17.982 17.6397 17.903 17.7803 17.7623C17.921 17.6217 18 17.4309 18 17.232C18 17.0331 17.921 16.8423 17.7803 16.7017C17.6397 16.561 17.4489 16.482 17.25 16.482Z" fill="#0586FD"/>
</g>
<defs>
<clipPath id="clip0_2557_16143">
<rect width="18" height="18" fill="white"/>
</clipPath>
</defs>
</svg>
