<?xml version="1.0" encoding="UTF-8"?>
<!DOCTYPE svg PUBLIC "-//W3C//DTD SVG 1.1//EN" "http://www.w3.org/Graphics/SVG/1.1/DTD/svg11.dtd">
<!-- Creator: CorelDRAW 2017 -->
<svg xmlns="http://www.w3.org/2000/svg" xml:space="preserve" width="18px" height="16px" version="1.1" style="shape-rendering:geometricPrecision; text-rendering:geometricPrecision; image-rendering:optimizeQuality; fill-rule:evenodd; clip-rule:evenodd"
viewBox="0 0 18 16"
 xmlns:xlink="http://www.w3.org/1999/xlink">
 <defs>
  <style type="text/css">
   <![CDATA[
    .fil0 {fill:#595AD4;fill-rule:nonzero}
   ]]>
  </style>
 </defs>
 <g id="Layer_x0020_1">
  <metadata id="CorelCorpID_0Corel-Layer"/>
  <g id="_2583588874048">
   <path class="fil0" d="M9 16.17c-2.2,0 -4.4,0 -6.6,0 -1.44,0 -2.39,-0.94 -2.39,-2.37 0,-0.92 0,-1.83 0,-2.74 0,-0.5 0.31,-0.84 0.75,-0.84 0.44,0 0.75,0.34 0.75,0.84 0,0.93 0,1.85 0,2.78 0,0.55 0.3,0.84 0.86,0.84 4.42,0.01 8.85,0.01 13.28,0 0.56,0 0.85,-0.29 0.85,-0.84 0,-0.93 0,-1.86 0,-2.79 0,-0.49 0.31,-0.83 0.75,-0.83 0.44,0.01 0.75,0.35 0.75,0.84 0,0.94 0,1.87 0,2.81 -0.01,1.34 -0.98,2.3 -2.32,2.3 -2.23,0 -4.45,0 -6.68,0z"/>
   <path class="fil0" d="M8.25 10.9l0 -0.33c0,-3.29 0,-6.58 0.01,-9.87 0,-0.12 0,-0.25 0.04,-0.36 0.1,-0.35 0.44,-0.56 0.79,-0.52 0.35,0.04 0.63,0.33 0.66,0.68 0.01,0.09 0,0.17 0,0.26 0,3.28 0,6.56 0,9.84l0 0.29c0.09,-0.06 0.14,-0.09 0.19,-0.13 0.78,-0.62 1.57,-1.24 2.35,-1.86 0.37,-0.29 0.82,-0.26 1.1,0.08 0.26,0.33 0.21,0.78 -0.15,1.07 -1.24,0.98 -2.48,1.96 -3.72,2.94 -0.35,0.28 -0.68,0.28 -1.04,0 -1.21,-0.96 -2.41,-1.92 -3.62,-2.87 -0.35,-0.28 -0.4,-0.73 -0.14,-1.06 0.26,-0.33 0.72,-0.38 1.08,-0.09 0.75,0.58 1.49,1.17 2.23,1.76 0.06,0.05 0.12,0.09 0.22,0.17z"/>
  </g>
 </g>
</svg>
