<svg width="20" height="20" viewBox="0 0 20 20" fill="none" xmlns="http://www.w3.org/2000/svg">
<path d="M9.375 2.5H11.875L16.25 6.875V10.625" stroke="#4A565F" stroke-linecap="round" stroke-linejoin="round"/>
<path d="M3.75 5V3.125C3.75 2.95924 3.81585 2.80027 3.93306 2.68306C4.05027 2.56585 4.20924 2.5 4.375 2.5H6.25" stroke="#4A565F" stroke-linecap="round" stroke-linejoin="round"/>
<path d="M11.875 2.5V6.875H16.25" stroke="#4A565F" stroke-linecap="round" stroke-linejoin="round"/>
<path d="M16.25 13.75V16.875C16.25 17.0408 16.1842 17.1997 16.0669 17.3169C15.9497 17.4342 15.7908 17.5 15.625 17.5H15" stroke="#4A565F" stroke-linecap="round" stroke-linejoin="round"/>
<path d="M3.75 8.125V11.25" stroke="#4A565F" stroke-linecap="round" stroke-linejoin="round"/>
<path d="M5.55713 17.5576H3.99463V15.9951L8.68213 11.3076L10.2446 12.8701L5.55713 17.5576Z" stroke="#4A565F" stroke-width="0.75" stroke-linecap="round" stroke-linejoin="round"/>
<path d="M7.74463 12.5576L8.99463 13.8076" stroke="#4A565F" stroke-width="0.75" stroke-linecap="round" stroke-linejoin="round"/>
<path d="M8.75 17.5H11.875" stroke="#4A565F" stroke-linecap="round" stroke-linejoin="round"/>
</svg>
