<svg width="14" height="14" viewBox="0 0 14 14" fill="none" xmlns="http://www.w3.org/2000/svg">
<path d="M11.0833 0.583984H2.91667C2.1434 0.584911 1.40207 0.892499 0.855295 1.43928C0.308514 1.98606 0.00092625 2.72739 0 3.50065L0 10.5007C0.00092625 11.2739 0.308514 12.0153 0.855295 12.562C1.40207 13.1088 2.1434 13.4164 2.91667 13.4173H11.0833C11.8566 13.4164 12.5979 13.1088 13.1447 12.562C13.6915 12.0153 13.9991 11.2739 14 10.5007V3.50065C13.9991 2.72739 13.6915 1.98606 13.1447 1.43928C12.5979 0.892499 11.8566 0.584911 11.0833 0.583984ZM2.91667 1.75065H11.0833C11.4326 1.75134 11.7737 1.85654 12.0627 2.0527C12.3517 2.24887 12.5754 2.52704 12.705 2.8514L8.23783 7.31916C7.90908 7.64659 7.46399 7.83043 7 7.83043C6.536 7.83043 6.09091 7.64659 5.76216 7.31916L1.295 2.8514C1.42459 2.52704 1.64827 2.24887 1.93728 2.0527C2.22628 1.85654 2.56737 1.75134 2.91667 1.75065ZM11.0833 12.2507H2.91667C2.45254 12.2507 2.00742 12.0663 1.67923 11.7381C1.35104 11.4099 1.16667 10.9648 1.16667 10.5007V4.37565L4.93733 8.14399C5.48486 8.69014 6.22665 8.99685 7 8.99685C7.77335 8.99685 8.51513 8.69014 9.06266 8.14399L12.8333 4.37565V10.5007C12.8333 10.9648 12.649 11.4099 12.3208 11.7381C11.9926 12.0663 11.5475 12.2507 11.0833 12.2507Z" fill="#4A565F"/>
</svg>
