<svg width="17" height="12" viewBox="0 0 17 12" fill="none" xmlns="http://www.w3.org/2000/svg">
<path d="M16.9662 5.81898C16.2997 4.19644 15.1426 2.79325 13.638 1.78286C12.1333 0.77247 10.3471 0.19916 8.5 0.133789C6.65291 0.19916 4.86665 0.77247 3.362 1.78286C1.85735 2.79325 0.70027 4.19644 0.0337599 5.81898C-0.0112533 5.93616 -0.0112533 6.06447 0.0337599 6.18164C0.70027 7.80419 1.85735 9.20737 3.362 10.2178C4.86665 11.2282 6.65291 11.8015 8.5 11.8668C10.3471 11.8015 12.1333 11.2282 13.638 10.2178C15.1426 9.20737 16.2997 7.80419 16.9662 6.18164C17.0113 6.06447 17.0113 5.93616 16.9662 5.81898ZM8.5 10.8002C5.49658 10.8002 2.32316 8.70425 1.17279 6.00031C2.32316 3.29638 5.49658 1.20043 8.5 1.20043C11.5034 1.20043 14.6768 3.29638 15.8272 6.00031C14.6768 8.70425 11.5034 10.8002 8.5 10.8002Z" fill="#0B26AD"/>
<path d="M8.50019 2.7998C7.82772 2.7998 7.17034 2.98748 6.6112 3.33909C6.05206 3.6907 5.61626 4.19046 5.35892 4.77517C5.10157 5.35988 5.03424 6.00328 5.16543 6.624C5.29662 7.24473 5.62045 7.8149 6.09596 8.26241C6.57148 8.70993 7.17731 9.01469 7.83687 9.13816C8.49642 9.26163 9.18007 9.19827 9.80135 8.95607C10.4226 8.71388 10.9537 8.30373 11.3273 7.77751C11.7009 7.25128 11.9003 6.63261 11.9003 5.99973C11.9003 5.15106 11.5421 4.33714 10.9044 3.73704C10.2668 3.13694 9.40195 2.7998 8.50019 2.7998ZM8.50019 8.13301C8.05188 8.13301 7.61363 8.00789 7.24087 7.77349C6.8681 7.53908 6.57757 7.2059 6.40601 6.8161C6.23444 6.42629 6.18956 5.99736 6.27702 5.58354C6.36448 5.16973 6.58037 4.78961 6.89737 4.49127C7.21438 4.19292 7.61827 3.98975 8.05798 3.90744C8.49768 3.82512 8.95344 3.86737 9.36763 4.02883C9.78182 4.19029 10.1358 4.46372 10.3849 4.81454C10.634 5.16536 10.7669 5.5778 10.7669 5.99973C10.7669 6.56551 10.5281 7.10812 10.103 7.50818C9.67792 7.90825 9.10137 8.13301 8.50019 8.13301Z" fill="#0B26AD"/>
</svg>
