<?xml version="1.0" encoding="UTF-8"?>
<!DOCTYPE svg PUBLIC "-//W3C//DTD SVG 1.1//EN" "http://www.w3.org/Graphics/SVG/1.1/DTD/svg11.dtd">
<!-- Creator: CorelDRAW 2017 -->
<svg xmlns="http://www.w3.org/2000/svg" xml:space="preserve" width="53px" height="47px" version="1.1" style="shape-rendering:geometricPrecision; text-rendering:geometricPrecision; image-rendering:optimizeQuality; fill-rule:evenodd; clip-rule:evenodd"
viewBox="0 0 53 47.11"
 xmlns:xlink="http://www.w3.org/1999/xlink">
 <defs>
  <style type="text/css">
   <![CDATA[
    .str0 {stroke:#595AD4;stroke-width:4.05;stroke-linecap:round;stroke-linejoin:round}
    .fil0 {fill:none}
    .fil1 {fill:white}
   ]]>
  </style>
 </defs>
 <g id="Layer_x0020_1">
  <metadata id="CorelCorpID_0Corel-Layer"/>
  <g id="_1724486788336">
   <path class="fil0 str0" d="M31.42 2.56l1.29 0c3.55,0 6.42,2.5 6.42,5.59l0 2.23 -1.28 0c-3.55,0 -6.43,-2.5 -6.43,-5.58l0 -2.24zm18.51 3.13l-1.54 0c-4.26,0 -7.71,2.5 -7.71,5.58l0 2.23 1.54 0c4.26,0 7.71,-2.5 7.71,-5.58l0 -2.23zm-1.05 12.9l-1.29 0.09c-3.54,0.25 -6.24,2.95 -6.03,6.03l0.16 2.22 1.28 -0.09c3.54,-0.25 6.24,-2.94 6.03,-6.02l-0.15 -2.23 0 0zm-14.61 11.07l9.97 0 0 7.22 -9.97 0 0 -7.22z"/>
   <line class="fil0 str0" x1="39.48" y1="10.97" x2="39.48" y2= "28.51" />
   <path class="fil0 str0" d="M8.4 44.55l0 -3.56m21.36 3.56l0 -3.56"/>
   <g>
    <path class="fil1" d="M31.54 30.31l0 -14.14c0,-2.02 -1.4,-3.65 -3.12,-3.65l-18.68 0c-1.72,0 -3.12,1.63 -3.12,3.65l0 14.14 24.92 0zm-19.58 -1.78l16.02 0 -16.02 0zm0 0l0 0 0 0z"/>
    <path id="1" class="fil0 str0" d="M31.54 30.31l0 -14.14c0,-2.02 -1.4,-3.65 -3.12,-3.65l-18.68 0c-1.72,0 -3.12,1.63 -3.12,3.65l0 14.14m5.34 -1.78l16.02 0m-16.02 0l0 0 0 0z"/>
   </g>
   <path class="fil1 str0" d="M31.28 23.21c-2.1,0 -3.81,1.73 -3.81,3.86l0 7.73 -16.78 0 0 -7.72c0.01,-1.82 -1.23,-3.4 -2.99,-3.8 -1.75,-0.39 -3.54,0.51 -4.29,2.17 -0.74,1.65 -0.25,3.61 1.18,4.7l0 7.75c0,1.7 1.37,3.09 3.05,3.09l22.88 0c1.68,0 3.05,-1.39 3.05,-3.1l0 -7.74c1.31,-0.99 1.85,-2.73 1.33,-4.3 -0.52,-1.58 -1.98,-2.64 -3.62,-2.63l0 0 0 -0.01z"/>
  </g>
 </g>
</svg>
