<svg width="20" height="20" viewBox="0 0 20 20" fill="none" xmlns="http://www.w3.org/2000/svg">
<g clip-path="url(#clip0_283_15158)">
<path d="M16.8444 0H10.425H4.00555C2.89987 0 2 0.901876 2 2.00996V18.0496C2 19.1576 2.89987 20.0595 4.00555 20.0595H4.00595V21.2631H4.80833V20.0595H10.425H16.0417V21.2631H16.844V20.0595H16.8444C17.9501 20.0595 18.85 19.1576 18.85 18.0496V2.00996C18.85 0.901876 17.9501 0 16.8444 0ZM4.00595 19.2571C3.34198 19.2571 2.80238 18.7155 2.80238 18.0496V2.00996C2.80238 1.34399 3.34198 0.802381 4.00555 0.802381H10.0238V19.2571H4.80833H4.00595ZM18.0476 18.0496C18.0476 18.7155 17.508 19.2571 16.8444 19.2571H16.844H16.0417H10.8262V0.802381H16.8444C17.508 0.802381 18.0476 1.34399 18.0476 2.00996V18.0496Z" fill="#595AD4" stroke="#595AD4" stroke-width="0.6"/>
<path d="M8.22133 8.42383H7.41895V11.2322H8.22133V8.42383Z" stroke="#595AD4" stroke-width="1.4"/>
<path d="M13.4313 8.42383H12.6289V11.2322H13.4313V8.42383Z" stroke="#595AD4" stroke-width="1.4"/>
</g>
<defs>
<clipPath id="clip0_283_15158">
<rect width="20" height="20" fill="white"/>
</clipPath>
</defs>
</svg>
