<svg width="20" height="20" viewBox="0 0 20 20" fill="none" xmlns="http://www.w3.org/2000/svg">
<g clip-path="url(#clip0_1_32094)">
<path d="M15.9626 0H9.92453H3.88641C2.84641 0 2 0.848302 2 1.89057V16.9774C2 18.0196 2.84641 18.8679 3.88641 18.8679H3.88679V20H4.64151V18.8679H9.92453H15.2075V20H15.9623V18.8679H15.9626C17.0026 18.8679 17.8491 18.0196 17.8491 16.9774V1.89057C17.8491 0.848302 17.0026 0 15.9626 0ZM3.88679 18.1132C3.26226 18.1132 2.75472 17.6038 2.75472 16.9774V1.89057C2.75472 1.26415 3.26226 0.754717 3.88641 0.754717H9.54717V18.1132H4.64151H3.88679ZM17.0943 16.9774C17.0943 17.6038 16.5868 18.1132 15.9626 18.1132H15.9623H15.2075H10.3019V0.754717H15.9626C16.5868 0.754717 17.0943 1.26415 17.0943 1.89057V16.9774Z" fill="#0B26AD" stroke="#0B26AD" stroke-width="0.6"/>
<path d="M8.7928 7.92383H8.03809V10.5653H8.7928V7.92383Z" stroke="#0B26AD" stroke-width="0.4"/>
<path d="M11.8114 7.92383H11.0566V10.5653H11.8114V7.92383Z" stroke="#0B26AD" stroke-width="0.4"/>
</g>
<defs>
<clipPath id="clip0_1_32094">
<rect width="20" height="20" fill="white"/>
</clipPath>
</defs>
</svg>
