<svg width="17" height="17" viewBox="0 0 17 17" fill="none" xmlns="http://www.w3.org/2000/svg">
<path d="M6.96647 14.8958H10.9665C14.2998 14.8958 15.6331 13.5625 15.6331 10.2292V6.22917C15.6331 2.89583 14.2998 1.5625 10.9665 1.5625H6.96647C3.63314 1.5625 2.2998 2.89583 2.2998 6.22917V10.2292C2.2998 13.5625 3.63314 14.8958 6.96647 14.8958Z" stroke="#595ad4" stroke-width="1.5" stroke-linecap="round" stroke-linejoin="round"/>
<path d="M6.96712 6.89518C7.7035 6.89518 8.30046 6.29823 8.30046 5.56185C8.30046 4.82547 7.7035 4.22852 6.96712 4.22852C6.23074 4.22852 5.63379 4.82547 5.63379 5.56185C5.63379 6.29823 6.23074 6.89518 6.96712 6.89518Z" stroke="#595ad4" stroke-width="1.5" stroke-linecap="round" stroke-linejoin="round"/>
<path d="M2.74707 12.8616L6.03374 10.6549C6.5604 10.3016 7.3204 10.3416 7.79374 10.7482L8.01374 10.9416C8.53374 11.3882 9.37374 11.3882 9.89374 10.9416L12.6671 8.56156C13.1871 8.1149 14.0271 8.1149 14.5471 8.56156L15.6337 9.4949" stroke="#595ad4" stroke-width="1.5" stroke-linecap="round" stroke-linejoin="round"/>
</svg>
