<svg width="54" height="54" viewBox="0 0 54 54" fill="none" xmlns="http://www.w3.org/2000/svg">
<path d="M28.6728 36.7601V30.1248C28.6525 27.8264 26.7709 25.9786 24.4726 26.0006C22.4526 26.0191 20.7381 27.4839 20.404 29.4751L20.3956 29.4802L18.8346 28.1082C17.164 26.6452 14.6682 26.6452 12.9993 28.1082L1.42976 38.2788C0.904944 38.7412 0.854319 39.5427 1.31669 40.0676C1.77907 40.5924 2.58063 40.643 3.10544 40.1806L3.15944 40.1334V49.7369C3.16282 51.8109 4.84188 53.4899 6.91582 53.4933H24.9198C26.992 53.495 28.6728 51.8142 28.6744 49.742C28.6744 49.7403 28.6744 49.7369 28.6744 49.7352V40.1283L28.7335 40.1806C29.2583 40.6413 30.0582 40.5907 30.5206 40.0642C30.9829 39.5377 30.9306 38.7395 30.4041 38.2788L28.6728 36.7601ZM13.7367 50.9621V47.6174C13.7384 46.583 14.5754 45.746 15.6098 45.7443H16.4536C17.488 45.746 18.325 46.583 18.3267 47.6174L18.3284 50.9621H13.7367ZM24.9198 50.9621H20.8596V47.6174C20.8563 45.1857 18.8869 43.2164 16.4553 43.2131H15.6115C13.1798 43.2164 11.2105 45.1857 11.2071 47.6174V50.9621H6.91244C6.23576 50.9604 5.68901 50.4136 5.68732 49.7369V37.9076L14.6699 30.0084C15.3837 29.3823 16.4502 29.3823 17.164 30.0084L26.1415 37.9008L26.1432 49.7369C26.1432 50.4119 25.5948 50.9604 24.9198 50.9621ZM26.1432 34.5326L22.861 31.6436V30.1248C22.861 29.2186 23.5951 28.4846 24.5013 28.4846C25.4074 28.4846 26.1415 29.2186 26.1415 30.1248L26.1432 30.1299V34.5326Z" fill="#D3DBFF"/>
<path d="M31.8813 35.9984C29.7381 35.9984 28 37.7365 28 39.8797C28 42.0228 29.7381 43.7609 31.8813 43.7609C34.0244 43.7609 35.7625 42.0228 35.7625 39.8797C35.7625 37.7365 34.0244 35.9984 31.8813 35.9984ZM31.8813 41.2297C31.1354 41.2297 30.5312 40.6255 30.5312 39.8797C30.5312 39.1338 31.1354 38.5297 31.8813 38.5297C32.6238 38.533 33.2245 39.1372 33.2245 39.8797H33.2313C33.2313 40.6255 32.6271 41.2297 31.8813 41.2297Z" fill="#D3DBFF"/>
<path d="M53.9234 28.0004C53.2247 28.0004 52.6577 28.5674 52.6577 29.266V43.5439C52.6527 46.9341 49.9071 49.6797 46.5169 49.6847H35.2664C34.5677 49.6847 34.0007 50.2517 34.0007 50.9504C34.0007 51.649 34.5677 52.216 35.2664 52.216H46.5169C51.3044 52.2092 55.1822 48.3314 55.189 43.5439V29.266C55.189 28.5674 54.622 28.0004 53.9234 28.0004Z" fill="#D3DBFF"/>
<path d="M1.68754 26.8545C2.38617 26.8545 2.95317 26.2875 2.95317 25.5889V11.6721C2.95823 8.28187 5.70717 5.53463 9.09735 5.53125H24.6544C25.353 5.53125 25.92 4.96425 25.92 4.26562C25.92 3.567 25.353 3 24.6544 3H9.09735C4.30992 3.00675 0.432043 6.88462 0.425293 11.6721V25.5889C0.425293 26.2858 0.988918 26.8528 1.68754 26.8545Z" fill="#D3DBFF"/>
<path d="M51.3799 19.7606C54.3499 19.7572 56.7562 17.3525 56.7596 14.3825C56.7613 11.4108 54.3532 9.00279 51.3816 9.0011C48.4099 8.99941 46.0018 11.4075 46.0001 14.3792C45.9984 17.3509 48.4065 19.7589 51.3799 19.7606C51.3782 19.7606 51.3782 19.7606 51.3799 19.7606ZM48.5331 14.3825C48.5314 12.8098 49.8071 11.534 51.3799 11.5323C52.9526 11.5307 54.2284 12.8064 54.2301 14.3792C54.2317 15.9519 52.956 17.2277 51.3832 17.2293C51.3816 17.2293 51.3816 17.2293 51.3799 17.2293C49.8071 17.2277 48.5347 15.9536 48.5331 14.3825Z" fill="#D3DBFF"/>
<path d="M35.8398 28.6594C41.2145 28.6594 47.6793 18.4146 47.6793 11.9802C47.7569 5.44111 42.5206 0.0782329 35.9816 0.000607877C29.4425 -0.0770171 24.0796 5.1593 24.002 11.6984C24.0003 11.7929 24.0003 11.8874 24.002 11.9802C24.002 18.4146 30.4668 28.6594 35.8398 28.6594ZM35.8398 2.67192C40.9782 2.67867 45.1413 6.84173 45.1481 11.9802C45.1481 17.4004 39.4106 26.1282 35.8398 26.1282C32.2691 26.1282 26.5332 17.4004 26.5332 11.9802C26.5383 6.84173 30.7014 2.67867 35.8398 2.67192Z" fill="#D3DBFF"/>
</svg>
