<svg width="163" height="48" viewBox="0 0 163 48" fill="none" xmlns="http://www.w3.org/2000/svg">
<g clip-path="url(#clip0_1_27096)">
<path d="M-12 -11.998H175V60.002H-12V-11.998Z" fill="black"/>
<path d="M158 0.00195312H5C2.23858 0.00195312 0 2.24053 0 5.00195V43.002C0 45.7634 2.23858 48.002 5 48.002H158C160.761 48.002 163 45.7634 163 43.002V5.00195C163 2.24053 160.761 0.00195312 158 0.00195312Z" fill="black"/>
<path d="M57.0536 12.2576C57.0752 12.7 57.0066 13.1422 56.8518 13.5572C56.6971 13.9722 56.4595 14.3514 56.1536 14.6716C55.8113 15.0272 55.3978 15.3063 54.94 15.4907C54.4823 15.6751 53.9907 15.7606 53.4976 15.7416C53.0014 15.746 52.5093 15.6511 52.0503 15.4625C51.5912 15.274 51.1745 14.9956 50.8246 14.6437C50.4747 14.2918 50.1986 13.8736 50.0127 13.4135C49.8267 12.9534 49.7345 12.4608 49.7416 11.9646C49.7345 11.4685 49.8267 10.9759 50.0127 10.5158C50.1986 10.0557 50.4747 9.63746 50.8246 9.28559C51.1745 8.93371 51.5912 8.65533 52.0503 8.46678C52.5093 8.27823 53.0014 8.18333 53.4976 8.18764C54.0079 8.18537 54.5132 8.28746 54.9826 8.48764C55.4179 8.66428 55.8051 8.94152 56.1126 9.29664L55.4776 9.93164C55.2351 9.64686 54.9305 9.42151 54.5872 9.27293C54.244 9.12436 53.8712 9.05652 53.4976 9.07464C53.1216 9.07364 52.7493 9.14837 52.4028 9.29438C52.0563 9.44039 51.7428 9.65469 51.4809 9.92449C51.219 10.1943 51.0142 10.5141 50.8786 10.8648C50.743 11.2154 50.6794 11.5898 50.6916 11.9656C50.6831 12.5284 50.8419 13.081 51.1476 13.5535C51.4534 14.026 51.8925 14.3971 52.4094 14.6199C52.9262 14.8428 53.4975 14.9072 54.051 14.8052C54.6045 14.7031 55.1152 14.4391 55.5186 14.0466C55.8893 13.6465 56.1043 13.1267 56.1246 12.5816H53.4996V11.7136H56.9996C57.0337 11.893 57.0517 12.0751 57.0536 12.2576V12.2576Z" fill="white"/>
<path d="M62.6087 9.23761H59.3157V11.5306H62.2847V12.3986H59.3157V14.6916H62.6087V15.5796H58.3877V8.34961H62.6087V9.23761Z" fill="white"/>
<path d="M66.5261 15.5796H65.5961V9.23761H63.5771V8.34961H68.5452V9.23761H66.5251L66.5261 15.5796Z" fill="white"/>
<path d="M72.1396 15.5796V8.34961H73.0676V15.5796H72.1396Z" fill="white"/>
<path d="M77.1893 15.5796H76.2593V9.23761H74.2393V8.34961H79.2073V9.23761H77.1893V15.5796Z" fill="white"/>
<path d="M88.614 14.6471C87.9104 15.3484 86.9575 15.7422 85.964 15.7422C84.9706 15.7422 84.0177 15.3484 83.314 14.6471C82.63 13.9221 82.249 12.963 82.249 11.9661C82.249 10.9693 82.63 10.0102 83.314 9.28515C83.6617 8.93659 84.0748 8.66005 84.5295 8.47136C84.9842 8.28267 85.4717 8.18555 85.964 8.18555C86.4564 8.18555 86.9438 8.28267 87.3986 8.47136C87.8533 8.66005 88.2663 8.93659 88.614 9.28515C89.2995 10.0085 89.6816 10.9671 89.6816 11.9636C89.6816 12.9602 89.2995 13.9188 88.614 14.6421V14.6471ZM83.999 14.0411C84.5204 14.5612 85.2267 14.8532 85.963 14.8532C86.6994 14.8532 87.4057 14.5612 87.927 14.0411C88.4442 13.4738 88.7309 12.7338 88.7309 11.9661C88.7309 11.1985 88.4442 10.4585 87.927 9.89115C87.4057 9.37112 86.6994 9.07907 85.963 9.07907C85.2267 9.07907 84.5204 9.37112 83.999 9.89115C83.4827 10.4589 83.1966 11.1987 83.1966 11.9661C83.1966 12.7336 83.4827 13.4734 83.999 14.0411Z" fill="white"/>
<path d="M90.9824 15.5796V8.34961H92.1144L95.6284 13.9736H95.6684L95.6284 12.5806V8.34961H96.5574V15.5796H95.5884L91.9124 9.67961H91.8724L91.9124 11.0736V15.5736L90.9824 15.5796Z" fill="white"/>
<path d="M82.0186 26.1275C81.0058 26.1313 80.0168 26.4351 79.1765 27.0005C78.3362 27.5659 77.6823 28.3676 77.2973 29.3044C76.9123 30.2412 76.8135 31.2711 77.0134 32.264C77.2133 33.2569 77.7029 34.1683 78.4204 34.8831C79.1379 35.598 80.0511 36.0842 81.0447 36.2804C82.0384 36.4766 83.0679 36.374 84.0032 35.9856C84.9386 35.5971 85.7379 34.9402 86.3002 34.0978C86.8625 33.2555 87.1626 32.2653 87.1626 31.2525C87.1727 30.5751 87.0463 29.9026 86.7911 29.275C86.5359 28.6475 86.1571 28.0776 85.6771 27.5995C85.1972 27.1213 84.626 26.7446 83.9975 26.4917C83.3689 26.2388 82.696 26.115 82.0186 26.1275ZM82.0186 34.3575C81.3948 34.4021 80.772 34.2578 80.2314 33.9435C79.6907 33.6291 79.2572 33.1593 78.9874 32.5951C78.7176 32.0309 78.6238 31.3985 78.7185 30.7803C78.8131 30.1621 79.0917 29.5867 79.5179 29.1291C79.9442 28.6714 80.4983 28.3527 81.1083 28.2145C81.7182 28.0762 82.3556 28.1249 82.9375 28.354C83.5195 28.5831 84.0189 28.9822 84.3708 29.4992C84.7227 30.0162 84.9108 30.6271 84.9106 31.2525C84.9294 31.6474 84.869 32.0421 84.733 32.4134C84.597 32.7846 84.3881 33.1249 84.1186 33.4142C83.8492 33.7035 83.5246 33.936 83.1639 34.098C82.8033 34.26 82.4139 34.3482 82.0186 34.3575ZM70.7966 26.1275C69.7838 26.1313 68.7948 26.4351 67.9545 27.0005C67.1142 27.5659 66.4603 28.3676 66.0753 29.3044C65.6903 30.2412 65.5915 31.2711 65.7914 32.264C65.9913 33.2569 66.4809 34.1683 67.1984 34.8831C67.9159 35.598 68.8291 36.0842 69.8227 36.2804C70.8164 36.4766 71.8459 36.374 72.7812 35.9856C73.7166 35.5971 74.5159 34.9402 75.0782 34.0978C75.6405 33.2555 75.9406 32.2653 75.9406 31.2525C75.9505 30.5751 75.8241 29.9025 75.5687 29.275C75.3134 28.6474 74.9345 28.0776 74.4545 27.5994C73.9745 27.1213 73.4032 26.7445 72.7746 26.4917C72.146 26.2388 71.473 26.115 70.7956 26.1275H70.7966ZM70.7966 34.3575C70.1728 34.4021 69.55 34.2578 69.0094 33.9435C68.4687 33.6291 68.0352 33.1593 67.7654 32.5951C67.4956 32.0309 67.4018 31.3985 67.4965 30.7803C67.5911 30.1621 67.8697 29.5867 68.2959 29.1291C68.7222 28.6714 69.2763 28.3527 69.8863 28.2145C70.4962 28.0762 71.1336 28.1249 71.7155 28.354C72.2975 28.5831 72.7969 28.9822 73.1488 29.4992C73.5007 30.0162 73.6888 30.6271 73.6886 31.2525C73.7074 31.6475 73.647 32.0423 73.5109 32.4136C73.3748 32.7849 73.1658 33.1252 72.8963 33.4145C72.6267 33.7039 72.302 33.9363 71.9412 34.0983C71.5805 34.2602 71.191 34.3484 70.7956 34.3575H70.7966ZM57.4466 27.6995V29.8735H62.6466C62.5722 30.893 62.1557 31.8574 61.4646 32.6105C60.9432 33.142 60.3161 33.5583 59.6239 33.8325C58.9316 34.1067 58.1896 34.2328 57.4456 34.2025C55.9246 34.1825 54.4727 33.5643 53.4043 32.4817C52.3358 31.399 51.7367 29.9391 51.7367 28.418C51.7367 26.8969 52.3358 25.437 53.4043 24.3544C54.4727 23.2718 55.9246 22.6535 57.4456 22.6335C58.9062 22.6143 60.3153 23.1725 61.3666 24.1865L62.9006 22.6525C62.1831 21.9422 61.331 21.3823 60.3943 21.0055C59.4576 20.6288 58.4551 20.4428 57.4456 20.4585C56.3874 20.438 55.3356 20.6287 54.3519 21.0195C53.3683 21.4102 52.4724 21.9932 51.7167 22.7344C50.961 23.4755 50.3607 24.3599 49.9509 25.3358C49.5412 26.3117 49.3301 27.3596 49.3301 28.418C49.3301 29.4765 49.5412 30.5243 49.9509 31.5002C50.3607 32.4761 50.961 33.3605 51.7167 34.1017C52.4724 34.8428 53.3683 35.4258 54.3519 35.8166C55.3356 36.2074 56.3874 36.3981 57.4456 36.3775C58.4765 36.4204 59.5047 36.2435 60.4619 35.8585C61.4192 35.4735 62.2835 34.8892 62.9976 34.1445C64.2657 32.7603 64.9416 30.9348 64.8806 29.0585C64.8857 28.6031 64.8465 28.1483 64.7636 27.7005L57.4466 27.6995ZM112.047 29.3875C111.739 28.4594 111.152 27.6485 110.367 27.0651C109.583 26.4816 108.637 26.154 107.66 26.1265C107.001 26.1306 106.35 26.2682 105.747 26.531C105.143 26.7937 104.599 27.1762 104.147 27.6552C103.695 28.1343 103.345 28.7 103.118 29.3181C102.891 29.9362 102.792 30.594 102.827 31.2515C102.812 31.9253 102.933 32.5952 103.183 33.2211C103.433 33.8471 103.806 34.4162 104.281 34.8946C104.755 35.373 105.322 35.7508 105.946 36.0054C106.57 36.26 107.239 36.3862 107.913 36.3765C108.757 36.3811 109.589 36.176 110.334 35.7796C111.08 35.3832 111.715 34.808 112.184 34.1055L110.428 32.9405C110.166 33.375 109.796 33.7341 109.353 33.9825C108.911 34.2309 108.412 34.3601 107.905 34.3575C107.382 34.3775 106.866 34.2403 106.423 33.9636C105.98 33.6869 105.63 33.2834 105.419 32.8055L112.272 29.9705L112.047 29.3875ZM105.058 31.0965C105.034 30.7245 105.085 30.3516 105.207 29.9994C105.329 29.6472 105.519 29.3227 105.768 29.0449C106.016 28.767 106.317 28.5413 106.654 28.3809C106.99 28.2205 107.355 28.1286 107.728 28.1105C108.116 28.0852 108.503 28.1748 108.841 28.3681C109.179 28.5614 109.453 28.8499 109.628 29.1975L105.058 31.0965ZM99.4866 36.0655H101.738V21.0005H99.4866V36.0655ZM95.7966 27.2715H95.7196C95.377 26.8995 94.9589 26.6048 94.4933 26.4074C94.0277 26.2099 93.5252 26.1142 93.0196 26.1265C91.6995 26.1849 90.4529 26.7503 89.5394 27.705C88.6259 28.6598 88.1161 29.9302 88.1161 31.2515C88.1161 32.5729 88.6259 33.8433 89.5394 34.798C90.4529 35.7528 91.6995 36.3182 93.0196 36.3765C93.5273 36.3904 94.0319 36.2933 94.4982 36.0921C94.9645 35.8909 95.3814 35.5904 95.7196 35.2115H95.7966V35.9505C95.7966 37.9115 94.7496 38.9595 93.0596 38.9595C92.4966 38.946 91.9503 38.765 91.4905 38.4398C91.0306 38.1146 90.678 37.6599 90.4776 37.1335L88.5166 37.9495C88.8862 38.8493 89.5161 39.6181 90.3255 40.1576C91.1349 40.6971 92.0869 40.9826 93.0596 40.9775C95.6996 40.9775 97.9326 39.4245 97.9326 35.6395V26.4395H95.7926L95.7966 27.2715ZM93.2156 34.3565C92.437 34.2909 91.7114 33.9353 91.1826 33.3601C90.6537 32.7848 90.3603 32.0319 90.3603 31.2505C90.3603 30.4691 90.6537 29.7163 91.1826 29.141C91.7114 28.5658 92.437 28.2101 93.2156 28.1445C93.6029 28.1634 93.9824 28.2602 94.3315 28.4289C94.6806 28.5976 94.9921 28.8349 95.2476 29.1266C95.503 29.4184 95.697 29.7585 95.8182 30.1269C95.9393 30.4952 95.985 30.8842 95.9526 31.2705C95.9831 31.6548 95.9356 32.0413 95.8131 32.4069C95.6905 32.7724 95.4954 33.1094 95.2394 33.3977C94.9835 33.686 94.6719 33.9196 94.3235 34.0845C93.975 34.2494 93.5968 34.3423 93.2116 34.3575L93.2156 34.3565ZM122.595 21.0015H117.207V36.0665H119.454V30.3595H122.594C123.229 30.393 123.864 30.2968 124.461 30.0768C125.058 29.8569 125.603 29.5177 126.065 29.0799C126.526 28.6422 126.894 28.1151 127.145 27.5308C127.396 26.9464 127.525 26.317 127.525 25.681C127.525 25.045 127.396 24.4157 127.145 23.8313C126.894 23.247 126.526 22.7199 126.065 22.2821C125.603 21.8444 125.058 21.5052 124.461 21.2852C123.864 21.0652 123.229 20.969 122.594 21.0025L122.595 21.0015ZM122.653 28.2615H119.453V23.0985H122.653C122.996 23.0918 123.337 23.1536 123.656 23.2802C123.975 23.4069 124.266 23.596 124.511 23.8364C124.756 24.0768 124.951 24.3637 125.084 24.6802C125.217 24.9968 125.285 25.3367 125.285 25.68C125.285 26.0234 125.217 26.3633 125.084 26.6798C124.951 26.9964 124.756 27.2833 124.511 27.5237C124.266 27.764 123.975 27.9531 123.656 28.0798C123.337 28.2065 122.996 28.2683 122.653 28.2615ZM136.553 26.0985C135.732 26.0506 134.915 26.2431 134.202 26.6526C133.49 27.062 132.912 27.6705 132.54 28.4035L134.54 29.2375C134.738 28.8743 135.038 28.5768 135.403 28.3815C135.768 28.1861 136.182 28.1014 136.595 28.1375C137.165 28.082 137.734 28.2549 138.177 28.6184C138.621 28.9819 138.901 29.5062 138.959 30.0765V30.2305C138.237 29.8471 137.431 29.6475 136.614 29.6495C134.463 29.6495 132.272 30.8315 132.272 33.0405C132.293 33.5062 132.407 33.9629 132.607 34.3835C132.808 34.8042 133.091 35.1803 133.44 35.4894C133.789 35.7986 134.196 36.0346 134.638 36.1834C135.08 36.3321 135.547 36.3907 136.012 36.3555C136.578 36.3887 137.143 36.2695 137.647 36.0103C138.152 35.751 138.578 35.3613 138.881 34.8815H138.958V36.0405H141.128V30.2655C141.119 27.5915 139.128 26.0995 136.546 26.0995L136.553 26.0985ZM136.282 34.3545C135.545 34.3545 134.518 33.9865 134.518 33.0755C134.518 31.9125 135.797 31.4665 136.902 31.4665C137.619 31.4463 138.329 31.619 138.957 31.9665C138.875 32.6221 138.558 33.2256 138.064 33.6649C137.571 34.1041 136.934 34.3492 136.274 34.3545H136.282ZM149.028 26.4285L146.45 32.9595H146.373L143.698 26.4285H141.276L145.287 35.5565L143 40.6345H145.345L151.528 26.4285H149.028ZM128.775 36.0665H131.024V21.0025H128.775V36.0665Z" fill="white"/>
<path d="M12.4891 8.99816C12.0946 9.47098 11.8954 10.0765 11.9321 10.6912V37.3452C11.8952 37.9599 12.0944 38.5654 12.4891 39.0382L12.5781 39.1252L27.5071 24.1922V23.8452L12.5781 8.91016L12.4891 8.99816Z" fill="url(#paint0_linear_1_27096)"/>
<path d="M32.4838 29.1723L27.5088 24.1933V23.8393L32.4868 18.8613L32.5988 18.9263L38.4988 22.2763C40.1818 23.2333 40.1818 24.7983 38.4988 25.7553L32.5988 29.1053L32.4838 29.1723Z" fill="url(#paint1_linear_1_27096)"/>
<path d="M32.5973 29.1066L27.5073 24.0156L12.4893 39.0346C12.8325 39.3374 13.2709 39.5105 13.7284 39.524C14.1859 39.5375 14.6337 39.3906 14.9943 39.1086L32.5943 29.1086" fill="url(#paint2_linear_1_27096)"/>
<path d="M32.5972 18.9279L14.9972 8.92794C14.6366 8.646 14.1888 8.49906 13.7313 8.51257C13.2738 8.52609 12.8355 8.69921 12.4922 9.00194L27.5072 24.0179L32.5972 18.9279Z" fill="url(#paint3_linear_1_27096)"/>
<path opacity="0.2" d="M32.4853 28.9941L14.9943 38.9321C14.6477 39.1963 14.2246 39.3404 13.7889 39.3428C13.3532 39.3451 12.9286 39.2055 12.5793 38.9451L12.4893 39.0341L12.5783 39.1221C12.9276 39.3825 13.3522 39.5221 13.7879 39.5198C14.2236 39.5174 14.6467 39.3733 14.9933 39.1091L32.5933 29.1091L32.4853 28.9941Z" fill="black"/>
<path opacity="0.12" d="M12.4891 38.859C12.0944 38.3863 11.8952 37.7807 11.9321 37.166V37.343C11.8952 37.9574 12.0944 38.5627 12.4891 39.035L12.5791 38.946L12.4891 38.859Z" fill="black"/>
<path opacity="0.12" d="M38.4934 25.5806L32.4854 28.9946L32.5974 29.1066L38.4974 25.7566C38.8436 25.6053 39.143 25.3641 39.3644 25.0579C39.5858 24.7517 39.7211 24.3918 39.7564 24.0156C39.6822 24.3568 39.5294 24.676 39.3102 24.9477C39.0909 25.2194 38.8112 25.4361 38.4934 25.5806Z" fill="black"/>
<path opacity="0.25" d="M14.9936 9.10101L38.4936 22.453C38.8117 22.5972 39.0917 22.8136 39.3113 23.0852C39.531 23.3567 39.6841 23.6758 39.7586 24.017C39.7232 23.6405 39.5873 23.2803 39.3651 22.9743C39.1429 22.6682 38.8426 22.4274 38.4956 22.277L14.9956 8.92501C13.3106 7.96801 11.9336 8.76401 11.9336 10.692V10.869C11.9316 8.93901 13.3086 8.14401 14.9936 9.10101Z" fill="white"/>
</g>
<defs>
<linearGradient id="paint0_linear_1_27096" x1="26.1828" y1="208.752" x2="2.27728" y2="202.399" gradientUnits="userSpaceOnUse">
<stop stop-color="#00A0FF"/>
<stop offset="0.007" stop-color="#00A1FF"/>
<stop offset="0.26" stop-color="#00BEFF"/>
<stop offset="0.512" stop-color="#00D2FF"/>
<stop offset="0.76" stop-color="#00DFFF"/>
<stop offset="1" stop-color="#00E3FF"/>
</linearGradient>
<linearGradient id="paint1_linear_1_27096" x1="40.6922" y1="195.159" x2="11.5196" y2="195.159" gradientUnits="userSpaceOnUse">
<stop stop-color="#FFE000"/>
<stop offset="0.409" stop-color="#FFBD00"/>
<stop offset="0.775" stop-color="#FFA500"/>
<stop offset="1" stop-color="#FF9C00"/>
</linearGradient>
<linearGradient id="paint2_linear_1_27096" x1="29.8224" y1="192.492" x2="10.6226" y2="160.166" gradientUnits="userSpaceOnUse">
<stop stop-color="#FF3A44"/>
<stop offset="1" stop-color="#C31162"/>
</linearGradient>
<linearGradient id="paint3_linear_1_27096" x1="8.71245" y1="219.133" x2="17.2913" y2="204.704" gradientUnits="userSpaceOnUse">
<stop stop-color="#32A071"/>
<stop offset="0.068" stop-color="#2DA771"/>
<stop offset="0.476" stop-color="#15CF74"/>
<stop offset="0.801" stop-color="#06E775"/>
<stop offset="1" stop-color="#00F076"/>
</linearGradient>
<clipPath id="clip0_1_27096">
<rect width="163" height="48" rx="6" fill="white"/>
</clipPath>
</defs>
</svg>
