<?xml version="1.0" encoding="UTF-8"?>
<!DOCTYPE svg PUBLIC "-//W3C//DTD SVG 1.1//EN" "http://www.w3.org/Graphics/SVG/1.1/DTD/svg11.dtd">
<!-- Creator: CorelDRAW 2017 -->
<svg xmlns="http://www.w3.org/2000/svg" xml:space="preserve" width="47px" height="53px" version="1.1" style="shape-rendering:geometricPrecision; text-rendering:geometricPrecision; image-rendering:optimizeQuality; fill-rule:evenodd; clip-rule:evenodd"
viewBox="0 0 47 52.88"
 xmlns:xlink="http://www.w3.org/1999/xlink">
 <defs>
  <style type="text/css">
   <![CDATA[
    .str0 {stroke:#595AD4;stroke-width:4.35;stroke-linecap:round;stroke-linejoin:round}
    .fil2 {fill:none}
    .fil3 {fill:#595AD4}
    .fil1 {fill:white}
    .fil0 {fill:white}
   ]]>
  </style>
 </defs>
 <g id="Layer_x0020_1">
  <metadata id="CorelCorpID_0Corel-Layer"/>
  <g id="_1724442556848">
   <polygon class="fil0" points="3.02,4.93 43.98,4.93 43.98,13.12 3.02,13.12 "/>
   <polygon class="fil1" points="3.02,13.12 43.98,13.12 43.98,45.89 3.02,45.89 "/>
   <circle class="fil2 str0" cx="23.67" cy="32.24" r="11.1"/>
   <path class="fil2 str0" d="M3.02 2.88l40.96 0 0 47.11 -40.96 0 0 -47.11zm0 11.27l40.96 0"/>
   <g>
    <path class="fil3" d="M28.96 6.75l0 0c1.13,0.01 2.05,0.92 2.05,2.05l0 0c0,1.14 -0.92,2.05 -2.05,2.05l0 0c-1.13,0 -2.05,-0.91 -2.05,-2.05l0 0c0,-1.13 0.92,-2.04 2.05,-2.04z"/>
    <polygon class="fil3" points="26.91,6.75 31.01,6.75 31.01,10.85 26.91,10.85 "/>
   </g>
   <path class="fil3" d="M37.15 6.75l0 0c1.14,0.01 2.05,0.92 2.05,2.05l0 0c0,1.14 -0.91,2.05 -2.05,2.05l0 0c-1.13,0 -2.05,-0.91 -2.05,-2.05l0 0c0,-1.13 0.92,-2.04 2.05,-2.04z"/>
   <polygon class="fil3" points="35.1,6.75 39.2,6.75 39.2,10.85 35.1,10.85 "/>
   <path class="fil2 str0" d="M12.58 33.24c12.2,-9.75 8.87,9.46 22.19,0"/>
  </g>
 </g>
</svg>
