<svg width="17" height="17" viewBox="0 0 17 17" fill="none" xmlns="http://www.w3.org/2000/svg">
<g clip-path="url(#clip0_1_54529)">
<path d="M16.1887 6.86222V13.409C16.1876 14.3446 15.8319 15.2415 15.1997 15.9031C14.5674 16.5646 13.7102 16.9368 12.816 16.9379H12.1415C11.9626 16.9379 11.791 16.8635 11.6645 16.7312C11.538 16.5988 11.467 16.4193 11.467 16.2321C11.467 16.0449 11.538 15.8654 11.6645 15.7331C11.791 15.6007 11.9626 15.5263 12.1415 15.5263H12.816C13.3527 15.5263 13.8674 15.3033 14.2469 14.9062C14.6264 14.5091 14.8396 13.9706 14.8396 13.409V6.86222C14.8396 6.51562 14.7583 6.17432 14.6028 5.86828C14.4474 5.56224 14.2225 5.30081 13.9479 5.10695L9.22619 1.77356C8.89255 1.53558 8.49812 1.40829 8.09433 1.40829C7.69054 1.40829 7.29611 1.53558 6.96247 1.77356L2.24078 5.10695C1.9662 5.30081 1.74129 5.56224 1.58581 5.86828C1.43034 6.17432 1.34904 6.51562 1.34906 6.86222V13.409C1.34906 13.9706 1.56226 14.5091 1.94175 14.9062C2.32125 15.3033 2.83595 15.5263 3.37264 15.5263H4.04717C4.22606 15.5263 4.39763 15.6007 4.52413 15.7331C4.65063 15.8654 4.72169 16.0449 4.72169 16.2321C4.72169 16.4193 4.65063 16.5988 4.52413 16.7312C4.39763 16.8635 4.22606 16.9379 4.04717 16.9379H3.37264C2.47849 16.9368 1.62127 16.5646 0.989008 15.9031C0.356748 15.2415 0.0010737 14.3446 2.64217e-06 13.409V6.86222C-0.000688664 6.28469 0.134287 5.71584 0.393053 5.20571C0.651818 4.69559 1.02644 4.25983 1.48396 3.93677L6.20565 0.602676C6.76232 0.207408 7.41957 -0.00390625 8.09231 -0.00390625C8.76505 -0.00390625 9.4223 0.207408 9.97896 0.602676L14.7007 3.93677C15.1586 4.25966 15.5338 4.69528 15.7933 5.20536C16.0527 5.71545 16.1885 6.28439 16.1887 6.86222ZM12.816 10.5908C12.8178 11.2398 12.6964 11.8827 12.4591 12.4822C12.2217 13.0818 11.873 13.6261 11.4332 14.0837L9.06228 16.5102C8.80272 16.7731 8.45561 16.9201 8.09433 16.9201C7.73306 16.9201 7.38594 16.7731 7.12638 16.5102L4.76082 14.0894C4.21067 13.5155 3.80433 12.8085 3.57782 12.0311C3.35131 11.2536 3.31164 10.4296 3.4623 9.63227C3.61297 8.8349 3.94933 8.08874 4.44157 7.45995C4.9338 6.83115 5.5667 6.33915 6.28416 6.02754C7.00162 5.71593 7.78147 5.59435 8.55459 5.67358C9.3277 5.75281 10.0702 6.0304 10.7162 6.48174C11.3623 6.93308 11.8919 7.54422 12.2582 8.261C12.6245 8.97777 12.8161 9.77804 12.816 10.5908ZM11.467 10.5908C11.467 10.0105 11.3302 9.43917 11.0688 8.92737C10.8073 8.41558 10.4293 7.97914 9.96819 7.65671C9.50706 7.33429 8.97705 7.13583 8.4251 7.07892C7.87316 7.022 7.31632 7.10839 6.80391 7.33043C6.29149 7.55246 5.83932 7.90329 5.48743 8.35185C5.13555 8.8004 4.89482 9.33283 4.78657 9.90198C4.67831 10.4711 4.70587 11.0594 4.8668 11.6148C5.02774 12.1701 5.31708 12.6754 5.7092 13.0858L8.07005 15.5009L10.4849 13.0801C10.7976 12.7536 11.0454 12.3655 11.2139 11.9383C11.3825 11.511 11.4685 11.0531 11.467 10.5908ZM10.1179 10.5859C10.1179 11.0047 9.99923 11.414 9.77688 11.7622C9.55452 12.1104 9.23848 12.3818 8.86872 12.5421C8.49896 12.7023 8.09209 12.7442 7.69955 12.6625C7.30701 12.5808 6.94645 12.3792 6.66344 12.0831C6.38044 11.787 6.18771 11.4097 6.10963 10.999C6.03155 10.5882 6.07162 10.1625 6.22478 9.77563C6.37795 9.38874 6.63731 9.05805 6.97009 8.8254C7.30287 8.59274 7.6941 8.46856 8.09433 8.46856C8.63102 8.46856 9.14573 8.69164 9.52522 9.08872C9.90472 9.48579 10.1179 10.0243 10.1179 10.5859Z" fill="white"/>
</g>
<defs>
<clipPath id="clip0_1_54529">
<rect width="16.1887" height="16.9387" fill="white"/>
</clipPath>
</defs>
</svg>
