<svg width="20" height="20" viewBox="0 0 20 20" fill="none" xmlns="http://www.w3.org/2000/svg">
<path d="M19.375 9.6875C19.375 15.0389 15.0374 19.375 9.6875 19.375C4.33762 19.375 0 15.0389 0 9.6875C0 4.33918 4.33762 0 9.6875 0C15.0374 0 19.375 4.33918 19.375 9.6875ZM9.6875 11.6406C8.69512 11.6406 7.89062 12.4451 7.89062 13.4375C7.89062 14.4299 8.69512 15.2344 9.6875 15.2344C10.6799 15.2344 11.4844 14.4299 11.4844 13.4375C11.4844 12.4451 10.6799 11.6406 9.6875 11.6406ZM7.98152 5.1818L8.27129 10.4943C8.28484 10.7429 8.49039 10.9375 8.73934 10.9375H10.6357C10.8846 10.9375 11.0902 10.7429 11.1037 10.4943L11.3935 5.1818C11.4081 4.91328 11.1943 4.6875 10.9254 4.6875H8.44953C8.18062 4.6875 7.96688 4.91328 7.98152 5.1818Z" fill="#242F54" fill-opacity="0.7"/>
</svg>
