<svg width="12" height="12" viewBox="0 0 12 12" fill="none" xmlns="http://www.w3.org/2000/svg">
<path d="M6 10.5C8.48528 10.5 10.5 8.48528 10.5 6C10.5 3.51472 8.48528 1.5 6 1.5C3.51472 1.5 1.5 3.51472 1.5 6C1.5 8.48528 3.51472 10.5 6 10.5Z" stroke="black" stroke-linecap="round" stroke-linejoin="round"/>
<path d="M5.625 5.625V5.625C5.8319 5.625 5.99963 5.79273 5.99963 5.99963V7.87537C5.99963 8.08227 6.16736 8.25 6.37427 8.25V8.25" stroke="black" stroke-linecap="round" stroke-linejoin="round"/>
<path d="M5.90625 4.5C6.21691 4.5 6.46875 4.24816 6.46875 3.9375C6.46875 3.62684 6.21691 3.375 5.90625 3.375C5.59559 3.375 5.34375 3.62684 5.34375 3.9375C5.34375 4.24816 5.59559 4.5 5.90625 4.5Z" fill="black"/>
</svg>
