<svg width="20" height="20" viewBox="0 0 20 20" fill="none" xmlns="http://www.w3.org/2000/svg">
<path d="M14.167 17.0846H5.83366C3.33366 17.0846 1.66699 15.8346 1.66699 12.918V7.08464C1.66699 4.16797 3.33366 2.91797 5.83366 2.91797H14.167C16.667 2.91797 18.3337 4.16797 18.3337 7.08464V12.918C18.3337 15.8346 16.667 17.0846 14.167 17.0846Z" stroke="#ffffff" stroke-width="1.5" stroke-miterlimit="10" stroke-linecap="round" stroke-linejoin="round"/>
<path d="M10 12.5C11.3807 12.5 12.5 11.3807 12.5 10C12.5 8.61929 11.3807 7.5 10 7.5C8.61929 7.5 7.5 8.61929 7.5 10C7.5 11.3807 8.61929 12.5 10 12.5Z" stroke="#ffffff" stroke-width="1.5" stroke-miterlimit="10" stroke-linecap="round" stroke-linejoin="round"/>
<path d="M4.58301 7.91797V12.0846" stroke="#ffffff" stroke-width="1.5" stroke-miterlimit="10" stroke-linecap="round" stroke-linejoin="round"/>
<path d="M15.417 7.91797V12.0846" stroke="#ffffff" stroke-width="1.5" stroke-miterlimit="10" stroke-linecap="round" stroke-linejoin="round"/>
</svg>
