<svg width="24" height="24" viewBox="0 0 24 24" fill="none" xmlns="http://www.w3.org/2000/svg">
<path d="M21 7V17C21 20 19.5 22 16 22H8C4.5 22 3 20 3 17V7C3 4 4.5 2 8 2H16C19.5 2 21 4 21 7Z" stroke="#000929" stroke-width="2" stroke-miterlimit="10" stroke-linecap="round" stroke-linejoin="round"/>
<path d="M11.9997 14.4993C12.9201 14.4993 13.6663 13.7532 13.6663 12.8327C13.6663 11.9122 12.9201 11.166 11.9997 11.166C11.0792 11.166 10.333 11.9122 10.333 12.8327C10.333 13.7532 11.0792 14.4993 11.9997 14.4993Z" stroke="#000929" stroke-width="2" stroke-linecap="round" stroke-linejoin="round"/>
<path d="M14.8634 18.8333C14.8634 17.5433 13.5801 16.5 12.0001 16.5C10.4201 16.5 9.13672 17.5433 9.13672 18.8333" stroke="#000929" stroke-width="2" stroke-linecap="round" stroke-linejoin="round"/>
<path d="M14.5 4.5V6.5C14.5 7.6 15.4 8.5 16.5 8.5H18.5" stroke="#000929" stroke-width="2" stroke-miterlimit="10" stroke-linecap="round" stroke-linejoin="round"/>
</svg>
