<?xml version="1.0" encoding="UTF-8"?>
<!DOCTYPE svg PUBLIC "-//W3C//DTD SVG 1.1//EN" "http://www.w3.org/Graphics/SVG/1.1/DTD/svg11.dtd">
<!-- Creator: CorelDRAW 2017 -->
<svg xmlns="http://www.w3.org/2000/svg" xml:space="preserve" width="26px" height="35px" version="1.1" style="shape-rendering:geometricPrecision; text-rendering:geometricPrecision; image-rendering:optimizeQuality; fill-rule:evenodd; clip-rule:evenodd"
viewBox="0 0 26 35.45"
 xmlns:xlink="http://www.w3.org/1999/xlink">
 <defs>
  <style type="text/css">
   <![CDATA[
    .str0 {stroke:#595AD4;stroke-width:3}
    .str1 {stroke:#595AD4;stroke-width:3;stroke-linecap:round}
    .str2 {stroke:#595AD4;stroke-width:3;stroke-linecap:square}
    .fil1 {fill:none}
    .fil0 {fill:white}
   ]]>
  </style>
 </defs>
 <g id="Layer_x0020_1">
  <metadata id="CorelCorpID_0Corel-Layer"/>
  <g id="_1724486044816">
   <path class="fil0" d="M1.99 1.72l22.02 0 0 5.91 -22.02 0 0 -5.91zm0 25.13l22.02 0 0 5.91 -22.02 0 0 -5.91z"/>
   <path class="fil1 str0" d="M1.99 28.33l22.02 0m-22.02 -20.7l22.02 0"/>
   <line class="fil1 str1" x1="9.04" y1="19.9" x2="14.96" y2= "13.72" />
   <line class="fil1 str1" x1="13.89" y1="21.04" x2="15.85" y2= "18.96" />
   <path class="fil1 str2" d="M21.25 34.24l-16.51 0c-1.52,0 -2.75,-1.33 -2.75,-2.96l0 -26.61c0,-1.63 1.23,-2.95 2.76,-2.95l16.5 0c1.52,0 2.76,1.32 2.76,2.95l0 26.61c0,1.63 -1.24,2.96 -2.76,2.96l0 0z"/>
  </g>
 </g>
</svg>
