<?xml version="1.0" encoding="UTF-8"?>
<!DOCTYPE svg PUBLIC "-//W3C//DTD SVG 1.1//EN" "http://www.w3.org/Graphics/SVG/1.1/DTD/svg11.dtd">
<!-- Creator: CorelDRAW 2017 -->
<svg xmlns="http://www.w3.org/2000/svg" xml:space="preserve" width="46px" height="41px" version="1.1" style="shape-rendering:geometricPrecision; text-rendering:geometricPrecision; image-rendering:optimizeQuality; fill-rule:evenodd; clip-rule:evenodd"
viewBox="0 0 46 41.28"
 xmlns:xlink="http://www.w3.org/1999/xlink">
 <defs>
  <style type="text/css">
   <![CDATA[
    .str2 {stroke:#595AD4;stroke-width:4.24;stroke-linecap:round}
    .str0 {stroke:#595AD4;stroke-width:4.24;stroke-linecap:round;stroke-linejoin:round}
    .str1 {stroke:#595AD4;stroke-width:2.97;stroke-linecap:round;stroke-linejoin:round}
    .fil2 {fill:none}
    .fil4 {fill:none;fill-rule:nonzero}
    .fil0 {fill:white}
    .fil1 {fill:white}
    .fil3 {fill:#595AD4;fill-rule:nonzero}
   ]]>
  </style>
 </defs>
 <g id="Layer_x0020_1">
  <metadata id="CorelCorpID_0Corel-Layer"/>
  <g id="_1724485368512">
   <polygon class="fil0" points="9.6,3 7.49,17.08 3.03,21.49 3.03,28.41 5.23,31.55 5.23,35.94 7.49,39.12 12.04,39.12 13.49,37.07 13.49,31.55 32.56,31.55 32.56,35.94 33.81,39.12 39.01,38.45 40.05,37.07 40.05,31.55 42.97,29.54 42.97,23.49 38.29,17.08 35.99,4.08 32.56,2.16 15.38,2.16 "/>
   <g>
    <path class="fil1" d="M38.87 17.61l-2.05 -9.72c-0.35,-2.5 -2,-4.32 -3.93,-4.32l-19.9 0c-1.92,0 -3.57,1.82 -3.92,4.32l-2.06 9.72 31.86 0zm0 0l0 0 0 0z"/>
    <path id="1" class="fil2 str0" d="M38.87 17.61l-2.05 -9.72c-0.35,-2.5 -2,-4.32 -3.93,-4.32l-19.9 0c-1.92,0 -3.57,1.82 -3.92,4.32l-2.06 9.72m31.86 0l0 0 0 0z"/>
   </g>
   <g>
    <path class="fil1" d="M13.65 31.66l0 3.13c0,2.15 -1.74,3.89 -3.89,3.89l-0.19 0c-2.15,0 -3.89,-1.74 -3.89,-3.89l0 -3.13 0 0 7.97 0zm26.55 0l0 3.13c0,2.15 -1.74,3.89 -3.88,3.89l-0.2 0c-2.14,0 -3.88,-1.74 -3.88,-3.89l0 -3.13 0 0 7.96 0zm0 0l0 0 0 0z"/>
    <path id="1" class="fil2 str0" d="M13.65 31.66l0 3.13c0,2.15 -1.74,3.89 -3.89,3.89l-0.19 0c-2.15,0 -3.89,-1.74 -3.89,-3.89l0 -3.13 0 0m34.52 0l0 3.13c0,2.15 -1.74,3.89 -3.88,3.89l-0.2 0c-2.14,0 -3.88,-1.74 -3.88,-3.89l0 -3.13 0 0m7.96 0l0 0 0 0z"/>
   </g>
   <path class="fil2 str0" d="M37.03 31.66l-28.17 0c-3.22,0 -5.83,-2.61 -5.83,-5.83l0 -2.26 0 0c0,-1.12 0.42,-2.19 1.17,-2.98l2.81 -2.98 31.86 0 2.82 2.98c0.75,0.79 1.17,1.86 1.17,2.98l0 2.26c0,3.22 -2.61,5.83 -5.83,5.83l0 0z"/>
   <circle class="fil3" cx="8.92" cy="25.13" r="2.86"/>
   <circle class="fil3" cx="37.38" cy="25.13" r="2.86"/>
   <path class="fil4 str1" d="M32.11 17.4c0,-2.1 -1.57,-3.81 -3.5,-3.81 -1.92,0 -3.49,1.71 -3.49,3.81"/>
   <line class="fil4 str2" x1="17.66" y1="25.06" x2="29.09" y2= "25.02" />
  </g>
 </g>
</svg>
