<svg width="81" height="18" viewBox="0 0 81 18" fill="none" xmlns="http://www.w3.org/2000/svg">
<path d="M27.6699 8.5V8.96875C27.6699 9.61328 27.5859 10.1914 27.418 10.7031C27.25 11.2148 27.0098 11.6504 26.6973 12.0098C26.3887 12.3691 26.0176 12.6445 25.584 12.8359C25.1504 13.0234 24.6699 13.1172 24.1426 13.1172C23.6191 13.1172 23.1406 13.0234 22.707 12.8359C22.2773 12.6445 21.9043 12.3691 21.5879 12.0098C21.2715 11.6504 21.0254 11.2148 20.8496 10.7031C20.6777 10.1914 20.5918 9.61328 20.5918 8.96875V8.5C20.5918 7.85547 20.6777 7.2793 20.8496 6.77148C21.0215 6.25977 21.2637 5.82422 21.5762 5.46484C21.8926 5.10156 22.2656 4.82617 22.6953 4.63867C23.1289 4.44727 23.6074 4.35156 24.1309 4.35156C24.6582 4.35156 25.1387 4.44727 25.5723 4.63867C26.0059 4.82617 26.3789 5.10156 26.6914 5.46484C27.0039 5.82422 27.2441 6.25977 27.4121 6.77148C27.584 7.2793 27.6699 7.85547 27.6699 8.5ZM26.1992 8.96875V8.48828C26.1992 8.01172 26.1523 7.5918 26.0586 7.22852C25.9688 6.86133 25.834 6.55469 25.6543 6.30859C25.4785 6.05859 25.2617 5.87109 25.0039 5.74609C24.7461 5.61719 24.4551 5.55273 24.1309 5.55273C23.8066 5.55273 23.5176 5.61719 23.2637 5.74609C23.0098 5.87109 22.793 6.05859 22.6133 6.30859C22.4375 6.55469 22.3027 6.86133 22.209 7.22852C22.1152 7.5918 22.0684 8.01172 22.0684 8.48828V8.96875C22.0684 9.44531 22.1152 9.86719 22.209 10.2344C22.3027 10.6016 22.4395 10.9121 22.6191 11.166C22.8027 11.416 23.0215 11.6055 23.2754 11.7344C23.5293 11.8594 23.8184 11.9219 24.1426 11.9219C24.4707 11.9219 24.7617 11.8594 25.0156 11.7344C25.2695 11.6055 25.4844 11.416 25.6602 11.166C25.8359 10.9121 25.9688 10.6016 26.0586 10.2344C26.1523 9.86719 26.1992 9.44531 26.1992 8.96875ZM31.9355 11.4414L34.1797 4.46875H35.8027L32.7441 13H31.6484L31.9355 11.4414ZM29.8613 4.46875L32.0879 11.4414L32.3926 13H31.291L28.2441 4.46875H29.8613ZM38.9785 8.79297V9.91797H35.8789V8.79297H38.9785ZM43.2793 11.4414L45.5234 4.46875H47.1465L44.0879 13H42.9922L43.2793 11.4414ZM41.2051 4.46875L43.4316 11.4414L43.7363 13H42.6348L39.5879 4.46875H41.2051ZM50.498 13.1172C50.0293 13.1172 49.6055 13.041 49.2266 12.8887C48.8516 12.7324 48.5312 12.5156 48.2656 12.2383C48.0039 11.9609 47.8027 11.6348 47.6621 11.2598C47.5215 10.8848 47.4512 10.4805 47.4512 10.0469V9.8125C47.4512 9.31641 47.5234 8.86719 47.668 8.46484C47.8125 8.0625 48.0137 7.71875 48.2715 7.43359C48.5293 7.14453 48.834 6.92383 49.1855 6.77148C49.5371 6.61914 49.918 6.54297 50.3281 6.54297C50.7812 6.54297 51.1777 6.61914 51.5176 6.77148C51.8574 6.92383 52.1387 7.13867 52.3613 7.41602C52.5879 7.68945 52.7559 8.01562 52.8652 8.39453C52.9785 8.77344 53.0352 9.19141 53.0352 9.64844V10.252H48.1367V9.23828H51.6406V9.12695C51.6328 8.87305 51.582 8.63477 51.4883 8.41211C51.3984 8.18945 51.2598 8.00977 51.0723 7.87305C50.8848 7.73633 50.6348 7.66797 50.3223 7.66797C50.0879 7.66797 49.8789 7.71875 49.6953 7.82031C49.5156 7.91797 49.3652 8.06055 49.2441 8.24805C49.123 8.43555 49.0293 8.66211 48.9629 8.92773C48.9004 9.18945 48.8691 9.48438 48.8691 9.8125V10.0469C48.8691 10.3242 48.9062 10.582 48.9805 10.8203C49.0586 11.0547 49.1719 11.2598 49.3203 11.4355C49.4688 11.6113 49.6484 11.75 49.8594 11.8516C50.0703 11.9492 50.3105 11.998 50.5801 11.998C50.9199 11.998 51.2227 11.9297 51.4883 11.793C51.7539 11.6562 51.9844 11.4629 52.1797 11.2129L52.9238 11.9336C52.7871 12.1328 52.6094 12.3242 52.3906 12.5078C52.1719 12.6875 51.9043 12.834 51.5879 12.9473C51.2754 13.0605 50.9121 13.1172 50.498 13.1172ZM55.5547 7.86719V13H54.1426V6.66016H55.4902L55.5547 7.86719ZM57.4941 6.61914L57.4824 7.93164C57.3965 7.91602 57.3027 7.9043 57.2012 7.89648C57.1035 7.88867 57.0059 7.88477 56.9082 7.88477C56.666 7.88477 56.4531 7.91992 56.2695 7.99023C56.0859 8.05664 55.9316 8.1543 55.8066 8.2832C55.6855 8.4082 55.5918 8.56055 55.5254 8.74023C55.459 8.91992 55.4199 9.12109 55.4082 9.34375L55.0859 9.36719C55.0859 8.96875 55.125 8.59961 55.2031 8.25977C55.2812 7.91992 55.3984 7.62109 55.5547 7.36328C55.7148 7.10547 55.9141 6.9043 56.1523 6.75977C56.3945 6.61523 56.6738 6.54297 56.9902 6.54297C57.0762 6.54297 57.168 6.55078 57.2656 6.56641C57.3672 6.58203 57.4434 6.59961 57.4941 6.61914ZM59.8906 6.66016V13H58.4727V6.66016H59.8906ZM58.3789 4.99609C58.3789 4.78125 58.4492 4.60352 58.5898 4.46289C58.7344 4.31836 58.9336 4.24609 59.1875 4.24609C59.4375 4.24609 59.6348 4.31836 59.7793 4.46289C59.9238 4.60352 59.9961 4.78125 59.9961 4.99609C59.9961 5.20703 59.9238 5.38281 59.7793 5.52344C59.6348 5.66406 59.4375 5.73438 59.1875 5.73438C58.9336 5.73438 58.7344 5.66406 58.5898 5.52344C58.4492 5.38281 58.3789 5.20703 58.3789 4.99609ZM63.2539 13H61.8359V6.25C61.8359 5.73828 61.9375 5.30664 62.1406 4.95508C62.3477 4.60352 62.6426 4.33594 63.0254 4.15234C63.4121 3.96875 63.8711 3.87695 64.4023 3.87695C64.7148 3.87695 65.0156 3.91016 65.3047 3.97656C65.5977 4.04297 65.9004 4.12695 66.2129 4.22852L65.9961 5.37695C65.7969 5.31055 65.5762 5.24805 65.334 5.18945C65.0918 5.12695 64.8125 5.0957 64.4961 5.0957C64.0703 5.0957 63.7559 5.19336 63.5527 5.38867C63.3535 5.58008 63.2539 5.86719 63.2539 6.25V13ZM64.5254 6.66016V7.69141H60.8633V6.66016H64.5254ZM66.8809 6.66016V13H65.4688V6.66016H66.8809ZM71.252 13.1172C70.7832 13.1172 70.3594 13.041 69.9805 12.8887C69.6055 12.7324 69.2852 12.5156 69.0195 12.2383C68.7578 11.9609 68.5566 11.6348 68.416 11.2598C68.2754 10.8848 68.2051 10.4805 68.2051 10.0469V9.8125C68.2051 9.31641 68.2773 8.86719 68.4219 8.46484C68.5664 8.0625 68.7676 7.71875 69.0254 7.43359C69.2832 7.14453 69.5879 6.92383 69.9395 6.77148C70.291 6.61914 70.6719 6.54297 71.082 6.54297C71.5352 6.54297 71.9316 6.61914 72.2715 6.77148C72.6113 6.92383 72.8926 7.13867 73.1152 7.41602C73.3418 7.68945 73.5098 8.01562 73.6191 8.39453C73.7324 8.77344 73.7891 9.19141 73.7891 9.64844V10.252H68.8906V9.23828H72.3945V9.12695C72.3867 8.87305 72.3359 8.63477 72.2422 8.41211C72.1523 8.18945 72.0137 8.00977 71.8262 7.87305C71.6387 7.73633 71.3887 7.66797 71.0762 7.66797C70.8418 7.66797 70.6328 7.71875 70.4492 7.82031C70.2695 7.91797 70.1191 8.06055 69.998 8.24805C69.877 8.43555 69.7832 8.66211 69.7168 8.92773C69.6543 9.18945 69.623 9.48438 69.623 9.8125V10.0469C69.623 10.3242 69.6602 10.582 69.7344 10.8203C69.8125 11.0547 69.9258 11.2598 70.0742 11.4355C70.2227 11.6113 70.4023 11.75 70.6133 11.8516C70.8242 11.9492 71.0645 11.998 71.334 11.998C71.6738 11.998 71.9766 11.9297 72.2422 11.793C72.5078 11.6562 72.7383 11.4629 72.9336 11.2129L73.6777 11.9336C73.541 12.1328 73.3633 12.3242 73.1445 12.5078C72.9258 12.6875 72.6582 12.834 72.3418 12.9473C72.0293 13.0605 71.666 13.1172 71.252 13.1172ZM78.7578 11.6875V4H80.1758V13H78.8926L78.7578 11.6875ZM74.6328 9.90039V9.77734C74.6328 9.29688 74.6895 8.85938 74.8027 8.46484C74.916 8.06641 75.0801 7.72461 75.2949 7.43945C75.5098 7.15039 75.7715 6.92969 76.0801 6.77734C76.3887 6.62109 76.7363 6.54297 77.123 6.54297C77.5059 6.54297 77.8418 6.61719 78.1309 6.76562C78.4199 6.91406 78.666 7.12695 78.8691 7.4043C79.0723 7.67773 79.2344 8.00586 79.3555 8.38867C79.4766 8.76758 79.5625 9.18945 79.6133 9.6543V10.0469C79.5625 10.5 79.4766 10.9141 79.3555 11.2891C79.2344 11.6641 79.0723 11.9883 78.8691 12.2617C78.666 12.5352 78.418 12.7461 78.125 12.8945C77.8359 13.043 77.498 13.1172 77.1113 13.1172C76.7285 13.1172 76.3828 13.0371 76.0742 12.877C75.7695 12.7168 75.5098 12.4922 75.2949 12.2031C75.0801 11.9141 74.916 11.5742 74.8027 11.1836C74.6895 10.7891 74.6328 10.3613 74.6328 9.90039ZM76.0449 9.77734V9.90039C76.0449 10.1895 76.0703 10.459 76.1211 10.709C76.1758 10.959 76.2598 11.1797 76.373 11.3711C76.4863 11.5586 76.6328 11.707 76.8125 11.8164C76.9961 11.9219 77.2148 11.9746 77.4688 11.9746C77.7891 11.9746 78.0527 11.9043 78.2598 11.7637C78.4668 11.623 78.6289 11.4336 78.7461 11.1953C78.8672 10.9531 78.9492 10.6836 78.9922 10.3867V9.32617C78.9688 9.0957 78.9199 8.88086 78.8457 8.68164C78.7754 8.48242 78.6797 8.30859 78.5586 8.16016C78.4375 8.00781 78.2871 7.89062 78.1074 7.80859C77.9316 7.72266 77.7227 7.67969 77.4805 7.67969C77.2227 7.67969 77.0039 7.73438 76.8242 7.84375C76.6445 7.95312 76.4961 8.10352 76.3789 8.29492C76.2656 8.48633 76.1816 8.70898 76.127 8.96289C76.0723 9.2168 76.0449 9.48828 76.0449 9.77734Z" fill="#6C30A6"/>
<rect x="20" width="61" height="18" stroke="#0B26AD"/>
<g clip-path="url(#clip0_1_31853)">
<path d="M15.9974 6.14931L15.9767 7.32581L12.4652 4.52964V8.99486C12.4659 9.86894 12.2098 10.724 11.7286 11.4537C11.2474 12.1834 10.5624 12.7556 9.75872 13.0992C8.95503 13.4429 8.06808 13.5428 7.20808 13.3866C6.34808 13.2303 5.55295 12.8248 4.92149 12.2204C4.29003 11.6161 3.85008 10.8395 3.65632 9.98714C3.46255 9.13481 3.5235 8.24433 3.8316 7.42636C4.13971 6.60839 4.68137 5.89898 5.3893 5.38629C6.09722 4.8736 6.94019 4.58023 7.81346 4.54263H12.4599V1H8C6.41772 1 4.87096 1.46921 3.55535 2.3483C2.23974 3.22739 1.21436 4.47687 0.608885 5.93873C0.00340948 7.40059 -0.154967 9.00917 0.153784 10.561C0.462535 12.1129 1.22455 13.5384 2.34345 14.6572C3.46236 15.7759 4.8879 16.5378 6.4398 16.8464C7.99171 17.155 9.60027 16.9964 11.0621 16.3908C12.5239 15.7852 13.7732 14.7596 14.6522 13.4439C15.5311 12.1282 16.0002 10.5814 16 8.99914C16 8.96888 16 8.93777 16 8.90666L15.9974 6.14931Z" fill="#6C30A6"/>
<path d="M15.998 6.14931V1L15.9618 1.03625C15.6015 1.3965 12.6135 4.29129 12.4658 4.52964L16.0006 8.15777L15.998 6.14931Z" fill="#D3DBFF"/>
</g>
<defs>
<clipPath id="clip0_1_31853">
<rect width="16" height="16" fill="white" transform="translate(0 1)"/>
</clipPath>
</defs>
</svg>
