<svg width="16" height="16" viewBox="0 0 16 16" fill="none" xmlns="http://www.w3.org/2000/svg">
<g clip-path="url(#clip0_1_54888)">
<path d="M15.9972 5.14931L15.9765 6.32581L12.465 3.52964V7.99486C12.4657 8.86894 12.2095 9.72395 11.7283 10.4537C11.2472 11.1834 10.5622 11.7556 9.75847 12.0992C8.95478 12.4429 8.06783 12.5428 7.20784 12.3866C6.34784 12.2303 5.55271 11.8248 4.92125 11.2204C4.28979 10.6161 3.84984 9.83946 3.65607 8.98714C3.4623 8.13481 3.52326 7.24433 3.83136 6.42636C4.13946 5.60839 4.68113 4.89898 5.38905 4.38629C6.09698 3.8736 6.93995 3.58023 7.81321 3.54263H12.4597V0H7.99976C6.41747 9.06548e-09 4.87072 0.469213 3.55511 1.3483C2.2395 2.22739 1.21412 3.47687 0.608641 4.93873C0.00316534 6.40059 -0.155211 8.00917 0.15354 9.56104C0.462291 11.1129 1.2243 12.5384 2.34321 13.6572C3.46211 14.7759 4.88766 15.5378 6.43956 15.8464C7.99146 16.155 9.60002 15.9964 11.0618 15.3908C12.5236 14.7852 13.773 13.7596 14.6519 12.4439C15.5309 11.1282 15.9999 9.58143 15.9998 7.99914C15.9998 7.96888 15.9998 7.93777 15.9998 7.90666L15.9972 5.14931Z" fill="#6C30A6"/>
<path d="M15.9973 5.14931V0L15.961 0.0362527C15.6008 0.396496 12.6128 3.29129 12.4651 3.52964L15.9999 7.15777L15.9973 5.14931Z" fill="#D3DBFF"/>
</g>
<defs>
<clipPath id="clip0_1_54888">
<rect width="16" height="16" fill="white"/>
</clipPath>
</defs>
</svg>
