<?xml version="1.0" encoding="UTF-8"?>
<svg xmlns="http://www.w3.org/2000/svg" xmlns:xlink="http://www.w3.org/1999/xlink" width="16px" height="16px" viewBox="0 0 16 16" version="1.1">
<g id="surface1">
<path style=" stroke:none;fill-rule:nonzero;fill:rgb(34.901961%,35.294118%,83.137255%);fill-opacity:1;" d="M 15.996094 5.148438 L 15.976562 6.324219 L 12.464844 3.53125 L 12.464844 7.996094 C 12.464844 8.867188 12.210938 9.722656 11.730469 10.453125 C 11.246094 11.183594 10.5625 11.753906 9.757812 12.097656 C 8.953125 12.441406 8.066406 12.542969 7.207031 12.386719 C 6.347656 12.230469 5.554688 11.824219 4.921875 11.21875 C 4.289062 10.617188 3.851562 9.839844 3.65625 8.988281 C 3.460938 8.136719 3.523438 7.246094 3.832031 6.425781 C 4.140625 5.609375 4.679688 4.898438 5.390625 4.386719 C 6.097656 3.875 6.941406 3.582031 7.8125 3.542969 L 12.460938 3.542969 L 12.460938 0 L 8 0 C 6.417969 0 4.871094 0.46875 3.554688 1.347656 C 2.238281 2.226562 1.214844 3.476562 0.609375 4.9375 C 0.00390625 6.402344 -0.15625 8.007812 0.152344 9.5625 C 0.460938 11.113281 1.222656 12.539062 2.34375 13.65625 C 3.460938 14.777344 4.886719 15.539062 6.441406 15.847656 C 7.992188 16.15625 9.601562 15.996094 11.0625 15.390625 C 12.523438 14.785156 13.773438 13.757812 14.652344 12.445312 C 15.53125 11.128906 16 9.582031 16 8 C 16 7.96875 16 7.9375 16 7.90625 Z M 15.996094 5.148438 "/>
<path style=" stroke:none;fill-rule:nonzero;fill:rgb(82.745098%,85.882353%,100%);fill-opacity:1;" d="M 15.996094 5.148438 L 15.996094 0 L 15.960938 0.0351562 C 15.601562 0.398438 12.613281 3.292969 12.464844 3.53125 L 16 7.15625 Z M 15.996094 5.148438 "/>
</g>
</svg>
