<svg width="15" height="14" viewBox="0 0 15 14" fill="none" xmlns="http://www.w3.org/2000/svg">
<g clip-path="url(#clip0_1_33935)">
<path d="M8.08349 0.583289C8.08349 0.428579 8.14495 0.280206 8.25435 0.170809C8.36374 0.0614132 8.51212 -4.49975e-05 8.66683 -4.49975e-05C10.2134 0.00165343 11.6961 0.616781 12.7897 1.71038C13.8833 2.80397 14.4985 4.28672 14.5002 5.83329C14.5002 5.988 14.4387 6.13637 14.3293 6.24577C14.2199 6.35517 14.0715 6.41663 13.9168 6.41663C13.7621 6.41663 13.6137 6.35517 13.5043 6.24577C13.395 6.13637 13.3335 5.988 13.3335 5.83329C13.3321 4.59604 12.84 3.40986 11.9651 2.53499C11.0903 1.66012 9.90408 1.16801 8.66683 1.16662C8.51212 1.16662 8.36374 1.10516 8.25435 0.995768C8.14495 0.886372 8.08349 0.737998 8.08349 0.583289ZM8.66683 3.49996C9.28567 3.49996 9.87916 3.74579 10.3167 4.18337C10.7543 4.62096 11.0002 5.21445 11.0002 5.83329C11.0002 5.988 11.0616 6.13637 11.171 6.24577C11.2804 6.35517 11.4288 6.41663 11.5835 6.41663C11.7382 6.41663 11.8866 6.35517 11.996 6.24577C12.1054 6.13637 12.1668 5.988 12.1668 5.83329C12.1659 4.90532 11.7969 4.01562 11.1407 3.35944C10.4845 2.70326 9.5948 2.33422 8.66683 2.33329C8.51212 2.33329 8.36374 2.39475 8.25435 2.50414C8.14495 2.61354 8.08349 2.76191 8.08349 2.91662C8.08349 3.07133 8.14495 3.21971 8.25435 3.3291C8.36374 3.4385 8.51212 3.49996 8.66683 3.49996ZM13.9711 9.76438C14.3091 10.1034 14.499 10.5626 14.499 11.0413C14.499 11.52 14.3091 11.9792 13.9711 12.3182L13.4402 12.9301C8.66274 17.504 -2.9631 5.88112 1.54024 1.08846L2.21107 0.505122C2.55044 0.176517 3.00553 -0.00526637 3.4779 -0.000899674C3.95027 0.00346702 4.40193 0.193633 4.73516 0.528455C4.75324 0.546539 5.83416 1.95062 5.83416 1.95062C6.15489 2.28757 6.33344 2.73517 6.33268 3.20036C6.33191 3.66555 6.15191 4.11256 5.83007 4.44846L5.15457 5.29779C5.5284 6.20611 6.07803 7.0316 6.77187 7.72685C7.46572 8.42209 8.2901 8.97338 9.19766 9.34904L10.0522 8.66946C10.3882 8.34788 10.8351 8.16808 11.3002 8.16743C11.7652 8.16678 12.2127 8.34532 12.5495 8.66596C12.5495 8.66596 13.953 9.74629 13.9711 9.76438ZM13.1684 10.6125C13.1684 10.6125 11.7725 9.53863 11.7544 9.52054C11.6342 9.40139 11.4719 9.33453 11.3026 9.33453C11.1334 9.33453 10.971 9.40139 10.8508 9.52054C10.8351 9.53688 9.65849 10.4743 9.65849 10.4743C9.57921 10.5374 9.48484 10.5788 9.3847 10.5943C9.28456 10.6099 9.1821 10.5991 9.08741 10.563C7.91168 10.1252 6.84375 9.43989 5.95598 8.55342C5.0682 7.66695 4.38131 6.60004 3.94182 5.42496C3.90286 5.32897 3.89015 5.22434 3.90502 5.12182C3.91988 5.0193 3.96178 4.92259 4.02641 4.84162C4.02641 4.84162 4.96382 3.66446 4.97957 3.64929C5.09873 3.52912 5.16559 3.36673 5.16559 3.1975C5.16559 3.02826 5.09873 2.86588 4.97957 2.74571C4.96149 2.72821 3.88757 1.33112 3.88757 1.33112C3.7656 1.22175 3.60641 1.16318 3.44263 1.16741C3.27886 1.17164 3.12291 1.23835 3.00674 1.35387L2.33591 1.93721C-0.955263 5.89454 9.11949 15.4105 12.5874 12.1333L13.1188 11.5208C13.2434 11.4054 13.3182 11.2462 13.3274 11.0767C13.3367 10.9072 13.2796 10.7408 13.1684 10.6125Z" fill="#4A565F"/>
</g>
<defs>
<clipPath id="clip0_1_33935">
<rect width="14" height="14" fill="white" transform="translate(0.5)"/>
</clipPath>
</defs>
</svg>
