<svg width="100" height="38" viewBox="0 0 100 38" fill="none" xmlns="http://www.w3.org/2000/svg">
<path d="M7.0566 37.6416L0 30.1133H7.0566V37.6416Z" fill="#5245ED"/>
<path d="M0 8C0 3.58172 3.58172 0 8 0H91.6745C96.0928 0 99.6745 3.58172 99.6745 8V22.1132C99.6745 26.5315 96.0928 30.1132 91.6745 30.1132H0V8Z" fill="#1B1571"/>
<path fill-rule="evenodd" clip-rule="evenodd" d="M18.1129 9.12891C18.3251 9.12891 18.5285 9.21319 18.6786 9.36322C18.8286 9.51325 18.9129 9.71673 18.9129 9.92891V10.7289H19.7129C19.9251 10.7289 20.1285 10.8132 20.2786 10.9632C20.4286 11.1133 20.5129 11.3167 20.5129 11.5289C20.5129 11.7411 20.4286 11.9446 20.2786 12.0946C20.1285 12.2446 19.9251 12.3289 19.7129 12.3289H18.9129V13.1289C18.9129 13.3411 18.8286 13.5446 18.6786 13.6946C18.5285 13.8446 18.3251 13.9289 18.1129 13.9289C17.9007 13.9289 17.6972 13.8446 17.5472 13.6946C17.3972 13.5446 17.3129 13.3411 17.3129 13.1289V12.3289H16.5129C16.3007 12.3289 16.0972 12.2446 15.9472 12.0946C15.7972 11.9446 15.7129 11.7411 15.7129 11.5289C15.7129 11.3167 15.7972 11.1133 15.9472 10.9632C16.0972 10.8132 16.3007 10.7289 16.5129 10.7289H17.3129V9.92891C17.3129 9.71673 17.3972 9.51325 17.5472 9.36322C17.6972 9.21319 17.9007 9.12891 18.1129 9.12891ZM18.1129 17.1289C18.3251 17.1289 18.5285 17.2132 18.6786 17.3632C18.8286 17.5132 18.9129 17.7167 18.9129 17.9289V18.7289H19.7129C19.9251 18.7289 20.1285 18.8132 20.2786 18.9632C20.4286 19.1132 20.5129 19.3167 20.5129 19.5289C20.5129 19.7411 20.4286 19.9446 20.2786 20.0946C20.1285 20.2446 19.9251 20.3289 19.7129 20.3289H18.9129V21.1289C18.9129 21.3411 18.8286 21.5446 18.6786 21.6946C18.5285 21.8446 18.3251 21.9289 18.1129 21.9289C17.9007 21.9289 17.6972 21.8446 17.5472 21.6946C17.3972 21.5446 17.3129 21.3411 17.3129 21.1289V20.3289H16.5129C16.3007 20.3289 16.0972 20.2446 15.9472 20.0946C15.7972 19.9446 15.7129 19.7411 15.7129 19.5289C15.7129 19.3167 15.7972 19.1132 15.9472 18.9632C16.0972 18.8132 16.3007 18.7289 16.5129 18.7289H17.3129V17.9289C17.3129 17.7167 17.3972 17.5132 17.5472 17.3632C17.6972 17.2132 17.9007 17.1289 18.1129 17.1289ZM23.7129 9.12891C23.8894 9.12885 24.0611 9.1872 24.201 9.29486C24.3409 9.40251 24.4413 9.55344 24.4865 9.72411L25.4297 13.2889L28.1129 14.8361C28.2345 14.9063 28.3355 15.0073 28.4057 15.1289C28.4759 15.2505 28.5129 15.3885 28.5129 15.5289C28.5129 15.6693 28.4759 15.8073 28.4057 15.9289C28.3355 16.0505 28.2345 16.1515 28.1129 16.2217L25.4297 17.7697L24.4857 21.3337C24.4404 21.5042 24.34 21.655 24.2002 21.7625C24.0604 21.8701 23.8889 21.9284 23.7125 21.9284C23.5361 21.9284 23.3646 21.8701 23.2248 21.7625C23.0849 21.655 22.9846 21.5042 22.9393 21.3337L21.9961 17.7689L19.3129 16.2217C19.1913 16.1515 19.0903 16.0505 19.0201 15.9289C18.9499 15.8073 18.9129 15.6693 18.9129 15.5289C18.9129 15.3885 18.9499 15.2505 19.0201 15.1289C19.0903 15.0073 19.1913 14.9063 19.3129 14.8361L21.9961 13.2881L22.9401 9.72411C22.9853 9.55357 23.0855 9.40275 23.2253 9.2951C23.365 9.18745 23.5365 9.12903 23.7129 9.12891Z" fill="white"/>
<path d="M38.1973 16.4883H36.0234V15.1172H38.1973C38.5332 15.1172 38.8066 15.0625 39.0176 14.9531C39.2285 14.8398 39.3828 14.6836 39.4805 14.4844C39.5781 14.2852 39.627 14.0605 39.627 13.8105C39.627 13.5566 39.5781 13.3203 39.4805 13.1016C39.3828 12.8828 39.2285 12.707 39.0176 12.5742C38.8066 12.4414 38.5332 12.375 38.1973 12.375H36.6328V19.5293H34.875V10.998H38.1973C38.8652 10.998 39.4375 11.1191 39.9141 11.3613C40.3945 11.5996 40.7617 11.9297 41.0156 12.3516C41.2695 12.7734 41.3965 13.2559 41.3965 13.7988C41.3965 14.3496 41.2695 14.8262 41.0156 15.2285C40.7617 15.6309 40.3945 15.9414 39.9141 16.1602C39.4375 16.3789 38.8652 16.4883 38.1973 16.4883ZM50.1172 15.0645V15.4688C50.1172 16.1172 50.0293 16.6992 49.8535 17.2148C49.6777 17.7305 49.4297 18.1699 49.1094 18.5332C48.7891 18.8926 48.4062 19.168 47.9609 19.3594C47.5195 19.5508 47.0293 19.6465 46.4902 19.6465C45.9551 19.6465 45.4648 19.5508 45.0195 19.3594C44.5781 19.168 44.1953 18.8926 43.8711 18.5332C43.5469 18.1699 43.2949 17.7305 43.1152 17.2148C42.9395 16.6992 42.8516 16.1172 42.8516 15.4688V15.0645C42.8516 14.4121 42.9395 13.8301 43.1152 13.3184C43.291 12.8027 43.5391 12.3633 43.8594 12C44.1836 11.6367 44.5664 11.3594 45.0078 11.168C45.4531 10.9766 45.9434 10.8809 46.4785 10.8809C47.0176 10.8809 47.5078 10.9766 47.9492 11.168C48.3945 11.3594 48.7773 11.6367 49.0977 12C49.4219 12.3633 49.6719 12.8027 49.8477 13.3184C50.0273 13.8301 50.1172 14.4121 50.1172 15.0645ZM48.3418 15.4688V15.0527C48.3418 14.5996 48.3008 14.2012 48.2188 13.8574C48.1367 13.5137 48.0156 13.2246 47.8555 12.9902C47.6953 12.7559 47.5 12.5801 47.2695 12.4629C47.0391 12.3418 46.7754 12.2812 46.4785 12.2812C46.1816 12.2812 45.918 12.3418 45.6875 12.4629C45.4609 12.5801 45.2676 12.7559 45.1074 12.9902C44.9512 13.2246 44.832 13.5137 44.75 13.8574C44.668 14.2012 44.627 14.5996 44.627 15.0527V15.4688C44.627 15.918 44.668 16.3164 44.75 16.6641C44.832 17.0078 44.9531 17.2988 45.1133 17.5371C45.2734 17.7715 45.4688 17.9492 45.6992 18.0703C45.9297 18.1914 46.1934 18.252 46.4902 18.252C46.7871 18.252 47.0508 18.1914 47.2812 18.0703C47.5117 17.9492 47.7051 17.7715 47.8613 17.5371C48.0176 17.2988 48.1367 17.0078 48.2188 16.6641C48.3008 16.3164 48.3418 15.918 48.3418 15.4688ZM55.2051 16.4883H53.0312V15.1172H55.2051C55.541 15.1172 55.8145 15.0625 56.0254 14.9531C56.2363 14.8398 56.3906 14.6836 56.4883 14.4844C56.5859 14.2852 56.6348 14.0605 56.6348 13.8105C56.6348 13.5566 56.5859 13.3203 56.4883 13.1016C56.3906 12.8828 56.2363 12.707 56.0254 12.5742C55.8145 12.4414 55.541 12.375 55.2051 12.375H53.6406V19.5293H51.8828V10.998H55.2051C55.873 10.998 56.4453 11.1191 56.9219 11.3613C57.4023 11.5996 57.7695 11.9297 58.0234 12.3516C58.2773 12.7734 58.4043 13.2559 58.4043 13.7988C58.4043 14.3496 58.2773 14.8262 58.0234 15.2285C57.7695 15.6309 57.4023 15.9414 56.9219 16.1602C56.4453 16.3789 55.873 16.4883 55.2051 16.4883ZM64.8281 10.998H66.5801V16.6348C66.5801 17.291 66.4395 17.8438 66.1582 18.293C65.8809 18.7422 65.4961 19.0801 65.0039 19.3066C64.5156 19.5332 63.9531 19.6465 63.3164 19.6465C62.6797 19.6465 62.1133 19.5332 61.6172 19.3066C61.125 19.0801 60.7383 18.7422 60.457 18.293C60.1797 17.8438 60.041 17.291 60.041 16.6348V10.998H61.7988V16.6348C61.7988 17.0176 61.8594 17.3301 61.9805 17.5723C62.1016 17.8145 62.2754 17.9922 62.502 18.1055C62.7324 18.2188 63.0039 18.2754 63.3164 18.2754C63.6367 18.2754 63.9082 18.2188 64.1309 18.1055C64.3574 17.9922 64.5293 17.8145 64.6465 17.5723C64.7676 17.3301 64.8281 17.0176 64.8281 16.6348V10.998ZM74.0117 18.1582V19.5293H69.7168V18.1582H74.0117ZM70.2852 10.998V19.5293H68.5273V10.998H70.2852ZM79.1055 12.457L76.7852 19.5293H74.916L78.0859 10.998H79.2754L79.1055 12.457ZM81.0332 19.5293L78.707 12.457L78.5195 10.998H79.7207L82.9082 19.5293H81.0332ZM80.9277 16.3535V17.7305H76.4219V16.3535H80.9277ZM84.1992 10.998H87.3809C88.0332 10.998 88.5938 11.0957 89.0625 11.291C89.5352 11.4863 89.8984 11.7754 90.1523 12.1582C90.4062 12.541 90.5332 13.0117 90.5332 13.5703C90.5332 14.0273 90.4551 14.4199 90.2988 14.748C90.1465 15.0723 89.9297 15.3438 89.6484 15.5625C89.3711 15.7773 89.0449 15.9492 88.6699 16.0781L88.1133 16.3711H85.3477L85.3359 15H87.3926C87.7012 15 87.957 14.9453 88.1602 14.8359C88.3633 14.7266 88.5156 14.5742 88.6172 14.3789C88.7227 14.1836 88.7754 13.957 88.7754 13.6992C88.7754 13.4258 88.7246 13.1895 88.623 12.9902C88.5215 12.791 88.3672 12.6387 88.1602 12.5332C87.9531 12.4277 87.6934 12.375 87.3809 12.375H85.957V19.5293H84.1992V10.998ZM88.9688 19.5293L87.0234 15.7266L88.8809 15.7148L90.8496 19.4473V19.5293H88.9688Z" fill="white"/>
</svg>
