<?xml version="1.0" encoding="UTF-8"?>
<!DOCTYPE svg PUBLIC "-//W3C//DTD SVG 1.1//EN" "http://www.w3.org/Graphics/SVG/1.1/DTD/svg11.dtd">
<!-- Creator: CorelDRAW 2017 -->
<svg xmlns="http://www.w3.org/2000/svg" xml:space="preserve" width="102px" height="104px" version="1.1" style="shape-rendering:geometricPrecision; text-rendering:geometricPrecision; image-rendering:optimizeQuality; fill-rule:evenodd; clip-rule:evenodd"
viewBox="0 0 102 104"
 xmlns:xlink="http://www.w3.org/1999/xlink">
 <defs>
  <style type="text/css">
   <![CDATA[
    .fil0 {fill:#595AD4}
   ]]>
  </style>
 </defs>
 <g id="Layer_x0020_1">
  <metadata id="CorelCorpID_0Corel-Layer"/>
  <path class="fil0" d="M101.5 0.64c-0.68,-0.67 -1.77,-0.67 -2.45,0l-6.41 6.41 -40.25 0 -50.6 51.02c-1.16,1.15 -1.79,2.69 -1.79,4.32 0,1.62 0.63,3.16 1.79,4.31l35.38 35.38c1.19,1.19 2.74,1.78 4.31,1.78 1.56,0 3.13,-0.6 4.33,-1.8l49.28 -50.6 0 -41.96 6.4 -6.41c0.68,-0.68 0.68,-1.77 0.01,-2.45zm-61.89 99l-35.38 -35.38c-0.5,-0.5 -0.77,-1.17 -0.77,-1.87 0,-0.71 0.27,-1.37 0.78,-1.88l15.3 -15.42 38.97 38.97 -15.16 15.58c-1.03,1.03 -2.71,1.03 -3.74,0zm52.02 -49.58l-30.7 31.53 -38.96 -38.96 31.86 -32.12 35.35 0 -8.35 8.36c-1.37,-0.91 -3,-1.44 -4.76,-1.44 -4.77,0 -8.65,3.87 -8.65,8.64 0,4.77 3.88,8.64 8.65,8.64 4.77,0 8.64,-3.87 8.64,-8.64 0,-1.76 -0.53,-3.39 -1.44,-4.76l8.36 -8.35 0 37.1zm-10.37 -23.99c0,2.86 -2.33,5.19 -5.19,5.19 -2.86,0 -5.19,-2.33 -5.19,-5.19 0,-2.86 2.33,-5.19 5.19,-5.19 0.8,0 1.55,0.2 2.22,0.52l-3.44 3.45c-0.68,0.67 -0.68,1.77 0,2.44 0.33,0.34 0.78,0.51 1.22,0.51 0.44,0 0.89,-0.17 1.22,-0.51l3.45 -3.44c0.32,0.67 0.52,1.42 0.52,2.22z"/>
  <g id="_1787166161696">
  </g>
  <g id="_1787166159744">
  </g>
  <g id="_1787166182240">
  </g>
  <g id="_1787166183360">
  </g>
  <g id="_1787166182400">
  </g>
  <g id="_1787166182752">
  </g>
  <g id="_1787166182880">
  </g>
  <g id="_1787166182816">
  </g>
  <g id="_1787166181216">
  </g>
  <g id="_1787166180032">
  </g>
  <g id="_1787166181696">
  </g>
  <g id="_1787166180064">
  </g>
  <g id="_1787166181728">
  </g>
  <g id="_1787166179456">
  </g>
  <g id="_1787166179072">
  </g>
 </g>
</svg>
