<svg width="57" height="57" viewBox="0 0 57 57" fill="none" xmlns="http://www.w3.org/2000/svg">
<path d="M48.6504 14.3613H47.0918V8.34961C47.0918 3.74563 43.3462 0 38.7422 0H18.2578C13.6538 0 9.9082 3.74563 9.9082 8.34961V14.3613H8.34961C3.74563 14.3613 0 18.107 0 22.7109V36.0703C0 40.6743 3.74563 44.4199 8.34961 44.4199H9.9082V51.9902C9.9082 54.7526 12.1556 57 14.918 57H42.082C44.8444 57 47.0918 54.7526 47.0918 51.9902V44.4199H48.6504C53.2544 44.4199 57 40.6743 57 36.0703V22.7109C57 18.107 53.2544 14.3613 48.6504 14.3613ZM13.248 8.34961C13.248 5.58722 15.4954 3.33984 18.2578 3.33984H38.7422C41.5046 3.33984 43.752 5.58722 43.752 8.34961V14.3613H13.248V8.34961ZM43.752 51.9902C43.752 52.911 43.0028 53.6602 42.082 53.6602H14.918C13.9972 53.6602 13.248 52.911 13.248 51.9902V35.5137H43.752V51.9902ZM53.6602 36.0703C53.6602 38.8327 51.4128 41.0801 48.6504 41.0801H47.0918V35.5137H48.0938C49.016 35.5137 49.7637 34.766 49.7637 33.8438C49.7637 32.9215 49.016 32.1738 48.0938 32.1738H8.90625C7.98401 32.1738 7.23633 32.9215 7.23633 33.8438C7.23633 34.766 7.98401 35.5137 8.90625 35.5137H9.9082V41.0801H8.34961C5.58722 41.0801 3.33984 38.8327 3.33984 36.0703V22.7109C3.33984 19.9486 5.58722 17.7012 8.34961 17.7012H48.6504C51.4128 17.7012 53.6602 19.9486 53.6602 22.7109V36.0703Z" fill="black"/>
</svg>
