<?xml version="1.0" encoding="UTF-8"?>
<!DOCTYPE svg PUBLIC "-//W3C//DTD SVG 1.1//EN" "http://www.w3.org/Graphics/SVG/1.1/DTD/svg11.dtd">
<!-- Creator: CorelDRAW 2017 -->
<svg xmlns="http://www.w3.org/2000/svg" xml:space="preserve" width="44px" height="46px" version="1.1" style="shape-rendering:geometricPrecision; text-rendering:geometricPrecision; image-rendering:optimizeQuality; fill-rule:evenodd; clip-rule:evenodd"
viewBox="0 0 44 45.71"
 xmlns:xlink="http://www.w3.org/1999/xlink">
 <defs>
  <style type="text/css">
   <![CDATA[
    .str2 {stroke:#595AD4;stroke-width:4.24}
    .str0 {stroke:#595AD4;stroke-width:4.24;stroke-linecap:round}
    .str3 {stroke:#595AD4;stroke-width:4.24;stroke-linecap:round;stroke-linejoin:round}
    .str1 {stroke:#595AD4;stroke-width:4.24;stroke-linecap:square}
    .fil0 {fill:none}
    .fil1 {fill:white}
   ]]>
  </style>
 </defs>
 <g id="Layer_x0020_1">
  <metadata id="CorelCorpID_0Corel-Layer"/>
  <g id="_1724493589488">
   <path class="fil0 str0" d="M37.79 22.85l0 16.95c0,2.08 -1.68,3.77 -3.76,3.77l-18.83 0m20.71 -11.3l1.88 0m-3.76 5.65l3.76 0m-3.76 -11.3l3.76 0"/>
   <g>
    <path class="fil1" d="M26.5 41.68l0 -6.27c0,-1.73 -1.7,-3.14 -3.77,-3.14l0 0c-2.07,0 -3.76,1.41 -3.76,3.13l0 6.28 7.53 0zm0 -15.06l0 -4.4c0,-1.72 -1.7,-3.13 -3.77,-3.13 -2.07,0 -3.76,1.41 -3.76,3.14l0 4.39 7.53 0z"/>
    <path id="1" class="fil0 str1" d="M26.5 41.68l0 -6.27c0,-1.73 -1.7,-3.14 -3.77,-3.14l0 0c-2.07,0 -3.76,1.41 -3.76,3.13l0 6.28m7.53 -15.06l0 -4.4c0,-1.72 -1.7,-3.13 -3.77,-3.13 -2.07,0 -3.76,1.41 -3.76,3.14l0 4.39 7.53 0z"/>
   </g>
   <line class="fil0 str0" x1="7.67" y1="36.03" x2="7.67" y2= "43.57" />
   <path class="fil1 str2" d="M5.79 30.42l3.76 0c2.06,0 3.73,1.67 3.73,3.73l0 0c0,2.06 -1.67,3.73 -3.73,3.73l-3.76 0c-2.06,0 -3.73,-1.67 -3.73,-3.73l0 0c0,-2.06 1.67,-3.73 3.73,-3.73z"/>
   <path class="fil1 str3" d="M22.73 2.14l18.52 15.43c0.82,0.68 0.93,1.9 0.24,2.71 -0.36,0.44 -0.9,0.69 -1.47,0.69l-3.73 0 -13.56 -11.3 -13.56 11.3 -3.73 0c-1.06,0 -1.92,-0.86 -1.92,-1.92 0,-0.57 0.26,-1.11 0.7,-1.48l18.51 -15.43z"/>
   <line class="fil0 str0" x1="17.08" y1="26.62" x2="28.38" y2= "26.62" />
  </g>
 </g>
</svg>
