<?xml version="1.0" encoding="UTF-8"?>
<!DOCTYPE svg PUBLIC "-//W3C//DTD SVG 1.1//EN" "http://www.w3.org/Graphics/SVG/1.1/DTD/svg11.dtd">
<!-- Creator: CorelDRAW 2017 -->
<svg xmlns="http://www.w3.org/2000/svg" xml:space="preserve" width="46px" height="46px" version="1.1" style="shape-rendering:geometricPrecision; text-rendering:geometricPrecision; image-rendering:optimizeQuality; fill-rule:evenodd; clip-rule:evenodd"
viewBox="0 0 46 46"
 xmlns:xlink="http://www.w3.org/1999/xlink">
 <defs>
  <style type="text/css">
   <![CDATA[
    .str0 {stroke:#595AD4;stroke-width:4.16}
    .str1 {stroke:#595AD4;stroke-width:4.16;stroke-linecap:round}
    .str2 {stroke:#595AD4;stroke-width:4.16;stroke-linecap:square}
    .fil1 {fill:none}
    .fil0 {fill:white}
   ]]>
  </style>
 </defs>
 <g id="Layer_x0020_1">
  <metadata id="CorelCorpID_0Corel-Layer"/>
  <g id="_1724483034016">
   <path class="fil0 str0" d="M43.24 19.32l0 22.08c0,0.55 -0.19,0.92 -0.55,1.29 -0.37,0.36 -0.74,0.55 -1.29,0.55l-5.52 0 0 -23.92c0,-0.55 0.18,-0.92 0.55,-1.29 0.37,-0.36 0.74,-0.55 1.29,-0.55l3.68 0c0.55,0 0.92,0.19 1.29,0.55 0.36,0.37 0.55,0.74 0.55,1.29z"/>
   <path class="fil1 str1" d="M35.88 24.84l1.84 0m-27.6 -0.92l0 -15.64 25.76 0 0 31.83c0,1.66 -1.66,3.13 -3.68,3.13l-18.4 0m20.24 -11.04l1.84 0m-3.68 5.52l3.68 0m-18.4 -23.92l1.84 0m-1.84 5.52l1.84 0m7.36 -5.52l1.84 0m-1.84 5.52l1.84 0m-20.24 5.52l27.6 0m-27.6 11.04l0 7.36"/>
   <g>
    <path class="fil0" d="M26.68 43.24l0 -9.2c0,-2.02 -1.66,-3.68 -3.68,-3.68l0 0c-2.02,0 -3.68,1.66 -3.68,3.68l0 9.2 7.36 0zm-20.24 -12.88l3.68 0c2.03,0 3.68,1.66 3.68,3.68l0 0c0,2.02 -1.65,3.68 -3.68,3.68l-3.68 0c-2.02,0 -3.68,-1.66 -3.68,-3.68l0 0c0,-2.02 1.66,-3.68 3.68,-3.68l0 0zm30.36 1.84l6.44 0 -6.44 0zm-28.52 -29.44l29.44 0c0.04,0 0.07,0 0.11,0 0.96,0 1.73,0.77 1.73,1.73 0,0.04 0,0.08 0,0.12l0 1.83c0,0.04 0,0.08 0,0.12 0,0.95 -0.77,1.73 -1.73,1.73 -0.04,0 -0.07,0 -0.11,-0.01l-29.44 0c-0.03,0.01 -0.07,0.01 -0.11,0.01 -0.96,0 -1.73,-0.78 -1.73,-1.73 0,-0.04 0,-0.08 0,-0.12l0 -1.84c0,-0.03 0,-0.07 0,-0.11 0,-0.96 0.77,-1.73 1.73,-1.73 0.04,0 0.08,0 0.11,0.01l0 -0.01z"/>
    <path id="1" class="fil1 str2" d="M26.68 43.24l0 -9.2c0,-2.02 -1.66,-3.68 -3.68,-3.68l0 0c-2.02,0 -3.68,1.66 -3.68,3.68l0 9.2 7.36 0zm-20.24 -12.88l3.68 0c2.03,0 3.68,1.66 3.68,3.68l0 0c0,2.02 -1.65,3.68 -3.68,3.68l-3.68 0c-2.02,0 -3.68,-1.66 -3.68,-3.68l0 0c0,-2.02 1.66,-3.68 3.68,-3.68l0 0zm30.36 1.84l6.44 0m-34.96 -29.44l29.44 0c0.04,0 0.07,0 0.11,0 0.96,0 1.73,0.77 1.73,1.73 0,0.04 0,0.08 0,0.12l0 1.83c0,0.04 0,0.08 0,0.12 0,0.95 -0.77,1.73 -1.73,1.73 -0.04,0 -0.07,0 -0.11,-0.01l-29.44 0c-0.03,0.01 -0.07,0.01 -0.11,0.01 -0.96,0 -1.73,-0.78 -1.73,-1.73 0,-0.04 0,-0.08 0,-0.12l0 -1.84c0,-0.03 0,-0.07 0,-0.11 0,-0.96 0.77,-1.73 1.73,-1.73 0.04,0 0.08,0 0.11,0.01l0 -0.01z"/>
   </g>
  </g>
 </g>
</svg>
