<svg width="24" height="24" viewBox="0 0 24 24" fill="none" xmlns="http://www.w3.org/2000/svg">
<path d="M1.5 8.17422V3.97422C1.5 3.13879 1.83187 2.33757 2.42261 1.74683C3.01335 1.15609 3.81457 0.824219 4.65 0.824219H8.85C9.12848 0.824219 9.39555 0.934843 9.59246 1.13176C9.78937 1.32867 9.9 1.59574 9.9 1.87422C9.9 2.1527 9.78937 2.41977 9.59246 2.61668C9.39555 2.81359 9.12848 2.92422 8.85 2.92422H4.65C4.37152 2.92422 4.10445 3.03484 3.90754 3.23176C3.71062 3.42867 3.6 3.69574 3.6 3.97422V8.17422C3.6 8.4527 3.48938 8.71977 3.29246 8.91668C3.09555 9.11359 2.82848 9.22422 2.55 9.22422C2.27152 9.22422 2.00445 9.11359 1.80754 8.91668C1.61062 8.71977 1.5 8.4527 1.5 8.17422ZM19.35 0.824219H15.15C14.8715 0.824219 14.6045 0.934843 14.4075 1.13176C14.2106 1.32867 14.1 1.59574 14.1 1.87422C14.1 2.1527 14.2106 2.41977 14.4075 2.61668C14.6045 2.81359 14.8715 2.92422 15.15 2.92422H19.35C19.6285 2.92422 19.8955 3.03484 20.0925 3.23176C20.2894 3.42867 20.4 3.69574 20.4 3.97422V8.17422C20.4 8.4527 20.5106 8.71977 20.7075 8.91668C20.9044 9.11359 21.1715 9.22422 21.45 9.22422C21.7285 9.22422 21.9955 9.11359 22.1925 8.91668C22.3894 8.71977 22.5 8.4527 22.5 8.17422V3.97422C22.5 3.13879 22.1681 2.33757 21.5774 1.74683C20.9866 1.15609 20.1854 0.824219 19.35 0.824219ZM21.45 13.4242C21.1715 13.4242 20.9044 13.5348 20.7075 13.7318C20.5106 13.9287 20.4 14.1957 20.4 14.4742V18.6742C20.4 18.9527 20.2894 19.2198 20.0925 19.4167C19.8955 19.6136 19.6285 19.7242 19.35 19.7242H15.15C14.8715 19.7242 14.6045 19.8348 14.4075 20.0318C14.2106 20.2287 14.1 20.4957 14.1 20.7742C14.1 21.0527 14.2106 21.3198 14.4075 21.5167C14.6045 21.7136 14.8715 21.8242 15.15 21.8242H19.35C20.1854 21.8242 20.9866 21.4923 21.5774 20.9016C22.1681 20.3109 22.5 19.5096 22.5 18.6742V14.4742C22.5 14.1957 22.3894 13.9287 22.1925 13.7318C21.9955 13.5348 21.7285 13.4242 21.45 13.4242ZM8.85 19.7242H4.65C4.37152 19.7242 4.10445 19.6136 3.90754 19.4167C3.71062 19.2198 3.6 18.9527 3.6 18.6742V14.4742C3.6 14.1957 3.48938 13.9287 3.29246 13.7318C3.09555 13.5348 2.82848 13.4242 2.55 13.4242C2.27152 13.4242 2.00445 13.5348 1.80754 13.7318C1.61062 13.9287 1.5 14.1957 1.5 14.4742V18.6742C1.5 19.5096 1.83187 20.3109 2.42261 20.9016C3.01335 21.4923 3.81457 21.8242 4.65 21.8242H8.85C9.12848 21.8242 9.39555 21.7136 9.59246 21.5167C9.78937 21.3198 9.9 21.0527 9.9 20.7742C9.9 20.4957 9.78937 20.2287 9.59246 20.0318C9.39555 19.8348 9.12848 19.7242 8.85 19.7242ZM7.8 5.02422H16.2C16.757 5.02422 17.2911 5.24547 17.6849 5.63929C18.0787 6.03312 18.3 6.56726 18.3 7.12422V15.5242C18.3 16.0812 18.0787 16.6153 17.6849 17.0091C17.2911 17.403 16.757 17.6242 16.2 17.6242H7.8C7.24304 17.6242 6.7089 17.403 6.31508 17.0091C5.92125 16.6153 5.7 16.0812 5.7 15.5242V7.12422C5.7 6.56726 5.92125 6.03312 6.31508 5.63929C6.7089 5.24547 7.24304 5.02422 7.8 5.02422ZM16.2 7.12422H7.8V15.5242H16.2V7.12422Z" fill="#4A565F"/>
</svg>
