<svg width="16" height="16" viewBox="0 0 16 16" fill="none" xmlns="http://www.w3.org/2000/svg">
<path d="M1 5.45078V2.65078C1 2.09383 1.22125 1.55968 1.61508 1.16586C2.0089 0.772031 2.54305 0.550781 3.1 0.550781H5.9C6.08565 0.550781 6.2637 0.624531 6.39497 0.755806C6.52625 0.887082 6.6 1.06513 6.6 1.25078C6.6 1.43643 6.52625 1.61448 6.39497 1.74576C6.2637 1.87703 6.08565 1.95078 5.9 1.95078H3.1C2.91435 1.95078 2.7363 2.02453 2.60503 2.15581C2.47375 2.28708 2.4 2.46513 2.4 2.65078V5.45078C2.4 5.63643 2.32625 5.81448 2.19497 5.94576C2.0637 6.07703 1.88565 6.15078 1.7 6.15078C1.51435 6.15078 1.3363 6.07703 1.20503 5.94576C1.07375 5.81448 1 5.63643 1 5.45078ZM12.9 0.550781H10.1C9.91435 0.550781 9.7363 0.624531 9.60503 0.755806C9.47375 0.887082 9.4 1.06513 9.4 1.25078C9.4 1.43643 9.47375 1.61448 9.60503 1.74576C9.7363 1.87703 9.91435 1.95078 10.1 1.95078H12.9C13.0857 1.95078 13.2637 2.02453 13.395 2.15581C13.5263 2.28708 13.6 2.46513 13.6 2.65078V5.45078C13.6 5.63643 13.6737 5.81448 13.805 5.94576C13.9363 6.07703 14.1143 6.15078 14.3 6.15078C14.4857 6.15078 14.6637 6.07703 14.795 5.94576C14.9263 5.81448 15 5.63643 15 5.45078V2.65078C15 2.09383 14.7788 1.55968 14.3849 1.16586C13.9911 0.772031 13.457 0.550781 12.9 0.550781ZM14.3 8.95078C14.1143 8.95078 13.9363 9.02453 13.805 9.15581C13.6737 9.28708 13.6 9.46513 13.6 9.65078V12.4508C13.6 12.6364 13.5263 12.8145 13.395 12.9458C13.2637 13.077 13.0857 13.1508 12.9 13.1508H10.1C9.91435 13.1508 9.7363 13.2245 9.60503 13.3558C9.47375 13.4871 9.4 13.6651 9.4 13.8508C9.4 14.0364 9.47375 14.2145 9.60503 14.3458C9.7363 14.477 9.91435 14.5508 10.1 14.5508H12.9C13.457 14.5508 13.9911 14.3295 14.3849 13.9357C14.7788 13.5419 15 13.0077 15 12.4508V9.65078C15 9.46513 14.9263 9.28708 14.795 9.15581C14.6637 9.02453 14.4857 8.95078 14.3 8.95078ZM5.9 13.1508H3.1C2.91435 13.1508 2.7363 13.077 2.60503 12.9458C2.47375 12.8145 2.4 12.6364 2.4 12.4508V9.65078C2.4 9.46513 2.32625 9.28708 2.19497 9.15581C2.0637 9.02453 1.88565 8.95078 1.7 8.95078C1.51435 8.95078 1.3363 9.02453 1.20503 9.15581C1.07375 9.28708 1 9.46513 1 9.65078V12.4508C1 13.0077 1.22125 13.5419 1.61508 13.9357C2.0089 14.3295 2.54305 14.5508 3.1 14.5508H5.9C6.08565 14.5508 6.2637 14.477 6.39497 14.3458C6.52625 14.2145 6.6 14.0364 6.6 13.8508C6.6 13.6651 6.52625 13.4871 6.39497 13.3558C6.2637 13.2245 6.08565 13.1508 5.9 13.1508ZM5.2 3.35078H10.8C11.1713 3.35078 11.5274 3.49828 11.7899 3.76083C12.0525 4.02338 12.2 4.37948 12.2 4.75078V10.3508C12.2 10.7221 12.0525 11.0782 11.7899 11.3407C11.5274 11.6033 11.1713 11.7508 10.8 11.7508H5.2C4.8287 11.7508 4.4726 11.6033 4.21005 11.3407C3.9475 11.0782 3.8 10.7221 3.8 10.3508V4.75078C3.8 4.37948 3.9475 4.02338 4.21005 3.76083C4.4726 3.49828 4.8287 3.35078 5.2 3.35078ZM10.8 4.75078H5.2V10.3508H10.8V4.75078Z" fill="#4A565F"/>
</svg>
