<svg xmlns="http://www.w3.org/2000/svg" viewBox="0 0 254 56"><defs><style>.cls-1{opacity:0.11;}.cls-2{fill:#ebb342;}.cls-3{fill:#1e2f4c;}.cls-4{fill:#7eafa8;}.cls-5{fill:#d1475b;}.cls-6{fill:#e48a74;}.cls-7{fill:#497893;}.cls-8{fill:#7cbad1;}.cls-9{fill:#f7c576;}.cls-10{fill:#d3a976;}.cls-11{fill:#9dbced;}.cls-12{fill:#ffb380;}.cls-13{fill:#28b9e0;}.cls-14{fill:#84aff4;}.cls-15{fill:#9f5adb;}.cls-16{fill:#0e7c96;}</style></defs><title>Range-1</title><g id="Layer_1" data-name="Layer 1" class="cls-1"><rect class="cls-2" y="50" width="14" height="6" rx="2"/><rect class="cls-3" x="16" y="48" width="14" height="8" rx="2"/><rect class="cls-4" x="32" y="48" width="14" height="8" rx="2"/><rect class="cls-5" x="48" y="44" width="14" height="12" rx="2"/><rect class="cls-6" x="64" y="35" width="14" height="21" rx="2"/><rect class="cls-7" x="80" y="21" width="14" height="35" rx="2"/><rect class="cls-8" x="96" y="18" width="14" height="38" rx="2"/><rect class="cls-9" x="112" width="14" height="56" rx="2"/><rect class="cls-10" x="128" y="8" width="14" height="48" rx="2"/><rect class="cls-11" x="144" y="24" width="14" height="32" rx="2"/><rect class="cls-12" x="160" y="33" width="14" height="23" rx="2"/><rect class="cls-13" x="176" y="8" width="14" height="48" rx="2"/><rect class="cls-14" x="192" y="33" width="14" height="23" rx="2"/><rect class="cls-15" x="208" y="39" width="14" height="17" rx="2"/><rect class="cls-3" x="224" y="44" width="14" height="12" rx="2"/><rect class="cls-16" x="240" y="50" width="14" height="6" rx="2"/></g></svg>