<svg width="20" height="20" viewBox="0 0 20 20" fill="none" xmlns="http://www.w3.org/2000/svg">
<path d="M16.4912 12.4406C14.7746 14.149 12.3162 14.674 10.1579 13.999L6.23289 17.9156C5.94955 18.2073 5.39122 18.3823 4.99122 18.324L3.17455 18.074C2.57455 17.9906 2.01622 17.424 1.92455 16.824L1.67455 15.0073C1.61622 14.6073 1.80789 14.049 2.08289 13.7656L5.99955 9.84896C5.33289 7.68229 5.84955 5.22396 7.56622 3.51563C10.0246 1.05729 14.0162 1.05729 16.4829 3.51563C18.9496 5.97396 18.9496 9.98229 16.4912 12.4406Z" stroke="#5CB4C8" stroke-width="2" stroke-miterlimit="10" stroke-linecap="round" stroke-linejoin="round"/>
<path d="M5.74121 14.5742L7.65788 16.4909" stroke="#5CB4C8" stroke-width="2" stroke-miterlimit="10" stroke-linecap="round" stroke-linejoin="round"/>
<path d="M12.083 9.16797C12.7734 9.16797 13.333 8.60832 13.333 7.91797C13.333 7.22761 12.7734 6.66797 12.083 6.66797C11.3927 6.66797 10.833 7.22761 10.833 7.91797C10.833 8.60832 11.3927 9.16797 12.083 9.16797Z" stroke="#5CB4C8" stroke-width="2" stroke-linecap="round" stroke-linejoin="round"/>
</svg>
