<svg width="40" height="40" viewBox="0 0 40 40" fill="none" xmlns="http://www.w3.org/2000/svg">
<g clip-path="url(#clip0_1_28890)">
<path d="M8.43079 7.32031H31.5695V35.7221H8.43079V7.32031Z" fill="#F78C8C"/>
<path opacity="0.1" d="M29.6942 7.32031H31.5692V35.7221H29.6942V7.32031Z" fill="black"/>
<path d="M12.3944 23.625V32.0207H17.5989V23.625C17.5989 23.4523 17.4588 23.3125 17.2864 23.3125H12.7069C12.5342 23.3125 12.3944 23.4523 12.3944 23.625Z" fill="#F0F2DC"/>
<path d="M11.6104 32.1852V33.7056C11.6104 33.7975 11.6846 33.8716 11.7761 33.8716H18.2169C18.3087 33.8716 18.3829 33.7972 18.3829 33.7056V32.1852C18.3829 32.0937 18.3084 32.0195 18.2169 32.0195H11.7761C11.6846 32.0195 11.6104 32.0937 11.6104 32.1852Z" fill="#8B9CD8"/>
<path d="M10.864 34.0368V35.5575C10.864 35.649 10.9381 35.7232 11.0297 35.7232H18.9633C19.0549 35.7232 19.1293 35.649 19.1293 35.5575V34.0368C19.1293 33.9453 19.0549 33.8711 18.9633 33.8711H11.0297C10.9381 33.8711 10.864 33.9453 10.864 34.0368Z" fill="#5D78C7"/>
<path d="M12.6559 12.1484V15.6619H17.5989V12.1484C17.5989 11.9757 17.4588 11.8359 17.2864 11.8359H12.9684C12.7957 11.8359 12.6559 11.9757 12.6559 12.1484Z" fill="#516789"/>
<path d="M22.6627 12.1484V15.6619H27.6056V12.1484C27.6056 11.9757 27.4658 11.8359 27.2931 11.8359H22.9752C22.8027 11.8359 22.6627 11.9757 22.6627 12.1484Z" fill="#516789"/>
<path d="M22.6627 23.625V27.1385H27.6056V23.625C27.6056 23.4523 27.4658 23.3125 27.2931 23.3125H22.9752C22.8027 23.3125 22.6627 23.4523 22.6627 23.625Z" fill="#516789"/>
<path d="M11.8488 15.8203V17.2107C11.8488 17.2971 11.9186 17.3669 12.005 17.3669H17.9883C18.0746 17.3669 18.1445 17.2971 18.1445 17.2107V15.8203C18.1445 15.7339 18.0746 15.6641 17.9883 15.6641H12.005C11.9186 15.6641 11.8488 15.7339 11.8488 15.8203Z" fill="#F0F2DC"/>
<path d="M21.8555 15.8203V17.2107C21.8555 17.2971 21.9254 17.3669 22.0117 17.3669H27.995C28.0814 17.3669 28.1512 17.2971 28.1512 17.2107V15.8203C28.1512 15.7339 28.0814 15.6641 27.995 15.6641H22.0117C21.9257 15.6641 21.8555 15.7339 21.8555 15.8203Z" fill="#F0F2DC"/>
<path d="M21.8555 27.293V28.6833C21.8555 28.7697 21.9254 28.8396 22.0117 28.8396H27.995C28.0814 28.8396 28.1512 28.7697 28.1512 28.6833V27.293C28.1512 27.2066 28.0814 27.1367 27.995 27.1367H22.0117C21.9257 27.1367 21.8555 27.2066 21.8555 27.293Z" fill="#F0F2DC"/>
<path d="M6.92505 7.16522V4.49219C6.92505 4.40582 6.99493 4.33594 7.0813 4.33594H32.9187C33.0051 4.33594 33.075 4.40582 33.075 4.49219V7.16522C33.075 7.25159 33.0051 7.32147 32.9187 7.32147H7.0813C6.99493 7.32147 6.92505 7.25159 6.92505 7.16522Z" fill="#F0F2DC"/>
<path d="M32.9187 4.33594H30.9442C31.0306 4.33594 31.1005 4.40582 31.1005 4.49219V7.16522C31.1005 7.25159 31.0306 7.32147 30.9442 7.32147H32.9187C33.0051 7.32147 33.075 7.25159 33.075 7.16522V4.49219C33.075 4.40582 33.0051 4.33594 32.9187 4.33594Z" fill="#CCC5A9"/>
<path d="M39.4141 26.9559C39.4141 28.6103 38.0731 29.9509 36.4191 29.9509C34.765 29.9509 33.4241 28.6103 33.4241 26.9559C33.4241 25.3019 34.765 23.9609 36.4191 23.9609C38.0731 23.9609 39.4141 25.3019 39.4141 26.9559Z" fill="#8FC264"/>
<path d="M36.4191 23.9609C36.0953 23.9609 35.7837 24.0128 35.4916 24.108C36.6916 24.4984 37.5592 25.6257 37.5592 26.9559C37.5592 28.2862 36.6916 29.4132 35.4916 29.8038C35.7837 29.8987 36.0953 29.9509 36.4191 29.9509C38.0731 29.9509 39.4141 28.61 39.4141 26.9559C39.4141 25.3019 38.0731 23.9609 36.4191 23.9609Z" fill="#649B45"/>
<path d="M6.57593 26.9559C6.57593 28.6103 5.23499 29.9509 3.58093 29.9509C1.92688 29.9509 0.585938 28.6103 0.585938 26.9559C0.585938 25.3019 1.92688 23.9609 3.58093 23.9609C5.23499 23.9609 6.57593 25.3019 6.57593 26.9559Z" fill="#8FC264"/>
<path d="M3.58093 23.9609C3.25714 23.9609 2.94556 24.0128 2.6535 24.108C3.85345 24.4984 4.72107 25.6257 4.72107 26.9559C4.72107 28.2862 3.85345 29.4132 2.6535 29.8038C2.94556 29.8987 3.25714 29.9509 3.58093 29.9509C5.23499 29.9509 6.57593 28.61 6.57593 26.9559C6.57593 25.3019 5.23499 23.9609 3.58093 23.9609Z" fill="#649B45"/>
<path d="M13.8541 27.0859C13.5306 27.0859 13.2681 27.3484 13.2681 27.6719V27.9844C13.2681 28.3079 13.5306 28.5703 13.8541 28.5703C14.1779 28.5703 14.44 28.3079 14.44 27.9844V27.6719C14.44 27.3484 14.1779 27.0859 13.8541 27.0859Z" fill="black"/>
<path d="M17.2864 11.25H12.9684C12.4728 11.25 12.07 11.6528 12.07 12.1484V15.076H12.005C11.5958 15.076 11.2628 15.4089 11.2628 15.8182V17.2086C11.2628 17.6178 11.5958 17.9507 12.005 17.9507H17.9883C18.3975 17.9507 18.7305 17.6178 18.7305 17.2086V15.8182C18.7305 15.4767 18.4988 15.1886 18.1848 15.1022V12.1484C18.1848 11.6528 17.7817 11.25 17.2864 11.25ZM13.2419 12.4219H17.0129V15.076H13.2419V12.4219ZM17.5586 16.7789H12.4347V16.2479H17.5586V16.7789Z" fill="#1B1464"/>
<path d="M27.2931 11.25H22.9752C22.4799 11.25 22.0767 11.6528 22.0767 12.1484V15.076H22.0117C21.6025 15.076 21.2695 15.4089 21.2695 15.8182V17.2086C21.2695 17.6178 21.6025 17.9507 22.0117 17.9507H27.995C28.4042 17.9507 28.7372 17.6178 28.7372 17.2086V15.8182C28.7372 15.4767 28.5059 15.1886 28.1915 15.1022V12.1484C28.1915 11.6528 27.7884 11.25 27.2931 11.25ZM23.2486 12.4219H27.0197V15.076H23.2486V12.4219ZM27.5653 16.7789H22.4414V16.2479H27.5653V16.7789Z" fill="#1B1464"/>
<path d="M21.2695 28.6851C21.2695 29.0944 21.6025 29.4273 22.0117 29.4273H27.995C28.4042 29.4273 28.7372 29.0944 28.7372 28.6851V27.2947C28.7372 26.9536 28.5059 26.6655 28.1915 26.5791V23.625C28.1915 23.1297 27.7887 22.7266 27.2931 22.7266H22.9752C22.4799 22.7266 22.0767 23.1297 22.0767 23.625V26.5526H22.0117C21.6025 26.5526 21.2695 26.8855 21.2695 27.2947V28.6851ZM27.5653 28.2554H22.4414V27.7244H27.5653V28.2554ZM23.2486 23.8984H27.0197V26.5526H23.2486V23.8984Z" fill="#1B1464"/>
<path d="M40 26.9553C40 24.9808 38.3936 23.3746 36.4191 23.3746C36.1099 23.3746 35.8029 23.414 35.5063 23.4921C35.1932 23.5745 35.0064 23.8947 35.0885 24.2078C35.1709 24.5206 35.4913 24.7076 35.8041 24.6252C36.0037 24.5731 36.2103 24.5465 36.4191 24.5465C37.7472 24.5465 38.8281 25.6271 38.8281 26.9553C38.8281 28.0817 38.0511 29.0298 37.005 29.2923V28.0084C37.005 27.6849 36.7426 27.4225 36.4191 27.4225C36.0953 27.4225 35.8331 27.6849 35.8331 28.0084V29.2923C34.787 29.0302 34.01 28.0817 34.01 26.9556C34.01 26.5326 34.1208 26.1166 34.3311 25.7529C34.4928 25.4727 34.397 25.1144 34.1165 24.9524C33.8364 24.7906 33.4781 24.8868 33.316 25.1669C33.0032 25.7086 32.8381 26.3272 32.8381 26.9556C32.8381 28.7305 34.1364 30.2081 35.8331 30.4886V35.1373H32.1552V7.90741H32.9187C33.3279 7.90741 33.6609 7.57446 33.6609 7.16522V4.49219C33.6609 4.08295 33.3279 3.75 32.9187 3.75H7.0813C6.67206 3.75 6.33911 4.08295 6.33911 4.49219V7.16522C6.33911 7.57446 6.67206 7.90741 7.0813 7.90741H7.84485V15.6027C7.84485 15.9265 8.10699 16.1887 8.43079 16.1887C8.75427 16.1887 9.01672 15.9265 9.01672 15.6027V7.90741H13.4241C13.7479 7.90741 14.01 7.64526 14.01 7.32147C14.01 6.99799 13.7479 6.73553 13.4241 6.73553H10.4675H7.51099V4.92188H32.489V6.73553H15.7678C15.444 6.73553 15.1819 6.99799 15.1819 7.32147C15.1819 7.64526 15.444 7.90741 15.7678 7.90741H30.9833V35.1373H19.7153V34.0369C19.7153 33.6243 19.3808 33.2883 18.9688 33.2852V32.1848C18.9688 31.7703 18.6316 31.4331 18.2169 31.4331H18.1848V23.6234C18.1848 23.1277 17.7817 22.7249 17.2864 22.7249H12.7069C12.2116 22.7249 11.8085 23.1277 11.8085 23.6234V31.4331H11.7761C11.3617 31.4331 11.0245 31.7703 11.0245 32.1848V33.2852C10.6122 33.2883 10.278 33.6243 10.278 34.0369V35.1373H9.01672V17.9465C9.01672 17.623 8.75427 17.3605 8.43079 17.3605C8.10699 17.3605 7.84485 17.623 7.84485 17.9465V35.1373H4.16687V30.4886C5.86365 30.2078 7.16187 28.7305 7.16187 26.9556C7.16187 24.9811 5.55542 23.3746 3.58093 23.3746C3.26935 23.3746 2.95959 23.4149 2.66083 23.494C2.34802 23.577 2.16156 23.8977 2.24457 24.2105C2.32758 24.5233 2.64832 24.7098 2.96112 24.6268C3.16223 24.5734 3.37067 24.5465 3.58093 24.5465C4.90936 24.5465 5.98999 25.6271 5.98999 26.9556C5.98999 28.0817 5.21301 29.0302 4.16687 29.2923V28.0084C4.16687 27.6849 3.90472 27.4225 3.58093 27.4225C3.25745 27.4225 2.995 27.6849 2.995 28.0084V29.2923C1.94885 29.0302 1.17188 28.0817 1.17188 26.9553C1.17188 26.5323 1.28296 26.1166 1.49292 25.7529C1.65466 25.4727 1.55853 25.1144 1.27838 24.9524C0.997925 24.7906 0.639648 24.8868 0.477905 25.1669C0.1651 25.7086 0 26.3269 0 26.9553C0 28.7305 1.29822 30.2078 2.995 30.4883V35.1373H2.31171C1.98822 35.1373 1.72577 35.3995 1.72577 35.7233C1.72577 36.0468 1.98822 36.3092 2.31171 36.3092H37.6883C38.0118 36.3092 38.2742 36.0468 38.2742 35.7233C38.2742 35.3995 38.0118 35.1373 37.6883 35.1373H37.005V30.4883C38.7018 30.2078 40 28.7305 40 26.9553ZM12.196 32.605H17.7969V33.2852H12.1964L12.196 32.605ZM12.9803 23.8968H17.0126V31.4331H12.9803V23.8968ZM11.4499 35.1373V34.4571H18.5434V35.1373H11.4499Z" fill="#1B1464"/>
</g>
<defs>
<clipPath id="clip0_1_28890">
<rect width="40" height="40" fill="white"/>
</clipPath>
</defs>
</svg>
