<svg width="30" height="30" viewBox="0 0 30 30" fill="none" xmlns="http://www.w3.org/2000/svg">
<g clip-path="url(#clip0_1_28669)">
<path d="M10.3906 20.3125C10.148 20.3125 9.95117 20.5093 9.95117 20.752V20.9863C9.95117 21.2289 10.148 21.4258 10.3906 21.4258C10.6335 21.4258 10.8301 21.2289 10.8301 20.9863V20.752C10.8301 20.5093 10.6335 20.3125 10.3906 20.3125Z" fill="black"/>
<path d="M12.9647 8.4375H9.72624C9.35454 8.4375 9.05241 8.73962 9.05241 9.11133V11.307H9.00366C8.69673 11.307 8.44702 11.5567 8.44702 11.8636V12.9064C8.44702 13.2133 8.69673 13.4631 9.00366 13.4631H13.4911C13.798 13.4631 14.0478 13.2133 14.0478 12.9064V11.8636C14.0478 11.6075 13.874 11.3914 13.6385 11.3267V9.11133C13.6385 8.73962 13.3362 8.4375 12.9647 8.4375ZM9.93132 9.31641H12.7596V11.307H9.93132V9.31641ZM13.1689 12.5842H9.32593V12.1859H13.1689V12.5842Z" fill="black"/>
<path d="M20.4698 8.4375H17.2314C16.8599 8.4375 16.5575 8.73962 16.5575 9.11133V11.307H16.5088C16.2019 11.307 15.9521 11.5567 15.9521 11.8636V12.9064C15.9521 13.2133 16.2019 13.4631 16.5088 13.4631H20.9962C21.3032 13.4631 21.5529 13.2133 21.5529 12.9064V11.8636C21.5529 11.6075 21.3794 11.3914 21.1436 11.3267V9.11133C21.1436 8.73962 20.8413 8.4375 20.4698 8.4375ZM17.4364 9.31641H20.2647V11.307H17.4364V9.31641ZM20.674 12.5842H16.8311V12.1859H20.674V12.5842Z" fill="black"/>
<path d="M15.9521 21.5119C15.9521 21.8188 16.2019 22.0685 16.5088 22.0685H20.9962C21.3032 22.0685 21.5529 21.8188 21.5529 21.5119V20.4691C21.5529 20.2132 21.3794 19.9971 21.1436 19.9324V17.7168C21.1436 17.3453 20.8415 17.043 20.4698 17.043H17.2314C16.8599 17.043 16.5575 17.3453 16.5575 17.7168V19.9125H16.5088C16.2019 19.9125 15.9521 20.1622 15.9521 20.4691V21.5119ZM20.674 21.1896H16.8311V20.7914H20.674V21.1896ZM17.4364 17.9219H20.2647V19.9125H17.4364V17.9219Z" fill="black"/>
<path d="M30 20.2164C30 18.7356 28.7952 17.531 27.3143 17.531C27.0824 17.531 26.8522 17.5605 26.6297 17.6191C26.3949 17.6809 26.2548 17.921 26.3164 18.1558C26.3782 18.3904 26.6185 18.5307 26.8531 18.4689C27.0028 18.4298 27.1577 18.4099 27.3143 18.4099C28.3104 18.4099 29.1211 19.2204 29.1211 20.2164C29.1211 21.0612 28.5384 21.7724 27.7538 21.9692V21.0063C27.7538 20.7637 27.5569 20.5669 27.3143 20.5669C27.0715 20.5669 26.8748 20.7637 26.8748 21.0063V21.9692C26.0902 21.7726 25.5075 21.0612 25.5075 20.2167C25.5075 19.8994 25.5906 19.5875 25.7483 19.3147C25.8696 19.1045 25.7977 18.8358 25.5874 18.7143C25.3773 18.593 25.1086 18.6651 24.987 18.8752C24.7524 19.2815 24.6286 19.7454 24.6286 20.2167C24.6286 21.5479 25.6023 22.6561 26.8748 22.8664V26.353H24.1164V5.93056H24.689C24.996 5.93056 25.2457 5.68085 25.2457 5.37392V3.36914C25.2457 3.06221 24.996 2.8125 24.689 2.8125H5.31097C5.00404 2.8125 4.75433 3.06221 4.75433 3.36914V5.37392C4.75433 5.68085 5.00404 5.93056 5.31097 5.93056H5.88364V11.702C5.88364 11.9449 6.08025 12.1415 6.32309 12.1415C6.5657 12.1415 6.76254 11.9449 6.76254 11.702V5.93056H10.0681C10.3109 5.93056 10.5075 5.73395 10.5075 5.4911C10.5075 5.24849 10.3109 5.05165 10.0681 5.05165H5.63324V3.69141H24.3668V5.05165H11.8259C11.583 5.05165 11.3864 5.24849 11.3864 5.4911C11.3864 5.73395 11.583 5.93056 11.8259 5.93056H23.2375V26.353H14.7865V25.5276C14.7865 25.2182 14.5356 24.9662 14.2266 24.9639V24.1386C14.2266 23.8277 13.9737 23.5748 13.6626 23.5748H13.6386V17.7175C13.6386 17.3458 13.3363 17.0437 12.9648 17.0437H9.53018C9.15871 17.0437 8.85635 17.3458 8.85635 17.7175V23.5748H8.83209C8.52127 23.5748 8.26836 23.8277 8.26836 24.1386V24.9639C7.95914 24.9662 7.70851 25.2182 7.70851 25.5276V26.353H6.76254V13.4599C6.76254 13.2172 6.5657 13.0204 6.32309 13.0204C6.08025 13.0204 5.88364 13.2172 5.88364 13.4599V26.353H3.12515V22.8664C4.39774 22.6559 5.3714 21.5479 5.3714 20.2167C5.3714 18.7358 4.16656 17.531 2.6857 17.531C2.45201 17.531 2.2197 17.5612 1.99562 17.6205C1.76102 17.6827 1.62117 17.9233 1.68343 18.1579C1.74568 18.3925 1.98624 18.5323 2.22084 18.4701C2.37167 18.43 2.528 18.4099 2.6857 18.4099C3.68202 18.4099 4.49249 19.2204 4.49249 20.2167C4.49249 21.0612 3.90976 21.7726 3.12515 21.9692V21.0063C3.12515 20.7637 2.92854 20.5669 2.6857 20.5669C2.44308 20.5669 2.24625 20.7637 2.24625 21.0063V21.9692C1.46164 21.7726 0.878906 21.0612 0.878906 20.2164C0.878906 19.8992 0.962219 19.5875 1.11969 19.3147C1.241 19.1045 1.1689 18.8358 0.958786 18.7143C0.748444 18.593 0.479736 18.6651 0.358429 18.8752C0.123825 19.2815 0 19.7452 0 20.2164C0 21.5479 0.973663 22.6559 2.24625 22.8662V26.353H1.73378C1.49117 26.353 1.29433 26.5496 1.29433 26.7924C1.29433 27.0351 1.49117 27.2319 1.73378 27.2319H28.2662C28.5088 27.2319 28.7057 27.0351 28.7057 26.7924C28.7057 26.5496 28.5088 26.353 28.2662 26.353H27.7538V22.8662C29.0263 22.6559 30 21.5479 30 20.2164ZM9.14703 24.4537H13.3477V24.9639H9.14726V24.4537H9.14703ZM9.73526 17.9226H12.7595V23.5748H9.73526V17.9226ZM8.58742 26.353V25.8428H13.9075V26.353H8.58742Z" fill="black"/>
</g>
<defs>
<clipPath id="clip0_1_28669">
<rect width="30" height="30" fill="white"/>
</clipPath>
</defs>
</svg>
