<svg width="24" height="24" viewBox="0 0 24 24" fill="none" xmlns="http://www.w3.org/2000/svg">
<g clip-path="url(#clip0_1_55373)">
<path d="M12 5.34375C8.32973 5.34375 5.34375 8.32973 5.34375 12C5.34375 15.6703 8.32973 18.6562 12 18.6562C15.6703 18.6562 18.6562 15.6703 18.6562 12C18.6562 8.32973 15.6703 5.34375 12 5.34375ZM12 17.7188C8.84667 17.7188 6.28125 15.1533 6.28125 12C6.28125 8.84667 8.84667 6.28125 12 6.28125C15.1533 6.28125 17.7188 8.84667 17.7188 12C17.7188 15.1533 15.1533 17.7188 12 17.7188Z" fill="#4A565F"/>
<path d="M23.7511 0.05475C23.598 -0.0265312 23.4125 -0.0167343 23.2688 0.0802969C20.9676 1.63519 19.5938 4.22156 19.5938 6.99886V13.081C19.5938 13.7333 19.8478 14.3467 20.3091 14.808L21.1875 15.6864V22.5937C21.1875 23.3692 21.8183 24 22.5938 24C23.3692 24 24 23.3692 24 22.5937V0.46875C24 0.295359 23.9043 0.136125 23.7511 0.05475ZM23.0625 22.5937C23.0625 22.8522 22.8522 23.0625 22.5938 23.0625C22.3353 23.0625 22.125 22.8522 22.125 22.5937V15.4922C22.125 15.3679 22.0756 15.2487 21.9877 15.1607L20.972 14.145C20.6878 13.8608 20.5312 13.4829 20.5312 13.081V6.99886C20.5312 4.84355 21.4632 2.81789 23.0625 1.42017V22.5937Z" fill="#4A565F"/>
<path d="M10.9246 8.28285C10.823 8.04478 10.5475 7.9342 10.3094 8.03578C8.71882 8.71481 7.69104 10.271 7.69104 12.0004C7.69104 12.2592 7.9009 12.4691 8.15979 12.4691C8.41868 12.4691 8.62854 12.2592 8.62854 12.0004C8.62854 10.6471 9.43283 9.42937 10.6775 8.89804C10.9156 8.79642 11.0263 8.52098 10.9246 8.28285Z" fill="#4A565F"/>
<path d="M12 7.69141L11.9764 7.69145C11.7175 7.69319 11.509 7.90445 11.5108 8.16334C11.5125 8.42116 11.722 8.62895 11.9795 8.62895C11.9805 8.62895 11.9816 8.62895 11.9826 8.62895L12 8.62891C12.2589 8.62891 12.4688 8.41905 12.4688 8.16016C12.4688 7.90127 12.2589 7.69141 12 7.69141Z" fill="#4A565F"/>
<path d="M18.498 5.83508C17.6698 4.96245 16.6936 4.27583 15.5964 3.79433C14.4604 3.29577 13.2504 3.04297 12 3.04297C10.5713 3.04297 9.20551 3.3695 7.94073 4.01356C7.71006 4.13103 7.61823 4.41327 7.7357 4.64398C7.85321 4.87461 8.13545 4.96639 8.36617 4.84897C9.49792 4.27269 10.7205 3.98047 12 3.98047C14.2217 3.98047 16.2879 4.86828 17.8179 6.48045C17.9101 6.57758 18.0339 6.62652 18.158 6.62652C18.2739 6.62652 18.39 6.58381 18.4806 6.49775C18.6684 6.31953 18.6761 6.02286 18.498 5.83508Z" fill="#4A565F"/>
<path d="M18.953 16.892C18.7499 16.7315 18.4551 16.766 18.2946 16.9691C16.7621 18.9073 14.4678 20.0189 12 20.0189C10.4554 20.0189 8.95605 19.5791 7.66389 18.7468C7.4463 18.6066 7.15614 18.6695 7.01599 18.8871C6.87583 19.1048 6.93864 19.3948 7.15628 19.535C8.60013 20.4649 10.2751 20.9564 12 20.9564C14.7562 20.9564 17.3185 19.715 19.03 17.5504C19.1905 17.3474 19.1561 17.0526 18.953 16.892Z" fill="#4A565F"/>
<path d="M6.37303 17.7152L6.36614 17.7073C6.36365 17.7042 6.36117 17.7011 6.35859 17.6981C6.19185 17.5 5.89617 17.4747 5.69812 17.6414C5.50008 17.8082 5.47467 18.1038 5.64145 18.3019L5.646 18.3073L5.64623 18.3071C5.6512 18.3134 5.65636 18.3197 5.6617 18.3259C5.75442 18.4339 5.88558 18.4893 6.01757 18.4893C6.12567 18.4893 6.23428 18.4521 6.32268 18.3762C6.51909 18.2076 6.54163 17.9116 6.37303 17.7152Z" fill="#4A565F"/>
<path d="M5.8125 0C5.55361 0 5.34375 0.209859 5.34375 0.46875V5.53125H4.49962C4.49967 5.52863 4.5 5.52609 4.5 5.52342V0.46875C4.5 0.209859 4.29014 0 4.03125 0C3.77236 0 3.5625 0.209859 3.5625 0.46875V5.52342C3.5625 5.52605 3.56288 5.52863 3.56288 5.53125H2.71837C2.71842 5.52863 2.71875 5.52609 2.71875 5.52342V0.46875C2.71875 0.209859 2.50889 0 2.25 0C1.99111 0 1.78125 0.209859 1.78125 0.46875V5.52342C1.78125 5.52605 1.78163 5.52863 1.78163 5.53125H0.9375V0.46875C0.9375 0.209859 0.727641 0 0.46875 0C0.209859 0 0 0.209859 0 0.46875V6.1875C0 7.33734 0.697688 8.37511 1.73438 8.8237V22.5938C1.73438 23.3692 2.36522 24 3.14062 24C3.91603 24 4.54688 23.3692 4.54688 22.5938V8.8237C5.58356 8.37511 6.28125 7.33734 6.28125 6.1875V0.46875C6.28125 0.209859 6.07139 0 5.8125 0ZM3.948 8.04469C3.74747 8.10262 3.60938 8.28623 3.60938 8.49502V22.5938C3.60938 22.8522 3.39909 23.0625 3.14062 23.0625C2.88216 23.0625 2.67188 22.8522 2.67188 22.5938V8.49502C2.67188 8.28623 2.53383 8.10262 2.33325 8.04469C1.6028 7.83361 1.06852 7.20661 0.958687 6.46875H5.32252C5.21273 7.20661 4.67845 7.83361 3.948 8.04469Z" fill="#4A565F"/>
</g>
<defs>
<clipPath id="clip0_1_55373">
<rect width="24" height="24" fill="white"/>
</clipPath>
</defs>
</svg>
