<svg width="6" height="12" viewBox="0 0 6 12" fill="none" xmlns="http://www.w3.org/2000/svg">
<path d="M0 10.393V1.19788C3.20936e-05 1.03512 0.0446269 0.876024 0.128147 0.740706C0.211668 0.605388 0.330364 0.499922 0.469229 0.437642C0.608095 0.375361 0.760894 0.359062 0.908313 0.390806C1.05573 0.422549 1.19115 0.500909 1.29745 0.615979L5.54323 5.21356C5.68572 5.3679 5.76577 5.57721 5.76577 5.79545C5.76577 6.0137 5.68572 6.22301 5.54323 6.37735L1.29745 10.9749C1.19115 11.09 1.05573 11.1684 0.908313 11.2001C0.760894 11.2318 0.608095 11.2155 0.469229 11.1533C0.330364 11.091 0.211668 10.9855 0.128147 10.8502C0.0446269 10.7149 3.20936e-05 10.5558 0 10.393Z" fill="#595ad4"/>
</svg>
