<svg width="21" height="20" viewBox="0 0 21 20" fill="none" xmlns="http://www.w3.org/2000/svg">
<path d="M19.9532 17.871L16.0822 13.9984C18.9787 10.1278 18.1889 4.64195 14.3183 1.74551C10.4476 -1.15092 4.96177 -0.361157 2.06534 3.50949C-0.831096 7.38014 -0.0413325 12.866 3.82931 15.7624C6.93854 18.0891 11.209 18.0891 14.3183 15.7624L18.1908 19.635C18.6775 20.1217 19.4665 20.1217 19.9532 19.635C20.4398 19.1483 20.4398 18.3593 19.9532 17.8727L19.9532 17.871ZM9.10606 15.015C5.66601 15.015 2.87733 12.2263 2.87733 8.78623C2.87733 5.34618 5.66601 2.55751 9.10606 2.55751C12.5461 2.55751 15.3348 5.34618 15.3348 8.78623C15.3311 12.2247 12.5446 15.0113 9.10606 15.015Z" fill="white"/>
</svg>
