<svg width="20" height="20" viewBox="0 0 20 20" fill="none" xmlns="http://www.w3.org/2000/svg">
<path d="M17.2607 6.56945L11.7055 2.25261C11.218 1.87369 10.618 1.66797 10.0003 1.66797C9.38266 1.66797 8.78263 1.87369 8.29512 2.25261L2.73887 6.56945C2.40495 6.82889 2.1348 7.16112 1.94903 7.5408C1.76326 7.92047 1.66679 8.33753 1.66699 8.76014V16.2532C1.66699 16.8052 1.88649 17.3347 2.27719 17.725C2.66789 18.1153 3.19779 18.3346 3.75033 18.3346H16.2503C16.8029 18.3346 17.3328 18.1153 17.7235 17.725C18.1142 17.3347 18.3337 16.8052 18.3337 16.2532V8.76014C18.3337 7.90364 17.9378 7.09501 17.2607 6.56945Z" stroke="#9F18DE" stroke-width="2" stroke-linecap="round" stroke-linejoin="round"/>
</svg>
