<svg width="30" height="30" viewBox="0 0 30 30" fill="none" xmlns="http://www.w3.org/2000/svg">
<g clip-path="url(#clip0_1_28658)">
<path d="M2.8125 17.3438V28.5938H27.1875V11.25L15 0.9375L2.8125 10.7812V17.3438Z" fill="white"/>
<path opacity="0.1" d="M15.0001 0.9375L13.561 2.1L24.3751 11.25V28.5938H27.1876V11.25L15.0001 0.9375Z" fill="black"/>
<path d="M12.1875 15.9375H17.8125C18.3098 15.9375 18.7867 16.135 19.1383 16.4867C19.49 16.8383 19.6875 17.3152 19.6875 17.8125V29.0625H10.3125V17.8125C10.3125 17.3152 10.51 16.8383 10.8617 16.4867C11.2133 16.135 11.6902 15.9375 12.1875 15.9375Z" fill="#F78C8C"/>
<path opacity="0.1" d="M17.8125 15.9375H15C15.4973 15.9375 15.9742 16.135 16.3258 16.4867C16.6775 16.8383 16.875 17.3152 16.875 17.8125V29.0625H19.6875V17.8125C19.6875 17.3152 19.49 16.8383 19.1383 16.4867C18.7867 16.135 18.3098 15.9375 17.8125 15.9375Z" fill="black"/>
<path d="M14.0625 23.4375C14.5803 23.4375 15 23.0178 15 22.5C15 21.9822 14.5803 21.5625 14.0625 21.5625C13.5447 21.5625 13.125 21.9822 13.125 22.5C13.125 23.0178 13.5447 23.4375 14.0625 23.4375Z" fill="white"/>
<path d="M29.6624 11.4647L24.8437 7.45223V4.21785C24.8437 3.96921 24.7449 3.73075 24.5691 3.55494C24.3933 3.37912 24.1548 3.28035 23.9062 3.28035C23.6576 3.28035 23.4191 3.37912 23.2433 3.55494C23.0675 3.73075 22.9687 3.96921 22.9687 4.21785V5.8866L16.7999 0.749102C16.2946 0.328165 15.6577 0.0976562 14.9999 0.0976563C14.3422 0.0976562 13.7053 0.328165 13.1999 0.749102L0.337453 11.4647C0.146 11.6239 0.0256023 11.8525 0.00274633 12.1004C-0.0201097 12.3483 0.0564482 12.5951 0.215578 12.7866C0.374708 12.9781 0.603375 13.0985 0.851274 13.1213C1.09917 13.1442 1.346 13.0676 1.53745 12.9085L14.3999 2.18816C14.5684 2.04785 14.7807 1.97102 14.9999 1.97102C15.2192 1.97102 15.4315 2.04785 15.5999 2.18816L26.2499 11.0616V27.1866C26.2499 27.4352 26.1512 27.6737 25.9754 27.8495C25.7995 28.0253 25.5611 28.1241 25.3124 28.1241H20.6249V17.8116C20.6249 17.0657 20.3286 16.3503 19.8012 15.8229C19.2737 15.2954 18.5584 14.9991 17.8124 14.9991H12.1874C11.4415 14.9991 10.7262 15.2954 10.1987 15.8229C9.67126 16.3503 9.37495 17.0657 9.37495 17.8116V28.1241H4.68745C4.43881 28.1241 4.20035 28.0253 4.02454 27.8495C3.84872 27.6737 3.74995 27.4352 3.74995 27.1866V15.9366C3.74995 15.688 3.65118 15.4495 3.47536 15.2737C3.29955 15.0979 3.06109 14.9991 2.81245 14.9991C2.56381 14.9991 2.32535 15.0979 2.14954 15.2737C1.97372 15.4495 1.87495 15.688 1.87495 15.9366V27.1866C1.87495 27.9325 2.17127 28.6479 2.69871 29.1753C3.22616 29.7028 3.94153 29.9991 4.68745 29.9991H25.3124C26.0584 29.9991 26.7737 29.7028 27.3012 29.1753C27.8286 28.6479 28.1249 27.9325 28.1249 27.1866V12.6272L28.4624 12.9085C28.6311 13.0482 28.8434 13.1245 29.0624 13.1241C29.2555 13.1245 29.4439 13.0653 29.6021 12.9545C29.7602 12.8438 29.8803 12.6869 29.9459 12.5054C30.0116 12.3238 30.0196 12.1265 29.9688 11.9402C29.9181 11.754 29.8111 11.5879 29.6624 11.4647ZM11.2499 28.1241V17.8116C11.2499 17.563 11.3487 17.3245 11.5245 17.1487C11.7004 16.9729 11.9388 16.8741 12.1874 16.8741H17.8124C18.0611 16.8741 18.2995 16.9729 18.4754 17.1487C18.6512 17.3245 18.7499 17.563 18.7499 17.8116V28.1241H11.2499Z" fill="#1B1464"/>
</g>
<defs>
<clipPath id="clip0_1_28658">
<rect width="30" height="30" fill="white"/>
</clipPath>
</defs>
</svg>
