<svg width="30" height="30" viewBox="0 0 30 30" fill="none" xmlns="http://www.w3.org/2000/svg">
<g clip-path="url(#clip0_1_28883)">
<path d="M29.6625 11.4647L24.8438 7.45223V4.21785C24.8438 3.96921 24.745 3.73075 24.5692 3.55494C24.3934 3.37912 24.1549 3.28035 23.9063 3.28035C23.6576 3.28035 23.4192 3.37912 23.2433 3.55494C23.0675 3.73075 22.9688 3.96921 22.9688 4.21785V5.8866L16.8 0.749102C16.2946 0.328165 15.6577 0.0976562 15 0.0976563C14.3423 0.0976562 13.7054 0.328165 13.2 0.749102L0.337514 11.4647C0.146061 11.6239 0.0256634 11.8525 0.00280737 12.1004C-0.0200486 12.3483 0.0565092 12.5951 0.215639 12.7866C0.374769 12.9781 0.603436 13.0985 0.851335 13.1213C1.09923 13.1442 1.34606 13.0676 1.53751 12.9085L14.4 2.18816C14.5685 2.04785 14.7808 1.97102 15 1.97102C15.2192 1.97102 15.4316 2.04785 15.6 2.18816L26.25 11.0616V27.1866C26.25 27.4352 26.1512 27.6737 25.9754 27.8495C25.7996 28.0253 25.5611 28.1241 25.3125 28.1241H20.625V17.8116C20.625 17.0657 20.3287 16.3503 19.8012 15.8229C19.2738 15.2954 18.5584 14.9991 17.8125 14.9991H12.1875C11.4416 14.9991 10.7262 15.2954 10.1988 15.8229C9.67133 16.3503 9.37501 17.0657 9.37501 17.8116V28.1241H4.68751C4.43887 28.1241 4.20042 28.0253 4.0246 27.8495C3.84879 27.6737 3.75001 27.4352 3.75001 27.1866V15.9366C3.75001 15.688 3.65124 15.4495 3.47543 15.2737C3.29961 15.0979 3.06115 14.9991 2.81251 14.9991C2.56387 14.9991 2.32542 15.0979 2.1496 15.2737C1.97379 15.4495 1.87501 15.688 1.87501 15.9366V27.1866C1.87501 27.9325 2.17133 28.6479 2.69878 29.1753C3.22622 29.7028 3.94159 29.9991 4.68751 29.9991H25.3125C26.0584 29.9991 26.7738 29.7028 27.3012 29.1753C27.8287 28.6479 28.125 27.9325 28.125 27.1866V12.6272L28.4625 12.9085C28.6312 13.0482 28.8435 13.1245 29.0625 13.1241C29.2555 13.1245 29.444 13.0653 29.6021 12.9545C29.7603 12.8438 29.8803 12.6869 29.946 12.5054C30.0116 12.3238 30.0196 12.1265 29.9689 11.9402C29.9181 11.754 29.8111 11.5879 29.6625 11.4647ZM11.25 28.1241V17.8116C11.25 17.563 11.3488 17.3245 11.5246 17.1487C11.7004 16.9729 11.9389 16.8741 12.1875 16.8741H17.8125C18.0611 16.8741 18.2996 16.9729 18.4754 17.1487C18.6512 17.3245 18.75 17.563 18.75 17.8116V28.1241H11.25Z" fill="black"/>
<path d="M14.0625 23.4375C14.5803 23.4375 15 23.0178 15 22.5C15 21.9822 14.5803 21.5625 14.0625 21.5625C13.5447 21.5625 13.125 21.9822 13.125 22.5C13.125 23.0178 13.5447 23.4375 14.0625 23.4375Z" fill="black"/>
</g>
<defs>
<clipPath id="clip0_1_28883">
<rect width="30" height="30" fill="white"/>
</clipPath>
</defs>
</svg>
