<svg width="17" height="17" viewBox="0 0 17 17" fill="none" xmlns="http://www.w3.org/2000/svg">
<path d="M12.2851 5.90292L6.57846 3.04958C2.74512 1.12958 1.17179 2.70292 3.09179 6.53625L3.67179 7.69625C3.83846 8.03625 3.83846 8.42958 3.67179 8.76958L3.09179 9.92292C1.17179 13.7562 2.73846 15.3296 6.57846 13.4096L12.2851 10.5562C14.8451 9.27625 14.8451 7.18292 12.2851 5.90292ZM10.1318 8.72958H6.53179C6.25846 8.72958 6.03179 8.50292 6.03179 8.22958C6.03179 7.95625 6.25846 7.72958 6.53179 7.72958H10.1318C10.4051 7.72958 10.6318 7.95625 10.6318 8.22958C10.6318 8.50292 10.4051 8.72958 10.1318 8.72958Z" fill="white"/>
</svg>
