<?xml version="1.0" encoding="UTF-8"?>
<!DOCTYPE svg PUBLIC "-//W3C//DTD SVG 1.1//EN" "http://www.w3.org/Graphics/SVG/1.1/DTD/svg11.dtd">
<!-- Creator: CorelDRAW 2017 -->
<svg xmlns="http://www.w3.org/2000/svg" xml:space="preserve" width="112px" height="112px" version="1.1" style="shape-rendering:geometricPrecision; text-rendering:geometricPrecision; image-rendering:optimizeQuality; fill-rule:evenodd; clip-rule:evenodd"
viewBox="0 0 112 112"
 xmlns:xlink="http://www.w3.org/1999/xlink">
 <defs>
  <style type="text/css">
   <![CDATA[
    .fil0 {fill:#595AD4}
   ]]>
  </style>
 </defs>
 <g id="Layer_x0020_1">
  <metadata id="CorelCorpID_0Corel-Layer"/>
  <path class="fil0" d="M107.05 38.29l-8.28 0 5.85 -5.86c1.94,-1.94 1.94,-5.07 0,-7.01l-18.05 -18.05c-0.92,-0.92 -2.18,-1.45 -3.5,-1.45 -1.31,0 -2.57,0.53 -3.5,1.45l-5.86 5.86 0 -8.28c0,-2.74 -2.21,-4.95 -4.95,-4.95l-25.52 0c-2.74,0 -4.95,2.21 -4.95,4.95l0 4.01c-1.86,-0.65 -3.82,-1.31 -5.9,-1.96 -10.36,-3.29 -19.57,-5.4 -19.95,-5.49 -1.55,-0.36 -3.18,0.06 -4.38,1.11 -1.2,1.05 -1.81,2.62 -1.66,4.2 0.04,0.39 0.96,9.61 2.91,20.11 0.78,4.22 1.6,8 2.48,11.36l-6.84 0c-2.73,0 -4.95,2.21 -4.95,4.95l0 25.52c0,2.74 2.22,4.96 4.95,4.96l8.28 0 -5.85 5.85c-1.94,1.94 -1.94,5.07 0,7.01l18.04 18.05c0.93,0.92 2.19,1.45 3.51,1.45 1.31,0 2.57,-0.53 3.5,-1.45l5.86 -5.86 0 8.28c0,2.74 2.21,4.95 4.95,4.95l25.52 0c2.74,0 4.95,-2.21 4.95,-4.95l0 -8.28 5.86 5.86c0.93,0.92 2.19,1.45 3.5,1.45 1.32,0 2.58,-0.53 3.5,-1.45l18.05 -18.05c1.94,-1.94 1.94,-5.07 0,-7.01l-5.85 -5.85 8.28 0c2.73,0 4.95,-2.22 4.95,-4.96l0 -25.52c0,-2.74 -2.22,-4.95 -4.95,-4.95zm-54.22 -11.1c3.02,3.38 4.52,7.7 4.22,12.16 -0.18,2.71 -1.01,5.27 -2.4,7.53l-10.09 -10.02c-1.95,-1.93 -5.08,-1.92 -7.01,0.02 -1.93,1.94 -1.91,5.08 0.02,7.01l9.62 9.54c-2.27,1.04 -4.76,1.59 -7.31,1.59 -5.02,0 -9.8,-2.11 -13.09,-5.81 -4.32,-4.83 -7.89,-22.66 -9.71,-36.35 13.67,3.59 31.4,9.47 35.75,14.33zm13.05 18.63c2.69,2.63 4.31,6.28 4.31,10.18 0,1.87 -0.37,3.66 -1.03,5.3l-7.37 -7.32c1.84,-2.47 3.22,-5.22 4.09,-8.16zm-3.4 22.8c-1.95,1 -4.15,1.57 -6.48,1.57 -4.57,0 -8.74,-2.17 -11.36,-5.68 3.51,-0.61 6.86,-1.91 9.87,-3.8l7.97 7.91zm39.62 -4.81l-8.29 0c-2.12,0 -4.01,1.36 -4.69,3.37 -0.49,1.46 -1.1,2.92 -1.8,4.33 -0.94,1.9 -0.57,4.2 0.94,5.7l5.86 5.86 -11.05 11.05 -5.86 -5.86c-1.5,-1.5 -3.8,-1.88 -5.7,-0.94 -1.41,0.7 -2.87,1.31 -4.33,1.8 -2.01,0.68 -3.37,2.57 -3.37,4.69l0 8.29 -15.62 0 0 -8.29c0,-2.12 -1.36,-4.01 -3.37,-4.69 -1.46,-0.49 -2.92,-1.1 -4.33,-1.8 -1.9,-0.94 -4.2,-0.56 -5.7,0.94l-5.86 5.86 -11.05 -11.05 5.86 -5.86c1.51,-1.5 1.88,-3.8 0.94,-5.7 -0.7,-1.41 -1.31,-2.87 -1.8,-4.33 -0.68,-2.01 -2.57,-3.37 -4.69,-3.37l-8.29 0 0 -15.62 5.09 0c1.36,3.32 2.83,5.85 4.41,7.62 3.7,4.14 8.57,7.02 13.92,8.32 3.42,9.57 12.46,15.97 22.68,15.97 13.29,0 24.09,-10.81 24.09,-24.1 0,-9.17 -5.28,-17.55 -13.38,-21.58 -0.74,-5.09 -2.96,-9.87 -6.49,-13.82 -2.3,-2.58 -6.28,-5.14 -12.03,-7.74l0 -2.96 15.62 0 0 8.29c0,2.12 1.36,4.01 3.37,4.69 1.46,0.49 2.92,1.1 4.33,1.8 1.9,0.94 4.2,0.56 5.7,-0.94l5.86 -5.86 11.05 11.05 -5.86 5.86c-1.51,1.5 -1.88,3.8 -0.94,5.7 0.7,1.41 1.31,2.87 1.8,4.33 0.68,2.01 2.57,3.37 4.69,3.37l8.29 0 0 15.62z"/>
 </g>
</svg>
