<svg width="24" height="24" viewBox="0 0 24 24" fill="none" xmlns="http://www.w3.org/2000/svg">
<path d="M1.5 16.4329C1.66325 16.4318 1.82632 16.4438 1.98765 16.4688C2.00065 16.4725 2.0138 16.4742 2.02705 16.4769C2.37192 16.5464 2.70012 16.6818 2.99365 16.8757C3.58699 17.2693 4.28644 17.4722 4.9983 17.4573C5.70283 17.474 6.39565 17.275 6.9839 16.887C6.9905 16.8835 6.99685 16.8801 7.0034 16.8762C7.44206 16.5749 7.96461 16.4198 8.49661 16.4329C9.02989 16.4209 9.55361 16.5757 9.99466 16.8757C10.5861 17.2697 11.2842 17.4727 11.9947 17.4573C12.7065 17.4708 13.4057 17.2682 14 16.8762C14.4387 16.575 14.9612 16.4198 15.4932 16.4329C16.0297 16.4214 16.5564 16.578 16.9995 16.8806C17.5914 17.2707 18.2879 17.4718 18.9966 17.4573C19.4742 17.4678 19.9488 17.3793 20.3904 17.1973C20.6008 17.1043 20.8046 16.9971 21.0004 16.8764C21.4439 16.5802 21.9668 16.4255 22.5 16.4329C22.6326 16.4329 22.7598 16.3802 22.8536 16.2864C22.9473 16.1927 23 16.0655 23 15.9329C23 15.8003 22.9473 15.6731 22.8536 15.5793C22.7598 15.4855 22.6326 15.4329 22.5 15.4329C22.3056 15.4305 22.1114 15.4442 21.9192 15.4739C21.4111 15.5497 20.9252 15.734 20.4947 16.0144C20.3357 16.1128 20.1703 16.2005 19.9997 16.2771C19.6817 16.4068 19.34 16.4682 18.9968 16.4571C18.4587 16.4706 17.9302 16.3132 17.4872 16.0074C17.0677 15.7365 16.5963 15.556 16.1032 15.4774L11.9832 9.46062L17.2625 6.81808C17.4947 6.70206 17.6986 6.5365 17.8599 6.33306C18.0211 6.12962 18.1357 5.89328 18.1956 5.6407C18.2555 5.38813 18.2593 5.12548 18.2066 4.87131C18.1539 4.61713 18.046 4.37762 17.8907 4.16968C17.6415 3.84812 17.2909 3.62023 16.8959 3.523C16.5009 3.42576 16.0846 3.46489 15.7146 3.63403L8.4204 7.08668C8.16692 7.20679 7.94099 7.37798 7.75678 7.58952C7.57257 7.80106 7.43405 8.04839 7.34993 8.31598C7.2658 8.58357 7.23787 8.86566 7.2679 9.14455C7.29792 9.42344 7.38525 9.69312 7.52441 9.93667L8.49391 11.6608L2.0266 15.4674C1.85198 15.4447 1.67609 15.4332 1.5 15.4329C1.36739 15.4329 1.24021 15.4855 1.14645 15.5793C1.05268 15.6731 1 15.8003 1 15.9329C1 16.0655 1.05268 16.1927 1.14645 16.2864C1.24021 16.3802 1.36739 16.4329 1.5 16.4329ZM9.00366 12.5207C9.23265 12.3855 9.39914 12.1655 9.467 11.9084C9.53487 11.6513 9.49866 11.3778 9.36621 11.1472L8.39211 9.43967C8.32145 9.31575 8.27715 9.17858 8.26199 9.03674C8.24683 8.8949 8.26113 8.75145 8.30399 8.6154C8.34685 8.47934 8.41735 8.35361 8.51108 8.24607C8.6048 8.13854 8.71973 8.05152 8.84866 7.99048L16.1414 4.53883C16.2727 4.47534 16.4195 4.45057 16.5644 4.46742C16.7093 4.48428 16.8465 4.54206 16.9598 4.634C17.0731 4.72594 17.1578 4.84825 17.2042 4.9866C17.2505 5.12496 17.2564 5.27365 17.2214 5.41528C17.1959 5.52477 17.1463 5.62719 17.0762 5.71505C17.0061 5.80291 16.9172 5.87398 16.8161 5.92308L11.5391 8.56467C11.4094 8.62809 11.295 8.71864 11.2034 8.83019C11.1119 8.94174 11.0454 9.07167 11.0086 9.21117C10.9714 9.35223 10.9651 9.49962 10.9899 9.64335C11.0148 9.78709 11.0703 9.92378 11.1526 10.0442L14.8885 15.4769C14.3905 15.5554 13.9149 15.7386 13.4929 16.0144C13.0529 16.3165 12.5285 16.4716 11.9949 16.4573C11.4585 16.4701 10.9318 16.3127 10.4905 16.0076C9.89925 15.6189 9.20405 15.4185 8.49661 15.4329C7.79036 15.4175 7.09624 15.6181 6.5071 16.0079C6.4995 16.0118 6.4917 16.0162 6.48415 16.0206C6.04753 16.3196 5.5273 16.4725 4.9983 16.4571C4.4643 16.4699 3.93978 16.3145 3.499 16.0128C3.429 15.9717 3.35625 15.93 3.2818 15.8884L9.00366 12.5207Z" fill="#4A565F"/>
<path d="M22.5 18.5066C21.7887 18.4921 21.0897 18.6946 20.4964 19.0872C20.0501 19.3769 19.5295 19.531 18.9975 19.531C18.4654 19.531 17.9448 19.3769 17.4986 19.0872C16.8992 18.7079 16.2045 18.5066 15.4953 18.5066C14.786 18.5066 14.0913 18.7079 13.492 19.0872C13.0517 19.3885 12.5278 19.5438 11.9944 19.531C11.4616 19.5438 10.9382 19.3885 10.4986 19.0872C9.90607 18.6946 9.20792 18.492 8.49731 18.5066C7.78636 18.492 7.08788 18.6946 6.495 19.0872C6.05501 19.3886 5.53135 19.5438 4.9982 19.531C4.46512 19.5438 3.94153 19.3885 3.5016 19.0872C2.90896 18.6946 2.21072 18.4921 1.5 18.5066C1.36739 18.5066 1.24021 18.5593 1.14645 18.653C1.05268 18.7468 1 18.874 1 19.0066C1 19.1392 1.05268 19.2664 1.14645 19.3601C1.24021 19.4539 1.36739 19.5066 1.5 19.5066C2.03303 19.4939 2.55653 19.6493 2.99635 19.9507C3.5891 20.3433 4.28747 20.5458 4.9983 20.5313C5.70921 20.5458 6.40766 20.3433 7.0005 19.9507C7.4405 19.6493 7.96416 19.494 8.49731 19.5068C9.03015 19.4941 9.55349 19.6494 9.99316 19.9507C10.5856 20.3433 11.2838 20.5459 11.9944 20.5313C12.7055 20.5459 13.4042 20.3433 13.9973 19.9507C14.4433 19.661 14.9637 19.5068 15.4955 19.5068C16.0273 19.5068 16.5477 19.661 16.9937 19.9507C17.5932 20.33 18.288 20.5313 18.9974 20.5313C19.7069 20.5313 20.4017 20.33 21.0012 19.9507C21.4419 19.6493 21.9662 19.4939 22.5 19.5066C22.6326 19.5066 22.7598 19.4539 22.8536 19.3601C22.9473 19.2664 23 19.1392 23 19.0066C23 18.874 22.9473 18.7468 22.8536 18.653C22.7598 18.5593 22.6326 18.5066 22.5 18.5066Z" fill="#4A565F"/>
<path d="M15.3418 11.3233C15.3418 12.03 15.5514 12.7208 15.9441 13.3084C16.3367 13.896 16.8948 14.3539 17.5477 14.6244C18.2006 14.8948 18.9191 14.9655 19.6122 14.8276C20.3053 14.6897 20.942 14.3494 21.4416 13.8496C21.9413 13.3499 22.2816 12.7132 22.4195 12.0201C22.5573 11.327 22.4865 10.6085 22.216 9.95562C21.9456 9.30273 21.4876 8.7447 20.9 8.3521C20.3123 7.9595 19.6215 7.74997 18.9148 7.75C17.9674 7.75101 17.0592 8.12781 16.3893 8.79772C15.7195 9.46764 15.3427 10.3759 15.3418 11.3233ZM18.9148 8.75C19.4237 8.75 19.9211 8.90089 20.3443 9.18361C20.7674 9.46632 21.0972 9.86815 21.2919 10.3383C21.4867 10.8084 21.5376 11.3258 21.4384 11.8249C21.3391 12.324 21.0941 12.7824 20.7343 13.1423C20.3745 13.5021 19.916 13.7472 19.4169 13.8465C18.9178 13.9458 18.4005 13.8949 17.9303 13.7002C17.4602 13.5055 17.0583 13.1757 16.7755 12.7527C16.4928 12.3296 16.3418 11.8321 16.3418 11.3232C16.3426 10.641 16.6139 9.98701 17.0962 9.50461C17.5786 9.0222 18.2326 8.75082 18.9148 8.75Z" fill="#4A565F"/>
</svg>
