<svg width="17" height="17" viewBox="0 0 17 17" fill="none" xmlns="http://www.w3.org/2000/svg">
<path fill-rule="evenodd" clip-rule="evenodd" d="M4.11289 2.12891C4.32506 2.12891 4.52855 2.21319 4.67858 2.36322C4.8286 2.51325 4.91289 2.71673 4.91289 2.92891V3.72891H5.71289C5.92506 3.72891 6.12855 3.81319 6.27858 3.96322C6.42861 4.11325 6.51289 4.31673 6.51289 4.52891C6.51289 4.74108 6.42861 4.94456 6.27858 5.09459C6.12855 5.24462 5.92506 5.32891 5.71289 5.32891H4.91289V6.12891C4.91289 6.34108 4.8286 6.54456 4.67858 6.69459C4.52855 6.84462 4.32506 6.92891 4.11289 6.92891C3.90072 6.92891 3.69723 6.84462 3.54721 6.69459C3.39718 6.54456 3.31289 6.34108 3.31289 6.12891V5.32891H2.51289C2.30072 5.32891 2.09723 5.24462 1.94721 5.09459C1.79718 4.94456 1.71289 4.74108 1.71289 4.52891C1.71289 4.31673 1.79718 4.11325 1.94721 3.96322C2.09723 3.81319 2.30072 3.72891 2.51289 3.72891H3.31289V2.92891C3.31289 2.71673 3.39718 2.51325 3.54721 2.36322C3.69723 2.21319 3.90072 2.12891 4.11289 2.12891ZM4.11289 10.1289C4.32506 10.1289 4.52855 10.2132 4.67858 10.3632C4.8286 10.5132 4.91289 10.7167 4.91289 10.9289V11.7289H5.71289C5.92506 11.7289 6.12855 11.8132 6.27858 11.9632C6.42861 12.1132 6.51289 12.3167 6.51289 12.5289C6.51289 12.7411 6.42861 12.9446 6.27858 13.0946C6.12855 13.2446 5.92506 13.3289 5.71289 13.3289H4.91289V14.1289C4.91289 14.3411 4.8286 14.5446 4.67858 14.6946C4.52855 14.8446 4.32506 14.9289 4.11289 14.9289C3.90072 14.9289 3.69723 14.8446 3.54721 14.6946C3.39718 14.5446 3.31289 14.3411 3.31289 14.1289V13.3289H2.51289C2.30072 13.3289 2.09723 13.2446 1.94721 13.0946C1.79718 12.9446 1.71289 12.7411 1.71289 12.5289C1.71289 12.3167 1.79718 12.1132 1.94721 11.9632C2.09723 11.8132 2.30072 11.7289 2.51289 11.7289H3.31289V10.9289C3.31289 10.7167 3.39718 10.5132 3.54721 10.3632C3.69723 10.2132 3.90072 10.1289 4.11289 10.1289ZM9.71289 2.12891C9.88944 2.12885 10.0611 2.1872 10.201 2.29486C10.3409 2.40251 10.4413 2.55344 10.4865 2.72411L11.4297 6.28891L14.1129 7.83611C14.2345 7.90632 14.3355 8.00731 14.4057 8.12892C14.4759 8.25053 14.5129 8.38848 14.5129 8.52891C14.5129 8.66933 14.4759 8.80728 14.4057 8.92889C14.3355 9.0505 14.2345 9.15149 14.1129 9.22171L11.4297 10.7697L10.4857 14.3337C10.4404 14.5042 10.34 14.655 10.2002 14.7625C10.0604 14.8701 9.8889 14.9284 9.71249 14.9284C9.53608 14.9284 9.36461 14.8701 9.22477 14.7625C9.08494 14.655 8.98457 14.5042 8.93929 14.3337L7.99609 10.7689L5.31289 9.22171C5.19128 9.15149 5.0903 9.0505 5.0201 8.92889C4.94989 8.80728 4.91293 8.66933 4.91293 8.52891C4.91293 8.38848 4.94989 8.25053 5.0201 8.12892C5.0903 8.00731 5.19128 7.90632 5.31289 7.83611L7.99609 6.28811L8.94009 2.72411C8.98525 2.55357 9.08552 2.40275 9.22528 2.2951C9.36505 2.18745 9.53648 2.12903 9.71289 2.12891Z" fill="white"/>
</svg>
