<?xml version="1.0" encoding="UTF-8"?>
<!DOCTYPE svg PUBLIC "-//W3C//DTD SVG 1.1//EN" "http://www.w3.org/Graphics/SVG/1.1/DTD/svg11.dtd">
<!-- Creator: CorelDRAW 2017 -->
<svg xmlns="http://www.w3.org/2000/svg" xml:space="preserve" width="15.2398mm" height="10.1598mm" version="1.1" style="shape-rendering:geometricPrecision; text-rendering:geometricPrecision; image-rendering:optimizeQuality; fill-rule:evenodd; clip-rule:evenodd"
viewBox="0 0 1524 1016"
 xmlns:xlink="http://www.w3.org/1999/xlink">
 <defs>
  <style type="text/css">
   <![CDATA[
    .fil0 {fill:#fff;fill-rule:nonzero}
    .fil1 {fill:#fff;fill-rule:nonzero;fill-opacity:0.200000}
   ]]>
  </style>
 </defs>
 <g id="Layer_x0020_1">
  <metadata id="CorelCorpID_0Corel-Layer"/>
  <g id="_2368855596368">
   <path class="fil0" d="M1460 444l-1397 0c-35,0 -64,29 -64,64 0,35 28,64 64,64l1397 0c35,0 64,-29 64,-64 0,-35 -28,-64 -64,-64z"/>
   <path class="fil1" d="M1460 444l-1397 0c-35,0 -64,29 -64,64 0,35 28,64 64,64l1397 0c35,0 64,-29 64,-64 0,-35 -28,-64 -64,-64z"/>
   <path class="fil0" d="M1460 -2l-1397 0c-35,0 -64,29 -64,64 0,35 28,64 64,64l1397 0c35,0 64,-29 64,-64 0,-35 -28,-64 -64,-64z"/>
   <path class="fil1" d="M1460 -2l-1397 0c-35,0 -64,29 -64,64 0,35 28,64 64,64l1397 0c35,0 64,-29 64,-64 0,-35 -28,-64 -64,-64z"/>
   <path class="fil0" d="M1460 890l-1397 0c-35,0 -64,29 -64,64 0,35 28,64 64,64l1397 0c35,0 64,-29 64,-64 0,-35 -28,-64 -64,-64z"/>
   <path class="fil1" d="M1460 890l-1397 0c-35,0 -64,29 -64,64 0,35 28,64 64,64l1397 0c35,0 64,-29 64,-64 0,-35 -28,-64 -64,-64z"/>
  </g>
 </g>
</svg>
