<svg width="20" height="20" viewBox="0 0 20 20" fill="none" xmlns="http://www.w3.org/2000/svg">
<path d="M17.0557 14.4147C17.0382 14.3897 15.7582 12.9022 15.7582 12.9022C16.2233 12.5596 16.5369 12.0495 16.6327 11.4799C16.7285 10.9102 16.599 10.3256 16.2715 9.84973C16.2507 9.81973 14.7007 8.10723 14.7007 8.10723C15.0884 7.9117 15.4046 7.59878 15.604 7.21306C15.7756 6.88266 15.8527 6.51133 15.8268 6.13993C15.801 5.76853 15.6731 5.41148 15.4574 5.10806C15.4399 5.0814 11.5715 0.703067 11.5715 0.703067C11.3686 0.490726 11.1248 0.321718 10.8547 0.20625C10.5847 0.0907818 10.294 0.03125 10.0003 0.03125C9.70658 0.03125 9.41592 0.0907818 9.14586 0.20625C8.87581 0.321718 8.63196 0.490726 8.42904 0.703067C8.42904 0.703067 4.55987 5.0814 4.54237 5.1064C4.32663 5.40981 4.19879 5.76687 4.17291 6.13826C4.14703 6.50966 4.22413 6.881 4.39571 7.2114C4.59518 7.59712 4.91131 7.91003 5.29904 8.10556C5.29904 8.10556 3.74987 9.81806 3.72821 9.84806C3.40079 10.324 3.27128 10.9085 3.36708 11.4782C3.46288 12.0479 3.77647 12.5579 4.24154 12.9006C4.24154 12.9006 2.96154 14.3881 2.94404 14.4147C2.68608 14.7898 2.53543 15.2282 2.50834 15.6826C2.48125 16.137 2.57875 16.5902 2.79032 16.9933C3.00188 17.3964 3.31949 17.734 3.70888 17.9698C4.09827 18.2056 4.54465 18.3307 4.99987 18.3314H9.16654V19.1647C9.16654 19.3857 9.25434 19.5977 9.41062 19.754C9.5669 19.9103 9.77886 19.9981 9.99987 19.9981C10.2209 19.9981 10.4328 19.9103 10.5891 19.754C10.7454 19.5977 10.8332 19.3857 10.8332 19.1647V18.3314H14.9999C15.4554 18.3313 15.9022 18.2067 16.2921 17.9711C16.6819 17.7356 17 17.3979 17.212 16.9948C17.424 16.5916 17.5217 16.1382 17.4948 15.6834C17.4678 15.2287 17.3172 14.79 17.059 14.4147H17.0557ZM15.7349 16.2206C15.6653 16.3552 15.5598 16.468 15.4301 16.5464C15.3004 16.6248 15.1514 16.6658 14.9999 16.6647H4.99987C4.85111 16.6649 4.70499 16.6253 4.57671 16.55C4.44843 16.4746 4.34266 16.3663 4.27037 16.2363C4.19809 16.1063 4.16193 15.9593 4.16565 15.8105C4.16937 15.6618 4.21284 15.5168 4.29154 15.3906L6.07071 13.3314H10.8332C11.0542 13.3314 11.2662 13.2436 11.4225 13.0873C11.5787 12.931 11.6665 12.7191 11.6665 12.4981C11.6665 12.277 11.5787 12.0651 11.4225 11.9088C11.2662 11.7525 11.0542 11.6647 10.8332 11.6647H5.55821C5.46067 11.6647 5.36485 11.6391 5.28037 11.5903C5.19589 11.5416 5.12572 11.4715 5.07692 11.387C5.02811 11.3026 5.00238 11.2068 5.00231 11.1093C5.00225 11.0117 5.02785 10.9159 5.07654 10.8314L7.34487 8.3314H9.99987C10.2209 8.3314 10.4328 8.2436 10.5891 8.08732C10.7454 7.93104 10.8332 7.71908 10.8332 7.49806C10.8332 7.27705 10.7454 7.06509 10.5891 6.90881C10.4328 6.75253 10.2209 6.66473 9.99987 6.66473H6.24987C6.17282 6.66746 6.09657 6.64823 6.03003 6.60928C5.96348 6.57033 5.90938 6.51326 5.87404 6.44473C5.84456 6.3911 5.8298 6.33062 5.83126 6.26944C5.83273 6.20826 5.85036 6.14856 5.88237 6.0964L9.6757 1.80557C9.71545 1.75897 9.76482 1.72156 9.82043 1.6959C9.87604 1.67024 9.93655 1.65696 9.99779 1.65696C10.059 1.65696 10.1195 1.67024 10.1751 1.6959C10.2308 1.72156 10.2801 1.75897 10.3199 1.80557L14.1115 6.09556C14.1438 6.14762 14.1616 6.20729 14.1632 6.26849C14.1648 6.32969 14.1501 6.39022 14.1207 6.4439C14.0858 6.5118 14.0326 6.56852 13.967 6.60757C13.9014 6.64662 13.8262 6.66643 13.7499 6.66473H13.0265C12.8661 6.66694 12.7097 6.71513 12.5759 6.80358C12.4421 6.89202 12.3364 7.017 12.2715 7.1637C12.2066 7.31039 12.1851 7.47262 12.2096 7.63115C12.2342 7.78968 12.3037 7.93785 12.4099 8.05806L14.9232 10.8314C14.9719 10.9159 14.9975 11.0117 14.9974 11.1093C14.9974 11.2068 14.9716 11.3026 14.9228 11.387C14.874 11.4715 14.8039 11.5416 14.7194 11.5903C14.6349 11.6391 14.5391 11.6647 14.4415 11.6647H14.3107C14.1522 11.6671 13.9976 11.7144 13.8648 11.8011C13.7321 11.8878 13.6266 12.0102 13.5606 12.1544C13.4945 12.2985 13.4707 12.4584 13.4918 12.6156C13.5129 12.7727 13.5781 12.9206 13.6799 13.0422L15.7049 15.3906C15.7834 15.5134 15.8276 15.655 15.8329 15.8006C15.8382 15.9463 15.8043 16.0907 15.7349 16.2189V16.2206Z" fill="#4A565F"/>
</svg>
