<svg width="14" height="12" viewBox="0 0 14 12" fill="none" xmlns="http://www.w3.org/2000/svg">
<path d="M12.5667 3.1442C12.5749 3.26728 12.5749 3.39095 12.5749 3.5152C12.5749 7.31094 9.68508 11.6877 4.40241 11.6877V11.6854C2.842 11.6877 1.31367 11.2409 0 10.3979C0.226917 10.4254 0.455 10.4388 0.683666 10.4394C1.9775 10.4405 3.234 10.0065 4.25075 9.20736C3.02167 9.18402 1.94367 8.38252 1.56742 7.21236C1.99792 7.29519 2.44125 7.27828 2.86417 7.16336C1.52367 6.89269 0.56 5.71494 0.56 4.34761C0.56 4.33536 0.56 4.32311 0.56 4.31144C0.959583 4.53428 1.40642 4.65736 1.86375 4.67078C0.601416 3.82786 0.21175 2.14903 0.974166 0.836532C2.4325 2.63086 4.58441 3.7217 6.89383 3.83778C6.66225 2.84028 6.979 1.79495 7.7245 1.0932C8.88124 0.0052824 10.7007 0.0612823 11.7886 1.21803C12.432 1.09145 13.0486 0.855198 13.6127 0.520949C13.398 1.18595 12.9494 1.75061 12.3497 2.10995C12.9197 2.0417 13.4756 1.88945 14 1.65728C13.6144 2.2342 13.1291 2.73761 12.5667 3.1442Z" fill="#4A565F"/>
</svg>
