<svg width="16" height="15" viewBox="0 0 16 15" fill="none" xmlns="http://www.w3.org/2000/svg">
<path d="M13.2984 4.68202C12.5607 1.36792 9.58045 -0.644276 6.64178 0.187642C4.34527 0.837786 2.67775 3.07619 2.50594 5.73937C0.875329 6.04263 -0.228568 7.7792 0.0403385 9.61812C0.279384 11.253 1.53549 12.4502 3.00467 12.4436H5.49829V11.3188H3.00467C1.90292 11.3188 1.00977 10.3115 1.00977 9.06901C1.00977 7.82651 1.90292 6.81925 3.00467 6.81925C3.28012 6.81925 3.50339 6.56746 3.50339 6.25681C3.5009 3.46118 5.50848 1.19258 7.98743 1.1898C10.1333 1.18738 11.9806 2.89825 12.3957 5.27255C12.4366 5.50961 12.6072 5.69072 12.8196 5.7225C14.183 5.94146 15.1309 7.36545 14.9368 8.90305C14.7624 10.2838 13.7171 11.3118 12.4804 11.3188H10.4855V12.4436H12.4804C14.4085 12.4371 15.9668 10.669 15.9609 8.49465C15.9561 6.68465 14.8575 5.11155 13.2984 4.68202Z" fill="#5E6B98"/>
<path d="M7.63797 6.98192L5.64307 9.23168L6.34627 10.0247L7.49334 8.73673V14.1305H8.49079V8.73673L9.63287 10.0247L10.3361 9.23168L8.34117 6.98192C8.14664 6.76384 7.8325 6.76384 7.63797 6.98192Z" fill="#5E6B98"/>
</svg>
