<svg width="64" height="64" viewBox="0 0 64 64" fill="none" xmlns="http://www.w3.org/2000/svg">
<circle cx="32" cy="32" r="32" fill="#192024"/>
<path d="M28.0003 45.3346H36.0003C42.667 45.3346 45.3337 42.668 45.3337 36.0013V28.0013C45.3337 21.3346 42.667 18.668 36.0003 18.668H28.0003C21.3337 18.668 18.667 21.3346 18.667 28.0013V36.0013C18.667 42.668 21.3337 45.3346 28.0003 45.3346Z" stroke="white" stroke-width="3" stroke-linecap="round" stroke-linejoin="round"/>
<path d="M28.1328 31.998V30.0247C28.1328 27.478 29.9328 26.4514 32.1328 27.718L33.8395 28.7047L35.5461 29.6914C37.7461 30.958 37.7461 33.038 35.5461 34.3047L33.8395 35.2914L32.1328 36.278C29.9328 37.5447 28.1328 36.5047 28.1328 33.9714V31.998Z" stroke="white" stroke-width="3" stroke-miterlimit="10" stroke-linecap="round" stroke-linejoin="round"/>
</svg>
