<svg width="84" height="38" viewBox="0 0 84 38" fill="none" xmlns="http://www.w3.org/2000/svg">
<path d="M7.0566 37.6416L0 30.1133H7.0566V37.6416Z" fill="#5245ED"/>
<path d="M0 8C0 3.58172 3.58172 0 8 0H76C80.4183 0 84 3.58172 84 8V22C84 26.4183 80.4183 30 76 30H0V8Z" fill="#0B26AD"/>
<path d="M20.5996 18.1582V19.5293H16.0586V18.1582H20.5996ZM16.6328 10.998V19.5293H14.875V10.998H16.6328ZM20.0078 14.4727V15.8086H16.0586V14.4727H20.0078ZM20.5938 10.998V12.375H16.0586V10.998H20.5938ZM23.5723 10.998L25.1777 13.9746L26.7832 10.998H28.793L26.3145 15.2285L28.8574 19.5293H26.8301L25.1777 16.4941L23.5254 19.5293H21.4863L24.0352 15.2285L21.5508 10.998H23.5723ZM33.5645 16.4883H31.3906V15.1172H33.5645C33.9004 15.1172 34.1738 15.0625 34.3848 14.9531C34.5957 14.8398 34.75 14.6836 34.8477 14.4844C34.9453 14.2852 34.9941 14.0605 34.9941 13.8105C34.9941 13.5566 34.9453 13.3203 34.8477 13.1016C34.75 12.8828 34.5957 12.707 34.3848 12.5742C34.1738 12.4414 33.9004 12.375 33.5645 12.375H32V19.5293H30.2422V10.998H33.5645C34.2324 10.998 34.8047 11.1191 35.2812 11.3613C35.7617 11.5996 36.1289 11.9297 36.3828 12.3516C36.6367 12.7734 36.7637 13.2559 36.7637 13.7988C36.7637 14.3496 36.6367 14.8262 36.3828 15.2285C36.1289 15.6309 35.7617 15.9414 35.2812 16.1602C34.8047 16.3789 34.2324 16.4883 33.5645 16.4883ZM43.9609 18.1582V19.5293H39.666V18.1582H43.9609ZM40.2344 10.998V19.5293H38.4766V10.998H40.2344ZM52.0898 15.0645V15.4688C52.0898 16.1172 52.002 16.6992 51.8262 17.2148C51.6504 17.7305 51.4023 18.1699 51.082 18.5332C50.7617 18.8926 50.3789 19.168 49.9336 19.3594C49.4922 19.5508 49.002 19.6465 48.4629 19.6465C47.9277 19.6465 47.4375 19.5508 46.9922 19.3594C46.5508 19.168 46.168 18.8926 45.8438 18.5332C45.5195 18.1699 45.2676 17.7305 45.0879 17.2148C44.9121 16.6992 44.8242 16.1172 44.8242 15.4688V15.0645C44.8242 14.4121 44.9121 13.8301 45.0879 13.3184C45.2637 12.8027 45.5117 12.3633 45.832 12C46.1562 11.6367 46.5391 11.3594 46.9805 11.168C47.4258 10.9766 47.916 10.8809 48.4512 10.8809C48.9902 10.8809 49.4805 10.9766 49.9219 11.168C50.3672 11.3594 50.75 11.6367 51.0703 12C51.3945 12.3633 51.6445 12.8027 51.8203 13.3184C52 13.8301 52.0898 14.4121 52.0898 15.0645ZM50.3145 15.4688V15.0527C50.3145 14.5996 50.2734 14.2012 50.1914 13.8574C50.1094 13.5137 49.9883 13.2246 49.8281 12.9902C49.668 12.7559 49.4727 12.5801 49.2422 12.4629C49.0117 12.3418 48.748 12.2812 48.4512 12.2812C48.1543 12.2812 47.8906 12.3418 47.6602 12.4629C47.4336 12.5801 47.2402 12.7559 47.0801 12.9902C46.9238 13.2246 46.8047 13.5137 46.7227 13.8574C46.6406 14.2012 46.5996 14.5996 46.5996 15.0527V15.4688C46.5996 15.918 46.6406 16.3164 46.7227 16.6641C46.8047 17.0078 46.9258 17.2988 47.0859 17.5371C47.2461 17.7715 47.4414 17.9492 47.6719 18.0703C47.9023 18.1914 48.166 18.252 48.4629 18.252C48.7598 18.252 49.0234 18.1914 49.2539 18.0703C49.4844 17.9492 49.6777 17.7715 49.834 17.5371C49.9902 17.2988 50.1094 17.0078 50.1914 16.6641C50.2734 16.3164 50.3145 15.918 50.3145 15.4688ZM53.8555 10.998H57.0371C57.6895 10.998 58.25 11.0957 58.7188 11.291C59.1914 11.4863 59.5547 11.7754 59.8086 12.1582C60.0625 12.541 60.1895 13.0117 60.1895 13.5703C60.1895 14.0273 60.1113 14.4199 59.9551 14.748C59.8027 15.0723 59.5859 15.3438 59.3047 15.5625C59.0273 15.7773 58.7012 15.9492 58.3262 16.0781L57.7695 16.3711H55.0039L54.9922 15H57.0488C57.3574 15 57.6133 14.9453 57.8164 14.8359C58.0195 14.7266 58.1719 14.5742 58.2734 14.3789C58.3789 14.1836 58.4316 13.957 58.4316 13.6992C58.4316 13.4258 58.3809 13.1895 58.2793 12.9902C58.1777 12.791 58.0234 12.6387 57.8164 12.5332C57.6094 12.4277 57.3496 12.375 57.0371 12.375H55.6133V19.5293H53.8555V10.998ZM58.625 19.5293L56.6797 15.7266L58.5371 15.7148L60.5059 19.4473V19.5293H58.625ZM67.7676 18.1582V19.5293H63.2266V18.1582H67.7676ZM63.8008 10.998V19.5293H62.043V10.998H63.8008ZM67.1758 14.4727V15.8086H63.2266V14.4727H67.1758ZM67.7617 10.998V12.375H63.2266V10.998H67.7617Z" fill="white"/>
</svg>
