<svg width="129" height="38" viewBox="0 0 129 38" fill="none" xmlns="http://www.w3.org/2000/svg">
<path d="M7.0566 37.6416L0 30.1133H7.0566V37.6416Z" fill="#5245ED"/>
<path d="M0 8C0 3.58172 3.58172 0 8 0H121C125.418 0 129 3.58172 129 8V22C129 26.4183 125.418 30 121 30H0V8Z" fill="#595ad4"/>
<path d="M15.6777 10.998H17.166L19.3574 17.2617L21.5488 10.998H23.0371L19.9551 19.5293H18.7598L15.6777 10.998ZM14.875 10.998H16.3574L16.627 17.1035V19.5293H14.875V10.998ZM22.3574 10.998H23.8457V19.5293H22.0879V17.1035L22.3574 10.998ZM29.4609 12.457L27.1406 19.5293H25.2715L28.4414 10.998H29.6309L29.4609 12.457ZM31.3887 19.5293L29.0625 12.457L28.875 10.998H30.0762L33.2637 19.5293H31.3887ZM31.2832 16.3535V17.7305H26.7773V16.3535H31.2832ZM34.5547 10.998H37.7363C38.3887 10.998 38.9492 11.0957 39.418 11.291C39.8906 11.4863 40.2539 11.7754 40.5078 12.1582C40.7617 12.541 40.8887 13.0117 40.8887 13.5703C40.8887 14.0273 40.8105 14.4199 40.6543 14.748C40.502 15.0723 40.2852 15.3438 40.0039 15.5625C39.7266 15.7773 39.4004 15.9492 39.0254 16.0781L38.4688 16.3711H35.7031L35.6914 15H37.748C38.0566 15 38.3125 14.9453 38.5156 14.8359C38.7188 14.7266 38.8711 14.5742 38.9727 14.3789C39.0781 14.1836 39.1309 13.957 39.1309 13.6992C39.1309 13.4258 39.0801 13.1895 38.9785 12.9902C38.877 12.791 38.7227 12.6387 38.5156 12.5332C38.3086 12.4277 38.0488 12.375 37.7363 12.375H36.3125V19.5293H34.5547V10.998ZM39.3242 19.5293L37.3789 15.7266L39.2363 15.7148L41.2051 19.4473V19.5293H39.3242ZM44.5 10.998V19.5293H42.7422V10.998H44.5ZM49.6094 10.998L46.2285 15.2109L44.2773 17.3086L43.9609 15.6445L45.2793 13.8398L47.4531 10.998H49.6094ZM47.6113 19.5293L45.0977 15.5859L46.3984 14.4961L49.6914 19.5293H47.6113ZM56.5957 18.1582V19.5293H52.0547V18.1582H56.5957ZM52.6289 10.998V19.5293H50.8711V10.998H52.6289ZM56.0039 14.4727V15.8086H52.0547V14.4727H56.0039ZM56.5898 10.998V12.375H52.0547V10.998H56.5898ZM62.0527 10.998V19.5293H60.3008V10.998H62.0527ZM64.6777 10.998V12.375H57.7168V10.998H64.6777ZM72.8496 10.998V19.5293H71.0977V10.998H72.8496ZM75.4746 10.998V12.375H68.5137V10.998H75.4746ZM76.9766 10.998H80.1582C80.8105 10.998 81.3711 11.0957 81.8398 11.291C82.3125 11.4863 82.6758 11.7754 82.9297 12.1582C83.1836 12.541 83.3105 13.0117 83.3105 13.5703C83.3105 14.0273 83.2324 14.4199 83.0762 14.748C82.9238 15.0723 82.707 15.3438 82.4258 15.5625C82.1484 15.7773 81.8223 15.9492 81.4473 16.0781L80.8906 16.3711H78.125L78.1133 15H80.1699C80.4785 15 80.7344 14.9453 80.9375 14.8359C81.1406 14.7266 81.293 14.5742 81.3945 14.3789C81.5 14.1836 81.5527 13.957 81.5527 13.6992C81.5527 13.4258 81.502 13.1895 81.4004 12.9902C81.2988 12.791 81.1445 12.6387 80.9375 12.5332C80.7305 12.4277 80.4707 12.375 80.1582 12.375H78.7344V19.5293H76.9766V10.998ZM81.7461 19.5293L79.8008 15.7266L81.6582 15.7148L83.627 19.4473V19.5293H81.7461ZM90.8887 18.1582V19.5293H86.3477V18.1582H90.8887ZM86.9219 10.998V19.5293H85.1641V10.998H86.9219ZM90.2969 14.4727V15.8086H86.3477V14.4727H90.2969ZM90.8828 10.998V12.375H86.3477V10.998H90.8828ZM99.3574 10.998V19.5293H97.5996L94.1719 13.8105V19.5293H92.4141V10.998H94.1719L97.6055 16.7227V10.998H99.3574ZM104.006 19.5293H102.148L102.16 18.1582H104.006C104.467 18.1582 104.855 18.0547 105.172 17.8477C105.488 17.6367 105.727 17.3301 105.887 16.9277C106.051 16.5254 106.133 16.0391 106.133 15.4688V15.0527C106.133 14.6152 106.086 14.2305 105.992 13.8984C105.902 13.5664 105.768 13.2871 105.588 13.0605C105.408 12.834 105.188 12.6641 104.926 12.5508C104.664 12.4336 104.363 12.375 104.023 12.375H102.113V10.998H104.023C104.594 10.998 105.115 11.0957 105.588 11.291C106.064 11.4824 106.477 11.7578 106.824 12.1172C107.172 12.4766 107.439 12.9062 107.627 13.4062C107.818 13.9023 107.914 14.4551 107.914 15.0645V15.4688C107.914 16.0742 107.818 16.627 107.627 17.127C107.439 17.627 107.172 18.0566 106.824 18.416C106.48 18.7715 106.068 19.0469 105.588 19.2422C105.111 19.4336 104.584 19.5293 104.006 19.5293ZM103.145 10.998V19.5293H101.387V10.998H103.145ZM114.133 17.2969C114.133 17.1445 114.109 17.0078 114.062 16.8867C114.02 16.7617 113.938 16.6484 113.816 16.5469C113.695 16.4414 113.525 16.3379 113.307 16.2363C113.088 16.1348 112.805 16.0293 112.457 15.9199C112.07 15.7949 111.703 15.6543 111.355 15.498C111.012 15.3418 110.707 15.1602 110.441 14.9531C110.18 14.7422 109.973 14.498 109.82 14.2207C109.672 13.9434 109.598 13.6211 109.598 13.2539C109.598 12.8984 109.676 12.5762 109.832 12.2871C109.988 11.9941 110.207 11.7441 110.488 11.5371C110.77 11.3262 111.102 11.1641 111.484 11.0508C111.871 10.9375 112.295 10.8809 112.756 10.8809C113.385 10.8809 113.934 10.9941 114.402 11.2207C114.871 11.4473 115.234 11.7578 115.492 12.1523C115.754 12.5469 115.885 12.998 115.885 13.5059H114.139C114.139 13.2559 114.086 13.0371 113.98 12.8496C113.879 12.6582 113.723 12.5078 113.512 12.3984C113.305 12.2891 113.043 12.2344 112.727 12.2344C112.422 12.2344 112.168 12.2812 111.965 12.375C111.762 12.4648 111.609 12.5879 111.508 12.7441C111.406 12.8965 111.355 13.0684 111.355 13.2598C111.355 13.4043 111.391 13.5352 111.461 13.6523C111.535 13.7695 111.645 13.8789 111.789 13.9805C111.934 14.082 112.111 14.1777 112.322 14.2676C112.533 14.3574 112.777 14.4453 113.055 14.5312C113.52 14.6719 113.928 14.8301 114.279 15.0059C114.635 15.1816 114.932 15.3789 115.17 15.5977C115.408 15.8164 115.588 16.0645 115.709 16.3418C115.83 16.6191 115.891 16.9336 115.891 17.2852C115.891 17.6562 115.818 17.9883 115.674 18.2812C115.529 18.5742 115.32 18.8223 115.047 19.0254C114.773 19.2285 114.447 19.3828 114.068 19.4883C113.689 19.5938 113.266 19.6465 112.797 19.6465C112.375 19.6465 111.959 19.5918 111.549 19.4824C111.139 19.3691 110.766 19.1992 110.43 18.9727C110.098 18.7461 109.832 18.457 109.633 18.1055C109.434 17.7539 109.334 17.3379 109.334 16.8574H111.098C111.098 17.123 111.139 17.3477 111.221 17.5312C111.303 17.7148 111.418 17.8633 111.566 17.9766C111.719 18.0898 111.898 18.1719 112.105 18.2227C112.316 18.2734 112.547 18.2988 112.797 18.2988C113.102 18.2988 113.352 18.2559 113.547 18.1699C113.746 18.084 113.893 17.9648 113.986 17.8125C114.084 17.6602 114.133 17.4883 114.133 17.2969Z" fill="white"/>
</svg>
