<svg width="121" height="38" viewBox="0 0 121 38" fill="none" xmlns="http://www.w3.org/2000/svg">
<path d="M7.0566 37.6416L0 30.1133H7.0566V37.6416Z" fill="#5245ED"/>
<path d="M0 8C0 3.58172 3.58172 0 8 0H113C117.418 0 121 3.58172 121 8V22C121 26.4183 117.418 30 113 30H0V8Z" fill="#595ad4"/>
<path d="M18.6895 10.998V19.5293H16.9375V10.998H18.6895ZM21.3145 10.998V12.375H14.3535V10.998H21.3145ZM24.6855 10.998V19.5293H22.9336V10.998H24.6855ZM30.1543 16.4883H27.9805V15.1172H30.1543C30.4902 15.1172 30.7637 15.0625 30.9746 14.9531C31.1855 14.8398 31.3398 14.6836 31.4375 14.4844C31.5352 14.2852 31.584 14.0605 31.584 13.8105C31.584 13.5566 31.5352 13.3203 31.4375 13.1016C31.3398 12.8828 31.1855 12.707 30.9746 12.5742C30.7637 12.4414 30.4902 12.375 30.1543 12.375H28.5898V19.5293H26.832V10.998H30.1543C30.8223 10.998 31.3945 11.1191 31.8711 11.3613C32.3516 11.5996 32.7188 11.9297 32.9727 12.3516C33.2266 12.7734 33.3535 13.2559 33.3535 13.7988C33.3535 14.3496 33.2266 14.8262 32.9727 15.2285C32.7188 15.6309 32.3516 15.9414 31.8711 16.1602C31.3945 16.3789 30.8223 16.4883 30.1543 16.4883ZM39.5078 17.2969C39.5078 17.1445 39.4844 17.0078 39.4375 16.8867C39.3945 16.7617 39.3125 16.6484 39.1914 16.5469C39.0703 16.4414 38.9004 16.3379 38.6816 16.2363C38.4629 16.1348 38.1797 16.0293 37.832 15.9199C37.4453 15.7949 37.0781 15.6543 36.7305 15.498C36.3867 15.3418 36.082 15.1602 35.8164 14.9531C35.5547 14.7422 35.3477 14.498 35.1953 14.2207C35.0469 13.9434 34.9727 13.6211 34.9727 13.2539C34.9727 12.8984 35.0508 12.5762 35.207 12.2871C35.3633 11.9941 35.582 11.7441 35.8633 11.5371C36.1445 11.3262 36.4766 11.1641 36.8594 11.0508C37.2461 10.9375 37.6699 10.8809 38.1309 10.8809C38.7598 10.8809 39.3086 10.9941 39.7773 11.2207C40.2461 11.4473 40.6094 11.7578 40.8672 12.1523C41.1289 12.5469 41.2598 12.998 41.2598 13.5059H39.5137C39.5137 13.2559 39.4609 13.0371 39.3555 12.8496C39.2539 12.6582 39.0977 12.5078 38.8867 12.3984C38.6797 12.2891 38.418 12.2344 38.1016 12.2344C37.7969 12.2344 37.543 12.2812 37.3398 12.375C37.1367 12.4648 36.9844 12.5879 36.8828 12.7441C36.7812 12.8965 36.7305 13.0684 36.7305 13.2598C36.7305 13.4043 36.7656 13.5352 36.8359 13.6523C36.9102 13.7695 37.0195 13.8789 37.1641 13.9805C37.3086 14.082 37.4863 14.1777 37.6973 14.2676C37.9082 14.3574 38.1523 14.4453 38.4297 14.5312C38.8945 14.6719 39.3027 14.8301 39.6543 15.0059C40.0098 15.1816 40.3066 15.3789 40.5449 15.5977C40.7832 15.8164 40.9629 16.0645 41.084 16.3418C41.2051 16.6191 41.2656 16.9336 41.2656 17.2852C41.2656 17.6562 41.1934 17.9883 41.0488 18.2812C40.9043 18.5742 40.6953 18.8223 40.4219 19.0254C40.1484 19.2285 39.8223 19.3828 39.4434 19.4883C39.0645 19.5938 38.6406 19.6465 38.1719 19.6465C37.75 19.6465 37.334 19.5918 36.9238 19.4824C36.5137 19.3691 36.1406 19.1992 35.8047 18.9727C35.4727 18.7461 35.207 18.457 35.0078 18.1055C34.8086 17.7539 34.709 17.3379 34.709 16.8574H36.4727C36.4727 17.123 36.5137 17.3477 36.5957 17.5312C36.6777 17.7148 36.793 17.8633 36.9414 17.9766C37.0938 18.0898 37.2734 18.1719 37.4805 18.2227C37.6914 18.2734 37.9219 18.2988 38.1719 18.2988C38.4766 18.2988 38.7266 18.2559 38.9219 18.1699C39.1211 18.084 39.2676 17.9648 39.3613 17.8125C39.459 17.6602 39.5078 17.4883 39.5078 17.2969ZM47.6855 14.9648L49.3262 13.9043C49.5684 13.7441 49.7305 13.5898 49.8125 13.4414C49.8945 13.293 49.9355 13.127 49.9355 12.9434C49.9355 12.7598 49.8672 12.5898 49.7305 12.4336C49.5938 12.2734 49.4023 12.1934 49.1562 12.1934C48.9805 12.1934 48.832 12.2344 48.7109 12.3164C48.5898 12.3945 48.498 12.5 48.4355 12.6328C48.377 12.7656 48.3477 12.9141 48.3477 13.0781C48.3477 13.2539 48.3945 13.4336 48.4883 13.6172C48.582 13.7969 48.709 13.9883 48.8691 14.1914C49.0293 14.3906 49.207 14.6074 49.4023 14.8418L53.4277 19.5293H51.5117L48.2305 15.7324C47.9531 15.3887 47.7109 15.0742 47.5039 14.7891C47.2969 14.5 47.1348 14.2188 47.0176 13.9453C46.9004 13.6719 46.8418 13.3906 46.8418 13.1016C46.8418 12.6562 46.9375 12.2676 47.1289 11.9355C47.3203 11.5996 47.5898 11.3398 47.9375 11.1562C48.2852 10.9688 48.6934 10.875 49.1621 10.875C49.6035 10.875 49.9863 10.9668 50.3105 11.1504C50.6348 11.3301 50.8848 11.5684 51.0605 11.8652C51.2402 12.1621 51.3301 12.4883 51.3301 12.8438C51.3301 13.1094 51.2812 13.3555 51.1836 13.582C51.0859 13.8047 50.9512 14.0117 50.7793 14.2031C50.6074 14.3906 50.4102 14.5645 50.1875 14.7246L48.3184 16.0547C48.1738 16.1875 48.0645 16.3184 47.9902 16.4473C47.916 16.5762 47.8652 16.6992 47.8379 16.8164C47.8105 16.9297 47.7969 17.0391 47.7969 17.1445C47.7969 17.3711 47.8457 17.5742 47.9434 17.7539C48.041 17.9336 48.1777 18.0742 48.3535 18.1758C48.5293 18.2773 48.7344 18.3281 48.9688 18.3281C49.2891 18.3281 49.5996 18.2578 49.9004 18.1172C50.2012 17.9766 50.4707 17.7754 50.709 17.5137C50.9473 17.248 51.1367 16.9336 51.2773 16.5703C51.418 16.207 51.4883 15.8066 51.4883 15.3691H52.918C52.918 15.8066 52.875 16.2227 52.7891 16.6172C52.7031 17.0078 52.5645 17.3711 52.373 17.707C52.1816 18.0391 51.9277 18.334 51.6113 18.5918C51.5879 18.6113 51.5547 18.6406 51.5117 18.6797C51.4727 18.7148 51.4395 18.7422 51.4121 18.7617C51.0371 19.0625 50.6465 19.2871 50.2402 19.4355C49.834 19.5801 49.3809 19.6523 48.8809 19.6523C48.3105 19.6523 47.8164 19.5488 47.3984 19.3418C46.9844 19.1348 46.6641 18.8496 46.4375 18.4863C46.2148 18.123 46.1035 17.707 46.1035 17.2383C46.1035 16.8945 46.1699 16.5957 46.3027 16.3418C46.4395 16.084 46.627 15.8457 46.8652 15.627C47.1035 15.4082 47.377 15.1875 47.6855 14.9648ZM61.8047 12.457L59.4844 19.5293H57.6152L60.7852 10.998H61.9746L61.8047 12.457ZM63.7324 19.5293L61.4062 12.457L61.2188 10.998H62.4199L65.6074 19.5293H63.7324ZM63.627 16.3535V17.7305H59.1211V16.3535H63.627ZM69.5176 19.5293H67.6602L67.6719 18.1582H69.5176C69.9785 18.1582 70.3672 18.0547 70.6836 17.8477C71 17.6367 71.2383 17.3301 71.3984 16.9277C71.5625 16.5254 71.6445 16.0391 71.6445 15.4688V15.0527C71.6445 14.6152 71.5977 14.2305 71.5039 13.8984C71.4141 13.5664 71.2793 13.2871 71.0996 13.0605C70.9199 12.834 70.6992 12.6641 70.4375 12.5508C70.1758 12.4336 69.875 12.375 69.5352 12.375H67.625V10.998H69.5352C70.1055 10.998 70.627 11.0957 71.0996 11.291C71.5762 11.4824 71.9883 11.7578 72.3359 12.1172C72.6836 12.4766 72.9512 12.9062 73.1387 13.4062C73.3301 13.9023 73.4258 14.4551 73.4258 15.0645V15.4688C73.4258 16.0742 73.3301 16.627 73.1387 17.127C72.9512 17.627 72.6836 18.0566 72.3359 18.416C71.9922 18.7715 71.5801 19.0469 71.0996 19.2422C70.623 19.4336 70.0957 19.5293 69.5176 19.5293ZM68.6562 10.998V19.5293H66.8984V10.998H68.6562ZM78.1504 17.748L80.1602 10.998H82.1172L79.1465 19.5293H77.8574L78.1504 17.748ZM76.2988 10.998L78.3027 17.748L78.6074 19.5293H77.3066L74.3535 10.998H76.2988ZM85.2832 10.998V19.5293H83.5312V10.998H85.2832ZM92.375 16.6992H94.127C94.0918 17.2734 93.9336 17.7832 93.6523 18.2285C93.375 18.6738 92.9863 19.0215 92.4863 19.2715C91.9902 19.5215 91.3926 19.6465 90.6934 19.6465C90.1465 19.6465 89.6562 19.5527 89.2227 19.3652C88.7891 19.1738 88.418 18.9004 88.1094 18.5449C87.8047 18.1895 87.5723 17.7598 87.4121 17.2559C87.252 16.752 87.1719 16.1875 87.1719 15.5625V14.9707C87.1719 14.3457 87.2539 13.7812 87.418 13.2773C87.5859 12.7695 87.8242 12.3379 88.1328 11.9824C88.4453 11.627 88.8184 11.3535 89.252 11.1621C89.6855 10.9707 90.1699 10.875 90.7051 10.875C91.416 10.875 92.0156 11.0039 92.5039 11.2617C92.9961 11.5195 93.377 11.875 93.6465 12.3281C93.9199 12.7812 94.084 13.2969 94.1387 13.875H92.3809C92.3613 13.5312 92.293 13.2402 92.1758 13.002C92.0586 12.7598 91.8809 12.5781 91.6426 12.457C91.4082 12.332 91.0957 12.2695 90.7051 12.2695C90.4121 12.2695 90.1562 12.3242 89.9375 12.4336C89.7188 12.543 89.5352 12.709 89.3867 12.9316C89.2383 13.1543 89.127 13.4355 89.0527 13.7754C88.9824 14.1113 88.9473 14.5059 88.9473 14.959V15.5625C88.9473 16.0039 88.9805 16.3926 89.0469 16.7285C89.1133 17.0605 89.2148 17.3418 89.3516 17.5723C89.4922 17.7988 89.6719 17.9707 89.8906 18.0879C90.1133 18.2012 90.3809 18.2578 90.6934 18.2578C91.0605 18.2578 91.3633 18.1992 91.6016 18.082C91.8398 17.9648 92.0215 17.791 92.1465 17.5605C92.2754 17.3301 92.3516 17.043 92.375 16.6992ZM101.506 18.1582V19.5293H96.9648V18.1582H101.506ZM97.5391 10.998V19.5293H95.7812V10.998H97.5391ZM100.914 14.4727V15.8086H96.9648V14.4727H100.914ZM101.5 10.998V12.375H96.9648V10.998H101.5Z" fill="white"/>
</svg>
