<svg width="553" height="517" viewBox="0 0 553 517" fill="none" xmlns="http://www.w3.org/2000/svg">
<path d="M511.079 449.689H22.765C10.5732 449.689 0.689299 440.58 0.689299 429.345V107.051C0.689299 95.8155 10.5732 86.7071 22.765 86.7071H511.079C523.271 86.7071 533.155 95.8155 533.155 107.051V429.345C533.155 440.58 523.271 449.689 511.079 449.689Z" fill="white"/>
<path d="M511.079 450.328H22.765C10.2145 450.328 0 440.918 0 429.352V107.058C0 95.4922 10.2114 86.082 22.765 86.082H511.079C523.63 86.082 533.841 95.4922 533.841 107.058V429.352C533.844 440.918 523.63 450.328 511.079 450.328ZM22.765 87.3467C10.9693 87.3467 1.37545 96.1878 1.37545 107.058V429.352C1.37545 440.219 10.9693 449.063 22.765 449.063H511.079C522.872 449.063 532.469 440.222 532.469 429.352V107.058C532.469 96.1906 522.875 87.3467 511.079 87.3467H22.765Z" fill="#595ad4"/>
<path d="M487.238 404.839H44.5039C35.8926 404.839 28.9156 398.406 28.9156 390.473V123.574C28.9156 115.638 35.8957 109.209 44.5039 109.209H487.238C495.85 109.209 502.827 115.641 502.827 123.574V390.47C502.827 398.406 495.846 404.839 487.238 404.839Z" fill="white"/>
<path d="M487.238 405.473H44.5008C35.5246 405.473 28.2232 398.744 28.2232 390.472V123.576C28.2232 115.304 35.5246 108.575 44.5008 108.575H487.238C496.215 108.575 503.516 115.304 503.516 123.576V390.472C503.513 398.744 496.212 405.473 487.238 405.473ZM44.5008 109.843C36.2825 109.843 29.5986 116.002 29.5986 123.576V390.472C29.5986 398.046 36.2825 404.205 44.5008 404.205H487.238C495.457 404.205 502.141 398.046 502.141 390.472V123.576C502.141 116.002 495.457 109.843 487.238 109.843H44.5008Z" fill="#595ad4"/>
<path d="M483.842 433.923H34.5955C31.4922 433.923 28.9752 431.603 28.9752 428.744V428.105C28.9752 425.246 31.4922 422.926 34.5955 422.926H483.842C486.946 422.926 489.463 425.246 489.463 428.105V428.744C489.463 431.603 486.946 433.923 483.842 433.923Z" fill="white"/>
<path d="M483.842 434.562H34.5953C31.1177 434.562 28.2889 431.955 28.2889 428.751V428.112C28.2889 424.908 31.1177 422.301 34.5953 422.301H483.842C487.32 422.301 490.148 424.908 490.148 428.112V428.751C490.148 431.955 487.32 434.562 483.842 434.562ZM34.5953 423.568C31.8756 423.568 29.6643 425.606 29.6643 428.112V428.751C29.6643 431.257 31.8788 433.295 34.5953 433.295H483.842C486.562 433.295 488.773 431.257 488.773 428.751V428.112C488.773 425.606 486.559 423.568 483.842 423.568H34.5953Z" fill="#595ad4"/>
<path d="M483.237 433.929H239.098V422.935H483.237C486.341 422.935 488.858 425.254 488.858 428.114V428.752C488.858 431.609 486.341 433.929 483.237 433.929Z" fill="white"/>
<path d="M483.237 434.568H239.097C238.717 434.568 238.411 434.283 238.411 433.936V422.942C238.411 422.591 238.72 422.31 239.097 422.31H483.237C486.715 422.31 489.544 424.916 489.544 428.121V428.759C489.544 431.961 486.715 434.568 483.237 434.568ZM239.784 433.3H483.237C485.957 433.3 488.168 431.263 488.168 428.756V428.118C488.168 425.612 485.957 423.574 483.237 423.574H239.784V433.3Z" fill="#595ad4"/>
<path d="M239.409 436.865C244.449 436.865 248.535 433.004 248.535 428.242C248.535 423.48 244.449 419.619 239.409 419.619C234.369 419.619 230.283 423.48 230.283 428.242C230.283 433.004 234.369 436.865 239.409 436.865Z" fill="#595ad4"/>
<path d="M363.174 373.489H54.4567C47.4485 373.489 41.7471 368.235 41.7471 361.776V135.38C41.7471 128.922 47.4485 123.668 54.4567 123.668H363.171C370.179 123.668 375.881 128.922 375.881 135.38V361.776C375.884 368.235 370.182 373.489 363.174 373.489ZM54.4567 124.932C48.2064 124.932 43.1194 129.62 43.1194 135.38V361.776C43.1194 367.536 48.2064 372.224 54.4567 372.224H363.171C369.421 372.224 374.508 367.536 374.508 361.776V135.38C374.508 129.62 369.421 124.932 363.171 124.932H54.4567Z" fill="#595ad4"/>
<path d="M485.667 182.577H397.925C393.945 182.577 390.708 179.594 390.708 175.929V136.072C390.708 132.405 393.945 129.424 397.925 129.424H485.667C489.646 129.424 492.881 132.408 492.881 136.072V175.929C492.884 179.597 489.646 182.577 485.667 182.577ZM397.928 130.689C394.706 130.689 392.087 133.103 392.087 136.072V175.929C392.087 178.898 394.706 181.312 397.928 181.312H485.67C488.892 181.312 491.512 178.898 491.512 175.929V136.072C491.512 133.103 488.892 130.689 485.67 130.689H397.928Z" fill="#595ad4"/>
<path d="M485.667 247.282H397.925C393.945 247.282 390.708 244.299 390.708 240.634V200.777C390.708 197.11 393.945 194.129 397.925 194.129H485.667C489.646 194.129 492.881 197.113 492.881 200.777V240.634C492.881 244.302 489.643 247.282 485.667 247.282ZM397.925 195.394C394.703 195.394 392.083 197.808 392.083 200.777V240.634C392.083 243.603 394.703 246.018 397.925 246.018H485.667C488.889 246.018 491.508 243.603 491.508 240.634V200.777C491.508 197.808 488.889 195.394 485.667 195.394H397.925Z" fill="#595ad4"/>
<path d="M485.664 310.696H397.922C393.942 310.696 390.708 307.712 390.708 304.048V264.191C390.708 260.524 393.945 257.543 397.922 257.543H485.664C489.643 257.543 492.881 260.526 492.881 264.191V304.048C492.881 307.712 489.643 310.696 485.664 310.696ZM397.925 258.808C394.703 258.808 392.083 261.222 392.083 264.191V304.048C392.083 307.017 394.703 309.431 397.925 309.431H485.667C488.889 309.431 491.508 307.017 491.508 304.048V264.191C491.508 261.222 488.889 258.808 485.667 258.808H397.925Z" fill="#595ad4"/>
<path d="M485.664 373.487H397.922C393.942 373.487 390.708 370.504 390.708 366.839V326.979C390.708 323.312 393.945 320.331 397.922 320.331H485.664C489.643 320.331 492.881 323.315 492.881 326.979V366.836C492.881 370.504 489.643 373.487 485.664 373.487ZM397.925 321.596C394.703 321.596 392.083 324.01 392.083 326.979V366.836C392.083 369.805 394.703 372.22 397.925 372.22H485.667C488.889 372.22 491.508 369.805 491.508 366.836V326.979C491.508 324.01 488.889 321.596 485.667 321.596H397.925Z" fill="#595ad4"/>
<path d="M441.076 171.153C437.009 171.153 433.123 169.805 430.035 167.299C423.067 161.645 422.362 151.795 428.46 145.337C431.417 142.207 435.512 140.33 439.99 140.057C444.454 139.784 448.789 141.14 452.164 143.877C459.131 149.53 459.836 159.38 453.739 165.839C450.782 168.969 446.687 170.845 442.208 171.118C441.827 171.141 441.45 171.153 441.076 171.153ZM441.12 141.29C440.773 141.29 440.427 141.301 440.081 141.321C435.967 141.574 432.209 143.296 429.492 146.17C423.887 152.103 424.539 161.156 430.939 166.35C434.036 168.862 437.997 170.104 442.111 169.857C446.225 169.604 449.983 167.882 452.7 165.008C458.305 159.075 457.653 150.022 451.253 144.828C448.421 142.529 444.856 141.29 441.12 141.29Z" fill="#595ad4"/>
<path d="M436.382 160.353V151.015C436.382 150.538 436.924 150.227 437.389 150.437L447.522 155.047C448.037 155.283 448.04 155.959 447.529 156.197L437.395 160.925C436.931 161.144 436.382 160.833 436.382 160.353Z" fill="#595ad4"/>
<path d="M441.072 236.492C437.005 236.492 433.119 235.144 430.031 232.638C423.064 226.984 422.359 217.134 428.456 210.676C431.413 207.546 435.508 205.669 439.987 205.396C444.472 205.117 448.785 206.48 452.16 209.216C459.128 214.869 459.833 224.719 453.735 231.178C450.778 234.308 446.683 236.185 442.205 236.458C441.827 236.481 441.45 236.492 441.072 236.492ZM441.119 206.626C440.773 206.626 440.427 206.638 440.081 206.658C435.967 206.911 432.208 208.632 429.492 211.507C423.887 217.439 424.539 226.493 430.939 231.687C434.036 234.202 438 235.443 442.114 235.193C446.225 234.94 449.986 233.219 452.7 230.344C458.304 224.412 457.656 215.358 451.253 210.164C448.417 207.865 444.852 206.626 441.119 206.626Z" fill="#595ad4"/>
<path d="M436.381 225.691V216.353C436.381 215.876 436.924 215.565 437.388 215.775L447.522 220.385C448.036 220.621 448.04 221.297 447.528 221.535L437.395 226.263C436.93 226.479 436.381 226.168 436.381 225.691Z" fill="#595ad4"/>
<path d="M441.069 298.633C437.002 298.633 433.116 297.285 430.028 294.779C423.061 289.125 422.356 279.275 428.453 272.817C431.41 269.687 435.505 267.81 439.984 267.537C444.463 267.264 448.783 268.621 452.157 271.357C459.125 277.01 459.83 286.86 453.732 293.319C450.776 296.449 446.68 298.326 442.202 298.599C441.824 298.622 441.447 298.633 441.069 298.633ZM441.116 268.767C440.77 268.767 440.424 268.779 440.078 268.799C435.964 269.052 432.205 270.773 429.489 273.648C423.884 279.58 424.536 288.634 430.936 293.827C434.033 296.339 438.01 297.584 442.111 297.334C446.225 297.081 449.983 295.359 452.697 292.485C458.302 286.553 457.653 277.499 451.25 272.305C448.415 270.006 444.85 268.767 441.116 268.767Z" fill="#595ad4"/>
<path d="M436.378 287.834V278.495C436.378 278.018 436.921 277.708 437.385 277.917L447.519 282.528C448.033 282.763 448.037 283.439 447.525 283.677L437.392 288.405C436.927 288.624 436.378 288.314 436.378 287.834Z" fill="white"/>
<path d="M441.272 360.955C437.205 360.955 433.318 359.607 430.231 357.1C423.263 351.447 422.558 341.597 428.656 335.139C431.612 332.009 435.707 330.132 440.186 329.859C444.668 329.586 448.985 330.942 452.359 333.678C459.327 339.332 460.032 349.182 453.935 355.64C450.978 358.77 446.883 360.647 442.404 360.92C442.027 360.943 441.649 360.955 441.272 360.955ZM431.141 356.149C434.238 358.661 438.209 359.908 442.317 359.656C446.427 359.403 450.189 357.681 452.902 354.807C458.507 348.874 457.855 339.821 451.455 334.627C448.358 332.115 444.397 330.87 440.28 331.12C436.166 331.373 432.408 333.095 429.691 335.969C424.089 341.904 424.738 350.955 431.141 356.149Z" fill="#595ad4"/>
<path d="M436.581 350.155V340.817C436.581 340.34 437.124 340.029 437.589 340.239L447.722 344.849C448.237 345.085 448.24 345.76 447.728 345.999L437.595 350.727C437.13 350.945 436.581 350.635 436.581 350.155Z" fill="#595ad4"/>
<path d="M319.918 353.402H76.293C74.9831 353.402 73.9226 352.376 73.9226 351.108V199.557C73.9226 194.288 78.364 190.032 83.8127 190.08L325.535 192.156L325.517 347.55C325.514 350.781 323.009 353.402 319.918 353.402Z" fill="white"/>
<path d="M319.921 354.041H76.293C74.6056 354.041 73.2333 352.728 73.2333 351.115V199.564C73.2333 196.758 74.3967 194.151 76.5113 192.223C78.4918 190.415 81.0743 189.438 83.8158 189.455L325.539 191.53C325.916 191.533 326.219 191.815 326.219 192.162L326.2 347.557C326.203 351.132 323.383 354.041 319.921 354.041ZM83.7223 190.717C81.3924 190.717 79.178 191.568 77.4782 193.12C75.6286 194.81 74.6087 197.098 74.6087 199.561V351.112C74.6087 352.029 75.3635 352.774 76.293 352.774H319.918C322.626 352.774 324.828 350.431 324.828 347.554L324.846 192.786L83.8033 190.717C83.7753 190.717 83.7503 190.717 83.7223 190.717Z" fill="#595ad4"/>
<path d="M204.387 212.074L64.2475 211.41C62.2888 211.402 60.9976 209.467 61.8272 207.783L103.01 154.498C103.917 153.325 105.364 152.641 106.899 152.67C123.398 152.977 226.51 153.228 226.51 153.228L204.387 212.074Z" fill="#595ad4"/>
<path d="M127.499 285.458H111.926C110.339 285.458 109.051 284.268 109.051 282.808V260.108C109.051 258.645 110.342 257.458 111.926 257.458H127.499C129.087 257.458 130.375 258.648 130.375 260.108V282.808C130.378 284.268 129.087 285.458 127.499 285.458ZM111.926 258.72C111.097 258.72 110.423 259.34 110.423 260.105V282.806C110.423 283.57 111.097 284.191 111.926 284.191H127.499C128.329 284.191 129.002 283.57 129.002 282.806V260.105C129.002 259.34 128.329 258.72 127.499 258.72H111.926Z" fill="#595ad4"/>
<path d="M103.873 285.461H88.7433C87.0341 285.461 85.6462 284.179 85.6462 282.607V260.312C85.6462 258.737 87.0372 257.458 88.7433 257.458H103.873C105.582 257.458 106.97 258.74 106.97 260.312V282.607C106.97 284.179 105.582 285.461 103.873 285.461ZM88.7433 258.722C87.792 258.722 87.0185 259.435 87.0185 260.312V282.607C87.0185 283.484 87.792 284.197 88.7433 284.197H103.873C104.824 284.197 105.598 283.484 105.598 282.607V260.312C105.598 259.435 104.824 258.722 103.873 258.722H88.7433Z" fill="#595ad4"/>
<path d="M128.123 315.165H111.299C110.058 315.165 109.047 314.234 109.047 313.09V289.237C109.047 288.093 110.058 287.162 111.299 287.162H128.123C129.364 287.162 130.375 288.093 130.375 289.237V313.09C130.375 314.234 129.367 315.165 128.123 315.165ZM111.302 288.426C110.819 288.426 110.426 288.788 110.426 289.234V313.087C110.426 313.533 110.819 313.895 111.302 313.895H128.126C128.609 313.895 129.002 313.533 129.002 313.087V289.234C129.002 288.788 128.609 288.426 128.126 288.426H111.302Z" fill="#595ad4"/>
<path d="M103.811 315.165H88.8056C87.0622 315.165 85.6462 313.86 85.6462 312.253V290.073C85.6462 288.466 87.0622 287.162 88.8056 287.162H103.811C105.554 287.162 106.97 288.466 106.97 290.073V312.253C106.97 313.857 105.551 315.165 103.811 315.165ZM88.8025 288.426C87.817 288.426 87.0185 289.165 87.0185 290.07V312.251C87.0185 313.159 87.8201 313.895 88.8025 313.895H103.808C104.793 313.895 105.592 313.156 105.592 312.251V290.07C105.592 289.162 104.79 288.426 103.808 288.426H88.8025Z" fill="#595ad4"/>
<path d="M146.393 348.905L145.389 194.203L242.45 152.314L335.176 194.818L333.332 351.328C333.276 353.446 331.386 355.127 329.084 355.11L151.54 353.685C148.692 353.662 146.393 351.529 146.393 348.905Z" fill="white"/>
<path d="M329.122 355.752C329.106 355.752 329.094 355.752 329.078 355.752L151.533 354.326C148.321 354.3 145.707 351.875 145.707 348.917L144.703 194.215C144.703 193.968 144.856 193.744 145.099 193.638L242.16 151.749C242.347 151.668 242.569 151.668 242.756 151.755L335.481 194.258C335.718 194.368 335.865 194.589 335.862 194.833L334.018 351.343C333.956 353.786 331.763 355.752 329.122 355.752ZM146.082 194.612L147.083 348.908V348.911C147.083 351.179 149.085 353.039 151.549 353.059L329.094 354.484C329.103 354.484 329.116 354.484 329.125 354.484C331.024 354.484 332.602 353.07 332.649 351.32L334.486 195.216L242.444 153.025L146.082 194.612Z" fill="#595ad4"/>
<path d="M318.037 284.936H302.464C300.877 284.936 299.589 283.746 299.589 282.286V259.626C299.589 258.163 300.88 256.976 302.464 256.976H318.037C319.625 256.976 320.913 258.166 320.913 259.626V282.286C320.916 283.746 319.625 284.936 318.037 284.936ZM302.464 258.238C301.635 258.238 300.961 258.858 300.961 259.623V282.283C300.961 283.048 301.635 283.669 302.464 283.669H318.037C318.867 283.669 319.54 283.048 319.54 282.283V259.623C319.54 258.858 318.867 258.238 318.037 258.238H302.464Z" fill="#595ad4"/>
<path d="M294.411 284.939H279.281C277.572 284.939 276.184 283.657 276.184 282.085V259.83C276.184 258.255 277.575 256.976 279.281 256.976H294.411C296.12 256.976 297.508 258.258 297.508 259.83V282.085C297.508 283.657 296.12 284.939 294.411 284.939ZM279.281 258.241C278.33 258.241 277.556 258.953 277.556 259.83V282.085C277.556 282.962 278.33 283.674 279.281 283.674H294.411C295.362 283.674 296.136 282.962 296.136 282.085V259.83C296.136 258.953 295.362 258.241 294.411 258.241H279.281Z" fill="#595ad4"/>
<path d="M318.664 314.602H301.84C300.599 314.602 299.589 313.671 299.589 312.527V288.714C299.589 287.57 300.599 286.638 301.84 286.638H318.664C319.905 286.638 320.916 287.57 320.916 288.714V312.527C320.916 313.671 319.905 314.602 318.664 314.602ZM301.84 287.903C301.357 287.903 300.964 288.265 300.964 288.711V312.524C300.964 312.969 301.357 313.331 301.84 313.331H318.664C319.147 313.331 319.54 312.969 319.54 312.524V288.711C319.54 288.265 319.147 287.903 318.664 287.903H301.84Z" fill="#595ad4"/>
<path d="M294.349 314.602H279.343C277.6 314.602 276.184 313.297 276.184 311.69V289.55C276.184 287.943 277.6 286.638 279.343 286.638H294.349C296.092 286.638 297.508 287.943 297.508 289.55V311.69C297.508 313.294 296.092 314.602 294.349 314.602ZM279.343 287.903C278.358 287.903 277.559 288.642 277.559 289.547V311.687C277.559 312.596 278.361 313.331 279.343 313.331H294.349C295.334 313.331 296.133 312.593 296.133 311.687V289.547C296.133 288.639 295.331 287.903 294.349 287.903H279.343Z" fill="#595ad4"/>
<path d="M259.235 200.178H243.662C242.075 200.178 240.787 198.988 240.787 197.528V179.96C240.787 178.497 242.078 177.31 243.662 177.31H259.235C260.823 177.31 262.111 178.5 262.111 179.96V197.528C262.114 198.988 260.823 200.178 259.235 200.178ZM243.662 178.572C242.833 178.572 242.159 179.193 242.159 179.958V197.525C242.159 198.289 242.833 198.91 243.662 198.91H259.235C260.065 198.91 260.739 198.289 260.739 197.525V179.958C260.739 179.193 260.065 178.572 259.235 178.572H243.662Z" fill="#595ad4"/>
<path d="M235.609 200.178H220.479C218.77 200.178 217.382 198.896 217.382 197.324V180.165C217.382 178.589 218.773 177.31 220.479 177.31H235.609C237.318 177.31 238.706 178.592 238.706 180.165V197.324C238.706 198.896 237.318 200.178 235.609 200.178ZM220.479 178.572C219.528 178.572 218.755 179.285 218.755 180.162V197.321C218.755 198.197 219.528 198.91 220.479 198.91H235.609C236.56 198.91 237.334 198.197 237.334 197.321V180.162C237.334 179.285 236.56 178.572 235.609 178.572H220.479Z" fill="#595ad4"/>
<path d="M259.859 224.184H243.036C241.795 224.184 240.784 223.252 240.784 222.109V203.389C240.784 202.245 241.795 201.314 243.036 201.314H259.859C261.101 201.314 262.111 202.245 262.111 203.389V222.109C262.111 223.252 261.104 224.184 259.859 224.184ZM243.039 202.581C242.556 202.581 242.163 202.943 242.163 203.389V222.109C242.163 222.554 242.556 222.916 243.039 222.916H259.863C260.346 222.916 260.739 222.554 260.739 222.109V203.389C260.739 202.943 260.346 202.581 259.863 202.581H243.039Z" fill="#595ad4"/>
<path d="M235.547 224.184H220.542C218.798 224.184 217.382 222.879 217.382 221.272V204.225C217.382 202.618 218.798 201.314 220.542 201.314H235.547C237.29 201.314 238.706 202.618 238.706 204.225V221.272C238.706 222.879 237.29 224.184 235.547 224.184ZM220.539 202.581C219.553 202.581 218.755 203.32 218.755 204.225V221.272C218.755 222.18 219.556 222.916 220.539 222.916H235.544C236.529 222.916 237.328 222.178 237.328 221.272V204.225C237.328 203.317 236.526 202.581 235.544 202.581H220.539Z" fill="#595ad4"/>
<path d="M198.962 284.902H183.389C181.802 284.902 180.514 283.712 180.514 282.252V259.548C180.514 258.085 181.805 256.898 183.389 256.898H198.962C200.55 256.898 201.838 258.088 201.838 259.548V282.252C201.838 283.712 200.55 284.902 198.962 284.902ZM183.389 258.163C182.56 258.163 181.886 258.784 181.886 259.548V282.252C181.886 283.016 182.56 283.637 183.389 283.637H198.962C199.792 283.637 200.466 283.016 200.466 282.252V259.548C200.466 258.784 199.792 258.163 198.962 258.163H183.389Z" fill="#595ad4"/>
<path d="M175.337 284.902H160.207C158.498 284.902 157.11 283.62 157.11 282.048V259.752C157.11 258.177 158.501 256.898 160.207 256.898H175.337C177.046 256.898 178.434 258.18 178.434 259.752V282.048C178.434 283.623 177.043 284.902 175.337 284.902ZM160.204 258.163C159.252 258.163 158.482 258.876 158.482 259.752V282.048C158.482 282.924 159.256 283.637 160.204 283.637H175.334C176.285 283.637 177.058 282.924 177.058 282.048V259.752C177.058 258.876 176.285 258.163 175.334 258.163H160.204Z" fill="#595ad4"/>
<path d="M199.586 314.606H182.763C181.522 314.606 180.511 313.674 180.511 312.53V288.677C180.511 287.533 181.522 286.602 182.763 286.602H199.586C200.828 286.602 201.838 287.533 201.838 288.677V312.53C201.838 313.677 200.828 314.606 199.586 314.606ZM182.763 287.87C182.279 287.87 181.886 288.232 181.886 288.677V312.53C181.886 312.976 182.279 313.338 182.763 313.338H199.586C200.07 313.338 200.463 312.976 200.463 312.53V288.677C200.463 288.232 200.07 287.87 199.586 287.87H182.763Z" fill="#595ad4"/>
<path d="M175.274 314.606H160.269C158.526 314.606 157.11 313.301 157.11 311.694V289.514C157.11 287.907 158.526 286.602 160.269 286.602H175.274C177.018 286.602 178.434 287.907 178.434 289.514V311.694C178.434 313.301 177.015 314.606 175.274 314.606ZM160.266 287.87C159.28 287.87 158.482 288.608 158.482 289.514V311.694C158.482 312.602 159.284 313.338 160.266 313.338H175.271C176.257 313.338 177.055 312.599 177.055 311.694V289.514C177.055 288.605 176.254 287.87 175.271 287.87H160.266Z" fill="#595ad4"/>
<path d="M241.617 138.434L342.47 190.282C344.61 191.383 345.012 193.616 343.343 195.099L339.491 199.753C337.779 201.822 334.791 202.44 332.346 201.236L240.881 156.157C240.269 155.855 239.546 155.852 238.931 156.151L145.214 201.704C143.979 202.305 142.475 202.009 141.586 200.986L137.619 196.433C135.364 193.843 136.291 190.383 139.709 188.641L238.195 138.428C239.265 137.885 240.55 137.885 241.617 138.434Z" fill="#595ad4"/>
<path d="M143.863 202.657C142.806 202.657 141.771 202.218 141.05 201.39L137.083 196.837C135.923 195.506 135.47 193.905 135.807 192.327C136.175 190.606 137.476 189.065 139.375 188.097L237.861 137.884C239.143 137.232 240.672 137.234 241.95 137.89L342.804 189.738C344.058 190.382 344.869 191.416 345.031 192.572C345.181 193.638 344.753 194.713 343.858 195.529L340.034 200.145C338.122 202.453 334.751 203.149 332.019 201.804L240.556 156.725C240.148 156.523 239.661 156.52 239.252 156.719L145.535 202.272C145.002 202.534 144.428 202.657 143.863 202.657ZM239.901 138.663C239.43 138.663 238.959 138.772 238.529 138.991L140.043 189.203C138.477 190.002 137.451 191.198 137.158 192.572C136.899 193.779 137.254 195.012 138.156 196.047L142.123 200.599C142.809 201.387 143.951 201.614 144.893 201.154L238.61 155.601C239.424 155.204 240.394 155.21 241.205 155.609L332.67 200.688C334.804 201.74 337.446 201.191 338.946 199.381L342.798 194.727C342.819 194.701 342.841 194.678 342.866 194.655C343.481 194.109 343.768 193.428 343.671 192.738C343.565 191.982 343.007 191.293 342.136 190.847L241.283 138.999C240.849 138.775 240.375 138.663 239.901 138.663Z" fill="white"/>
<path d="M261.827 356.802H216.915C214.638 356.802 212.791 355.1 212.791 353.002V259.593C212.791 257.495 214.638 255.793 216.915 255.793H261.827C264.104 255.793 265.95 257.495 265.95 259.593V353.002C265.95 355.103 264.104 356.802 261.827 356.802Z" fill="#595ad4"/>
<path d="M263.319 353.073L217.779 353.223C216.638 353.223 215.715 352.369 215.715 351.32V260.504C215.715 259.452 216.641 258.601 217.779 258.601L262.467 258.65C263.281 258.65 263.94 259.268 263.921 260.021L263.319 353.073Z" fill="white"/>
<path d="M217.782 353.86C216.263 353.86 215.025 352.722 215.025 351.322V260.506C215.025 259.106 216.26 257.968 217.779 257.968L262.467 258.016C263.047 258.016 263.589 258.229 263.995 258.611C264.4 258.994 264.619 259.5 264.606 260.034L264.004 353.078C264.001 353.426 263.695 353.708 263.321 353.708L217.782 353.86ZM217.779 259.235C217.018 259.235 216.4 259.804 216.4 260.506V351.322C216.4 352.023 217.018 352.592 217.779 352.592L262.635 352.446L263.234 260.02C263.24 259.819 263.162 259.638 263.016 259.5C262.869 259.362 262.676 259.287 262.467 259.287L217.779 259.235Z" fill="#595ad4"/>
<path d="M271.955 356.614H207.016C205.94 356.614 205.069 355.812 205.069 354.82V349.598C205.069 348.606 205.94 347.804 207.016 347.804H271.955C273.031 347.804 273.901 348.606 273.901 349.598V354.82C273.901 355.809 273.031 356.614 271.955 356.614Z" fill="white"/>
<path d="M271.955 357.253H207.016C205.562 357.253 204.383 356.164 204.383 354.828V349.605C204.383 348.269 205.565 347.179 207.016 347.179H271.955C273.405 347.179 274.587 348.269 274.587 349.605V354.828C274.587 356.164 273.408 357.253 271.955 357.253ZM207.016 348.447C206.323 348.447 205.755 348.967 205.755 349.605V354.828C205.755 355.466 206.32 355.986 207.016 355.986H271.955C272.647 355.986 273.212 355.466 273.212 354.828V349.605C273.212 348.967 272.647 348.447 271.955 348.447H207.016Z" fill="#595ad4"/>
<path d="M223.72 286.48C223.496 286.48 223.274 286.376 223.143 286.189C222.937 285.896 223.031 285.502 223.349 285.316L256.004 265.969C256.326 265.78 256.75 265.866 256.952 266.159C257.158 266.452 257.065 266.846 256.747 267.033L224.091 286.379C223.976 286.448 223.848 286.48 223.72 286.48Z" fill="#595ad4"/>
<path d="M222.392 299.384C222.167 299.384 221.946 299.281 221.815 299.094C221.609 298.801 221.703 298.407 222.021 298.22L252.396 280.225C252.717 280.035 253.141 280.121 253.344 280.414C253.55 280.708 253.456 281.101 253.138 281.288L222.763 299.284C222.648 299.353 222.52 299.384 222.392 299.384Z" fill="#595ad4"/>
<path d="M321.174 241.098C321.171 241.098 321.171 241.098 321.168 241.098L155.444 239.793C155.063 239.791 154.761 239.506 154.764 239.155C154.767 238.807 155.073 238.529 155.45 238.529C155.453 238.529 155.453 238.529 155.456 238.529L321.18 239.834C321.561 239.837 321.864 240.121 321.86 240.472C321.857 240.817 321.548 241.098 321.174 241.098Z" fill="#595ad4"/>
<path d="M329.065 357.152C329.065 357.152 324.833 339.243 334.318 324.889C334.636 324.409 336.757 325.502 337.106 325.03C337.552 324.427 336.236 322.268 336.735 321.682C338.591 319.509 340.827 317.465 343.515 315.637C343.515 315.637 345.708 321.133 345.277 328.847C345.246 329.428 342.396 330.428 342.33 331.032C342.271 331.604 344.997 331.782 344.903 332.371C343.702 340.013 339.679 349.13 329.065 357.152Z" fill="#595ad4"/>
<path d="M326.564 333.372C326.287 332.739 323.118 334.081 322.825 333.475C322.535 332.877 324.905 329.552 324.606 328.98C318.689 317.736 310.583 311.37 310.583 311.37C308.197 315.983 306.809 320.601 306.182 325.128C306.082 325.853 309.335 327.827 309.273 328.546C309.204 329.333 305.942 329.603 305.917 330.382C305.543 341.914 308.437 350.122 313.047 358.259C318.826 357.837 325.429 358.688 330.497 357.291C331.339 347.789 329.565 340.212 326.564 333.372Z" fill="#595ad4"/>
<path d="M322.429 355.704C322.145 355.704 321.883 355.543 321.78 355.282C320.383 351.663 319.076 347.967 317.903 344.297C317.797 343.96 318.003 343.61 318.368 343.509C318.739 343.411 319.116 343.601 319.222 343.937C320.392 347.585 321.686 351.258 323.077 354.856C323.205 355.187 323.018 355.549 322.66 355.664C322.585 355.693 322.507 355.704 322.429 355.704Z" fill="white"/>
<path d="M316.961 339.496C316.659 339.496 316.381 339.31 316.297 339.025C314.491 332.782 312.985 326.39 311.825 320.024L311.294 317.118C311.232 316.773 311.485 316.445 311.859 316.388C312.236 316.33 312.589 316.563 312.651 316.908L313.181 319.814C314.335 326.14 315.832 332.495 317.626 338.697C317.723 339.037 317.504 339.381 317.139 339.473C317.08 339.488 317.021 339.496 316.961 339.496Z" fill="white"/>
<path d="M328.212 357.994C328.212 357.994 330.105 338.858 352.739 337.162C352.739 337.162 349.336 353.47 328.212 357.994Z" fill="#595ad4"/>
<path d="M333.527 354.436C333.386 354.436 333.243 354.396 333.121 354.313C332.816 354.106 332.75 353.709 332.975 353.427C337.254 348.07 347.241 340.867 347.662 340.562C347.961 340.347 348.392 340.396 348.626 340.672C348.86 340.948 348.807 341.344 348.507 341.56C348.404 341.632 338.246 348.961 334.079 354.177C333.945 354.347 333.739 354.436 333.527 354.436Z" fill="white"/>
<path d="M499.701 211.732C502.898 212.467 506.023 210.01 510.87 206.196C516.762 201.563 520.866 198.332 521.085 193.132C521.275 188.568 518.396 184.326 515.078 182.061C513.172 180.759 510.284 180.161 504.505 178.96C497.892 177.586 497.044 178.129 493.211 176.747C488.751 175.137 488.052 173.734 486.003 174.091C482.685 174.668 479.69 179.178 479.756 183.389C479.843 188.962 485.223 189.796 491.29 198.887C496.361 206.489 495.906 210.858 499.701 211.732Z" fill="#595ad4"/>
<path d="M552.309 280.143C552.309 280.143 547.197 262.624 543.273 252.774C535.345 232.865 518.381 230.991 518.381 230.991C517.904 230.807 517.42 230.64 516.925 230.491C506.136 227.246 489.696 224.92 470.047 230.686C469.498 230.847 468.968 231.037 468.444 231.241V231.235C454.116 234.371 441.337 266.987 441.337 266.987L451.767 272.494L440.851 330.418C440.059 336.592 449.013 342.596 455.323 344.801C461.913 347.103 471.878 349.279 485.982 349.279C501.105 349.279 512.096 350.087 518.231 347.612C523.321 345.557 530.985 340.587 531.244 335.471L530.539 280.054L552.309 280.143Z" fill="white"/>
<path d="M501.994 350.038C499.808 350.038 497.459 350.009 494.952 349.981C492.101 349.946 489.157 349.912 485.985 349.912C474.067 349.912 463.672 348.391 455.079 345.391C448.386 343.054 439.335 336.84 440.171 330.344L451.009 272.822L440.997 267.537C440.707 267.384 440.579 267.062 440.692 266.772C441.219 265.427 453.75 233.828 468.263 230.623C468.846 230.399 469.348 230.226 469.838 230.083C489.893 224.196 506.629 226.728 517.14 229.887C517.629 230.034 518.138 230.209 518.649 230.407L518.646 230.413C521.26 230.804 536.549 234.04 543.922 252.556C547.811 262.32 552.923 279.804 552.976 279.979C553.032 280.169 552.988 280.373 552.857 280.531C552.726 280.686 552.527 280.778 552.315 280.778H552.312L531.237 280.686L531.936 335.46C531.661 340.944 523.758 346.072 518.512 348.19C514.685 349.733 509.208 350.038 501.994 350.038ZM442.185 266.703L452.11 271.943C452.359 272.075 452.494 272.339 452.447 272.601L441.531 330.525C440.794 336.245 449.471 342.077 455.569 344.206C464.002 347.149 474.236 348.644 485.985 348.644C489.166 348.644 492.116 348.679 494.97 348.713C505.578 348.84 513.247 348.932 517.957 347.032C522.701 345.117 530.314 340.277 530.557 335.44L529.852 280.06C529.849 279.89 529.921 279.726 530.052 279.605C530.183 279.485 530.357 279.419 530.538 279.419H530.542L551.41 279.508C550.359 275.961 546.021 261.509 542.63 252.996C534.952 233.713 518.465 231.64 518.3 231.62C518.237 231.615 518.175 231.597 518.119 231.577C517.629 231.39 517.171 231.232 516.712 231.094C506.395 227.993 489.961 225.507 470.256 231.29C469.782 231.431 469.289 231.6 468.709 231.824C468.646 231.85 468.581 231.865 468.515 231.87C455.69 234.793 443.857 262.619 442.185 266.703Z" fill="#595ad4"/>
<path d="M487.064 239.445C484.952 239.445 482.809 239.324 480.67 239.045C480.296 238.996 480.034 238.675 480.087 238.33C480.14 237.982 480.489 237.74 480.863 237.792C496.91 239.887 513.285 232.854 513.45 232.782C513.793 232.633 514.202 232.768 514.364 233.084C514.526 233.4 514.379 233.777 514.036 233.926C513.893 233.987 501.205 239.445 487.064 239.445Z" fill="#595ad4"/>
<path d="M492.553 296.606L429.804 296.516C428.213 296.514 426.831 295.513 426.451 294.091L413.863 247.005C413.326 244.993 414.979 243.05 417.228 243.053L479.978 243.142C481.568 243.145 482.95 244.145 483.331 245.568L495.919 292.654C496.455 294.665 494.802 296.608 492.553 296.606Z" fill="#595ad4"/>
<path d="M418.485 266.447L420.319 271.157L435.417 264.558C435.417 264.558 443.704 271.192 423.578 279.645C415.194 283.169 418.485 266.447 418.485 266.447Z" fill="white"/>
<path d="M421.479 280.776C420.699 280.776 420.007 280.564 419.408 280.135C415.734 277.5 417.583 267.477 417.808 266.342C417.864 266.06 418.116 265.848 418.428 265.825C418.743 265.799 419.027 265.971 419.133 266.242L420.711 270.294L435.124 263.994C435.37 263.888 435.664 263.922 435.869 264.089C435.966 264.166 438.202 265.994 437.731 269.001C437.129 272.841 432.464 276.62 423.865 280.23C422.998 280.595 422.199 280.776 421.479 280.776ZM418.778 269.081C418.366 272.617 418.257 277.704 420.253 279.135C420.977 279.653 421.971 279.635 423.294 279.078C433.418 274.824 435.991 271.162 436.368 268.84C436.649 267.101 435.76 265.865 435.267 265.333L420.615 271.737C420.44 271.815 420.237 271.818 420.056 271.751C419.879 271.682 419.738 271.547 419.673 271.381L418.778 269.081Z" fill="#595ad4"/>
<path d="M510.483 253.325C510.483 253.325 538.666 267.958 544.477 272.548C550.287 277.138 556.591 280.625 548.372 290.63C540.154 300.638 505.25 260.459 505.25 260.459C505.25 260.459 498.532 261.474 496.202 253.041C496.202 253.041 484.858 253.4 484.453 250.118L500.453 247.502C502.521 247.163 504.639 247.793 506.104 249.181L510.483 253.325Z" fill="white"/>
<path d="M544.748 292.871C533.108 292.871 507.81 264.396 504.944 261.125C503.391 261.194 497.898 260.875 495.681 253.695C492.843 253.747 484.194 253.612 483.773 250.198C483.732 249.864 483.979 249.559 484.334 249.502L500.334 246.886C502.63 246.513 504.972 247.205 506.597 248.746L510.907 252.825C512.935 253.879 539.23 267.578 544.925 272.073C545.375 272.427 545.824 272.772 546.27 273.117C551.497 277.143 556.902 281.305 548.924 291.02C547.932 292.227 546.557 292.851 544.841 292.871C544.807 292.871 544.776 292.871 544.748 292.871ZM505.25 259.835C505.455 259.835 505.655 259.921 505.789 260.073C506.064 260.389 533.317 291.604 544.741 291.606C544.766 291.606 544.794 291.606 544.819 291.606C546.111 291.589 547.093 291.149 547.826 290.256C555.015 281.504 550.764 278.233 545.387 274.088C544.938 273.74 544.483 273.392 544.03 273.036C538.335 268.538 510.427 254.032 510.146 253.885C510.09 253.856 510.037 253.819 509.99 253.776L505.611 249.631C504.305 248.392 502.418 247.832 500.574 248.137L485.413 250.614C486.714 252.046 492.213 252.543 496.18 252.419C496.529 252.411 496.788 252.609 496.869 252.896C499.009 260.634 504.894 259.881 505.144 259.846C505.178 259.838 505.212 259.835 505.25 259.835Z" fill="#595ad4"/>
<path d="M476.997 465.152L486.341 490.844C486.341 490.844 476.164 490.042 475.188 490.218C474.214 490.393 462.31 466.787 462.31 466.787L476.997 465.152Z" fill="white"/>
<path d="M486.341 491.48C486.322 491.48 486.303 491.48 486.281 491.477C481.441 491.095 475.952 490.744 475.318 490.842C474.62 490.968 474.196 491.046 467.768 478.848C464.702 473.03 461.717 467.115 461.689 467.055C461.595 466.871 461.605 466.658 461.711 466.48C461.817 466.302 462.01 466.184 462.228 466.158L476.915 464.522C477.246 464.488 477.545 464.663 477.648 464.951L486.993 490.643C487.067 490.845 487.024 491.069 486.88 491.236C486.752 491.391 486.553 491.48 486.341 491.48ZM475.724 489.569C477.68 489.569 482.885 489.948 485.358 490.135L476.525 465.845L463.336 467.313C467.512 475.565 474.027 488.019 475.4 489.574C475.493 489.568 475.602 489.569 475.724 489.569ZM475.066 489.597C475.063 489.597 475.06 489.597 475.06 489.597C475.06 489.6 475.063 489.597 475.066 489.597Z" fill="#595ad4"/>
<path d="M484.201 485.201C484.201 485.201 470.147 479.892 467.549 486.555C464.243 495.031 459.075 507.959 459.075 507.959C458.199 510.21 459.883 512.61 462.469 512.802C467.605 513.181 475.266 513.492 478.834 512.337C484.466 510.514 493.814 494.082 493.814 494.082L490.932 480.102C490.935 480.102 485.839 479.441 484.201 485.201Z" fill="white"/>
<path d="M470.753 513.786C467.952 513.786 464.989 513.63 462.416 513.438C460.965 513.331 459.683 512.624 458.898 511.498C458.112 510.374 457.94 509.009 458.433 507.75C458.486 507.615 463.638 494.718 466.907 486.343C467.459 484.926 468.513 483.888 470.038 483.264C474.411 481.474 481.494 483.598 483.758 484.365C485.733 478.855 490.982 479.473 491.035 479.476C491.325 479.514 491.559 479.718 491.615 479.985L494.497 493.965C494.525 494.106 494.503 494.25 494.431 494.376C494.045 495.057 484.891 511.049 479.071 512.932C477.115 513.567 474.046 513.783 470.753 513.786ZM474.199 483.831C472.886 483.831 471.635 483.997 470.594 484.426C469.408 484.911 468.625 485.679 468.198 486.774C464.93 495.155 459.774 508.054 459.724 508.184C459.381 509.063 459.499 510.023 460.052 510.814C460.604 511.604 461.508 512.101 462.525 512.176C470.26 512.751 475.974 512.596 478.609 511.745C482.96 510.339 490.43 498.641 493.097 493.991L490.361 480.718C489.16 480.732 486.054 481.192 484.869 485.368C484.819 485.544 484.688 485.693 484.51 485.774C484.332 485.857 484.126 485.863 483.942 485.794C483.874 485.765 478.681 483.831 474.199 483.831Z" fill="#595ad4"/>
<path d="M477.108 507.831H462.674C462.293 507.831 461.988 507.546 461.988 507.198C461.988 506.851 462.296 506.566 462.674 506.566H477.108C477.489 506.566 477.794 506.851 477.794 507.198C477.794 507.546 477.489 507.831 477.108 507.831Z" fill="#595ad4"/>
<path d="M503.495 471.466L500.32 497.313L487.548 494.083L488.53 470.796L503.495 471.466Z" fill="white"/>
<path d="M500.32 497.953C500.257 497.953 500.198 497.945 500.139 497.93L487.367 494.702C487.058 494.625 486.849 494.36 486.862 494.067L487.844 470.78C487.85 470.611 487.931 470.453 488.065 470.338C488.203 470.223 488.384 470.168 488.565 470.171L503.529 470.841C503.719 470.849 503.897 470.93 504.019 471.062C504.14 471.194 504.2 471.37 504.178 471.542L501.003 497.387C500.981 497.571 500.872 497.738 500.706 497.841C500.588 497.916 500.454 497.953 500.32 497.953ZM488.256 493.613L499.727 496.513L502.731 472.074L489.191 471.467L488.256 493.613Z" fill="#595ad4"/>
<path d="M501.523 516.36H481.313C478.578 516.36 476.479 514.127 476.878 511.632C477.552 507.427 479.75 500.449 486.341 490.852C487.061 489.806 488.315 489.168 489.662 489.168H495.81C496.87 489.168 497.759 489.906 497.868 490.878L498.333 494.965L501.009 491.708C501.009 491.708 505.787 500.981 506.008 512.155C506.052 514.463 504.028 516.36 501.523 516.36Z" fill="white"/>
<path d="M501.524 517H481.313C479.807 517 478.378 516.396 477.396 515.347C476.416 514.301 475.98 512.916 476.198 511.548C476.878 507.32 479.086 500.24 485.761 490.523C486.612 489.284 488.069 488.542 489.662 488.542H495.81C497.226 488.542 498.405 489.522 498.551 490.819L498.835 493.311L500.46 491.333C500.604 491.158 500.841 491.063 501.078 491.086C501.318 491.109 501.524 491.244 501.627 491.445C501.673 491.54 506.47 500.97 506.692 512.151C506.717 513.439 506.193 514.655 505.21 515.574C504.234 516.494 502.924 517 501.524 517ZM489.662 489.81C488.546 489.81 487.52 490.33 486.921 491.201C480.377 500.732 478.216 507.627 477.558 511.734C477.396 512.738 477.717 513.755 478.437 514.522C479.158 515.293 480.209 515.735 481.313 515.735H501.524C502.55 515.735 503.514 515.365 504.234 514.686C504.954 514.011 505.338 513.12 505.319 512.174C505.142 503.33 502.035 495.607 500.844 492.96L498.879 495.354C498.71 495.561 498.417 495.65 498.146 495.581C497.874 495.512 497.675 495.297 497.647 495.038L497.182 490.951C497.107 490.299 496.518 489.81 495.807 489.81H489.662Z" fill="#595ad4"/>
<path d="M503.026 512.549H478.833C478.452 512.549 478.146 512.265 478.146 511.917C478.146 511.569 478.455 511.284 478.833 511.284H503.026C503.407 511.284 503.712 511.569 503.712 511.917C503.712 512.265 503.407 512.549 503.026 512.549Z" fill="#595ad4"/>
<path d="M455.525 316.262C456.055 315.069 457.125 314.158 458.46 313.773C465.849 311.637 491.614 306.006 518.138 321.682C519.388 322.421 520.19 323.663 520.296 325.028C521.253 337.447 524.831 402.376 502.543 479.255L487.529 478.27L484.469 346.823C484.469 346.823 462.228 395.012 480.314 471.702L464.698 474.358C464.698 474.358 441.846 446.668 437.754 404.351C434.126 366.92 451.474 325.356 455.525 316.262Z" fill="#595ad4"/>
<path d="M502.54 479.893C502.524 479.893 502.505 479.893 502.49 479.89L487.475 478.904C487.123 478.881 486.845 478.614 486.836 478.286L483.851 350.154C482.023 355.023 478.577 365.525 476.275 380.652C473.281 400.329 471.666 432.075 480.979 471.572C481.019 471.739 480.982 471.914 480.879 472.058C480.776 472.201 480.614 472.299 480.433 472.331L464.816 474.989C464.561 475.032 464.302 474.941 464.146 474.751C463.915 474.472 441.125 446.428 437.064 404.416C433.406 366.583 451.271 324.151 454.892 316.028C455.503 314.657 456.729 313.617 458.257 313.174C465.621 311.044 491.73 305.328 518.509 321.156C519.937 322.001 520.86 323.432 520.979 324.99C521.927 337.269 525.529 402.421 503.204 479.424C503.12 479.7 502.849 479.893 502.54 479.893ZM488.199 477.683L502.022 478.591C524.129 402.005 520.552 337.295 519.607 325.079C519.516 323.918 518.827 322.852 517.763 322.222C491.486 306.693 465.883 312.298 458.663 314.384C457.528 314.712 456.614 315.488 456.158 316.511C452.562 324.585 434.8 366.767 438.43 404.304C442.226 443.566 462.505 470.503 464.991 473.673L479.488 471.207C470.293 431.796 471.924 400.108 474.925 380.425C478.2 358.957 483.776 346.705 483.832 346.584C483.96 346.311 484.272 346.153 484.593 346.21C484.912 346.268 485.142 346.521 485.152 346.82L488.199 477.683Z" fill="white"/>
<path d="M498.713 418.245C498.348 418.245 498.042 417.978 498.027 417.639C498.011 417.288 498.304 416.995 498.685 416.978C511.438 416.469 512.916 400.071 512.929 399.908C512.957 399.56 513.288 399.293 513.665 399.324C514.042 399.35 514.326 399.655 514.298 400.003C514.282 400.181 512.701 417.69 498.744 418.245C498.731 418.245 498.722 418.245 498.713 418.245Z" fill="white"/>
<path d="M483.159 359.508C483.153 359.508 483.144 359.508 483.137 359.508C482.757 359.497 482.461 359.206 482.47 358.856L482.988 342.754L473.93 336.885C473.618 336.684 473.547 336.29 473.762 336.003C473.98 335.718 474.407 335.649 474.719 335.851L484.079 341.915C484.266 342.039 484.379 342.24 484.372 342.453L483.842 358.896C483.833 359.235 483.527 359.508 483.159 359.508Z" fill="white"/>
<path d="M505.94 226.382C503.183 224.698 501.57 221.815 501.645 218.768L501.96 206.113C502.054 206.033 502.147 205.952 502.238 205.875C502.238 205.875 507.739 206.214 508.538 203.633C509.339 201.052 505.45 200.557 505.45 200.557C505.45 200.557 509.124 193.432 499.621 193.515C497.069 193.538 496.156 189.641 491.97 188.767C491.97 188.767 489.899 188.603 487.8 193.607L483.203 199.876L485.498 201.037C484.934 203.42 484.687 206.053 485.037 208.838C485.136 209.64 485.735 210.315 486.571 210.562C487.264 210.769 488.193 210.988 489.288 211.106L488.549 219.576C488.224 223.284 486.116 226.658 482.81 228.796C479.619 230.86 476.672 232.317 476.672 232.317C476.672 232.317 493.614 234.453 513.094 230.354C513.101 230.351 509.339 228.457 505.94 226.382Z" fill="white"/>
<path d="M487.984 233.497C481.107 233.497 476.672 232.957 476.584 232.945C476.291 232.908 476.054 232.701 476.001 232.431C475.948 232.161 476.091 231.891 476.353 231.761C476.382 231.747 479.304 230.295 482.42 228.281C485.573 226.24 487.56 223.05 487.865 219.529L488.555 211.653C487.806 211.541 487.07 211.38 486.362 211.168C485.274 210.843 484.488 209.958 484.357 208.911C484.048 206.448 484.173 203.913 484.725 201.366L482.875 200.432C482.707 200.346 482.582 200.2 482.538 200.027C482.492 199.855 482.529 199.671 482.638 199.524L487.192 193.313C489.359 188.194 491.599 188.105 492.032 188.136C492.064 188.139 492.095 188.142 492.126 188.151C494.565 188.66 495.984 190.102 497.126 191.258C498.124 192.27 498.782 192.865 499.621 192.882C499.677 192.882 499.736 192.882 499.789 192.882C502.924 192.882 505.051 193.658 506.111 195.19C507.287 196.886 506.782 199.004 506.386 200.099C507.168 200.306 508.294 200.746 508.912 201.617C509.355 202.243 509.458 202.999 509.205 203.807C508.404 206.393 504.065 206.546 502.643 206.523L502.34 218.784C502.269 221.647 503.76 224.291 506.326 225.858C509.661 227.893 513.4 229.781 513.438 229.798C513.687 229.925 513.827 230.18 513.79 230.442C513.753 230.704 513.54 230.913 513.263 230.971C503.691 232.986 494.68 233.497 487.984 233.497ZM478.874 231.894C483.786 232.284 496.708 232.888 511.195 230.094C509.77 229.341 507.593 228.157 505.562 226.915C502.599 225.107 500.881 222.058 500.962 218.758L501.277 206.103C501.283 205.934 501.361 205.77 501.495 205.655L501.767 205.419C501.904 205.298 502.091 205.238 502.284 205.247C503.663 205.33 507.349 205.172 507.88 203.462C508.02 203.008 507.979 202.631 507.755 202.312C507.231 201.571 505.846 201.249 505.36 201.185C505.144 201.157 504.954 201.036 504.851 200.861C504.748 200.682 504.742 200.47 504.832 200.289C504.848 200.263 506.17 197.624 504.948 195.871C504.137 194.707 502.334 194.121 499.63 194.152C499.621 194.152 499.611 194.152 499.602 194.152C498.114 194.152 497.138 193.161 496.106 192.112C495.058 191.045 493.869 189.838 491.898 189.404C491.714 189.436 490.142 189.792 488.446 193.839C488.427 193.882 488.402 193.925 488.374 193.965L484.201 199.659L485.835 200.487C486.103 200.622 486.24 200.904 486.175 201.177C485.567 203.741 485.417 206.296 485.726 208.77C485.794 209.325 486.212 209.794 486.789 209.966C487.619 210.213 488.489 210.389 489.375 210.483C489.743 210.524 490.011 210.823 489.98 211.162L489.241 219.632C488.901 223.532 486.702 227.062 483.212 229.318C481.593 230.362 480.028 231.261 478.874 231.894Z" fill="#595ad4"/>
<path d="M489.294 211.098C489.294 211.098 495.323 211.293 497.718 208.269L489.294 211.098Z" fill="white"/>
<path d="M489.543 211.736C489.39 211.736 489.294 211.733 489.266 211.733C488.885 211.722 488.592 211.428 488.604 211.078C488.617 210.727 488.935 210.451 489.316 210.466C489.378 210.471 495.011 210.609 497.16 207.896C497.381 207.614 497.811 207.551 498.12 207.758C498.426 207.965 498.495 208.362 498.27 208.643C495.968 211.552 490.81 211.736 489.543 211.736Z" fill="#595ad4"/>
<path d="M270.229 511.168C249.713 511.168 228.869 508.161 208.318 502.154C207.957 502.048 207.757 501.692 207.872 501.358C207.988 501.025 208.371 500.838 208.736 500.947C247.692 512.332 287.711 512.869 324.47 502.502C341.646 497.659 357.999 490.511 373.076 481.256C373.391 481.063 373.818 481.141 374.027 481.431C374.239 481.722 374.152 482.115 373.837 482.308C358.647 491.629 342.173 498.829 324.87 503.709C307.241 508.685 288.871 511.168 270.229 511.168Z" fill="#595ad4"/>
<path d="M324.829 489.336C324.658 489.336 324.489 489.276 324.358 489.167C324.184 489.014 324.106 488.79 324.155 488.572C325.509 482.705 327.424 476.894 327.446 476.836C327.515 476.632 327.686 476.474 327.908 476.414C328.129 476.353 328.366 476.399 328.544 476.534L339.048 484.634C339.245 484.783 339.332 485.022 339.279 485.252C339.226 485.482 339.039 485.666 338.793 485.729L325.013 489.313C324.954 489.327 324.892 489.336 324.829 489.336ZM328.466 478.124C327.923 479.84 326.729 483.726 325.746 487.807L337.171 484.835L328.466 478.124Z" fill="#595ad4"/>
<path d="M262.934 498.33C242.287 498.33 217.86 495.764 194.462 487.026C194.109 486.894 193.941 486.526 194.084 486.201C194.228 485.876 194.627 485.721 194.979 485.853C251.03 506.786 313.159 492.03 313.779 491.878C314.147 491.789 314.521 491.99 314.618 492.329C314.715 492.668 314.497 493.013 314.129 493.102C313.764 493.191 292.137 498.33 262.934 498.33Z" fill="#595ad4"/>
<path d="M462.552 46.7774C462.377 46.7774 462.206 46.717 462.072 46.5963C442.925 29.3108 420.643 20.691 405.323 16.5033C387.586 11.6545 369.047 10.0277 355.732 12.1489C355.358 12.2064 355.002 11.9764 354.937 11.6315C354.871 11.2866 355.124 10.959 355.498 10.8986C369.009 8.74582 387.782 10.387 405.713 15.2875C421.183 19.5155 443.682 28.2215 463.032 45.6881C463.304 45.9324 463.307 46.3348 463.042 46.5848C462.911 46.7142 462.733 46.7774 462.552 46.7774Z" fill="white"/>
<path d="M463.715 35.8345C463.538 35.8345 463.36 35.7713 463.223 35.6448C434.681 8.68751 392.554 -1.79763 367.406 2.02221C367.029 2.07682 366.676 1.844 366.617 1.4991C366.554 1.15419 366.807 0.829403 367.181 0.771919C392.676 -3.09965 435.339 7.49471 464.208 34.7595C464.473 35.0096 464.467 35.412 464.196 35.6563C464.062 35.7741 463.89 35.8345 463.715 35.8345Z" fill="white"/>
<path d="M317.149 27.2561C316.899 27.2561 316.659 27.1296 316.537 26.9112L313.983 22.3297C313.808 22.0193 313.942 21.6371 314.279 21.4761C314.616 21.3152 315.031 21.4387 315.206 21.7492L317.76 26.3306C317.932 26.641 317.801 27.0233 317.464 27.1842C317.361 27.236 317.255 27.2561 317.149 27.2561Z" fill="white"/>
<path d="M311.2 16.579C310.95 16.579 310.71 16.4525 310.589 16.2341L308.034 11.6525C307.86 11.3421 307.994 10.9598 308.331 10.7988C308.67 10.6379 309.082 10.7615 309.257 11.0719L311.811 15.6535C311.986 15.9639 311.852 16.3462 311.515 16.5071C311.412 16.556 311.306 16.579 311.2 16.579Z" fill="white"/>
<path d="M316.203 18.0613C315.954 18.0613 315.714 17.9349 315.592 17.7164C315.417 17.406 315.552 17.0238 315.888 16.8628L320.86 14.5089C321.2 14.3479 321.612 14.4715 321.786 14.7819C321.961 15.0923 321.827 15.4746 321.49 15.6355L316.518 17.9895C316.415 18.0383 316.309 18.0613 316.203 18.0613Z" fill="white"/>
<path d="M304.623 23.5396C304.373 23.5396 304.133 23.4132 304.011 23.1947C303.837 22.8843 303.971 22.5021 304.308 22.3411L309.279 19.9872C309.616 19.8262 310.031 19.9498 310.206 20.2602C310.377 20.5706 310.246 20.9529 309.909 21.1138L304.938 23.4678C304.835 23.5166 304.729 23.5396 304.623 23.5396Z" fill="white"/>
<path d="M290.639 35.8749C287.368 35.8749 284.526 33.6129 284.161 30.595C283.974 29.0487 284.458 27.5311 285.518 26.3239C286.601 25.0966 288.147 24.3349 289.878 24.1797C293.418 23.8636 296.603 26.2204 296.99 29.4338C297.177 30.9801 296.693 32.4977 295.633 33.7049C294.551 34.9322 293.004 35.6938 291.273 35.8491C291.061 35.8663 290.848 35.8749 290.639 35.8749ZM290.515 25.4185C290.349 25.4185 290.181 25.4271 290.013 25.4415C288.653 25.5622 287.433 26.1601 286.585 27.1229C285.755 28.0657 285.381 29.247 285.528 30.4541C285.833 32.9806 288.363 34.8373 291.142 34.5873C292.505 34.4666 293.721 33.8687 294.569 32.9058C295.399 31.9631 295.773 30.7818 295.627 29.5746C295.34 27.1977 293.097 25.4185 290.515 25.4185Z" fill="white"/>
</svg>
