<svg width="16" height="8" viewBox="0 0 16 8" fill="none" xmlns="http://www.w3.org/2000/svg">
<path d="M15.2912 0.329895C15.1875 0.225362 15.0642 0.142392 14.9283 0.0857716C14.7924 0.0291509 14.6466 0 14.4994 0C14.3521 0 14.2064 0.0291509 14.0705 0.0857716C13.9346 0.142392 13.8112 0.225362 13.7075 0.329895L8.59961 5.43783C8.49593 5.54236 8.37258 5.62533 8.23667 5.68195C8.10077 5.73857 7.95499 5.76772 7.80777 5.76772C7.66054 5.76772 7.51476 5.73857 7.37886 5.68195C7.24295 5.62533 7.1196 5.54236 7.01592 5.43783L1.90799 0.329895C1.80431 0.225362 1.68097 0.142392 1.54506 0.0857716C1.40915 0.0291509 1.26338 0 1.11615 0C0.968924 0 0.823152 0.0291509 0.687246 0.0857716C0.55134 0.142392 0.42799 0.225362 0.324312 0.329895C0.116592 0.538854 0 0.821521 0 1.11616C0 1.4108 0.116592 1.69346 0.324312 1.90242L5.4434 7.02151C6.07074 7.64807 6.92112 8 7.80777 8C8.69441 8 9.5448 7.64807 10.1721 7.02151L15.2912 1.90242C15.4989 1.69346 15.6155 1.4108 15.6155 1.11616C15.6155 0.821521 15.4989 0.538854 15.2912 0.329895Z" fill="#D9E2E8"/>
<path d="M15.2912 0.329895C15.1875 0.225362 15.0642 0.142392 14.9283 0.0857716C14.7924 0.0291509 14.6466 0 14.4994 0C14.3521 0 14.2064 0.0291509 14.0705 0.0857716C13.9346 0.142392 13.8112 0.225362 13.7075 0.329895L8.59961 5.43783C8.49593 5.54236 8.37258 5.62533 8.23667 5.68195C8.10077 5.73857 7.95499 5.76772 7.80777 5.76772C7.66054 5.76772 7.51476 5.73857 7.37886 5.68195C7.24295 5.62533 7.1196 5.54236 7.01592 5.43783L1.90799 0.329895C1.80431 0.225362 1.68097 0.142392 1.54506 0.0857716C1.40915 0.0291509 1.26338 0 1.11615 0C0.968924 0 0.823152 0.0291509 0.687246 0.0857716C0.55134 0.142392 0.42799 0.225362 0.324312 0.329895C0.116592 0.538854 0 0.821521 0 1.11616C0 1.4108 0.116592 1.69346 0.324312 1.90242L5.4434 7.02151C6.07074 7.64807 6.92112 8 7.80777 8C8.69441 8 9.5448 7.64807 10.1721 7.02151L15.2912 1.90242C15.4989 1.69346 15.6155 1.4108 15.6155 1.11616C15.6155 0.821521 15.4989 0.538854 15.2912 0.329895Z" fill="black" fill-opacity="0.2"/>
</svg>
