<svg width="40" height="40" viewBox="0 0 40 40" fill="none" xmlns="http://www.w3.org/2000/svg">
<circle cx="20" cy="20" r="20" fill="#FF1843" fill-opacity="0.1"/>
<mask id="mask0_1_43379" style="mask-type:alpha" maskUnits="userSpaceOnUse" x="12" y="12" width="16" height="16">
<path fill-rule="evenodd" clip-rule="evenodd" d="M14.1667 12.5H25.8333C26.75 12.5 27.5 13.25 27.5 14.1667V25.8333C27.5 26.75 26.75 27.5 25.8333 27.5H14.1667C13.25 27.5 12.5 26.75 12.5 25.8333V23.3333C12.5 22.875 12.875 22.5 13.3333 22.5C13.7917 22.5 14.1667 22.875 14.1667 23.3333V25C14.1667 25.4583 14.5417 25.8333 15 25.8333H25C25.4583 25.8333 25.8333 25.4583 25.8333 25V15C25.8333 14.5417 25.4583 14.1667 25 14.1667H15C14.5417 14.1667 14.1667 14.5417 14.1667 15V16.6667C14.1667 17.125 13.7917 17.5 13.3333 17.5C12.875 17.5 12.5 17.125 12.5 16.6667V14.1667C12.5 13.25 13.2417 12.5 14.1667 12.5ZM23.1583 20.5833L20.1667 23.575C19.8417 23.9 19.3167 23.9 18.9917 23.575C18.675 23.2583 18.6667 22.725 18.9917 22.4L20.5583 20.8333H13.3333C12.875 20.8333 12.5 20.4583 12.5 20C12.5 19.5417 12.875 19.1667 13.3333 19.1667H20.5583L18.9917 17.5917C18.6667 17.2667 18.6667 16.7417 18.9917 16.4167C19.1474 16.2606 19.3587 16.1729 19.5792 16.1729C19.7996 16.1729 20.011 16.2606 20.1667 16.4167L23.1583 19.4083C23.4833 19.7333 23.4833 20.2583 23.1583 20.5833Z" fill="black"/>
</mask>
<g mask="url(#mask0_1_43379)">
<rect x="10" y="10" width="20" height="20" fill="#FF1843"/>
</g>
</svg>
