<svg id="Layer_1" data-name="Layer 1" xmlns="http://www.w3.org/2000/svg" viewBox="0 0 18 18"><defs><style>.cls-1,.cls-14{fill:#da1f26;}.cls-10,.cls-11,.cls-12,.cls-13,.cls-15,.cls-16,.cls-17,.cls-18,.cls-19,.cls-2,.cls-20,.cls-21,.cls-22,.cls-23,.cls-4,.cls-5,.cls-6,.cls-7,.cls-8,.cls-9{fill:#fff;}.cls-3{fill:#0f8140;}.cls-10,.cls-11,.cls-12,.cls-13,.cls-14,.cls-15,.cls-16,.cls-17,.cls-18,.cls-19,.cls-20,.cls-21,.cls-22,.cls-23,.cls-4,.cls-5,.cls-6,.cls-7,.cls-8,.cls-9{stroke:#da1f26;}.cls-4{stroke-width:0.01px;}.cls-10,.cls-11,.cls-12,.cls-15,.cls-17,.cls-18,.cls-21,.cls-22,.cls-4,.cls-5,.cls-6,.cls-8,.cls-9{fill-rule:evenodd;}.cls-5{stroke-width:0.01px;}.cls-6{stroke-width:0px;}.cls-14,.cls-7{stroke-width:0.02px;}.cls-8{stroke-width:0.01px;}.cls-23,.cls-9{stroke-width:0.01px;}.cls-10,.cls-13{stroke-width:0.01px;}.cls-11{stroke-width:0.01px;}.cls-12{stroke-width:0.01px;}.cls-15{stroke-width:0.01px;}.cls-16{stroke-width:0.09px;}.cls-17{stroke-width:0.01px;}.cls-18{stroke-width:0.01px;}.cls-19,.cls-22{stroke-width:0.01px;}.cls-20{stroke-width:0.01px;}.cls-21{stroke-width:0.01px;}</style></defs><title>oman</title><path class="cls-1" d="M0,0H18V18H0Z"/><path class="cls-2" d="M4.5,0H18V6H4.5Z"/><path class="cls-3" d="M4.5,12H18v6H4.5Z"/><g id="a"><path class="cls-4" d="M1,3.08h.48s.05,0,.05.09v.46c0,.05,0,.09-.05.09H1S1,3.68,1,3.63V3.17S1,3.08,1,3.08Z"/><path class="cls-5" d="M1.05,3.11h.46s0,0,0,.08v.42s0,.08,0,.08H1.05S1,3.65,1,3.61V3.19S1,3.11,1.05,3.11Z"/><path class="cls-6" d="M1.26,3.26h0v0l0,0,0,0,0,0,0,0v0h0v0h0v0l0,0,0,0v0h0v0h0v0l0,0v0l0,0,0,0,0,0h0V3.36h0l0,0,0,0,0,0,0,0h0v0Z"/><ellipse class="cls-7" cx="1.27" cy="3.39" rx="0.03" ry="0.05"/><path class="cls-5" d="M1.08,3.13,1,3.21m.08-.08-.05.08m.08-.08,0,.08m.08-.08,0,.08m.08-.08-.05.08m.08-.08-.05.08m.08-.08-.05.08m.08-.08-.05.08m.08-.08-.05.08m.07-.08,0,.08m.07-.08,0,.08m.07-.08,0,.08m-.07-.08-.05.08m.19-.08,0,.08m.07-.08,0,.08m.07-.08,0,.08m.07-.08,0,.08m0-.08,0,.08m-.07-.08,0,.08m-.07-.08,0,.08m-.07-.08,0,.08m-.07-.08,0,.08m-.07-.08,0,.08M1.3,3.13l0,.08m-.07-.08.05.08m-.08-.08.05.08m-.08-.08.05.08m-.08-.08.05.08m-.08-.08.05.08m.07-.08.05.08m-.2-.08,0,.08m-.08-.08,0,.08m-.08-.08.05.08M1,3.13l.05.08m0,.37L1,3.66m.08-.08-.05.08m.08-.08,0,.08m.08-.08,0,.08m.08-.08-.05.08m.08-.08-.05.08m.08-.08-.05.08m.08-.08-.05.08m.08-.08-.05.08m.07-.08,0,.08m.07-.08,0,.08m.07-.08,0,.08m-.07-.08-.05.08m.19-.08,0,.08m.07-.08,0,.08m.07-.08,0,.08m.07-.08,0,.08m0-.08,0,.08m-.07-.08,0,.08m-.07-.08,0,.08m-.07-.08,0,.08m-.07-.08,0,.08m-.07-.08,0,.08M1.3,3.58l0,.08m-.07-.08.05.08m-.08-.08.05.08m-.08-.08.05.08m-.08-.08.05.08m-.08-.08.05.08m.07-.08.05.08m-.2-.08,0,.08m-.08-.08,0,.08m-.08-.08.05.08M1,3.58l.05.08"/></g><path class="cls-4" d="M3.46,3.08H3s0,0,0,.09v.46c0,.05,0,.09,0,.09h.48s0,0,0-.09V3.17S3.49,3.08,3.46,3.08Z"/><path class="cls-5" d="M3.45,3.11H3s0,0,0,.08v.42s0,.08,0,.08h.46s0,0,0-.08V3.19S3.48,3.11,3.45,3.11Z"/><path class="cls-6" d="M3.24,3.26h0v0l0,0,0,0,0,0,0,0v0h0v0h0v0l0,0,0,0v0h0v0h0v0l0,0v0l0,0,0,0,0,0h0V3.36h0l0,0,0,0,0,0,0,0h0v0Z"/><ellipse class="cls-7" cx="3.23" cy="3.39" rx="0.03" ry="0.05"/><path class="cls-5" d="M3.42,3.13l.05.08m-.08-.08,0,.08m-.08-.08.05.08m-.08-.08,0,.08M3.3,3.13l.05.08m-.08-.08,0,.08m-.08-.08,0,.08m-.08-.08,0,.08m-.08-.08,0,.08m-.07-.08,0,.08m-.07-.08,0,.08M3.1,3.13l0,.08m.07-.08,0,.08m-.19-.08,0,.08M3,3.13l0,.08M3,3.13l0,.08M3,3.13l0,.08m0-.08,0,.08m.07-.08,0,.08m.07-.08,0,.08m.07-.08,0,.08m.07-.08,0,.08m.07-.08,0,.08m.07-.08,0,.08m.07-.08,0,.08m.08-.08,0,.08m.08-.08,0,.08m.08-.08,0,.08m.08-.08-.05.08m-.07-.08,0,.08m.2-.08,0,.08m.08-.08-.05.08m.08-.08,0,.08m.08-.08-.05.08m0,.37.05.08m-.08-.08,0,.08m-.08-.08.05.08m-.08-.08,0,.08M3.3,3.58l.05.08m-.08-.08,0,.08m-.08-.08,0,.08m-.08-.08,0,.08m-.08-.08,0,.08m-.07-.08,0,.08m-.07-.08,0,.08M3.1,3.58l0,.08m.07-.08,0,.08m-.19-.08,0,.08M3,3.58l0,.08M3,3.58l0,.08M3,3.58l0,.08m0-.08,0,.08m.07-.08,0,.08m.07-.08,0,.08m.07-.08,0,.08m.07-.08,0,.08m.07-.08,0,.08m.07-.08,0,.08m.07-.08,0,.08m.08-.08,0,.08m.08-.08,0,.08m.08-.08,0,.08m.08-.08-.05.08m-.07-.08,0,.08m.2-.08,0,.08m.08-.08-.05.08m.08-.08,0,.08m.08-.08-.05.08"/><g id="b"><path class="cls-8" d="M1.9,4.41C1.18,5.83.87,6,1,6.12s.61-.62,1.1-1.59.78-1.82.63-1.94S2.67,2.91,1.9,4.41Z"/><path class="cls-9" d="M1.29,5.44l.25.13C1.3,6,1,6.21,1,6.13s.14-.27.33-.69Z"/><path class="cls-9" d="M1.29,5.49l.21.11C1.27,6,1,6.16,1,6.1S1.1,5.9,1.29,5.49Z"/><path class="cls-9" d="M0,0"/><path class="cls-10" d="M2.72,3.14A10.58,10.58,0,0,0,3.2,1a7.5,7.5,0,0,0-.69,1.9Z"/><path class="cls-11" d="M2.7,3.12a11.92,11.92,0,0,0,.48-2A8.79,8.79,0,0,0,2.53,3"/><path class="cls-12" d="M2.65,2.56,2.53,3l.17.16.12-.4-.17-.16Z"/><path class="cls-12" d="M2.66,2.61c0,.12-.06.22-.1.35l.13.12c0-.14.06-.23.1-.36l-.13-.11Z"/><path class="cls-13" d="M2.75,2.75l-.08-.08-.08.26L2.68,3Z"/><path class="cls-12" d="M2.75,2.75l-.16.18M2.68,3V2.67m.47-1.24-.09-.08"/><ellipse class="cls-14" cx="3.13" cy="1.27" rx="0.04" ry="0.02" transform="translate(1.72 4.33) rotate(-87.29)"/></g><path class="cls-8" d="M2.6,4.41c.72,1.42,1,1.59.89,1.71s-.61-.62-1.1-1.59-.78-1.82-.63-1.94S1.83,2.91,2.6,4.41Z"/><path class="cls-9" d="M3.21,5.44,3,5.57c.24.45.5.64.58.56s-.14-.27-.33-.69Z"/><path class="cls-9" d="M3.21,5.49,3,5.6c.23.43.46.56.52.5S3.4,5.9,3.21,5.49Z"/><path class="cls-9" d="M4.5,0"/><path class="cls-10" d="M1.78,3.14A10.58,10.58,0,0,1,1.3,1,7.5,7.5,0,0,1,2,2.94Z"/><path class="cls-11" d="M1.8,3.12a11.92,11.92,0,0,1-.48-2A8.79,8.79,0,0,1,2,3"/><path class="cls-12" d="M1.85,2.56,2,3l-.17.16-.12-.4.17-.16Z"/><path class="cls-12" d="M1.84,2.61c0,.12.06.22.1.35l-.13.12c0-.14-.06-.23-.1-.36l.13-.11Z"/><path class="cls-13" d="M1.75,2.75l.08-.08.08.26L1.82,3Z"/><path class="cls-12" d="M1.75,2.75l.16.18M1.82,3V2.67M1.36,1.43l.09-.08"/><ellipse class="cls-14" cx="1.37" cy="1.27" rx="0.02" ry="0.04" transform="translate(-0.06 0.07) rotate(-2.71)"/><path class="cls-15" d="M2,2.55A8.64,8.64,0,0,1,2,3.87c0,.06-.94,0-.94.27s.75.53,1,.53.45-.26.45-.8V2.55Z"/><path class="cls-15" d="M0,0"/><path class="cls-15" d="M0,0"/><ellipse class="cls-16" cx="2.05" cy="2.76" rx="0.02" ry="0.03"/><ellipse class="cls-16" cx="2.13" cy="2.77" rx="0.02" ry="0.03"/><ellipse class="cls-16" cx="2.21" cy="2.79" rx="0.02" ry="0.03"/><ellipse class="cls-16" cx="2.29" cy="2.79" rx="0.02" ry="0.03"/><ellipse class="cls-16" cx="2.37" cy="2.77" rx="0.02" ry="0.03"/><ellipse class="cls-16" cx="2.45" cy="2.76" rx="0.02" ry="0.03"/><path class="cls-5" d="M2,3.21l.45.72m-.41-.72.41.64m-.35-.61.35.53m-.3-.53.3.45m-.26-.45.26.37m-.21-.37.21.29m-.17-.29.17.21m-.12-.21.12.16M2.4,3.24l.08.1m0-.1,0,0M2,3.29,2.48,4m0-.8L2,4m.45-.8L2,3.9m.37-.66L2,3.77m.3-.53L2,3.69m.25-.45L2,3.61m.21-.37L2,3.53m.16-.29L2,3.45m.12-.21L2,3.4m.07-.16L2,3.34m0-.1,0,0m.45,0-.5.8m.5-.72-.5.8m.5-.72-.5.8m.5-.72-.5.8m.5-.72-.5.8m.5-.72L2,4.48m.5-.71L2,4.56m.5-.71L2,4.64m.5-.71L2,4.67M2.48,4l-.42.66m.4-.56-.33.53m.32-.42-.27.42m.24-.29-.14.21M2,3.37l.43.69M2,3.45l.43.69M2,3.53l.42.66M2,3.61l.42.66M2,3.69l.4.64M2,3.74l.41.64M2,3.82l.38.59M2,3.87l.37.59M2,3.93l.36.55M2,4l.35.53M2,4.09l.3.47"/><path class="cls-5" d="M2,3.08v.13a.69.69,0,0,0,.45,0V3.08A.86.86,0,0,1,2,3.08ZM2,4.17l.27.42M2,4.25l.24.37M2,4.33l.21.31M2,4.41l.15.23M2,4.48l.12.19M2,4.56l.08.11"/><ellipse class="cls-16" cx="2.05" cy="3.15" rx="0.02" ry="0.03"/><ellipse class="cls-16" cx="2.13" cy="3.17" rx="0.02" ry="0.03"/><ellipse class="cls-16" cx="2.21" cy="3.18" rx="0.02" ry="0.03"/><ellipse class="cls-16" cx="2.29" cy="3.18" rx="0.02" ry="0.03"/><ellipse class="cls-16" cx="2.37" cy="3.17" rx="0.02" ry="0.03"/><ellipse class="cls-16" cx="2.45" cy="3.15" rx="0.02" ry="0.03"/><path class="cls-5" d="M1.39,4.46l.53-.56m-.56.53.51-.53m-.53.48.47-.48m-.48.43.4-.43m-.43.37.37-.37m-.35.29.25-.26m-.27.21.19-.21m-.19.13.13-.13m0,.55L1.94,4m-.46.56L2,4m-.43.53L2,4.06m-.4.5.37-.39m-.31.39L2,4.22m-.28.37L2,4.3m-.23.32.22-.24m-.16.24L2,4.43m-.11.21L2,4.51m-.05.13L2,4.56"/><path class="cls-5" d="M0,0"/><path class="cls-17" d="M1.39,3.93,1.3,4a1.93,1.93,0,0,0,0,.48l.09.05a2.53,2.53,0,0,1,0-.55Z"/><path class="cls-18" d="M2.47,2.6V2.47c-.06,0-.11-.08-.11-.16H2.14c0,.08,0,.16-.11.16V2.6Z"/><path class="cls-19" d="M2.16,2.15h.19v.16H2.16Zm0-.16h.16v.16H2.17Zm0-.16h.16V2H2.17Z"/><path class="cls-19" d="M2.19,1.62h.13v.21H2.19Z"/><path class="cls-20" d="M2.18,1.43h.14v.19H2.18Z"/><ellipse class="cls-7" cx="2.26" cy="1.26" rx="0.18" ry="0.25"/><path class="cls-21" d="M2.35,1.25a.58.58,0,0,0,0,.18.19.19,0,0,1-.14.08.14.14,0,0,1-.14-.08.58.58,0,0,0,0-.18.41.41,0,0,0,0-.16A.17.17,0,0,1,2.26,1a.19.19,0,0,1,.14.08A.41.41,0,0,0,2.35,1.25Z"/><path class="cls-21" d="M2.32,1.25a.91.91,0,0,0,.05.21.11.11,0,0,1-.11.05s-.08,0-.11-.05a.91.91,0,0,0,.05-.21.68.68,0,0,0-.05-.19.15.15,0,0,1,.22,0A.68.68,0,0,0,2.32,1.25Z"/><ellipse class="cls-7" cx="2.08" cy="1.28" rx="0.05" ry="0.08"/><ellipse class="cls-7" cx="2.44" cy="1.28" rx="0.05" ry="0.08"/><ellipse class="cls-7" cx="2.26" cy="1.28" rx="0.05" ry="0.08"/><ellipse class="cls-7" cx="2.26" cy="1.01" rx="0.05" ry="0.08"/><ellipse class="cls-7" cx="2.12" cy="2.52" rx="0.05" ry="0.08"/><ellipse class="cls-7" cx="2.38" cy="2.52" rx="0.05" ry="0.08"/><path class="cls-22" d="M2.14,2.31h.22l-.11.24-.11-.24Z"/><ellipse class="cls-7" cx="2.25" cy="2.5" rx="0.06" ry="0.11"/><path class="cls-23" d="M2,3.29h.3s0,0,0,0v.1s0,0,0,0H2s0,0,0,0v-.1S2,3.29,2,3.29Z"/><path class="cls-9" d="M2.45,3.16s-.07.06-.07.14v.12c0,.07,0,.14.07.14s.08-.06.08-.14V3.3C2.53,3.22,2.49,3.16,2.45,3.16Zm0,0s0,0,0,.11v.07c0,.06,0,.11,0,.11s0,0,0-.11V3.32C2.5,3.26,2.48,3.21,2.45,3.21Zm-.38,0s0,0,0,.11v.12c0,.06,0,.11,0,.11s0,0,0-.11V3.3C2.11,3.23,2.09,3.19,2.07,3.19Zm0-.06S2,3.19,2,3.27v.17c0,.08,0,.14.08.14s.07-.06.07-.14V3.27C2.14,3.19,2.11,3.13,2.07,3.13Z"/><path class="cls-9" d="M2,3.24s-.05,0-.05.11v0c0,.06,0,.11.05.11s0-.05,0-.11v0C2,3.29,2,3.24,2,3.24Zm0-.05s-.08.06-.08.13V3.4c0,.08,0,.14.08.14S2,3.48,2,3.4V3.32C2,3.25,2,3.19,2,3.19Z"/><path class="cls-9" d="M1.77,3.17c-.05,0-.08.05-.08.12v.14c0,.07,0,.12.08.12s.08,0,.08-.12V3.29C1.85,3.22,1.81,3.17,1.77,3.17Zm0-.06a.15.15,0,0,0-.14.15v.2a.15.15,0,0,0,.14.15.14.14,0,0,0,.13-.15v-.2A.14.14,0,0,0,1.77,3.11Zm1,.08c-.05,0-.09.06-.09.13v.13c0,.07,0,.13.09.13s.08-.06.08-.13V3.32C2.82,3.25,2.78,3.19,2.74,3.19Zm0-.06a.15.15,0,0,0-.14.16v.19a.14.14,0,1,0,.27,0V3.29a.15.15,0,0,0-.13-.16Z"/><path class="cls-23" d="M2.49,3.29h.16s0,0,0,0v.1s0,0,0,0H2.49a0,0,0,0,1,0,0v-.1A0,0,0,0,1,2.49,3.29Z"/><path class="cls-23" d="M2.32,3.27h.1v.21h-.1V3.27Z"/><path class="cls-23" d="M1.83,3.27h.1v.21h-.1V3.27Z"/><path class="cls-23" d="M1.51,3.24H1.7a.12.12,0,0,1,0,0v.17a.1.1,0,0,1,0,0H1.51a.1.1,0,0,1,0,0V3.29A.12.12,0,0,1,1.51,3.24Z"/><path class="cls-23" d="M2.81,3.27H3a.1.1,0,0,1,0,0v.17a.12.12,0,0,1,0,0H2.81s0,0,0,0V3.31S2.8,3.27,2.81,3.27Z"/></svg>