<svg xmlns="http://www.w3.org/2000/svg" viewBox="0 0 18 17.99"><defs><style>.cls-1,.cls-2{fill:#009a67;stroke:#010101;}.cls-1{stroke-width:0.03px;}.cls-2{stroke-width:0.03px;}.cls-3{fill:#fff;}</style></defs><title>saudiarabia</title><g id="Layer_1" data-name="Layer 1"><rect class="cls-1" x="0.01" y="0.01" width="17.98" height="17.96"/></g><g id="Layer_2" data-name="Layer 2"><path class="cls-2" d="M9.13,9.13" transform="translate(0 -0.02)"/><path class="cls-3" d="M2.61,5.06c.1-.27.1-.51,0-.42s-.15,0-.08-.09.22-.15.24.06A.82.82,0,0,1,2.61,5.06Z" transform="translate(0 -0.02)"/><path class="cls-3" d="M3.41,6.51c0,.34.12,1,.13,1.18s0,.16.1,0a1,1,0,0,0,0-.43c0-.19,0-.5-.06-.91a1.2,1.2,0,0,0,.17-.21c.07-.14.08-.13.11,0s.28.37.58.15.16-.6,0-1.05c.1,0,.13-.06.08-.17a.83.83,0,0,0-.13-.18c0-.06-.1-.11-.14,0L4.2,5s0,.07,0,.17a2.75,2.75,0,0,1,.21.69c0,.16,0,.19-.13.19A.29.29,0,0,1,4,5.81a1.49,1.49,0,0,1-.07-.47.52.52,0,0,0-.08-.4c-.1-.15-.12-.13-.14-.05a.57.57,0,0,0,0,.34c0,.21.07.39.1.51a.42.42,0,0,1-.19.35c0-.28-.07-.65-.09-1,.16,0,.07-.26,0-.5s-.13-.11-.2,0,0,.17,0,.26,0,.19.05.39,0,.51.07.83a.26.26,0,0,1-.25-.2.78.78,0,0,1,0-.58c0-.13.09-.36,0-.41S3,4.94,2.89,5a1.45,1.45,0,0,0-.23.66.91.91,0,0,1-.08.37c0,.08-.1.09-.17,0a2,2,0,0,1-.13-.86c0-.11,0-.14-.07,0a1.83,1.83,0,0,0,.12,1.13c.1.21.24.16.33,0a5.39,5.39,0,0,0,.21-.84c.08-.24.1-.06.08.08C2.87,5.92,2.89,6.52,3.41,6.51Z" transform="translate(0 -0.02)"/><path class="cls-3" d="M3.81,4.56a.27.27,0,0,0,0,.23A.13.13,0,0,0,4,4.8H4c.06-.06.06-.07.1,0a.09.09,0,0,0,.12,0l0,0s0-.1,0-.16,0,0,0,0-.13.09-.13,0,0-.07-.08,0-.15.1-.15,0S3.86,4.43,3.81,4.56Z" transform="translate(0 -0.02)"/><path class="cls-3" d="M2.3,7.36a1.83,1.83,0,0,1,.79-.55c.11,0,.17-.08.17,0s0,.11-.1.13a3.82,3.82,0,0,0-.81.4C2.28,7.43,2.19,7.49,2.3,7.36Z" transform="translate(0 -0.02)"/><path class="cls-3" d="M2.49,8a1.21,1.21,0,0,1,0,.19.79.79,0,0,1-.06.22c-.11.39.06.59.15.44s.13-.13.13,0c0,.4-.39.43-.42.1a1.49,1.49,0,0,1,.11-.8C2.43,8,2.48,7.88,2.49,8Z" transform="translate(0 -0.02)"/><path class="cls-3" d="M4.46,7.15l-.11,0c-.16.05-.19,0-.19-.12s0-.13.13-.08a.37.37,0,0,1,.16.17l.25-.1a.86.86,0,0,0-.21-.29c-.17-.16-.3-.17-.44,0a.47.47,0,0,0-.12.42c0,.18,0,.24.11.29a.34.34,0,0,0,.28,0l.25-.09a.36.36,0,0,1-.05.27c-.34.42-.88.71-1.11.44a.86.86,0,0,1-.15-.66c0-.23,0-.13-.06,0a1.26,1.26,0,0,0,0,.86c.15.28.41.39.81.21a1.1,1.1,0,0,0,.77-.93c0-.08,0-.15,0-.21l.15-.09c0,.15,0,.34,0,.49a.76.76,0,0,1-.33.75,2,2,0,0,1-.83.35C3.13,8.93,3,8.52,3,8l0-.27c0-.23,0-.19-.11,0A1.76,1.76,0,0,0,3,8.93c.22.42,1,.3,1.55,0a1.23,1.23,0,0,0,.62-1.34c0-.14,0-.29,0-.45l0,0c.08.27.47.2.59,0s.06-.09.13,0,.37.16.44,0a.88.88,0,0,0,0-.48c0-.13,0-.12-.13,0s0,.09,0,.18c0,.35-.26.32-.3,0s-.06-.14-.09,0c-.13.44-.51.52-.47,0,0-.14-.08-.09-.13,0l-.13.12c0-.41-.07-.88-.11-1.44.11.14.22,0,.15-.17A5.81,5.81,0,0,1,5,4.66c0-.15-.08-.1-.2,0s-.09.16,0,.29a4.48,4.48,0,0,0,0,.64c0,.24.1.72.14,1.33a2,2,0,0,1-.2.11Z" transform="translate(0 -0.02)"/><path class="cls-3" d="M5.79,7.8a.54.54,0,0,1,0,.28c0,.08,0,.12.06,0a.57.57,0,0,0,.06-.36c0-.1,0-.13-.1-.17s-.11,0-.14.1S5.66,7.86,5.79,7.8Z" transform="translate(0 -0.02)"/><path class="cls-3" d="M6,5.75c-.11.14-.2.34,0,.47s.26,0,.32-.16,0-.16-.07,0S5.94,6,6.1,5.8,6.16,5.6,6,5.75Z" transform="translate(0 -0.02)"/><path class="cls-3" d="M6.28,4.92a.61.61,0,0,0,0-.12c0-.06,0-.11-.07,0s0,.1,0,.14l-.1.18a.32.32,0,0,1-.07-.39c.1-.28.48-.25.39.12A1.8,1.8,0,0,1,6.42,5c0,.07,0,.17-.08.14a1.72,1.72,0,0,1-.76.6c-.19.08-.22,0-.08-.07a2.52,2.52,0,0,0,.69-.61Z" transform="translate(0 -0.02)"/><path class="cls-3" d="M6.71,5a1.09,1.09,0,0,0,.16,1.16c.18.2.31.11.39-.1s.13-.42.19-.55.1-.11.09,0,0,.68.22.83.66-.11.8-.39c.42.57.79.3.83-.23a2,2,0,0,0-.11-.64c0-.11,0-.11.05,0s.18.1.12-.09a.72.72,0,0,0-.24-.36c-.09-.08-.11,0-.15,0s0,.08-.09.13,0,.08,0,.18c.17.4.32,1,.06,1.06s-.38-.45-.39-.68a2.44,2.44,0,0,0-.1-.71c-.06-.16-.09-.19-.13-.1a1.42,1.42,0,0,1-.08.18c0,.07,0,.08,0,.21.15.66.13.95-.17,1.12s-.45,0-.46-.2a4.56,4.56,0,0,1,0-.64c0-.18.06-.22,0-.31s-.12-.06-.21.06a3.73,3.73,0,0,0-.43.9c-.06.21-.2.13-.29,0a1.43,1.43,0,0,1,0-.74C6.79,4.85,6.77,4.79,6.71,5Z" transform="translate(0 -0.02)"/><path class="cls-3" d="M8,4.59c-.06.07-.07.08,0,.16a.87.87,0,0,1,.11.48c0,.1,0,.2.05,0a1.09,1.09,0,0,0,0-.54C8.06,4.58,8,4.54,8,4.59Z" transform="translate(0 -0.02)"/><path class="cls-3" d="M9.32,7l.21,0c.2,0,.08-.06,0-.15s-.19-.08-.18,0a1.11,1.11,0,0,0,0,.19l-.24.07c-.16-.23-.06-.4.06-.58s.39-.15.68,0,.16.5-.1.66l-.25.11c0,.07,0,.09-.1,0a5.28,5.28,0,0,0-.78.31c.27,0,1.39,0,1.61,0s.19,0,.13.21-.14.17-.33.2A5.53,5.53,0,0,0,9,8.38c-.32.12-.21.36.12.48s.22.09.18.24,0,.18-.34.13a1.32,1.32,0,0,1-1.15-.86c-.47.66-.92,1-1.35.91a.49.49,0,0,1-.34-.49A8.22,8.22,0,0,1,5,9.19c-.1,0-.19,0-.06-.08a9.33,9.33,0,0,0,1.15-.67,2.78,2.78,0,0,1,.21-.57c0-.1.07-.06.07,0s0,.23,0,.36l.21-.16c.26-.24.55-.38.35-.76-.08-.16-.15-.28-.18-.36s-.11-.16,0-.32.1-.19.25,0S7.18,7,7,7a1,1,0,0,1-.18,1.27,2.77,2.77,0,0,1-.55.42c0,.16,0,.32.35.28s.82-.58,1-1c-.09-.32-.27-.9-.39-1.2s0-.22.05-.34.09-.19.15,0a5.47,5.47,0,0,1,.36,1c.1.48.08.89.33,1.11a.86.86,0,0,0,.39.2c-.11-.32.12-.55.44-.67a1.27,1.27,0,0,0-.81-.16c-.24,0-.21,0-.15-.26s.15-.24.32-.32.48-.18.73-.25Z" transform="translate(0 -0.02)"/><path class="cls-3" d="M8.24,6.63a.33.33,0,0,0,.06.27.09.09,0,0,0,.13,0,.08.08,0,0,0,0,0c0-.09,0-.1.1,0s.28,0,.18-.32c-.05-.13-.07-.1-.07,0s-.07.23-.15,0-.07-.09-.08,0-.09.25-.15,0S8.26,6.49,8.24,6.63Z" transform="translate(0 -0.02)"/><path class="cls-3" d="M11,4.6c0,.07-.06.13,0,.19a.36.36,0,0,1,.14.37c0,.13,0,.23.08,0a.64.64,0,0,0-.07-.57C11.09,4.49,11,4.52,11,4.6Z" transform="translate(0 -0.02)"/><path class="cls-3" d="M11.7,8a7.28,7.28,0,0,0-1-2c0-.23,0-.45,0-.64.08.09.14,0,.11-.08s-.15-.43-.24-.64-.14-.13-.19,0-.07.21,0,.33,0,.36.05.56c-.1-.14-.23-.33-.33-.49.15.06.26,0,.11-.14a6,6,0,0,0-.45-.42c-.12-.11-.18,0-.17.06a1.18,1.18,0,0,1,0,.26c0,.08,0,.14.14.19.24.32.48.64.71,1,0,.28.08.59.11.84a6.53,6.53,0,0,1,.09,1.7c-.07.25,0,.36.12,0a3,3,0,0,0,0-1.31c0-.23,0-.51-.07-.77A13.51,13.51,0,0,1,11.6,8C11.68,8.26,11.76,8.31,11.7,8Z" transform="translate(0 -0.02)"/><path class="cls-3" d="M11.08,5.65c0,.11.08.16.1,0s.06-.16.08,0,.1.11.12,0,.07-.19.09,0a.55.55,0,0,1,0,.22.09.09,0,0,1-.11.05l0,0c-.06,0-.08,0-.12,0s-.14,0-.16-.1S11.06,5.58,11.08,5.65Z" transform="translate(0 -0.02)"/><path class="cls-3" d="M9.58,8.81a1.35,1.35,0,0,1,.21-.13c.07,0,.13,0,.08.14s0,.24.08.19a2.61,2.61,0,0,0,.28-.12c.1,0,.18,0,0,.07a1.2,1.2,0,0,1-.34.21c-.19.05-.28,0-.24-.17s.06-.2,0-.15S9.53,8.84,9.58,8.81Z" transform="translate(0 -0.02)"/><path class="cls-3" d="M11.91,5.25c.07.07.16.07.11-.07s-.08-.31-.12-.47-.08-.19-.14-.11a2.06,2.06,0,0,0-.15.16.21.21,0,0,0,0,.24,24.39,24.39,0,0,1,.23,2.55c0,.52.1.77-.22,1.12a1.5,1.5,0,0,1-.73.52c-.19.05-.26.13,0,.12.44,0,.5,0,.86-.46a1.61,1.61,0,0,0,.29-1.21C12.05,6.43,11.89,5.91,11.91,5.25Z" transform="translate(0 -0.02)"/><path class="cls-3" d="M12.56,5.3c.13.07.25.11.16,0a3.32,3.32,0,0,1-.24-.59c-.07-.19-.08-.17-.18,0s0,.47,0,.76c.13,1,.26,2,.3,2.27a2.1,2.1,0,0,1,0,.83c0,.1,0,.13.08,0a1.82,1.82,0,0,0,.05-1.21c0-.42-.19-1.56-.22-2" transform="translate(0 -0.02)"/><path class="cls-3" d="M13.2,6.06c0,.09-.14.08-.13,0a.38.38,0,0,0,0-.15.09.09,0,0,1,.07-.09.09.09,0,0,1,.07,0,2.31,2.31,0,0,1,.18.35c0,.08,0,.06,0-.05s0-.21,0-.31a.2.2,0,0,1,.1-.15c.06,0,.09-.06.12,0s.08.09,0,.16-.13-.1-.17,0a1.63,1.63,0,0,0,0,.44c0,.09,0,.22-.11.07A1.45,1.45,0,0,0,13.2,6.06Z" transform="translate(0 -0.02)"/><path class="cls-3" d="M13.17,7.2c0-.06,0-.08.14-.18s.35-.25.44-.34.15-.16.16-.06,0,.15-.07.2a4.34,4.34,0,0,0-.46.28C13.29,7.17,13.17,7.27,13.17,7.2Z" transform="translate(0 -0.02)"/><path class="cls-3" d="M15.71,7.94a1,1,0,0,0-.22-.52L15,6.74c0-.56-.11-1.16-.12-1.47.08.07.13,0,.1-.12s-.11-.45-.16-.58-.11-.11-.18,0-.11.18-.07.27a11.35,11.35,0,0,0,.18,1.54l-.42-.58c0-.2,0-.41,0-.62.09.07.12.06.08-.07s-.14-.39-.19-.52-.08-.13-.14,0A.33.33,0,0,0,14,5q0,.21,0,.39l-.22-.32c.08,0,.15,0,.06-.11a2.13,2.13,0,0,1-.34-.33c-.08-.11-.16-.1-.16,0a1.13,1.13,0,0,1,0,.26.32.32,0,0,0,.09.28c.22.26.43.53.62.79a14.08,14.08,0,0,1,.1,1.89c0,.22-.08.35-.2.39s-.24,0-.36-.21-.27-.24-.43,0a6.31,6.31,0,0,0-.34.63c-.08.17-.21.32-.32.09a1.31,1.31,0,0,1-.13-.65c0-.18,0-.32-.09,0-.17.68-.07.83.12,1s.31.22.43,0c.24-.34.31-.64.44-.8s.12,0,.17,0a.65.65,0,0,0,.46.27c.19,0,.55-.13.52-.77,0-.39-.05-.93-.09-1.5.19.26.35.5.49.68A4.58,4.58,0,0,1,15,8c0,.31,0,.31.11,0a4.33,4.33,0,0,0,0-.72,7.75,7.75,0,0,1,.5.72C15.69,8.17,15.74,8.33,15.71,7.94Z" transform="translate(0 -0.02)"/><path class="cls-3" d="M15.18,4.86c-.06.09,0,.11,0,.22a1.06,1.06,0,0,1,.13.47c0,.16,0,.14.08,0a1.31,1.31,0,0,0-.06-.62C15.25,4.72,15.22,4.79,15.18,4.86Z" transform="translate(0 -0.02)"/><path class="cls-3" d="M15.93,5.15c.11.1.16.07.09-.09s-.14-.32-.21-.48-.09-.12-.18,0-.1.19-.06.26c.18,1.48.26,2.25.28,2.7A1.38,1.38,0,0,1,15.1,9c-.21.14-.44.3.05.18s1-.45,1-1.8C16.06,6.15,15.9,5.61,15.93,5.15Z" transform="translate(0 -0.02)"/><path class="cls-3" d="M14.63,8.7c0,.09-.23,0-.15-.09a.17.17,0,0,1,.23,0l0,0c.14.18-.07.41-.17.48s-.18.07,0-.06S14.69,8.78,14.63,8.7Z" transform="translate(0 -0.02)"/><path class="cls-3" d="M3.92,12.92c3.09,0,6.78.08,9.92,0,.34,0,.49,0,.52.34s0,.45-.23.46-.3-.16-.21-.46c-4,.12-6.9.13-7.82.11S4.22,13.41,3.92,12.92Z" transform="translate(0 -0.02)"/><path class="cls-3" d="M13.46,13.52s-.08-.08-.11-.08-.1,0-.1.09h-.43a.44.44,0,0,0-.08-.11v-.6c.12-.14.1-.16,0-.28s-.08-.13-.16,0-.09.14,0,.28v.6c-.11.14-.09.16,0,.28s.11.06.15,0l0-.06h.44s.08.09.11.09.1,0,.1-.09l.64,0v-.11Z" transform="translate(0 -0.02)"/></g></svg>